<svg width="35" height="35" viewBox="0 0 35 35" fill="none" xmlns="http://www.w3.org/2000/svg">
<path d="M17.6343 0C8.1271 0 0.411133 7.72242 0.411133 17.2375C0.411133 26.7527 8.1271 34.4751 17.6343 34.4751C27.1414 34.4751 34.8574 26.7527 34.8574 17.2375C34.8574 7.72242 27.1414 0 17.6343 0ZM25.6258 11.7215C25.3675 14.4451 24.2479 21.0643 23.6796 24.1153C23.4385 25.4081 22.9562 25.8391 22.5084 25.8908C21.5095 25.977 20.7517 25.2358 19.7872 24.598C18.2715 23.5982 17.4104 22.9776 15.9464 22.0123C14.2413 20.8919 15.3436 20.2713 16.3253 19.2716C16.5837 19.013 20.9928 14.9967 21.0789 14.6347C21.0909 14.5798 21.0893 14.5229 21.0743 14.4689C21.0592 14.4148 21.0313 14.3652 20.9928 14.3244C20.8894 14.2382 20.7517 14.2727 20.6311 14.2899C20.4761 14.3244 18.0648 15.9275 13.3629 19.0992C12.674 19.5646 12.054 19.8059 11.5028 19.7887C10.8828 19.7715 9.71162 19.4439 8.83324 19.1509C7.74819 18.8062 6.90425 18.6165 6.97315 18.0132C7.00759 17.703 7.43817 17.3927 8.24766 17.0652C13.2768 14.876 16.6181 13.428 18.2887 12.7385C23.0768 10.739 24.0585 10.3942 24.713 10.3942C24.8508 10.3942 25.178 10.4287 25.3847 10.6011C25.5569 10.739 25.6086 10.9286 25.6258 11.0665C25.6086 11.1699 25.643 11.4802 25.6258 11.7215Z" fill="white"/>
</svg>
