<svg width="36" height="26" viewBox="0 0 36 26" fill="none" xmlns="http://www.w3.org/2000/svg">
<path fill-rule="evenodd" clip-rule="evenodd" d="M9.37836 0.98174C15.1232 0.530175 20.8946 0.530175 26.6394 0.98174L30.4974 1.28512C31.5423 1.36665 32.5298 1.79588 33.3027 2.5044C34.0756 3.21292 34.5892 4.15996 34.7618 5.19459C35.6522 10.521 35.6522 15.956 34.7618 21.2807C34.5893 22.315 34.0759 23.2619 33.3034 23.9704C32.5309 24.6789 31.5437 25.1082 30.4991 25.1901L26.6411 25.4918C20.8957 25.9435 15.1238 25.9435 9.37836 25.4918L5.52038 25.1901C4.47547 25.1086 3.4879 24.6794 2.71504 23.9709C1.94219 23.2623 1.42853 22.3153 1.25593 21.2807C0.366513 15.9556 0.366513 10.5197 1.25593 5.19459C1.42845 4.16023 1.94186 3.21339 2.71437 2.5049C3.48688 1.79641 4.47405 1.36702 5.51866 1.28512L9.37836 0.98174ZM14.5642 17.4953V8.97996C14.5644 8.88857 14.5887 8.79886 14.6348 8.71994C14.6808 8.64103 14.7469 8.57574 14.8264 8.53072C14.9059 8.4857 14.9958 8.46256 15.0871 8.46366C15.1784 8.46475 15.2678 8.49004 15.3462 8.53695L22.4369 12.7946C22.5133 12.8406 22.5764 12.9056 22.6202 12.9832C22.6641 13.0608 22.6871 13.1485 22.6871 13.2376C22.6871 13.3268 22.6641 13.4144 22.6202 13.4921C22.5764 13.5697 22.5133 13.6346 22.4369 13.6806L15.3462 17.9383C15.2678 17.9852 15.1784 18.0105 15.0871 18.0116C14.9958 18.0127 14.9059 17.9896 14.8264 17.9445C14.7469 17.8995 14.6808 17.8342 14.6348 17.7553C14.5887 17.6764 14.5644 17.5867 14.5642 17.4953Z" fill="white"/>
</svg>
