<svg width="1920" height="194" viewBox="0 0 1920 194" fill="none" xmlns="http://www.w3.org/2000/svg">
<g clip-path="url(#clip0_617_706)">
<path d="M42.4657 165.105C-27.0853 165.105 -97.6028 152.111 -162.592 127.226C-195.777 114.517 -226.924 98.9547 -255.165 80.9722C-283.093 63.1901 -307.643 43.3883 -328.138 22.1099L-327.804 21.7302C-239.851 113.045 -87.5848 169.002 60.1048 164.298C152.674 161.35 244.227 134.398 332.766 108.336C381.769 93.9133 432.438 78.9947 482.596 68.3686C538.843 56.4506 588.532 51.2932 634.514 52.601C724.899 55.1797 810.968 81.9214 894.195 107.788C966.418 130.232 1041.1 153.435 1118.47 160.86C1274.33 175.805 1434.1 138.49 1555.88 104.302C1585.59 95.9594 1615.68 87.1052 1644.77 78.5464C1751.45 47.1482 1861.77 14.6796 1978.12 0.272461L1978.17 0.794533C1861.86 15.1963 1751.56 47.6598 1644.89 79.0579C1615.8 87.622 1585.71 96.4762 1555.99 104.819C1473.04 128.106 1404.67 143.421 1340.85 153.018C1259.7 165.221 1186.94 167.958 1118.42 161.387C1041 153.962 966.302 130.748 894.06 108.299C810.856 82.4435 724.821 55.7123 634.5 53.1336C532.087 50.2068 430.82 80.023 332.891 108.853C244.324 134.925 152.746 161.883 60.1144 164.836C54.2428 165.021 48.3518 165.116 42.4609 165.116L42.4657 165.105Z" fill="#8D8D8D" fill-opacity="0.4"/>
<path d="M1230.38 162.436C1197.26 162.436 1164.68 160.627 1133.03 157.02C1105.12 153.756 1075.23 148.441 1041.65 140.768C1000.39 131.418 960.165 120.027 921.263 109.006C871.902 95.0257 820.865 80.5658 768.624 70.657C723.357 62.0718 684.846 57.8741 647.432 57.4364C562.078 56.4187 478.614 76.1678 400.442 96.4811C385.92 100.225 371.214 104.107 356.992 107.861C310.536 120.122 262.5 132.794 215.053 142.265C161.918 152.87 114.815 158.307 71.041 158.903C8.35712 159.747 -56.2598 152.021 -115.831 136.544C-196.174 115.677 -268.001 79.9383 -329.317 30.3309L-329.027 29.909C-267.764 79.4742 -195.995 115.186 -115.715 136.037C-56.1873 151.499 8.39093 159.225 71.0361 158.381C168.505 157.063 260.006 132.921 356.881 107.36C371.103 103.606 385.809 99.7243 400.331 95.9801C478.532 75.6615 562.03 55.8966 647.437 56.9196C684.875 57.3573 723.41 61.5603 768.707 70.1455C820.966 80.0543 872.018 94.5141 921.383 108.499C960.276 119.516 1000.5 130.912 1041.74 140.256C1075.31 147.924 1105.19 153.239 1133.08 156.498C1223.48 166.797 1322.13 162.188 1418.36 143.172C1471.66 132.678 1523.21 118.471 1571.44 104.818C1592.13 98.9807 1613.14 92.9163 1633.46 87.0574C1747.3 54.2196 1865.02 20.2691 1987.35 7.58643L1987.4 8.11377C1865.1 20.7912 1747.4 54.7417 1633.59 87.569C1613.26 93.4331 1592.25 99.4923 1571.56 105.33C1523.32 118.983 1471.77 133.195 1418.45 143.694C1371.46 152.981 1323.89 158.887 1277.05 161.255C1261.41 162.046 1245.83 162.442 1230.37 162.442L1230.38 162.436Z" fill="#8D8D8D" fill-opacity="0.4"/>
<path d="M1269.65 160.839C1229.08 160.839 1188.16 158.123 1147.64 152.665C1113.6 148.082 1080.81 141.063 1056.04 135.463C1020.2 127.484 985.812 118.614 952.564 110.04C895.249 95.258 841.114 81.2992 781.847 72.0496C735.642 64.8407 697.039 61.5606 660.359 61.7558C573.198 62.1671 483.935 83.3295 412.209 100.331C403.748 102.309 395.315 104.291 386.901 106.269C284.773 130.284 188.247 152.981 85.0122 152.981C83.9926 152.981 82.9825 152.981 81.9629 152.976C16.6356 152.691 -49.7936 145.409 -110.153 131.919C-187.76 114.575 -257.78 84.901 -330.501 38.5367L-330.259 38.0832C-257.586 84.4158 -187.615 114.068 -110.056 131.402C-49.726 144.887 16.6742 152.169 81.9677 152.449C186.309 152.876 283.696 130 386.804 105.752C395.218 103.775 403.651 101.792 412.113 99.8143C483.858 82.8021 573.15 61.6345 660.359 61.2284C697.063 61.0438 735.69 64.3134 781.914 71.5275C841.206 80.7824 895.35 94.7465 952.675 109.528C985.923 118.103 1020.3 126.967 1056.14 134.946C1080.89 140.547 1113.67 147.56 1147.7 152.143C1244.15 165.131 1342.98 162.59 1433.49 144.802C1482.41 135.252 1529.94 121.657 1575.91 108.51C1579.61 107.45 1583.31 106.396 1587 105.341C1596.98 102.509 1606.96 99.6614 1616.95 96.819C1739.75 61.8085 1866.74 25.6062 1996.6 14.9116L1996.64 15.439C1866.82 26.1283 1739.85 62.3253 1617.08 97.3305C1607.09 100.178 1597.11 103.021 1587.13 105.852C1583.43 106.907 1579.74 107.967 1576.03 109.022C1530.06 122.174 1482.52 135.774 1433.58 145.324C1381.05 155.65 1325.7 160.839 1269.65 160.839H1269.65Z" fill="#8D8D8D" fill-opacity="0.4"/>
<path d="M1307.95 159.683C1260.41 159.683 1211.39 155.855 1162.25 148.309C1130.22 143.388 1099.83 136.665 1070.44 130.157C1044.04 124.314 1018.78 118.345 994.346 112.576C927.932 96.8924 865.204 82.074 795.073 73.4413C747.245 67.5509 709.691 65.2833 673.291 66.0743C595.066 67.7302 516.56 84.4629 440.635 100.642C435.082 101.823 429.534 103.01 423.982 104.186C365.26 116.642 312.324 127.589 259.049 135.452C197.772 144.501 144.975 148.187 92.8893 147.054C24.4353 145.566 -43.8109 138.737 -104.475 127.294C-181.014 112.86 -246.839 89.5201 -331.685 46.7418L-331.482 46.2619C-246.679 89.0244 -180.888 112.349 -104.393 126.777C-43.7481 138.215 24.4739 145.044 92.8989 146.526C209.819 149.068 318.645 125.986 423.89 103.664C429.438 102.488 434.99 101.306 440.543 100.12C516.487 83.9355 595.017 67.2028 673.282 65.5417C709.7 64.7454 747.279 67.0182 795.126 72.9087C865.281 81.5466 928.023 96.3651 994.448 112.054C1018.88 117.823 1044.14 123.792 1070.54 129.635C1099.92 136.137 1130.31 142.866 1162.31 147.781C1264.65 163.496 1363.65 163.032 1448.61 146.426C1492.81 137.878 1535.55 125.39 1576.89 113.314C1585.3 110.857 1594 108.315 1602.56 105.852C1726.25 70.5567 1866.45 30.5576 2005.83 22.2202L2005.85 22.7476C1866.52 31.0849 1726.35 71.0788 1602.68 106.364C1594.12 108.826 1585.42 111.368 1577.01 113.825C1535.66 125.902 1492.91 138.395 1448.69 146.948C1405.48 155.391 1358.15 159.678 1308.02 159.683H1307.94H1307.95Z" fill="#8D8D8D" fill-opacity="0.4"/>
<path d="M1344.23 159.167C1282.03 159.167 1222.79 151.863 1176.85 143.953C1150.9 139.481 1126.12 133.986 1102.16 128.676C1096.3 127.378 1090.53 126.097 1084.85 124.852C1072.09 122.068 1059.62 119.31 1047.55 116.642C964.746 98.3427 893.238 82.5328 808.305 74.8283C775.395 71.8435 731.776 68.6425 686.228 70.3881C615.585 73.0459 544.367 86.9309 475.497 100.357C462.468 102.899 448.995 105.525 435.759 108.03C311.353 131.576 212.429 145.324 103.825 141.132C31.1623 138.326 -38.901 131.94 -98.7868 122.669C-185.74 109.206 -252.817 86.7727 -332.859 54.9421L-332.695 54.4464C-252.686 86.2664 -185.634 108.694 -98.724 122.147C-38.8527 131.413 31.1961 137.799 103.84 140.604C212.4 144.802 311.299 131.054 435.676 107.513C448.913 105.008 462.386 102.382 475.415 99.8403C544.304 86.4088 615.537 72.5185 686.214 69.8607C731.79 68.1099 775.424 71.3162 808.348 74.301C893.311 82.0107 964.833 97.8153 1047.65 116.125C1059.72 118.793 1072.19 121.546 1084.95 124.336C1090.64 125.58 1096.41 126.856 1102.27 128.159C1126.22 133.469 1151 138.964 1176.94 143.436C1252.06 156.377 1362.78 167.683 1463.75 148.066C1505.27 140.098 1545.22 128.127 1583.84 116.552C1595.07 113.187 1606.68 109.707 1618.14 106.385C1738.72 71.7802 1878.79 34.4547 2015.08 29.5557L2015.09 30.083C1878.85 34.9821 1738.82 72.3023 1618.26 106.896C1606.8 110.218 1595.19 113.699 1583.96 117.063C1545.33 128.644 1505.38 140.62 1463.83 148.588C1424.55 156.219 1383.79 159.172 1344.23 159.172L1344.23 159.167Z" fill="#8D8D8D" fill-opacity="0.4"/>
<path d="M1377.2 159.014C1364.81 159.014 1352.07 158.687 1339 158.038C1293.39 155.771 1243.75 149.564 1191.46 139.592C1170.05 135.51 1149.5 130.843 1129.63 126.329C1119.05 123.93 1109.07 121.662 1099.24 119.542C995.148 97.1194 919.576 81.9898 821.527 76.2154C785.761 74.1113 743.248 72.2814 699.156 74.7019C635.877 78.1138 571.84 89.6944 509.91 100.89C489.454 104.587 468.302 108.41 447.526 111.875C315.905 133.828 216.382 140.799 114.747 135.204C32.211 130.659 -35.7839 125.042 -93.118 118.044C-182.014 107.192 -246.375 90.3746 -334.053 63.1425L-333.922 62.6362C-246.273 89.8578 -181.927 106.67 -93.0649 117.522C-35.7404 124.52 32.24 130.136 114.767 134.682C216.368 140.277 315.861 133.306 447.449 111.358C468.219 107.893 489.372 104.07 509.828 100.373C571.773 89.1723 635.824 77.597 699.131 74.1798C743.248 71.7593 785.775 73.5839 821.556 75.6933C919.639 81.4678 995.226 96.6026 1099.34 119.031C1109.16 121.145 1119.15 123.413 1129.73 125.818C1149.6 130.332 1170.14 134.999 1191.55 139.08C1270.11 154.062 1383.74 168.068 1478.86 149.696C1518.72 142.118 1556.81 130.379 1593.66 119.025C1606.75 114.991 1620.29 110.82 1633.69 106.902C1709.63 84.9852 1771.68 69.6025 1828.97 58.4966C1900.78 44.5799 1964.68 37.5029 2024.31 36.8701V37.3975C1888.97 38.8371 1750.97 73.5998 1633.82 107.413C1620.42 111.331 1606.88 115.503 1593.79 119.532C1556.94 130.885 1518.83 142.629 1478.95 150.213C1448.61 156.071 1414.51 159.014 1377.2 159.014Z" fill="#8D8D8D" fill-opacity="0.4"/>
<path d="M1407.56 159.246C1350.02 159.246 1282.62 151.23 1206.07 135.241C1188.25 131.518 1171.05 127.468 1154.42 123.55C1140.12 120.18 1126.61 117 1113.64 114.242C1012.13 92.6681 937.626 80.4443 834.749 77.6124C796.228 76.5525 754.706 75.9882 712.083 79.031C655.995 82.9703 599.033 92.6681 543.946 102.05C516.183 106.775 487.472 111.663 459.293 115.74C339.773 133.031 236.877 137.208 125.669 129.298C108.721 128.09 91.2414 126.882 74.3321 125.712C19.6897 121.925 -36.8084 118.012 -87.4445 113.435C-173.093 105.688 -235.622 95.0728 -335.247 71.3581L-335.145 70.8413C-235.545 94.5508 -173.03 105.166 -87.4059 112.908C-36.7746 117.485 19.7235 121.398 74.3611 125.184C91.2704 126.355 108.75 127.568 125.698 128.77C236.872 136.686 339.739 132.504 459.226 115.217C487.4 111.141 516.106 106.253 543.869 101.528C598.966 92.1461 655.937 82.4482 712.049 78.5036C754.697 75.4608 796.228 76.0251 834.763 77.0851C937.674 79.9222 1012.2 92.1513 1113.74 113.725C1126.71 116.483 1140.22 119.663 1154.52 123.033C1171.15 126.951 1188.35 131.001 1206.16 134.724C1325.1 159.567 1421.94 165.152 1493.99 151.325C1532.73 144.021 1569.52 132.361 1605.1 121.082C1619.52 116.515 1634.43 111.79 1649.25 107.423C1720.36 86.7724 1783.43 71.6798 1842.08 61.2805C1912.32 48.8246 1974.94 43.2348 2033.54 44.1892L2033.53 44.7166C1926 42.9553 1803.93 63.0524 1649.37 107.93C1634.55 112.296 1619.64 117.016 1605.23 121.588C1569.64 132.868 1532.83 144.533 1494.06 151.842C1468.34 156.778 1439.46 159.24 1407.56 159.24L1407.56 159.246Z" fill="#8D8D8D" fill-opacity="0.4"/>
<path d="M1435.14 159.784C1376.74 159.784 1305.83 150.197 1220.68 130.885C1205.83 127.521 1191.42 123.972 1177.49 120.544C1160.01 116.241 1143.5 112.18 1128.04 108.937C1016.65 85.5863 946.334 75.1501 847.981 78.9997C833.961 79.5481 819.488 79.796 805.492 80.0386C779.358 80.4868 752.334 80.9509 725.01 83.345C675.954 87.5849 625.99 95.7377 577.673 103.621C542.704 109.327 506.542 115.228 471.061 119.584C361.331 133.068 261.306 134.197 136.591 123.365C74.9505 118.013 8.56 114.116 -50.0113 110.672C-60.7832 110.039 -71.386 109.417 -81.7712 108.795C-174.814 103.242 -233.66 97.6994 -336.44 79.5376L-336.363 79.0155C-233.607 97.172 -174.77 102.714 -81.7471 108.267C-71.3618 108.884 -60.759 109.512 -49.9919 110.139C8.5842 113.578 74.9747 117.48 136.624 122.833C261.306 133.659 361.307 132.531 471.003 119.052C506.474 114.696 542.632 108.795 577.596 103.089C625.922 95.2051 675.896 87.0523 724.966 82.8071C752.305 80.413 779.338 79.9489 805.483 79.5007C819.473 79.2581 833.942 79.0103 847.961 78.4618C946.363 74.6122 1016.71 85.0484 1128.13 108.41C1143.6 111.653 1160.11 115.719 1177.59 120.022C1191.53 123.45 1205.93 126.999 1220.77 130.363C1345.78 158.713 1440.1 166.107 1509.1 152.949C1547.07 145.851 1582.9 134.176 1617.55 122.88C1632.96 117.855 1648.89 112.66 1664.81 107.94C1809.33 65.7159 1936.49 46.7314 2042.78 51.5144L2042.76 52.0418C1936.53 47.264 1809.41 66.2432 1664.94 108.452C1649.03 113.172 1633.1 118.366 1617.69 123.386C1583.03 134.682 1547.19 146.368 1509.19 153.471C1487.15 157.674 1462.52 159.784 1435.14 159.784H1435.14Z" fill="#8D8D8D" fill-opacity="0.4"/>
<path d="M1460.28 160.559C1437.62 160.559 1412.78 158.882 1385.45 155.533C1342.27 150.239 1294.55 141.021 1235.29 126.529C1223 123.529 1211.01 120.433 1199.41 117.438C1179.12 112.201 1159.94 107.25 1142.43 103.632C1027.46 79.8539 957.517 77.1486 861.193 80.3918C818.115 81.842 779.106 83.3871 737.932 87.6639C695.792 91.9881 652.772 98.8383 611.173 105.462C569.071 112.164 525.534 119.099 482.823 123.434C367.213 135.157 268.811 129.836 147.512 117.443C86.1429 111.173 13.0013 106.833 -76.0977 104.175C-89.0443 103.79 -101.411 103.468 -113.367 103.157C-181.236 101.396 -239.851 99.8772 -337.634 87.7377L-337.581 87.2156C-239.822 99.3499 -181.217 100.869 -113.357 102.63C-101.396 102.941 -89.0298 103.263 -76.0832 103.648C13.0254 106.306 86.1768 110.651 147.561 116.921C268.83 129.308 367.208 134.629 482.785 122.912C525.486 118.582 569.013 111.648 611.11 104.945C652.719 98.3163 695.744 91.466 737.894 87.1418C779.082 82.865 818.096 81.3199 861.183 79.8697C957.546 76.6265 1027.51 79.3318 1142.53 103.12C1160.05 106.743 1179.23 111.695 1199.53 116.932C1211.12 119.922 1223.11 123.017 1235.4 126.023C1317.78 146.162 1437.36 171.043 1524.23 154.595C1561.25 147.734 1595.97 136.101 1629.54 124.847C1646.09 119.299 1663.2 113.567 1680.38 108.473C1775.67 80.223 1917.5 48.6772 2052.03 58.8444L2051.99 59.3718C1917.53 49.2098 1775.76 80.7398 1680.5 108.979C1663.33 114.068 1646.23 119.8 1629.69 125.348C1596.1 136.602 1561.37 148.24 1524.32 155.111C1505.11 158.745 1483.89 160.564 1460.29 160.564L1460.28 160.559Z" fill="#8D8D8D" fill-opacity="0.4"/>
<path d="M1483.75 161.445C1459.2 161.445 1431.74 159.193 1400.95 154.684C1346.78 146.748 1291.77 133.142 1249.89 122.173C1239.89 119.552 1230.06 116.889 1220.56 114.311C1197.68 108.109 1176.07 102.25 1156.84 98.3267C1046.54 75.8196 980.573 75.0339 874.425 81.7786L872.366 81.9104C833.125 84.4048 792.551 86.9835 750.874 91.9775C715.562 96.1699 679.458 101.892 644.542 107.423C595.36 115.218 544.507 123.275 494.605 127.283C464.203 129.725 435.024 130.785 406.526 130.785C322.956 130.785 245.117 121.672 158.448 111.521C91.0963 103.637 4.22034 95.1521 -70.3953 99.5502C-159.997 104.834 -217.094 105.504 -338.813 95.9378L-338.779 95.4105C-217.084 104.971 -160.002 104.307 -70.4194 99.0228C4.23483 94.6195 91.1349 103.11 158.506 110.999C274.707 124.604 375.061 136.354 494.576 126.756C544.463 122.748 595.307 114.69 644.479 106.901C679.4 101.37 715.509 95.6478 750.83 91.4554C792.521 86.4562 833.101 83.8774 872.351 81.3831L874.41 81.2513C980.597 74.5012 1046.59 75.2923 1156.94 97.8046C1176.18 101.733 1197.8 107.592 1220.69 113.799C1230.19 116.378 1240.02 119.041 1250.03 121.662C1347.78 147.27 1458.6 171.401 1539.37 156.219C1576.03 149.479 1610.19 137.714 1643.21 126.334C1660.35 120.428 1678.07 114.326 1695.95 108.99C1826.55 70.003 1956.29 54.7943 2061.28 66.1639L2061.23 66.6912C1956.31 55.3269 1826.62 70.5303 1696.08 109.501C1678.21 114.833 1660.5 120.939 1643.36 126.84C1610.32 138.226 1576.14 149.996 1539.45 156.741C1522.75 159.879 1504.27 161.45 1483.76 161.45L1483.75 161.445Z" fill="#8D8D8D" fill-opacity="0.4"/>
<path d="M1505.92 162.442C1435.65 162.442 1349.23 141.469 1264.5 117.813C1256.58 115.603 1248.76 113.372 1241.2 111.215C1215.87 104.001 1191.96 97.1828 1171.23 93.0115C1060.27 70.6784 996.734 73.0145 887.647 83.1554C883.81 83.514 879.963 83.8673 876.097 84.2259C839.785 87.5851 802.24 91.055 763.797 96.2863C735.265 100.131 706.071 104.819 677.834 109.354C621.602 118.387 563.456 127.727 506.363 131.123C486.849 132.283 467.929 132.81 449.44 132.81C369.412 132.81 297.087 122.944 215.73 111.843C200.681 109.792 185.12 107.666 169.361 105.589C73.902 93.0167 -2.67569 89.5257 -64.7361 94.9152C-72.7245 95.6113 -80.4518 96.2968 -88.0004 96.9666C-162.167 103.548 -220.747 108.747 -340.026 104.128L-340.007 103.601C-220.757 108.22 -162.186 103.026 -88.039 96.4445C-80.4905 95.7748 -72.7583 95.0892 -64.77 94.3931C-2.67569 89.0036 73.931 92.4947 169.423 105.067C185.183 107.144 200.744 109.264 215.792 111.316C315.924 124.979 402.399 136.776 506.339 130.595C563.407 127.199 621.544 117.865 677.766 108.832C706.003 104.297 735.202 99.6033 763.739 95.7642C802.192 90.5329 839.746 87.063 876.058 83.7038C879.919 83.3452 883.771 82.9919 887.608 82.6333C944.16 77.3757 985.024 74.4858 1026.58 75.2874C1071.89 76.1628 1116.53 81.4679 1171.32 92.4947C1192.06 96.6712 1215.98 103.485 1241.32 110.704C1248.88 112.861 1256.7 115.086 1264.62 117.301C1370.14 146.759 1478.28 172.055 1554.48 157.843C1590.89 151.204 1624.6 139.276 1657.19 127.742C1674.82 121.504 1693.04 115.06 1711.5 109.507C1836.76 71.8596 1967.61 58.7287 2070.51 73.4839L2070.44 74.0059C1967.61 59.2613 1836.83 72.387 1711.63 110.013C1693.18 115.561 1674.96 122.005 1657.35 128.243C1624.74 139.787 1591.01 151.721 1554.56 158.365C1539.51 161.176 1523.2 162.442 1505.92 162.442H1505.92Z" fill="#8D8D8D" fill-opacity="0.4"/>
<path d="M1526.93 163.56C1499.92 163.56 1468.47 160.042 1431.93 152.97C1380.28 142.977 1325.97 127.336 1279.11 113.456C1273.16 111.695 1267.3 109.939 1261.54 108.215C1233.85 99.9194 1207.68 92.0883 1185.63 87.7114C1067.37 64.2339 1004.7 71.8805 900.869 84.5526C893.601 85.4385 886.279 86.3192 878.914 87.2051C845.83 91.1866 811.625 95.3052 776.724 100.605C754.963 103.885 732.694 107.571 711.16 111.141C647.881 121.625 582.448 132.467 518.135 134.972C507.204 135.399 496.432 135.6 485.825 135.6C404.55 135.6 331.94 123.829 255.579 111.452C231.31 107.518 206.209 103.453 180.292 99.6663C107.991 89.1141 22.9856 85.7813 -59.0674 90.2901C-91.7746 92.0883 -119.755 95.6427 -149.384 99.4026C-198.198 105.604 -253.527 112.613 -341.215 112.317V111.79C-253.551 112.101 -200.624 105.383 -149.437 98.8806C-119.804 95.1153 -91.8084 91.561 -59.0867 89.7628C22.9952 85.2539 108.03 88.5868 180.36 99.1442C206.277 102.925 231.378 106.996 255.652 110.93C341.962 124.921 423.489 138.136 518.126 134.445C582.409 131.94 647.828 121.098 711.097 110.619C732.636 107.049 754.905 103.363 776.666 100.083C811.572 94.7831 845.782 90.6645 878.871 86.6778C886.236 85.7918 893.557 84.9112 900.825 84.02C957.739 77.0748 998.183 72.4922 1040.11 72.0597C1085.76 71.5799 1130.66 76.2574 1185.73 87.184C1207.8 91.5663 1233.97 99.4026 1261.68 107.698C1267.44 109.422 1273.3 111.178 1279.24 112.94C1384.66 144.164 1493.91 173.479 1569.61 159.467C1605.86 152.912 1639.2 140.799 1671.43 129.087C1689.46 122.537 1708.09 115.766 1727.07 110.023C1785.3 92.3995 1847.75 80.318 1907.64 75.092C1969.69 69.6761 2029.2 71.6484 2079.75 80.8031L2079.67 81.3252C1979.4 63.1634 1847.64 74.0848 1727.2 110.535C1708.23 116.272 1689.6 123.044 1671.58 129.588C1639.33 141.311 1605.97 153.429 1569.68 159.989C1556.85 162.362 1542.64 163.554 1526.93 163.554L1526.93 163.56Z" fill="#8D8D8D" fill-opacity="0.4"/>
<path d="M1547.11 164.751C1519.37 164.751 1486.39 160.554 1447.42 152.116C1398.49 141.517 1348.86 126.366 1293.72 109.106C1289.69 107.846 1285.69 106.59 1281.75 105.346C1251.69 95.8959 1223.3 86.9626 1200.03 82.4064C1085.71 60.0205 1028.32 68.6901 924.147 84.4261L914.096 85.9449C902.715 87.6587 890.952 89.3884 879.576 91.0654C850.416 95.358 820.266 99.793 789.656 104.929C774.694 107.418 759.394 110.076 744.597 112.644C674.253 124.858 601.512 137.482 529.903 138.827C525.205 138.917 520.532 138.959 515.903 138.959C433.197 138.959 361.389 125.243 285.58 110.756C255.304 104.972 223.998 98.9914 191.214 93.7496C116.298 81.7683 29.4273 78.8995 -53.3941 85.6707C-87.2562 88.4392 -116.136 93.6441 -146.707 99.1496C-195.744 107.983 -251.319 118.002 -342.413 120.518L-342.428 119.99C-251.367 117.475 -195.806 107.466 -146.789 98.6328C-116.204 93.122 -87.319 87.9171 -53.4327 85.1486C29.4225 78.3775 116.332 81.2462 191.281 93.2328C224.071 98.4746 255.381 104.46 285.662 110.24C365.69 125.527 441.277 139.971 529.893 138.3C601.469 136.955 674.19 124.33 744.519 112.122C759.317 109.554 774.612 106.896 789.578 104.407C820.198 99.2709 850.349 94.8306 879.509 90.5433C890.885 88.8716 902.642 87.1367 914.023 85.4228L924.075 83.904C975.306 76.1679 1015.77 70.0559 1057.66 68.6848C1102.13 67.2346 1146.07 71.3057 1200.11 81.8896C1223.41 86.4511 1251.81 95.3844 1281.88 104.84C1285.83 106.079 1289.82 107.334 1293.85 108.6C1383.85 136.77 1507.13 175.362 1584.72 161.113C1620.87 154.632 1653.9 142.313 1685.84 130.405C1704.2 123.56 1723.2 116.478 1742.62 110.561C1799.44 93.2486 1861.04 81.9529 1920.75 77.8923C1981.86 73.7421 2040.03 77.2858 2088.98 88.1439L2088.89 88.6607C1990.09 66.7495 1860.69 75.129 1742.75 111.068C1723.34 116.984 1704.35 124.061 1685.99 130.906C1654.03 142.824 1620.99 155.143 1584.8 161.635C1573.47 163.713 1560.94 164.757 1547.11 164.757L1547.11 164.751Z" fill="#8D8D8D" fill-opacity="0.4"/>
<path d="M1566.57 166.001C1538.91 166.001 1505.49 161.308 1465.45 151.847C1415.13 139.956 1360.98 122.105 1313.21 106.353L1301.95 102.641C1269.49 91.9302 1238.84 81.8105 1214.43 77.1013C1102.78 55.5434 1045.3 65.9637 950.079 83.2237C942.739 84.5527 935.166 85.929 927.323 87.3318C910.394 90.3587 893.528 93.275 875.677 96.3547C851.924 100.457 827.365 104.697 802.588 109.243C797.026 110.255 791.458 111.279 785.877 112.302C705.936 126.946 623.279 142.086 541.68 142.677C540.129 142.687 538.573 142.693 537.031 142.693C454.649 142.693 384.557 126.92 310.415 110.24C275.818 102.456 240.043 94.4088 202.145 87.8275C125.954 74.6016 34.8835 72.1284 -47.7156 81.0458C-82.0707 84.753 -111.293 91.5558 -142.232 98.7594C-191.868 110.313 -248.129 123.407 -343.612 128.713L-343.636 128.185C-248.192 122.88 -191.95 109.791 -142.333 98.2426C-111.385 91.039 -82.148 84.231 -47.7639 80.5237C34.8738 71.601 125.988 74.0743 202.218 87.3107C240.125 93.892 275.905 101.939 310.507 109.728C386.012 126.714 457.327 142.772 541.675 142.155C623.235 141.564 705.878 126.429 785.795 111.785C791.376 110.762 796.943 109.744 802.506 108.726C827.283 104.18 851.847 99.9353 875.599 95.8379C893.451 92.7529 910.312 89.8419 927.245 86.815C935.089 85.4122 942.661 84.0411 950.002 82.7069C1045.28 65.4364 1102.79 55.0107 1214.52 76.5845C1238.95 81.3042 1269.62 91.424 1302.09 102.14L1313.35 105.852C1408.28 137.15 1526.42 176.1 1599.85 162.737C1635.95 156.314 1668.72 143.784 1700.42 131.666C1719.07 124.531 1738.36 117.158 1758.18 111.073C1872.34 76.0413 2002.64 70.0612 2098.23 95.4582L2098.11 95.9697C2002.6 70.5885 1872.4 76.5739 1758.32 111.579C1738.51 117.659 1719.22 125.032 1700.58 132.161C1668.86 144.285 1636.07 156.825 1599.93 163.254C1589.89 165.084 1578.79 165.996 1566.57 165.996V166.001Z" fill="#8D8D8D" fill-opacity="0.4"/>
<path d="M1585.41 167.309C1558.49 167.309 1525.54 162.32 1485.69 152.248C1436.88 139.919 1383.84 121.514 1337.03 105.272C1332.29 103.627 1327.58 101.997 1322.94 100.389L1322.23 100.146C1287.31 88.0594 1254.32 76.6477 1228.83 71.7961C1118.96 50.8763 1064.08 62.5359 973.165 81.8526C962.746 84.0674 951.974 86.3561 940.545 88.7186C914.772 94.0448 888.758 99.1495 861.217 104.55C846.313 107.471 830.902 110.493 815.515 113.562L812.244 114.211C731.669 130.173 648.471 146.653 565.954 146.653C561.779 146.653 557.623 146.611 553.447 146.526C471.795 144.833 403.365 127.452 330.915 109.053C293.385 99.5187 254.574 89.6678 213.067 81.9053C134.643 67.2451 41.6587 65.2464 -42.0422 76.4209C-76.5422 81.0299 -104.46 88.977 -136.79 98.1792C-187.204 112.534 -244.345 128.802 -344.81 136.907L-344.844 136.38C-244.418 128.275 -187.301 112.017 -136.906 97.6677C-105.905 88.8399 -76.6292 80.5078 -42.0954 75.8936C41.649 64.7086 134.687 66.7125 213.154 81.3832C254.676 89.1458 293.491 99.0019 331.031 108.536C403.452 126.93 471.863 144.301 553.462 145.994C640.028 147.787 727.537 130.453 812.161 113.688L815.433 113.04C830.82 109.976 846.231 106.954 861.135 104.027C888.676 98.6274 914.685 93.5227 940.458 88.1965C951.887 85.834 962.659 83.5453 973.073 81.3305C1064.05 62.0033 1118.96 50.3384 1228.91 71.274C1254.44 76.1361 1287.44 87.5532 1322.38 99.6399L1323.08 99.8825C1327.73 101.491 1332.44 103.12 1337.18 104.766C1383.98 121.003 1437.01 139.407 1485.8 151.731C1541.64 165.838 1583.89 169.972 1614.97 164.361C1651.06 157.991 1683.62 145.234 1715.11 132.894C1734.01 125.485 1753.56 117.823 1773.75 111.584C1828.04 94.8042 1887.95 85.0799 1947 83.4557C2006.43 81.8262 2061.92 88.5024 2107.47 102.772L2107.34 103.279C2015.36 74.4539 1884.47 77.9133 1773.88 112.091C1753.71 118.324 1734.17 125.981 1715.27 133.39C1683.77 145.735 1651.19 158.502 1615.05 164.878C1606.11 166.492 1596.25 167.298 1585.41 167.298L1585.41 167.309Z" fill="#8D8D8D" fill-opacity="0.4"/>
<path d="M1603.52 168.68C1536.82 168.68 1443.33 134.587 1359.6 104.054C1352.14 101.333 1344.78 98.6486 1337.54 96.0277C1299.1 82.1005 1267.74 71.0842 1243.23 66.4857C1134.52 46.0827 1081.74 58.9763 994.307 80.3391C981.467 83.4768 968.187 86.72 953.767 90.1003C913.144 99.6136 871.308 108.663 828.442 117.87C747.018 135.278 667.231 150.819 588.266 150.819C580.573 150.819 572.894 150.671 565.215 150.365C485.67 147.18 419.55 128.212 349.545 108.13C309.685 96.6974 268.468 84.8743 223.993 75.978C143.419 59.857 48.521 58.333 -36.3688 71.7908C-70.8157 77.2541 -98.6129 86.5934 -130.803 97.404C-182.072 114.627 -240.18 134.149 -346.009 145.097L-346.052 144.57C-240.271 133.627 -182.188 114.116 -130.943 96.8978C-98.7337 86.0766 -70.9171 76.7321 -36.4364 71.2635C48.5016 57.8003 143.458 59.3244 224.08 75.4559C268.569 84.3575 309.796 96.1806 349.665 107.619C419.642 127.689 485.742 146.653 565.234 149.838C651.675 153.303 739.02 136.449 828.35 117.354C871.211 108.146 913.047 99.0968 953.665 89.5835C968.081 86.2085 981.361 82.9653 994.201 79.8276C1081.7 58.449 1134.51 45.5448 1243.31 65.9689C1267.86 70.5779 1299.23 81.5995 1337.69 95.5319C1344.93 98.1529 1352.29 100.837 1359.75 103.558C1455.29 138.395 1563.57 177.888 1630.09 166.001C1666.4 159.647 1698.94 146.595 1730.41 133.97C1749.37 126.361 1768.98 118.493 1789.31 112.122C1842.57 95.6691 1901.65 86.7569 1960.13 86.3509C2018.87 85.9343 2073.02 94.1608 2116.71 110.113L2116.55 110.614C2027.31 78.0241 1898.91 78.8151 1789.44 112.629C1769.13 118.994 1749.53 126.862 1730.57 134.466C1699.08 147.101 1666.52 160.163 1630.16 166.523C1621.89 168 1612.96 168.685 1603.51 168.691L1603.52 168.68Z" fill="#8D8D8D" fill-opacity="0.4"/>
<path d="M1621.54 170.062C1557.1 170.062 1464.26 134.534 1381.21 102.751C1371.14 98.9016 1361.63 95.2629 1352.15 91.6769C1315.32 77.7497 1282.79 65.837 1257.63 61.1858C1149.63 41.2046 1098.6 55.327 1014.07 78.7253C999.271 82.8228 983.966 87.0574 966.994 91.4924C928.579 101.533 887.487 111.574 841.375 122.189C770.838 138.368 690.167 155.148 609.278 155.148C598.511 155.148 587.744 154.853 576.987 154.215C498.989 149.606 434.671 129.002 366.58 107.191C324.898 93.839 281.801 80.0331 234.92 70.0557C152.253 52.4582 55.4414 51.4035 -30.6903 67.1659C-64.9777 73.4413 -92.5623 84.1042 -124.511 96.4547C-176.655 116.615 -235.758 139.465 -347.207 153.292L-347.26 152.77C-235.864 138.943 -176.79 116.109 -124.67 95.959C-92.7073 83.6033 -65.0986 72.9298 -30.7725 66.6491C55.4172 50.8762 152.292 51.9309 235.012 69.5442C281.917 79.5269 325.029 93.3381 366.715 106.69C434.778 128.491 499.071 149.089 577.011 153.693C668.478 159.103 761.38 140.003 841.273 121.678C887.381 111.062 928.468 101.021 966.878 90.9808C983.845 86.5458 999.15 82.3113 1013.95 78.2138C1098.54 54.7996 1149.6 40.6668 1257.7 60.6637C1282.91 65.3254 1315.46 77.2435 1352.31 91.1759C1361.79 94.7619 1371.3 98.4006 1381.36 102.25C1475.22 138.168 1581.61 178.884 1645.21 167.625C1681.54 161.318 1713.9 148.029 1745.19 135.178C1764.38 127.299 1784.21 119.152 1804.87 112.634C1857.02 96.3967 1915.24 88.2703 1973.25 89.1298C2031.29 89.9894 2084.09 99.777 2125.95 117.438L2125.77 117.928C2040.39 81.9158 1911.48 79.9909 1805 113.145C1784.36 119.658 1764.53 127.8 1745.35 135.679C1714.04 148.535 1681.67 161.835 1645.29 168.153C1637.92 169.455 1629.97 170.067 1621.54 170.067L1621.54 170.062Z" fill="#8D8D8D" fill-opacity="0.4"/>
<path d="M1639.22 171.47C1576.9 171.47 1484.58 134.461 1402.07 101.391C1389.81 96.4759 1378.23 91.8299 1366.76 87.3159C1332.9 73.974 1297.68 60.5531 1272.02 55.8755C1164.41 36.253 1114.87 51.5935 1032.81 77.001C1016.39 82.0846 999.411 87.3422 980.216 92.8741C938.085 105.014 895.722 116.325 854.302 126.503C801.501 139.433 760.873 147.549 722.565 152.823C673.634 159.552 629.865 161.266 588.754 158.065C511.901 152.079 449.029 129.809 382.464 106.232C339.333 90.9545 294.733 75.1553 245.842 64.1337C161.116 45.0333 62.3906 44.4532 -25.0218 62.5411C-59.0966 69.5918 -86.4202 81.5256 -118.059 95.3368C-168.454 117.343 -231.167 144.728 -348.411 161.487L-348.474 160.965C-231.288 144.211 -168.604 116.842 -118.238 94.8464C-86.5748 81.0193 -59.2318 69.0802 -25.1136 62.0191C17.0993 53.2862 63.8162 48.7563 109.992 48.9251C157.748 49.0991 203.489 54.0403 245.938 63.6117C294.854 74.6385 339.469 90.443 382.609 105.726C449.145 129.293 511.988 151.552 588.783 157.537C679.864 164.635 770.171 146.568 854.191 125.991C895.606 115.819 937.964 104.502 980.085 92.3678C999.276 86.836 1016.25 81.5836 1032.67 76.4947C1073.74 63.7804 1106.17 53.7345 1142.42 49.136C1181.39 44.1895 1221.39 46.1091 1272.1 55.3534C1297.8 60.0363 1333.03 73.4678 1366.92 86.8202C1378.38 91.3395 1389.97 95.9801 1402.23 100.9C1494.65 137.946 1599.39 179.934 1660.33 169.26C1696.71 162.995 1728.9 149.469 1760.04 136.385C1779.42 128.243 1799.46 119.816 1820.43 113.161C1924.27 80.5658 2053.71 85.3383 2135.19 124.768L2134.99 125.248C2053.6 85.8657 1924.31 81.1037 1820.56 113.667C1799.61 120.317 1779.58 128.734 1760.2 136.876C1729.05 149.97 1696.83 163.507 1660.41 169.777C1653.82 170.927 1646.73 171.47 1639.21 171.47H1639.22Z" fill="#8D8D8D" fill-opacity="0.4"/>
<path d="M1656.58 172.909C1596.28 172.909 1504.39 134.397 1422.34 100.009C1408.08 94.0343 1394.61 88.3864 1381.37 82.96C1341.51 66.6334 1310.11 54.8788 1286.41 50.5704C1178.68 31.4594 1130.36 47.9917 1050.32 75.3768C1032.67 81.4149 1014.42 87.6586 993.433 94.261C947.996 108.552 906.716 120.512 867.224 130.817C816.39 144.053 774.38 152.691 735.018 157.991C686.204 164.561 642.208 165.848 600.517 161.909C524.592 154.436 462.942 130.537 397.677 105.24C353.309 88.0383 307.428 70.2562 256.758 58.2064C171.284 37.8825 68.0641 37.7717 -19.3579 57.9111C-53.1911 65.7052 -80.2248 78.8467 -111.53 94.0659C-162.732 118.962 -226.46 149.938 -349.624 169.677L-349.696 169.155C-226.595 149.427 -162.906 118.461 -111.729 93.5807C-80.3987 78.351 -53.3458 65.1937 -19.4594 57.389C23.4252 47.5118 71.0941 42.27 118.391 42.2383H118.802C166.63 42.2383 214.352 47.5751 256.855 57.6843C307.554 69.7394 353.449 87.5321 397.832 104.734C463.068 130.02 524.688 153.909 600.551 161.376C696.304 170.42 793.3 149.516 867.103 130.3C906.586 119.995 947.861 108.041 993.288 93.7495C1014.27 87.1471 1032.52 80.9033 1050.17 74.8652C1090.22 61.1595 1121.85 50.3384 1157.56 45.1229C1195.96 39.5172 1235.72 41.0307 1286.48 50.0378C1310.22 54.3568 1341.64 66.1218 1381.52 82.4537C1394.76 87.8801 1408.24 93.5227 1422.5 99.5028C1513.65 137.704 1616.96 180.999 1675.45 170.874C1711.89 164.646 1743.93 150.877 1774.93 137.556C1794.49 129.15 1814.72 120.454 1835.98 113.667C1885.34 98.0474 1943.39 91.3079 1999.47 94.6882C2055.4 98.0632 2106.88 111.342 2144.43 132.077L2144.21 132.546C2066.91 89.8577 1937.34 82.1321 1836.12 114.168C1814.88 120.955 1794.67 129.641 1775.11 138.041C1744.1 151.373 1712.02 165.152 1675.53 171.391C1669.64 172.408 1663.3 172.888 1656.57 172.888L1656.58 172.909Z" fill="#8D8D8D" fill-opacity="0.4"/>
<path d="M-350.813 177.872L-350.89 177.35C-221.777 154.606 -157.116 119.996 -105.156 92.1889C-74.1743 75.6091 -47.4209 61.2917 -13.781 52.7698C29.7802 41.7324 78.3963 35.7787 126.814 35.5519C175.662 35.3357 224.419 40.9309 267.801 51.7731C319.969 64.8091 366.85 84.6109 412.19 103.759C476.411 130.88 537.07 156.499 612.347 165.242C689.176 173.949 771.737 164.509 880.045 134.635C918.266 124.077 958.454 111.532 1006.52 95.1578C1029.35 87.3795 1049.73 79.7172 1067.72 72.9566C1106.75 58.2805 1137.58 46.6948 1172.77 40.8992C1210.63 34.6607 1250.15 35.8525 1300.9 44.7541C1326.88 49.3895 1363.64 64.2237 1396.15 78.1246C1411.67 84.6847 1427.58 91.6299 1444.42 98.9811C1533.67 137.931 1634.82 182.075 1690.58 172.53C1727.1 166.339 1759.02 152.317 1789.89 138.759C1809.62 130.095 1830.02 121.135 1851.56 114.216C1899.94 98.7702 1957.13 92.8322 2012.6 97.5045C2067.93 102.161 2118.03 117.053 2153.68 139.439L2153.44 139.898C2079.1 93.2225 1952.2 82.6386 1851.69 114.728C1830.18 121.641 1809.79 130.595 1790.08 139.255C1759.18 152.823 1727.24 166.856 1690.66 173.057C1685.42 173.954 1679.77 174.381 1673.77 174.381C1615.86 174.381 1525.17 134.798 1444.24 99.4768C1427.4 92.1256 1411.49 85.1805 1395.98 78.6203C1363.48 64.73 1326.76 49.9116 1300.82 45.2815C1193.09 26.3919 1145.96 44.1108 1067.86 73.4628C1049.88 80.2234 1029.49 87.8857 1006.65 95.6694C958.58 112.049 918.382 124.594 880.152 135.157C830.685 148.799 787.288 157.996 747.477 163.27C698.658 169.735 654.435 170.558 612.284 165.78C536.949 157.031 473.429 130.211 412.006 104.265C366.681 85.1224 319.819 65.3312 267.685 52.3057C180.234 30.4525 75.0473 30.8269 -13.6844 53.3077C-47.2662 61.8138 -74.0003 76.1207 -104.953 92.6899C-156.943 120.513 -221.642 155.138 -350.822 177.898L-350.813 177.872Z" fill="#8D8D8D" fill-opacity="0.4"/>
<path d="M-352.016 186.067L-352.098 185.55C-216.905 159.747 -151.308 121.451 -98.5982 90.6803C-67.9691 72.798 -41.5154 57.3573 -8.11719 48.1446C82.2479 23.217 189.484 22.3574 278.732 45.8454C332.321 59.7937 380.125 81.668 426.354 102.82C486.839 130.495 549.388 159.109 624.124 169.086C701.741 179.327 787.167 169.756 892.967 138.943C930.294 128.064 969.39 114.986 1019.73 96.5391C1044.24 87.5584 1065.75 78.7412 1084.72 70.9629C1122.86 55.3271 1152.99 42.9766 1187.72 36.6116C1225.13 29.7561 1264.47 30.6315 1315.29 39.4434C1341.2 43.9786 1378.09 59.3402 1410.76 73.7631C1427.42 81.0774 1444.6 88.8979 1462.78 97.1772C1551.41 137.524 1651.86 183.256 1705.7 174.154C1742.32 167.995 1774.12 153.725 1804.88 139.919C1824.76 131.001 1845.31 121.773 1867.11 114.727C1914.55 99.4448 1970.87 94.3137 2025.71 100.278C2080.46 106.232 2129.19 122.738 2162.92 146.758L2162.66 147.201C2092.58 97.2985 1965.58 83.5559 1867.25 115.239C1845.47 122.279 1824.93 131.497 1805.06 140.409C1774.28 154.226 1742.44 168.511 1705.77 174.676C1701.06 175.472 1695.98 175.852 1690.61 175.852C1634.33 175.852 1543.53 134.519 1462.59 97.6677C1444.41 89.3883 1427.23 81.5678 1410.58 74.2535C1377.93 59.8359 1341.07 44.4901 1315.21 39.9655C1207.32 21.2605 1161.24 40.1553 1084.88 71.4586C1065.9 79.2369 1044.39 88.0594 1019.87 97.0454C969.516 115.497 930.411 128.581 893.079 139.46C814.336 162.389 746.858 173.563 685.489 173.563C664.356 173.563 643.952 172.24 624.052 169.613C549.248 159.631 486.67 131.001 426.156 103.316C379.947 82.1742 332.162 60.3105 278.607 46.3675C189.43 22.9006 82.2817 23.7549 -8.01086 48.6614C-41.3511 57.8583 -67.7806 73.2885 -98.3808 91.1497C-151.109 121.936 -216.746 160.248 -352.016 186.067Z" fill="#8D8D8D" fill-opacity="0.4"/>
<path d="M-353.219 194.261L-353.306 193.745C-211.976 164.851 -145.484 122.832 -92.055 89.0665C-61.7738 69.9291 -35.6197 53.4021 -2.4534 43.5197C89.0183 16.2717 198.221 14.9217 289.664 39.9232C344.253 54.8471 392.637 78.6673 439.427 101.702C499.336 131.196 561.291 161.698 635.901 172.93C773.041 193.571 912.752 145.039 1032.94 97.9259C1058.99 87.7165 1081.47 77.7233 1101.31 68.9114C1138.65 52.3158 1168.15 39.2113 1202.51 32.2819C1239.51 24.82 1278.74 25.3895 1329.7 34.1276C1364.1 40.0286 1420.82 66.9075 1480.86 95.3683C1568.97 137.129 1668.82 184.453 1720.84 175.778C1757.56 169.65 1789.26 155.122 1819.92 141.073C1839.94 131.903 1860.63 122.416 1882.69 115.244C1929.21 100.12 1984.67 95.7955 2038.84 103.057C2093.03 110.324 2140.39 128.443 2172.18 154.083L2171.89 154.505C2106.11 101.459 1979.13 84.4364 1882.83 115.745C1860.8 122.906 1840.11 132.388 1820.11 141.553C1789.42 155.618 1757.69 170.156 1720.92 176.295C1716.68 177.001 1712.12 177.339 1707.29 177.339C1652.6 177.339 1561.68 134.244 1480.68 95.8482C1420.66 67.4032 1363.97 40.5349 1329.63 34.6444C1221.45 16.0924 1176.3 36.1579 1101.5 69.3965C1081.66 78.2138 1059.17 88.207 1033.12 98.4216C932.45 137.883 818.067 178.336 702.959 178.341C680.579 178.341 658.185 176.812 635.843 173.452C561.165 162.215 499.182 131.697 439.238 102.187C392.468 79.1577 344.103 55.348 289.557 40.4347C198.192 15.4543 89.0811 16.799 -2.31326 44.0259C-35.4167 53.8873 -61.5466 70.3985 -91.7988 89.5201C-145.272 123.307 -211.807 165.347 -353.219 194.261Z" fill="#8D8D8D" fill-opacity="0.4"/>
</g>
<defs>
<clipPath id="clip0_617_706">
<rect width="1920" height="194" fill="white"/>
</clipPath>
</defs>
</svg>
