<svg width="1919" height="462" viewBox="0 0 1919 462" fill="none" xmlns="http://www.w3.org/2000/svg">
<g clip-path="url(#clip0_617_502)">
<path d="M-56.3333 -31.4258L67.3225 74.8961C108.972 110.707 142.454 116.941 177.903 123.54C208.658 129.265 240.463 135.187 281.722 159.573C294.95 167.39 306.985 170.228 318.521 168.249C343.099 164.03 361.633 138.259 381.256 110.972C395.277 91.4738 409.778 71.3107 427.566 57.284C447.769 41.3519 469.277 36.0049 493.328 40.9319C518.724 46.1351 550.51 55.2852 584.158 64.9721C694.553 96.7508 831.949 136.303 874.763 76.2728C884.403 62.7516 896.59 57.7468 910.402 57.7468C929.431 57.7468 951.552 67.2392 974.415 77.0505C996.01 86.3174 1018.34 95.8992 1039.55 98.2208C1063.52 100.842 1082.6 93.5193 1097.89 75.8411C1116.12 54.7641 1147.46 37.3776 1188.51 25.5598C1226.67 14.5741 1271.37 8.76042 1317.75 8.74876H1317.91C1362.89 8.74876 1405.93 14.2319 1442.42 24.6148C1481.66 35.7832 1511.62 52.3182 1529.05 72.4346C1573.36 123.587 1685.05 163.24 1758.87 154.028C1790.27 150.108 1811.05 137.505 1818.97 117.571C1830.54 88.4289 1846.46 70.0041 1867.65 61.2506C1877.98 56.9807 1888.93 55.3203 1900.12 55.3203C1921.47 55.3203 1943.68 61.3789 1964.1 66.9514C1978.5 70.8791 1992.1 74.5889 2003.9 75.775L2003.85 76.16C1991.99 74.97 1978.37 71.2524 1963.96 67.3209C1932.92 58.8551 1897.75 49.2577 1867.87 61.6005C1846.8 70.3035 1830.95 88.6545 1819.42 117.692C1811.45 137.773 1790.54 150.474 1758.95 154.413C1724.22 158.745 1678.6 152.239 1633.81 136.56C1588.39 120.667 1550.08 97.3769 1528.67 72.6601C1511.3 52.6098 1481.42 36.1216 1442.27 24.9842C1405.84 14.6169 1362.84 9.14153 1317.92 9.14153H1317.76C1271.43 9.1532 1226.79 14.959 1188.67 25.9331C1147.71 37.7237 1116.45 55.0597 1098.28 76.0705C1082.88 93.8771 1063.65 101.25 1039.5 98.6096C1018.2 96.2803 995.829 86.6829 974.202 77.4005C934.951 60.5583 897.882 44.6495 875.181 76.4749C832.173 136.781 694.572 97.1747 584.01 65.3454C550.372 55.6624 518.595 46.5162 493.219 41.313C469.339 36.4171 447.973 41.7369 427.904 57.5679C410.163 71.5596 395.681 91.6993 381.674 111.174C361.995 138.535 343.408 164.38 318.625 168.634C306.951 170.637 294.793 167.779 281.451 159.892C240.272 135.553 208.515 129.642 177.803 123.925C142.283 117.314 108.734 111.069 66.9852 75.1722L-56.6707 -31.1496L-56.3286 -31.418L-56.3333 -31.4258Z" fill="#8D8D8D" fill-opacity="0.5"/>
<path d="M-59.1172 -0.346756C-43.0059 12.1594 -27.0274 24.4984 -11.5764 36.429C15.3394 57.2143 40.7584 76.8446 66.2392 96.8327C106.53 128.444 139 133.223 173.37 138.283C204.358 142.844 236.395 147.561 278.833 170.614C292.574 178.076 305.122 180.717 317.205 178.679C342.291 174.448 361.377 150.524 381.579 125.193C395.823 107.34 410.547 88.8764 428.279 76.2108C448.382 61.8536 469.558 57.2571 493.015 62.1608C516.643 67.1267 545.696 75.2969 576.456 83.9455C622.79 96.9727 675.31 111.738 724.291 119.87C760.757 125.92 789.944 127.491 813.519 124.668C841.404 121.332 861.032 111.995 873.523 96.1327C897.721 65.4195 935.004 80.0645 974.472 95.5689C995.748 103.926 1017.75 112.57 1038.7 114.499C1062.36 116.677 1081.35 109.739 1096.78 93.2823C1109.59 79.629 1128.06 67.8733 1151.67 58.342C1205.74 36.5223 1282.67 27.1233 1357.46 33.2014C1435.31 39.5283 1497.43 61.2702 1527.87 92.8545C1574.35 141.063 1683.6 176.649 1757.1 167.514C1788.8 163.575 1810.29 151.396 1819.25 132.29C1835.92 96.7549 1859.35 77.7818 1890.88 74.2897C1918.01 71.2876 1946.2 80.0995 1971.07 87.8731C1982.23 91.3613 1992.77 94.655 2001.81 96.3661L2001.7 96.7432C1992.63 95.0244 1982.07 91.7268 1970.9 88.2347C1946.08 80.4767 1917.95 71.6804 1890.94 74.6708C1859.6 78.1435 1836.3 97.0349 1819.69 132.426C1810.67 151.672 1789.04 163.937 1757.17 167.899C1722.54 172.204 1677.21 166.441 1632.81 152.088C1588.09 137.629 1549.7 116.129 1527.5 93.0957C1497.13 61.5969 1435.13 39.9055 1357.41 33.5902C1282.7 27.5199 1205.87 36.9034 1151.88 58.692C1128.33 68.1999 1109.92 79.9167 1097.16 93.5234C1081.62 110.097 1062.48 117.085 1038.65 114.888C1017.61 112.948 995.573 104.291 974.263 95.9188C934.985 80.4883 897.887 65.9173 873.917 96.3427C867.493 104.501 858.932 111.073 848.474 115.88C838.71 120.363 826.97 123.451 813.581 125.053C789.953 127.88 760.714 126.309 724.191 120.251C675.177 112.115 622.643 97.346 576.294 84.3149C545.544 75.6702 516.5 67.5039 492.886 62.538C469.591 57.6693 448.557 62.2385 428.583 76.5063C410.899 89.133 396.194 107.573 381.969 125.407C361.709 150.808 342.571 174.798 317.29 179.06C305.079 181.121 292.413 178.461 278.563 170.94C236.205 147.931 204.215 143.221 173.28 138.668C138.833 133.597 106.297 128.81 65.9019 97.1127C40.4257 77.1246 15.0019 57.4943 -11.9091 36.709C-27.3602 24.7784 -43.3338 12.4394 -59.45 -0.0667877L-59.1221 -0.350647L-59.1172 -0.346756Z" fill="#8D8D8D" fill-opacity="0.5"/>
<path d="M-61.9017 30.7281C-40.2598 45.8981 -19.554 60.1308 0.467773 73.8969C22.9554 89.3586 44.1984 103.961 65.1512 118.765C103.959 146.185 135.337 149.545 168.562 153.103C198.381 156.295 232.181 159.916 275.95 181.658C323.443 205.255 351.841 173.351 381.897 139.574C396.351 123.331 411.298 106.539 428.973 95.2033C443.417 85.9443 458.302 81.3517 474.072 81.3517C480.144 81.3517 486.344 82.0322 492.706 83.3855C514.476 88.0792 540.736 95.3006 568.536 102.946C616.547 116.148 670.968 131.116 723.141 139.099C800.838 150.991 848.232 143.649 872.292 115.989C883.462 103.16 896.908 98.5049 911.813 98.5049C930.922 98.5049 952.427 106.158 974.629 114.056C995.587 121.515 1017.26 129.222 1037.94 130.774C1061.27 132.524 1080.16 125.967 1095.7 110.727C1108.89 97.7894 1127.59 86.8115 1151.28 78.1046C1178.76 68.0016 1212.36 60.6908 1248.44 56.9576C1283.3 53.3528 1320.53 53.0534 1356.09 56.0943C1432.47 62.6235 1494.67 83.4671 1526.73 113.27C1574.42 157.602 1683.29 189.902 1755.16 181.035C1787.23 177.077 1809.51 165.309 1819.57 147.001C1863.37 67.2861 1933.2 92.9284 1979.41 109.895C1986.78 112.598 1993.73 115.153 1999.75 116.957L1999.59 117.322C1993.55 115.514 1986.59 112.959 1979.22 110.249C1933.18 93.3445 1863.61 67.7994 1820 147.161C1809.87 165.593 1787.47 177.442 1755.23 181.42C1720.7 185.683 1675.67 180.651 1631.71 167.615C1587.71 154.573 1549.32 134.857 1526.37 113.527C1494.39 83.7938 1432.31 63.0007 1356.04 56.4793C1282.5 50.1912 1206.02 58.4081 1151.48 78.4585C1127.86 87.142 1109.21 98.081 1096.07 110.976C1080.43 126.321 1061.4 132.924 1037.91 131.162C1017.14 129.607 995.44 121.884 974.449 114.414C935.113 100.418 897.958 87.1964 872.687 116.214C859.53 131.341 839.57 140.293 811.661 143.583C788.167 146.352 759.189 145.01 723.065 139.48C670.863 131.489 616.428 116.521 568.398 103.311C540.603 95.67 514.353 88.4486 492.597 83.7588C469.871 78.9134 449.161 82.7555 429.282 95.5028C411.659 106.803 396.731 123.576 382.297 139.795C352.103 173.721 323.586 205.764 275.717 181.98C232.039 160.277 199.745 156.82 168.515 153.48C135.223 149.914 103.774 146.546 64.8568 119.053C43.9038 104.249 22.6656 89.6463 0.178101 74.1886C-19.8436 60.4225 -40.5448 46.1897 -62.1915 31.0198L-61.8827 30.7242L-61.9017 30.7281Z" fill="#8D8D8D" fill-opacity="0.5"/>
<path d="M-64.686 61.8068C-37.7798 78.8278 -13.1256 93.7139 10.7113 108.11C29.3077 119.341 46.8683 129.945 64.0583 140.698C101.237 163.952 131.445 165.935 163.421 168.031C193.587 170.011 227.781 172.251 273.051 192.698C321.628 214.638 351.043 185.239 382.182 154.114C407.682 128.627 433.938 102.39 472.437 102.386C478.742 102.386 485.37 103.09 492.387 104.614C512.191 108.989 535.591 115.292 560.368 121.969C610.052 135.358 666.364 150.532 721.977 158.333C798.591 169.081 845.956 161.934 871.047 135.844C883.096 123.334 897.293 118.851 912.863 118.851C931.934 118.851 953.068 125.574 974.871 132.512C1016.6 145.788 1059.75 159.515 1094.6 128.168C1108.18 115.95 1127.12 105.753 1150.87 97.8631C1179.15 88.4679 1211.88 82.071 1248.15 78.8512C1282.69 75.7829 1319.52 75.8296 1354.68 78.9872C1429.5 85.7031 1491.78 105.641 1525.56 133.686C1575.15 174.864 1681.4 203.333 1752.93 194.603C1785.5 190.629 1808.64 179.258 1819.86 161.716C1836.57 135.58 1857.54 119.263 1882.19 113.216C1899.86 108.88 1919.19 109.63 1941.28 115.506C1959.93 120.468 1976.6 128.028 1989.99 134.102C1992.72 135.339 1995.29 136.502 1997.67 137.552L1997.45 137.894C1995.06 136.844 1992.49 135.677 1989.77 134.441C1962.86 122.238 1922.2 103.797 1882.33 113.585C1857.81 119.601 1836.93 135.856 1820.28 161.895C1808.99 179.55 1785.73 190.994 1753.01 194.988C1735.33 197.146 1715.38 197.135 1693.72 194.949C1672.96 192.857 1651.65 188.887 1630.39 183.155C1587.17 171.504 1548.85 153.573 1525.23 133.962C1455.76 76.2807 1270.43 58.5792 1151.06 98.2287C1127.37 106.096 1108.5 116.257 1094.96 128.432C1079.26 142.556 1060.37 148.774 1037.23 147.437C1016.76 146.255 995.383 139.453 974.715 132.877C935.279 120.332 898.034 108.479 871.437 136.089C846.227 162.303 798.714 169.494 721.911 158.722C666.264 150.917 609.933 135.736 560.235 122.347C535.467 115.674 512.072 109.37 492.283 104.995C442.742 94.2194 412.153 124.797 382.572 154.363C351.304 185.616 321.771 215.14 272.847 193.04C227.667 172.636 193.53 170.396 163.411 168.42C131.36 166.317 101.085 164.333 63.797 141.009C46.6117 130.26 29.0511 119.652 10.4547 108.425C-13.387 94.0288 -38.0411 79.1389 -64.9521 62.114L-64.6624 61.8068H-64.686Z" fill="#8D8D8D" fill-opacity="0.5"/>
<path d="M-67.4703 92.8819C-35.4706 111.136 -7.53815 125.664 19.4775 139.714C34.6481 147.6 48.9732 155.051 62.9704 162.63C98.3528 181.786 127.288 182.436 157.924 183.124C188.512 183.808 223.182 184.586 270.163 203.742C292.764 212.954 312.705 213.16 332.926 204.387C350.815 196.626 366.166 183.093 382.42 168.767C407.787 146.403 433.895 123.397 470.722 123.393C477.464 123.393 484.553 124.163 492.074 125.847C510.138 129.895 531.058 135.432 553.208 141.293C604.189 154.779 661.969 170.065 720.818 177.575C796.32 187.207 843.666 180.258 869.812 155.708C882.645 143.684 898.072 138.469 918.36 139.302C936.263 140.037 955.187 145.333 975.223 150.945C1016.22 162.42 1058.61 174.285 1093.5 145.617C1107.49 134.122 1126.65 124.707 1150.45 117.634C1206.98 100.834 1280.89 95.1023 1353.23 101.911C1388.25 105.209 1421.95 111.47 1450.68 120.021C1481.3 129.137 1506.1 140.604 1524.39 154.11C1575.7 192.002 1679.2 216.785 1750.37 208.229C1783.57 204.24 1807.7 193.246 1820.15 176.435C1839.79 149.933 1863.74 134.336 1891.36 130.07C1930.69 123.996 1969.74 141.993 1995.59 158.158L1995.3 158.465C1969.53 142.347 1930.6 124.4 1891.45 130.447C1863.97 134.69 1840.12 150.229 1820.55 176.63C1814.06 185.395 1804.48 192.601 1792.09 198.045C1780.53 203.124 1766.52 206.678 1750.44 208.611C1679.14 217.181 1575.48 192.356 1524.07 154.394C1488.54 128.16 1426.25 109.168 1353.17 102.293C1280.91 95.4912 1207.08 101.215 1150.62 117.995C1126.88 125.049 1107.77 134.433 1093.83 145.889C1058.74 174.732 1016.2 162.825 975.066 151.31C935.493 140.235 898.12 129.77 870.164 155.961C855.824 169.424 835.408 177.505 807.742 180.674C784.461 183.342 756.001 182.451 720.737 177.952C661.85 170.439 604.051 155.148 553.056 141.658C530.911 135.798 509.996 130.264 491.941 126.22C443.611 115.386 412.676 142.654 382.762 169.027C366.484 183.38 351.105 196.933 333.145 204.73C323.481 208.926 313.997 211.026 304.158 211.154C293.149 211.298 281.955 208.988 269.944 204.088C223.064 184.975 188.446 184.197 157.905 183.513C127.198 182.824 98.1961 182.175 62.6996 162.957C48.7072 155.382 34.382 147.931 19.216 140.044C-7.80426 125.994 -35.7416 111.462 -67.7508 93.2046L-67.4798 92.8857L-67.4703 92.8819Z" fill="#8D8D8D" fill-opacity="0.5"/>
<path d="M1285.64 121.577C1377.8 121.577 1471.34 140.655 1523.22 174.526C1576.01 208.999 1676.57 230.255 1747.38 221.91C1781.38 217.901 1806.64 207.265 1820.45 191.146C1843.79 163.886 1871.46 149.175 1902.71 147.413C1920.16 146.429 1938.83 149.696 1956.69 156.855C1970.61 162.436 1984.03 170.423 1993.5 178.764L1993.16 179.029C1978.76 166.348 1943.51 145.5 1902.74 147.798C1871.65 149.552 1844.09 164.209 1820.83 191.368C1813.64 199.775 1803.42 206.705 1790.47 211.966C1778.39 216.878 1763.91 220.35 1747.45 222.291C1712.66 226.39 1669.88 223.547 1626.97 214.28C1585.54 205.336 1547.62 190.952 1522.92 174.825C1444.39 123.548 1270.22 106.228 1150.19 137.758C1126.41 144.003 1107.07 152.613 1092.72 163.338C1057.7 189.517 1015.94 179.445 975.556 169.704C935.802 160.118 898.258 151.061 868.914 175.824C853.981 188.459 833.332 196.112 805.794 199.223C782.584 201.848 754.39 201.179 719.592 197.178C656.842 189.968 594.706 173.783 544.775 160.779C525.651 155.797 507.582 151.092 491.632 147.437C444.433 136.614 413.151 160.643 382.895 183.882C366.893 196.174 350.344 208.883 331.853 215.882C321.894 219.65 312.154 221.525 302.067 221.618C290.769 221.712 279.323 219.6 267.074 215.128C218.25 197.31 183.063 198.111 152.018 198.819C122.774 199.484 95.1506 200.113 61.6448 184.893C50.4034 179.787 38.9291 174.798 26.785 169.513C-1.48016 157.221 -33.513 143.284 -70.5062 124.279L-70.2542 123.949C-33.2753 142.945 -1.24725 156.875 27.0084 169.167C39.1573 174.452 50.6314 179.441 61.8776 184.551C95.2741 199.717 122.831 199.091 152.009 198.426C183.101 197.718 218.345 196.913 267.269 214.77C317.917 233.257 349.323 209.135 382.567 183.594C407.744 164.255 433.638 144.368 468.831 144.368C476.058 144.368 483.674 145.205 491.756 147.059C507.715 150.719 525.784 155.424 544.913 160.406C594.824 173.406 656.942 189.583 719.649 196.789C794.015 205.336 841.333 198.585 868.567 175.548C881.505 164.629 896.666 159.503 916.108 159.5C916.892 159.5 917.681 159.507 918.479 159.523C936.633 159.9 955.605 164.477 975.689 169.319C1015.95 179.029 1057.58 189.069 1092.4 163.038C1106.8 152.274 1126.19 143.637 1150.04 137.373C1190.93 126.632 1238.1 121.557 1285.64 121.553V121.577Z" fill="#8D8D8D" fill-opacity="0.5"/>
<path d="M1276.54 144.034C1300.75 144.034 1325.49 145.294 1350.21 147.845C1384.46 151.376 1416.67 157.182 1445.94 165.1C1476.16 173.274 1501.77 183.314 1522.05 194.946C1559.05 216.159 1620.83 232.511 1679.46 236.606C1710.14 238.748 1738.74 237.446 1762.18 232.845C1788.44 227.689 1808.14 218.612 1820.74 205.865C1855.37 170.847 1891.24 164.695 1915.24 165.698C1950.3 167.165 1979.3 184.186 1991.41 199.379L1991.01 199.593C1978.97 184.477 1950.1 167.546 1915.22 166.087C1891.33 165.088 1855.61 171.22 1821.11 206.11C1808.44 218.924 1788.65 228.047 1762.29 233.222C1738.79 237.834 1710.14 239.137 1679.41 236.995C1650.52 234.976 1620.48 230.006 1592.56 222.626C1564.55 215.222 1540.07 205.764 1521.77 195.268C1438.78 147.686 1268.42 130.408 1149.76 157.536C1125.95 162.98 1106.38 170.808 1091.6 180.806C1056.76 204.376 1015.79 196.097 976.168 188.09C936.191 180.013 898.433 172.383 867.655 195.712C852.123 207.518 831.246 214.747 803.831 217.804C780.669 220.39 752.737 219.939 718.433 216.427C651.502 209.579 587.593 193.137 536.246 179.923C520.192 175.794 505.026 171.889 491.314 168.677C445.155 157.855 413.503 178.726 382.886 198.908C366.465 209.731 349.489 220.926 330.484 227.09C309.151 234.008 287.471 233.712 264.204 226.192C213.162 209.688 177.304 212.219 145.67 214.448C118.018 216.4 91.9052 218.239 60.5898 206.853C51.7477 203.637 42.787 200.522 33.2941 197.221C2.9859 186.678 -31.3655 174.728 -73.2715 155.382L-73.0389 155.043C-31.1567 174.378 3.18524 186.324 33.4792 196.863C42.9722 200.164 51.9379 203.283 60.78 206.499C91.9861 217.843 118.042 216.007 145.628 214.059C177.314 211.823 213.233 209.291 264.38 225.826C315.988 242.513 349.846 220.191 382.591 198.605C397.928 188.494 413.788 178.037 431.296 171.672C450.957 164.524 470.632 163.42 491.447 168.3C505.168 171.516 520.334 175.42 536.393 179.55C587.726 192.756 651.606 209.194 718.499 216.038C791.687 223.528 838.981 216.975 867.336 195.42C881.224 184.889 897.992 179.772 918.583 179.772C918.612 179.772 918.64 179.772 918.674 179.772C937.104 179.783 957.026 183.812 976.287 187.705C1015.8 195.688 1056.65 203.944 1091.31 180.499C1106.14 170.466 1125.77 162.611 1149.64 157.155C1187.65 148.464 1231.17 144.034 1276.54 144.03V144.034Z" fill="#8D8D8D" fill-opacity="0.5"/>
<path d="M1266.61 166.456C1293.57 166.456 1321.18 167.926 1348.65 170.893C1417.04 178.274 1478.2 194.066 1520.88 215.361C1559.25 234.505 1619.4 248.182 1677.86 251.052C1716.18 252.93 1785.75 251.476 1821.04 220.572C1838.22 205.53 1856.85 194.945 1876.41 189.12C1893.46 184.033 1910.75 182.657 1927.77 185.017C1959.65 189.443 1981.65 205.768 1989.32 219.989L1988.89 220.144C1981.27 206.02 1959.39 189.796 1927.69 185.398C1891.05 180.316 1853.3 192.9 1821.39 220.836C1807.68 232.841 1787.25 241.544 1760.68 246.7C1736.99 251.297 1708.34 252.934 1677.83 251.437C1649.22 250.033 1619.39 245.938 1591.56 239.6C1563.85 233.284 1539.32 225.017 1520.63 215.692C1431.1 171.022 1268.01 154.152 1149.34 177.294C1125.52 181.937 1105.73 188.992 1090.5 198.251C1055.94 219.273 1015.77 212.736 976.929 206.417C936.681 199.868 898.666 193.685 866.405 215.575C850.265 226.561 829.156 233.362 801.879 236.368C778.735 238.919 751.064 238.686 717.288 235.652C645.824 229.236 580.219 212.491 527.504 199.036C514.562 195.735 502.341 192.612 491.005 189.894C445.783 179.048 415.128 196.053 382.672 214.054C348.929 232.771 314.035 252.125 261.339 237.227C207.769 222.081 171.147 226.533 138.833 230.457C112.925 233.607 88.4559 236.578 59.5399 228.789C52.8264 226.981 46.0845 225.242 38.9481 223.403C6.98657 215.159 -29.2417 205.814 -76.032 186.46L-75.8184 186.114C-29.0613 205.456 7.14795 214.797 39.0906 223.034C46.2269 224.873 52.969 226.615 59.6873 228.423C88.4988 236.185 112.915 233.218 138.762 230.076C171.132 226.141 207.817 221.684 261.496 236.862C313.964 251.697 348.758 232.398 382.406 213.736C398.009 205.083 414.139 196.131 431.657 190.924C451.285 185.087 470.741 184.628 491.138 189.52C502.479 192.239 514.704 195.361 527.646 198.663C580.343 212.114 645.924 228.851 717.34 235.264C789.302 241.723 836.572 235.369 866.101 215.272C880.664 205.39 897.944 200.389 918.935 199.989C937.664 199.627 957.672 202.886 977.019 206.032C1015.76 212.336 1055.82 218.853 1090.21 197.936C1105.49 188.642 1125.35 181.568 1149.23 176.913C1184.84 169.968 1224.94 166.452 1266.62 166.452L1266.61 166.456Z" fill="#8D8D8D" fill-opacity="0.5"/>
<path d="M1254.4 188.735C1284.87 188.735 1315.99 190.508 1347.05 194.016C1412.99 201.467 1474.31 216.298 1519.71 235.781C1558.75 252.534 1618.7 263.932 1676.16 265.522C1741.6 267.334 1793.16 256.597 1821.34 235.287C1858.35 207.304 1901.17 196.303 1938.81 205.103C1963.23 210.811 1981.78 224.41 1987.22 240.603L1986.77 240.708C1981.36 224.648 1962.94 211.15 1938.68 205.48C1901.2 196.719 1858.55 207.689 1821.67 235.579C1806.88 246.763 1785.79 255.038 1759.01 260.179C1734.75 264.834 1706.87 266.766 1676.15 265.915C1618.62 264.32 1558.59 252.911 1519.49 236.131C1422.4 194.467 1266.55 178.041 1148.91 197.069C1125.12 200.918 1105.09 207.191 1089.39 215.715C1055.21 234.26 1015.87 229.419 977.836 224.733C939.052 219.958 898.942 215.019 865.151 235.454C834.277 254.186 786.927 260.366 716.133 254.898C639.771 248.999 572.56 231.892 518.552 218.146C508.751 215.649 499.495 213.292 490.682 211.134C446.248 200.234 415.094 214.377 382.111 229.353C347.551 245.044 311.817 261.268 258.46 248.291C202.039 234.568 164.561 241.186 131.497 247.023C107.489 251.262 84.8115 255.267 58.4755 250.749C53.6909 249.928 48.9349 249.147 43.8987 248.318C10.6067 242.847 -27.1326 236.648 -78.8118 217.558L-78.6169 217.204C-26.9899 236.275 10.7207 242.473 43.9889 247.941C49.0253 248.769 53.7811 249.551 58.5704 250.372C84.8068 254.871 107.437 250.877 131.393 246.646C150.065 243.348 170.153 239.802 194.252 239.802C212.891 239.802 233.934 241.921 258.593 247.922C311.76 260.856 347.403 244.671 381.878 229.018C398.527 221.459 414.253 214.319 431.828 210.24C451.745 205.616 470.489 205.783 490.815 210.769C499.628 212.931 508.884 215.287 518.69 217.784C572.674 231.527 639.861 248.625 716.176 254.521C786.841 259.977 834.087 253.825 864.866 235.151C880.103 225.935 897.901 221.054 919.277 220.222C938.329 219.483 958.451 221.96 977.907 224.356C1015.86 229.03 1055.1 233.86 1089.12 215.396C1104.88 206.845 1124.97 200.549 1148.82 196.691C1179.16 191.784 1212.1 189.124 1246.74 188.782C1249.29 188.758 1251.85 188.743 1254.41 188.743L1254.4 188.735Z" fill="#8D8D8D" fill-opacity="0.5"/>
<path d="M1240.01 210.874C1274.18 210.874 1309.64 212.993 1345.42 217.228C1408.4 224.679 1469.88 238.523 1518.53 256.205C1558.07 270.574 1617.79 279.693 1674.39 280.008C1739.04 280.369 1791.34 269.714 1821.64 250.006C1843.93 235.513 1867.1 226.195 1890.51 222.318C1911.09 218.908 1930.78 219.985 1947.46 225.433C1957.75 228.793 1966.61 233.813 1973.1 239.95C1979.63 246.129 1983.78 253.483 1985.12 261.217L1984.65 261.272C1981.95 245.6 1968.33 232.67 1947.29 225.795C1910.76 213.864 1863.9 223.03 1821.94 250.313C1791.55 270.076 1739.15 280.75 1674.39 280.4C1617.73 280.085 1557.94 270.951 1518.34 256.562C1449.9 231.69 1345.29 211.243 1239.88 211.243C1209.18 211.243 1178.44 212.974 1148.48 216.835C1124.75 219.892 1104.49 225.39 1088.26 233.172C1054.57 249.322 1016.11 246.11 978.915 243.006C939.764 239.736 899.284 236.357 863.882 255.33C831.678 272.65 784.361 278.623 714.969 274.136C633.338 268.855 564.649 251.309 509.454 237.212C502.793 235.513 496.502 233.903 490.359 232.363C446.486 221.354 414.686 232.713 381.014 244.737C345.774 257.325 309.332 270.34 255.581 259.335C195.977 247.132 157.601 256.216 123.748 264.227C101.788 269.422 81.0486 274.334 57.4207 272.689C54.4228 272.479 51.4057 272.281 48.3554 272.078C13.9849 269.807 -24.9658 267.229 -81.5816 248.641L-81.4058 248.279C-24.8565 266.848 14.0562 269.422 48.3934 271.693C51.4437 271.896 54.4608 272.094 57.4588 272.304C80.9965 273.941 101.698 269.041 123.61 263.854C157.525 255.827 195.962 246.732 255.69 258.958C309.284 269.928 345.65 256.94 380.819 244.379C404.922 235.769 428.07 227.502 455.371 227.502C466.303 227.502 477.896 228.828 490.492 231.986C496.64 233.529 502.93 235.136 509.592 236.835C564.763 250.924 633.423 268.462 715.002 273.743C784.28 278.227 831.503 272.269 863.616 254.999C899.156 235.948 939.722 239.335 978.957 242.614C1016.07 245.713 1054.46 248.921 1088.01 232.833C1104.3 225.029 1124.61 219.514 1148.4 216.45C1177.22 212.736 1208.04 210.878 1240 210.878L1240.01 210.874Z" fill="#8D8D8D" fill-opacity="0.5"/>
<path d="M1222.8 232.736C1261.44 232.736 1301.89 235.338 1343.77 240.533C1403.6 247.953 1463.63 260.436 1517.37 276.625C1592.24 299.183 1748.12 305.763 1821.95 264.725C1846.19 251.251 1871.78 242.575 1895.94 239.627C1918.01 236.94 1938 238.997 1953.75 245.577C1972.04 253.218 1982.43 266.09 1983.01 281.82L1982.54 281.832C1981.96 266.25 1971.66 253.498 1953.53 245.923C1937.87 239.378 1917.98 237.333 1896.01 240.012C1871.92 242.948 1846.4 251.605 1822.22 265.044C1789.6 283.177 1736.45 293.774 1672.58 294.886C1615.75 295.874 1557.67 289.181 1517.2 276.99C1397.59 240.949 1259.59 225.849 1148.05 236.598C1124.45 238.873 1103.96 243.59 1087.15 250.621C1054.05 264.461 1016.53 262.816 980.245 261.221C940.662 259.483 899.73 257.687 862.633 275.194C828.97 291.13 781.686 296.904 713.824 293.362C626.572 288.808 556.567 270.741 500.317 256.228C496.835 255.33 493.409 254.447 490.05 253.584C446.396 242.377 413.669 251.021 379.023 260.171C343.322 269.602 306.405 279.351 252.721 270.379C181.761 258.523 141.399 270.827 102.368 282.726C86.9594 287.424 72.4064 291.861 56.428 294.626C17.1589 301.419 -24.9371 296.963 -84.3324 279.728L-84.1754 279.362C-24.8705 296.574 17.1445 301.026 56.3232 294.248C72.2684 291.491 86.8073 287.058 102.197 282.364C121.377 276.516 141.214 270.469 165.198 267.354C192.361 263.823 221.02 264.69 252.816 270.002C306.381 278.954 343.237 269.217 378.876 259.806C401.853 253.736 423.998 247.891 449.037 247.891C461.832 247.891 475.378 249.415 490.193 253.218C493.552 254.082 496.977 254.964 500.46 255.863C556.686 270.372 626.662 288.431 713.857 292.981C781.619 296.519 828.823 290.76 862.395 274.863C899.612 257.298 940.615 259.098 980.269 260.84C1018.16 262.505 1053.95 264.076 1086.93 250.282C1103.79 243.228 1124.34 238.499 1147.99 236.217C1172.04 233.899 1197.02 232.744 1222.79 232.74L1222.8 232.736Z" fill="#8D8D8D" fill-opacity="0.5"/>
<path d="M1202.13 254.26C1294.61 254.26 1397.96 268.372 1516.19 297.04C1599.91 317.343 1748.58 314.127 1822.25 279.436C1848.59 267.031 1875.6 259.323 1900.35 257.149C1923.61 255.108 1943.62 257.947 1958.21 265.359C1966 269.321 1971.92 274.454 1975.79 280.622C1979.8 286.999 1981.52 294.334 1980.89 302.418L1980.42 302.395C1981.64 286.474 1973.87 273.782 1957.95 265.689C1946.29 259.763 1931.44 256.866 1914.69 256.866C1887.14 256.866 1854.48 264.701 1822.48 279.77C1787.44 296.27 1733.55 306.777 1670.72 309.367C1614.31 311.689 1556.49 307.221 1516.05 297.413C1374.09 262.99 1253.58 249.559 1147.62 256.356C1124.22 257.857 1103.5 261.797 1086.02 268.069C1053.65 279.685 1018.81 279.533 981.913 279.374C941.793 279.199 900.306 279.02 861.364 295.061C842.635 302.799 820.608 307.929 794.02 310.74C770.516 313.225 743.904 313.832 712.66 312.591C619.498 308.897 548.376 290.211 491.224 275.197L489.718 274.8C445.664 263.228 411.484 269.216 375.293 275.559C341.217 281.532 302.595 288.298 249.827 281.415C182.977 272.697 142.939 287.746 107.613 301.026C90.0717 307.621 73.4993 313.847 55.321 316.554C19.8625 321.831 -20.3282 327.812 -87.1212 310.798L-86.9789 310.425C-20.2998 327.411 19.8292 321.438 55.2355 316.169C73.3567 313.47 89.9005 307.252 107.418 300.668C135.503 290.11 166.567 278.436 211.675 278.436C223.406 278.436 236.077 279.226 249.903 281.03C302.58 287.902 341.156 281.143 375.194 275.178C411.446 268.823 445.688 262.823 489.86 274.427L491.366 274.824C548.49 289.83 619.583 308.508 712.679 312.198C778.75 314.816 825.93 309.259 861.146 294.707C900.187 278.623 941.732 278.802 981.908 278.981C1018.75 279.14 1053.54 279.292 1085.82 267.707C1103.35 261.419 1124.12 257.468 1147.57 255.963C1165.33 254.824 1183.5 254.252 1202.11 254.252L1202.13 254.26Z" fill="#8D8D8D" fill-opacity="0.5"/>
<path d="M1914.63 274.459C1933.69 274.459 1949.88 277.857 1961.43 284.775C1975.65 293.288 1981.65 306.513 1978.78 323.025L1978.31 322.971C1981.15 306.611 1975.22 293.509 1961.15 285.09C1949.68 278.219 1933.58 274.844 1914.63 274.844C1888.01 274.844 1855.75 281.509 1822.76 294.509C1785.02 309.379 1730.38 319.801 1668.89 323.853C1611.68 327.625 1555.56 325.436 1514.92 317.849C1508.06 316.57 1501.13 315.267 1494.12 313.949C1389.78 294.342 1271.53 272.121 1147.2 276.127C1124.12 276.87 1103.16 280.035 1084.91 285.526C1053.47 294.991 1019.84 296.173 984.241 297.422C943.394 298.853 901.161 300.334 860.119 314.932C823.445 328.018 774.835 333.544 711.52 331.829C612.613 329.15 538.475 309.22 489.413 296.033C443.683 283.741 408.552 286.965 367.877 290.698C334.646 293.747 296.988 297.204 246.972 292.471C176.169 285.771 135.522 304.347 99.6596 320.738C84.3653 327.73 69.9168 334.333 54.29 338.498C14.6741 349.052 -23.5163 356.596 -89.8721 341.897L-89.7488 341.52C-23.5212 356.192 14.5981 348.663 54.1426 338.129C69.7267 333.976 84.1562 327.38 99.4315 320.4C130.191 306.342 164.471 290.678 218.222 290.678C227.254 290.678 236.823 291.122 247.034 292.086C296.998 296.815 334.627 293.362 367.834 290.313C386.806 288.571 404.58 286.941 422.777 286.941C443.649 286.941 465.087 289.084 489.57 295.668C538.603 308.851 612.703 328.769 711.543 331.444C774.787 333.155 823.326 327.641 859.934 314.579C901.056 299.953 943.337 298.468 984.227 297.037C1019.79 295.788 1053.38 294.61 1084.76 285.164C1103.06 279.658 1124.06 276.485 1147.19 275.742C1157.13 275.423 1167.04 275.267 1176.89 275.267C1290.41 275.267 1398.21 295.528 1494.24 313.571C1501.25 314.89 1508.18 316.192 1515.04 317.472C1594.75 332.35 1740.66 326.439 1822.57 294.163C1855.61 281.143 1887.94 274.466 1914.65 274.466L1914.63 274.459Z" fill="#8D8D8D" fill-opacity="0.5"/>
<path d="M1914.11 292.281C1935.41 292.281 1952.65 296.115 1963.87 303.861C1970.14 308.186 1974.43 313.669 1976.63 320.155C1978.92 326.921 1978.93 334.819 1976.68 343.624L1976.21 343.542C1980.65 326.256 1976.39 313.004 1963.57 304.157C1952.43 296.469 1935.29 292.662 1914.12 292.662C1888.51 292.662 1857.01 298.23 1823.03 309.239C1781.99 322.543 1726.59 332.871 1667.06 338.323C1609.39 343.6 1553.52 343.585 1513.77 338.277C1482.11 334.049 1450.35 328.675 1416.73 322.986C1331.52 308.57 1243.41 293.661 1146.78 295.893C1120.8 296.492 1101.38 298.681 1083.79 302.982C1053.72 310.34 1021.82 312.708 988.051 315.216C946.036 318.335 902.586 321.563 858.856 334.808C819.914 346.633 771.342 351.953 710.365 351.07C614.523 349.682 545.896 332.895 489.095 317.266C438.276 303.282 399.249 303.993 349.846 304.892C320.093 305.432 286.374 306.047 244.097 303.523C169.218 299.055 128.195 321.497 92.0053 341.298C78.8919 348.473 66.5101 355.247 53.2352 360.431C16.6506 374.722 -22.0292 386.435 -92.6422 372.983L-92.5328 372.606C-22.072 386.03 16.5272 374.341 53.0309 360.085C66.2726 354.913 78.6448 348.142 91.7392 340.979C124.832 322.873 161.963 302.566 225.249 302.562C231.302 302.562 237.583 302.749 244.131 303.138C286.383 305.658 320.093 305.047 349.831 304.507C399.282 303.608 438.342 302.897 489.242 316.904C546.01 332.521 614.59 349.301 710.37 350.685C771.29 351.564 819.805 346.256 858.689 334.446C902.482 321.186 945.96 317.958 988.009 314.835C1021.76 312.331 1053.63 309.963 1083.66 302.617C1101.28 298.304 1120.74 296.115 1146.76 295.512C1243.45 293.276 1331.59 308.189 1416.82 322.613C1450.44 328.302 1482.19 333.672 1513.84 337.899C1598.11 349.149 1739.62 335.866 1822.85 308.885C1856.86 297.861 1888.43 292.288 1914.1 292.288L1914.11 292.281Z" fill="#8D8D8D" fill-opacity="0.5"/>
<path d="M1913.44 310.005C1937.47 310.005 1955.08 314.26 1965.83 322.671C1977.65 331.926 1980.6 345.906 1974.57 364.218L1974.1 364.117C1980.08 345.953 1977.19 332.101 1965.5 322.951C1954.32 314.205 1935.61 309.99 1909.88 310.425C1885.72 310.834 1855.79 315.516 1823.31 323.97C1777.94 335.78 1720.33 346.28 1665.27 352.778C1604.79 359.917 1552 361.967 1512.63 358.704C1464.68 354.73 1417.95 347.547 1368.48 339.941C1298.75 329.22 1226.64 318.133 1146.35 315.66C1124.39 314.983 1102.97 316.589 1082.68 320.435C1055.58 325.572 1027.2 328.769 997.15 332.152C952.374 337.196 906.069 342.406 857.606 354.675C817.938 364.739 769.404 369.849 709.22 370.304C612.014 371.039 544.466 354.267 488.786 338.494C417.869 318.638 367.62 317.491 276.406 315.407C265.207 315.15 253.628 314.886 241.232 314.571C162.214 312.553 121.092 339.167 84.8118 362.647C73.7604 369.799 63.322 376.557 52.1898 382.363C18.475 399.956 -20.6942 416.125 -95.4027 404.07L-95.3124 403.689C-20.775 415.717 18.2992 399.586 51.9332 382.037C63.0416 376.238 73.4706 369.491 84.5125 362.344C103.08 350.328 122.28 337.903 146.967 328.582C172.776 318.841 200.937 314.073 232.813 314.073C235.597 314.073 238.405 314.108 241.246 314.182C253.642 314.497 265.221 314.761 276.415 315.018C367.677 317.102 417.95 318.25 488.938 338.129C543.402 353.559 609.24 369.943 703.081 369.943C705.12 369.943 707.148 369.935 709.215 369.919C769.352 369.464 817.843 364.358 857.463 354.306C905.964 342.029 952.289 336.814 997.083 331.771C1027.12 328.388 1055.49 325.195 1082.57 320.062C1102.9 316.208 1124.36 314.598 1146.36 315.275C1226.7 317.748 1298.82 328.839 1368.56 339.56C1418.02 347.166 1464.75 354.349 1512.68 358.319C1599.92 365.548 1737.76 345.829 1823.17 323.604C1855.69 315.143 1885.67 310.453 1909.87 310.044C1911.07 310.025 1912.27 310.013 1913.44 310.013V310.005Z" fill="#8D8D8D" fill-opacity="0.5"/>
<path d="M249.642 325.175C299.387 325.175 340.343 327.87 377.773 333.579C415.393 339.315 448.077 347.691 488.624 359.349C544.319 375.46 609.449 390.226 708.056 389.145C761.042 388.565 810.892 383.526 856.228 374.162C936.358 357.634 1005.65 347.78 1081.48 337.499C1103.19 334.555 1124.88 333.726 1145.96 335.033C1213.26 339.202 1272.91 348.64 1330.59 357.767C1391.81 367.454 1449.64 376.604 1511.51 378.739C1596.83 381.682 1730.42 357.078 1823.47 338.319C1858.85 331.187 1888.76 327.598 1912.37 327.629C1938.68 327.672 1957.23 332.26 1967.49 341.263C1978.38 350.821 1980.05 365.474 1972.45 384.817L1972 384.696C1979.54 365.497 1977.91 350.973 1967.14 341.527C1956.97 332.607 1938.55 328.061 1912.37 328.018C1888.8 327.975 1858.93 331.572 1823.59 338.696C1730.5 357.463 1596.88 382.067 1511.49 379.127C1449.59 376.993 1391.74 367.838 1330.5 358.148C1272.83 349.025 1213.2 339.587 1145.92 335.422C1124.88 334.119 1103.23 334.948 1081.56 337.884C1005.74 348.165 936.457 358.016 856.342 374.539C810.972 383.911 761.08 388.954 708.061 389.534C609.372 390.611 544.2 375.841 488.463 359.715C414.686 338.506 357.424 324.674 238.358 325.607C155.225 326.26 114.274 357.308 78.1409 384.7C68.9853 391.641 60.3333 398.202 51.1302 404.28C35.8122 414.398 16.7598 425.621 -8.38849 432.127C-34.1688 438.796 -63.541 439.784 -98.1728 435.141L-98.0966 434.756C-19.5967 445.275 19.9382 424.381 50.8307 403.973C60.0196 397.902 68.6622 391.35 77.813 384.408C96.3998 370.316 115.619 355.745 140.71 344.533C169.16 331.825 201.094 325.502 238.343 325.21C242.159 325.179 245.922 325.163 249.632 325.163L249.642 325.175Z" fill="#8D8D8D" fill-opacity="0.5"/>
<path d="M262.318 335.71C345.147 335.71 397.79 352.295 453.228 369.759C518.011 390.168 585.003 411.272 706.897 408.378C800.971 406.146 880.417 390.226 950.507 376.184C1010.71 364.121 1064.07 353.431 1115.09 353.431C1125.32 353.431 1135.46 353.862 1145.55 354.799C1202.97 360.131 1253.36 368.725 1302.09 377.035C1371.43 388.861 1436.92 400.029 1510.35 399.166C1568.22 398.486 1645.04 384.486 1719.33 370.949C1831.98 350.421 1938.38 331.031 1968.56 359.264C1979.23 369.242 1979.81 384.334 1970.35 405.411L1969.9 405.279C1979.3 384.35 1978.74 369.382 1968.2 359.524C1957.45 349.464 1936.88 345.501 1909.74 345.498C1861.2 345.498 1791.61 358.179 1719.43 371.334C1645.12 384.879 1568.28 398.882 1510.36 399.563C1436.88 400.422 1371.36 389.254 1301.99 377.424C1253.28 369.118 1202.9 360.524 1145.5 355.196C1085.25 349.6 1022.86 362.099 950.626 376.572C880.512 390.622 801.042 406.543 706.916 408.779C584.927 411.676 517.892 390.556 453.061 370.133C391.913 350.868 334.152 332.673 235.493 336.662C148.345 340.189 109.57 374.352 72.0737 407.395C31.7547 442.922 -6.33136 476.478 -100.929 466.239L-100.867 465.854C-6.51202 476.066 31.4933 442.58 71.7269 407.13C90.2614 390.801 109.428 373.913 134.795 360.738C163.445 345.859 196.376 337.856 235.474 336.274C244.777 335.896 253.718 335.717 262.328 335.717L262.318 335.71Z" fill="#8D8D8D" fill-opacity="0.5"/>
<path d="M250.345 340.516C284.098 340.516 315.105 343.11 346.315 348.473C381.137 354.43 410.776 362.923 442.153 371.91C507.036 390.498 574.128 409.716 692.491 406.516C781.43 404.07 857.872 389.631 925.321 376.892C999.844 362.814 1064.2 350.658 1127.1 357.164C1180.38 362.659 1228.25 370.219 1274.54 377.525C1314.44 383.825 1352.13 389.779 1390.58 393.994C1428.59 398.163 1464.36 399.711 1499.96 398.731C1555.48 397.374 1628.2 384.611 1698.53 372.264C1755.57 362.25 1814.56 351.899 1862.08 348.189C1887.64 346.194 1908.08 346.213 1924.55 348.239C1943.05 350.514 1956.15 355.251 1964.63 362.721C1970.52 367.916 1974.08 374.519 1975.21 382.347C1976.39 390.525 1974.96 400.329 1970.95 411.482L1970.5 411.373C1978.37 389.448 1976.33 373.621 1964.27 362.989C1955.88 355.589 1942.87 350.892 1924.48 348.628C1908.05 346.606 1887.65 346.591 1862.13 348.582C1814.63 352.288 1755.66 362.639 1698.63 372.649C1628.28 384.996 1555.53 397.766 1499.97 399.123C1464.35 400.107 1428.54 398.556 1390.51 394.387C1352.06 390.168 1314.36 384.214 1274.44 377.914C1228.16 370.607 1180.3 363.048 1127.03 357.557C1064.22 351.063 999.901 363.211 925.421 377.28C857.953 390.024 781.487 404.467 692.5 406.913C574.047 410.113 506.912 390.883 441.987 372.283C410.624 363.3 381.004 354.815 346.211 348.862C307.422 342.192 268.937 339.812 225.097 341.372C141.09 344.479 101.665 375.807 63.5358 406.108C21.9293 439.17 -17.3683 470.396 -110.583 460.052L-110.521 459.667C-17.5392 469.988 21.6821 438.824 63.2032 405.828C101.394 375.48 140.886 344.098 225.073 340.983C233.687 340.676 242.092 340.52 250.336 340.52L250.345 340.516Z" fill="#8D8D8D" fill-opacity="0.5"/>
<path d="M237.826 345.327C271.654 345.327 302.956 347.746 334.798 352.762C369.597 358.191 399.373 365.879 430.897 374.018C495.913 390.806 563.143 408.161 678.085 404.653C761.831 402.021 835.099 389.005 899.745 377.522C976.625 363.864 1043.02 352.07 1108.64 359.532C1155.68 364.856 1199.02 371.241 1240.93 377.417C1288.14 384.374 1332.73 390.942 1377.97 395.317C1414.55 398.855 1451.06 399.831 1489.59 398.303C1542.3 396.215 1610.37 384.654 1676.21 373.473C1735.96 363.324 1797.75 352.832 1848.53 349.293C1875.89 347.384 1897.92 347.598 1915.88 349.939C1936.08 352.572 1950.66 357.81 1960.44 365.953C1967.14 371.529 1971.51 378.556 1973.43 386.839C1975.43 395.507 1974.81 405.843 1971.59 417.56L1971.13 417.475C1977.46 394.43 1973.85 377.666 1960.1 366.225C1950.39 358.144 1935.9 352.941 1915.8 350.32C1897.88 347.983 1875.89 347.773 1848.57 349.678C1797.82 353.217 1736.04 363.709 1676.3 373.855C1610.45 385.039 1542.35 396.604 1489.61 398.692C1451.05 400.22 1414.51 399.24 1377.91 395.701C1332.66 391.327 1288.06 384.755 1240.84 377.798C1198.94 371.626 1155.61 365.241 1108.57 359.917C1043.03 352.467 976.677 364.253 899.84 377.903C835.175 389.39 761.883 402.41 678.099 405.042C563.077 408.554 495.808 391.187 430.755 374.387C399.244 366.252 369.483 358.568 334.708 353.143C295.776 347.011 257.648 344.763 214.716 346.077C133.878 348.768 93.844 377.281 55.1356 404.856C12.2034 435.433 -28.3485 464.318 -120.214 453.861L-120.147 453.476C-28.5005 463.91 11.9755 435.083 54.8221 404.564C93.597 376.946 133.693 348.387 214.697 345.692C222.555 345.451 230.257 345.331 237.826 345.331V345.327Z" fill="#8D8D8D" fill-opacity="0.5"/>
<path d="M1867.75 349.247C1906.51 349.247 1937.7 354.648 1955.99 369.029C1963.57 374.99 1968.8 382.453 1971.53 391.214C1974.4 400.391 1974.63 411.299 1972.21 423.638L1971.74 423.576C1976.49 399.314 1971.24 381.562 1955.66 369.309C1937.47 355.002 1906.4 349.628 1867.78 349.628C1808.19 349.628 1730.64 362.422 1654.64 374.955C1590.19 385.587 1529.3 395.628 1479.23 398.26C1438.75 400.387 1400.42 399.971 1365.3 397.016C1309.99 392.365 1255.02 384.689 1196.83 376.565C1162.69 371.797 1127.39 366.87 1090.12 362.282C1021.65 353.804 953.139 365.225 873.817 378.447C812.132 388.729 742.217 400.384 663.698 403.18C551.978 407.006 484.515 391.474 419.275 376.456C389.086 369.507 357.866 362.321 323.205 357.432C283.594 351.763 245.822 349.651 204.339 350.787C126.613 352.914 86.0137 378.677 46.7542 403.592C2.46777 431.696 -39.3621 458.24 -129.845 447.671L-129.778 447.286C-39.495 457.832 2.25879 431.334 46.4644 403.285C85.7856 378.331 126.447 352.529 204.324 350.398C245.845 349.262 283.646 351.374 323.291 357.047C357.975 361.936 389.205 369.126 419.408 376.079C484.615 391.089 552.039 406.613 663.684 402.787C742.165 399.995 812.061 388.344 873.727 378.062C953.096 364.833 1021.64 353.404 1090.19 361.893C1127.47 366.482 1162.77 371.409 1196.92 376.176C1255.1 384.3 1310.06 391.972 1365.36 396.623C1400.45 399.575 1438.75 399.991 1479.22 397.864C1529.26 395.235 1590.12 385.194 1654.56 374.566C1730.55 362.033 1808.12 349.239 1867.76 349.239L1867.75 349.247Z" fill="#8D8D8D" fill-opacity="0.5"/>
<path d="M1852.95 350.316C1869.65 350.316 1884.36 351.226 1897.43 353.053C1921.01 356.351 1938.61 362.519 1951.22 371.91C1959.75 378.264 1965.91 386.186 1969.52 395.456C1973.31 405.178 1974.42 416.708 1972.83 429.72L1972.36 429.681C1975.45 404.443 1968.23 385.101 1950.9 372.198C1931.59 357.813 1899.23 350.732 1852.46 350.728C1842.54 350.728 1831.99 351.047 1820.76 351.681C1763.92 354.893 1697.29 365.614 1632.85 375.985C1572.84 385.641 1516.17 394.76 1468.87 397.832C1425.94 400.62 1386.85 400.792 1352.7 398.338C1281.22 393.201 1209.22 383.366 1132.99 372.952C1113.13 370.238 1092.6 367.434 1071.66 364.654C1000.02 355.08 929.236 366.127 847.267 378.921C785.905 388.499 722.452 398.4 649.297 401.324C540.708 405.474 472.964 391.754 407.45 378.486C377.298 372.381 346.121 366.065 311.698 361.729C271.621 356.573 234.205 354.597 193.953 355.503C119.429 357.187 78.3358 380.189 38.5964 402.433C-7.1153 428.021 -50.2899 452.189 -139.485 441.491L-139.413 441.106C-50.4037 451.781 -7.3006 427.655 38.3303 402.114C78.1266 379.839 119.277 356.802 193.938 355.118C234.219 354.208 271.664 356.188 311.769 361.348C346.211 365.688 377.398 372.003 407.564 378.112C473.045 391.373 540.755 405.085 649.273 400.939C722.395 398.019 785.829 388.118 847.177 378.544C907.523 369.126 961.82 360.652 1014.87 360.652C1033.91 360.652 1052.79 361.745 1071.73 364.276C1092.67 367.057 1113.21 369.861 1133.06 372.575C1209.28 382.989 1281.27 392.824 1352.74 397.957C1386.86 400.41 1425.92 400.239 1468.82 397.451C1516.1 394.379 1572.76 385.264 1632.75 375.612C1697.21 365.241 1763.86 354.516 1820.73 351.304C1832.23 350.654 1842.95 350.327 1852.94 350.327L1852.95 350.316Z" fill="#8D8D8D" fill-opacity="0.5"/>
<path d="M1837.67 351.273C1856.37 351.273 1872.83 352.311 1887.49 354.395C1912.45 357.95 1932.17 364.739 1946.1 374.578C1955.67 381.336 1962.82 389.736 1967.36 399.543C1972.14 409.849 1974.19 422.044 1973.45 435.794L1972.98 435.779C1974.39 409.11 1965.24 388.62 1945.78 374.873C1923.78 359.33 1888.08 351.685 1837.18 351.681C1827.39 351.681 1817.05 351.965 1806.12 352.529C1746.3 355.616 1677.45 366.47 1610.86 376.969C1555.35 385.723 1502.92 393.99 1458.5 397.401C1412.49 400.936 1373.76 401.671 1340.09 399.652C1248.1 394.138 1155.74 381.609 1053.2 367.018C978.121 356.262 904.895 366.94 820.104 379.303C762.32 387.729 702.568 396.44 634.896 399.458C529.209 403.942 461.048 392.007 395.129 380.461C365.173 375.216 334.195 369.791 300.195 366.015C259.51 361.372 222.45 359.528 183.571 360.213C112.293 361.465 70.7858 381.729 30.6473 401.328C-16.5563 424.373 -61.142 446.142 -149.116 435.304L-149.044 434.919C-61.2368 445.738 -16.7224 424.004 30.4052 400.994C70.6006 381.371 112.16 361.08 183.561 359.824C222.469 359.139 259.548 360.987 300.261 365.63C334.276 369.406 365.263 374.834 395.229 380.08C461.119 391.618 529.248 403.553 634.872 399.069C702.516 396.055 762.253 387.344 820.023 378.921C861.787 372.832 901.232 367.08 939.726 364.183C982.853 360.936 1018.94 361.718 1053.29 366.637C1155.81 381.228 1248.16 393.753 1340.14 399.267C1373.78 401.286 1412.48 400.547 1458.46 397.016C1502.86 393.605 1555.28 385.342 1610.78 376.588C1677.38 366.089 1746.25 355.227 1806.1 352.14C1817.29 351.564 1827.8 351.273 1837.68 351.273H1837.67Z" fill="#8D8D8D" fill-opacity="0.5"/>
<path d="M1821.58 352.12C1876.6 352.12 1915.69 360.329 1940.57 377.027C1951.26 384.198 1959.49 393.103 1965.03 403.486C1970.85 414.41 1973.9 427.324 1974.07 441.876H1973.6C1973.26 413.659 1962.05 391.945 1940.27 377.331C1911.09 357.751 1862.25 349.88 1790.96 353.279C1728.19 356.269 1657.24 367.286 1588.63 377.937C1537.67 385.847 1489.54 393.321 1448.12 396.973C1399.66 401.246 1360.19 402.553 1327.48 400.97C1241.7 396.821 1151.41 387.08 1034.74 369.382C955.881 357.339 880.032 367.659 792.205 379.606C738.283 386.94 682.532 394.527 620.49 397.591C516.89 402.456 447.844 392.225 381.07 382.332C351.841 378 321.618 373.524 288.683 370.3C259.928 367.488 220.811 364.335 173.18 364.918C105.213 365.75 63.3835 383.308 22.9315 400.286C-25.8495 420.76 -71.9271 440.103 -158.765 429.109L-158.694 428.724C-72.0079 439.698 -26.0015 420.387 22.713 399.94C63.2125 382.942 105.09 365.361 173.17 364.529C220.83 363.946 259.966 367.1 288.735 369.915C321.685 373.139 351.917 377.619 381.151 381.951C447.897 391.84 516.913 402.067 620.457 397.206C682.47 394.142 738.217 386.559 792.124 379.225C835.323 373.349 876.126 367.796 916.16 365.198C961.055 362.285 998.76 363.495 1034.82 369.001C1151.47 386.695 1241.74 396.432 1327.51 400.582C1360.19 402.16 1399.62 400.854 1448.07 396.584C1489.46 392.936 1537.58 385.462 1588.53 377.552C1657.16 366.897 1728.12 355.881 1790.93 352.89C1801.64 352.381 1811.86 352.124 1821.58 352.124L1821.58 352.12Z" fill="#8D8D8D" fill-opacity="0.5"/>
<path d="M1806.04 352.824C1858.79 352.824 1904.2 359.82 1934.62 379.252C1946.52 386.851 1955.9 396.277 1962.5 407.266C1969.46 418.843 1973.56 432.535 1974.69 447.954L1974.21 447.978C1972.02 418.081 1958.6 395.064 1934.33 379.559C1862.09 333.423 1704.84 357.588 1566.11 378.906C1519.77 386.026 1476.01 392.75 1437.75 396.537C1386.12 401.651 1347.07 403.479 1314.88 402.285C1219.78 398.762 1122.11 388.772 1016.28 371.747C933.251 358.299 850.759 368.76 763.427 379.835C713.705 386.139 662.297 392.66 606.085 395.729C504.461 400.994 437.468 392.851 366.542 384.233C338.196 380.788 308.885 377.226 277.175 374.593C245.622 371.972 207.361 369.332 162.799 369.631C98.2199 370.063 56.1954 384.945 15.558 399.337C-34.9145 417.21 -82.5838 434.095 -168.391 422.922L-168.315 422.537C-82.6407 433.69 -35.0333 416.829 15.3726 398.979C56.0576 384.572 98.1249 369.674 162.799 369.238C207.384 368.939 245.665 371.579 277.228 374.2C308.952 376.833 338.267 380.399 366.617 383.845C437.516 392.462 504.484 400.605 606.056 395.336C662.244 392.268 713.643 385.75 763.356 379.446C808.112 373.769 850.384 368.41 892.11 366.12C938.928 363.549 978.416 365.214 1016.38 371.362C1122.18 388.383 1219.83 398.369 1314.9 401.892C1347.07 403.082 1386.1 401.258 1437.7 396.148C1475.95 392.361 1519.7 385.637 1566.02 378.521C1646.52 366.151 1733.26 352.824 1806.04 352.824Z" fill="#8D8D8D" fill-opacity="0.5"/>
<path d="M1789.72 353.423C1852.09 353.423 1897.57 362.585 1928.21 381.243C1941.41 389.281 1952.03 399.252 1959.77 410.887C1967.94 423.16 1973.17 437.68 1975.31 454.036L1974.84 454.079C1970.68 422.378 1954.9 397.976 1927.93 381.558C1892.55 360.015 1837.27 351.164 1758.94 354.5C1690.37 357.421 1615.58 368.854 1543.25 379.913C1501.63 386.275 1462.32 392.287 1427.38 396.11C1373.27 402.036 1333.52 404.416 1302.27 403.603C1198.27 400.897 1098.68 391.253 997.829 374.115C910.131 359.12 824.371 369.266 733.58 380.003C688.462 385.338 641.809 390.856 591.688 393.87C491.247 399.602 422.639 393.053 350.007 386.123C323.177 383.565 295.434 380.916 265.672 378.883L262.266 378.649C230.119 376.452 193.686 373.956 152.417 374.344C91.9005 374.908 50.1277 386.979 9.72797 398.657C-42.8398 413.85 -92.4904 428.2 -178.032 416.739L-177.956 416.354C-92.5331 427.795 -42.9349 413.461 9.57111 398.287C50.0042 386.602 91.815 374.519 152.412 373.956C193.705 373.575 230.152 376.063 262.309 378.264L265.715 378.498C295.482 380.531 323.229 383.18 350.064 385.738C422.672 392.668 491.257 399.213 591.655 393.485C641.762 390.475 688.405 384.957 733.513 379.622C779.975 374.127 823.858 368.935 867.436 366.952C916.379 364.728 957.843 366.882 997.924 373.734C1098.75 390.864 1198.31 400.508 1302.29 403.214C1333.5 404.027 1373.23 401.647 1427.32 395.725C1462.24 391.902 1501.55 385.89 1543.16 379.528C1615.5 368.469 1690.31 357.032 1758.91 354.108C1769.6 353.653 1779.87 353.423 1789.72 353.423H1789.72Z" fill="#8D8D8D" fill-opacity="0.5"/>
<path d="M1773.56 353.913C1839.23 353.913 1887.74 363.491 1921.3 382.997C1935.9 391.482 1947.84 402.029 1956.8 414.34C1966.27 427.352 1972.7 442.755 1975.93 460.118L1975.46 460.177C1969.21 426.531 1950.89 400.671 1921.02 383.312C1882.39 360.858 1823.84 351.588 1742.02 354.983C1670.59 357.942 1590.58 370.18 1520 380.979C1483.19 386.61 1448.43 391.926 1417.01 395.682C1359.65 402.542 1320.37 405.392 1289.67 404.922C1178.42 403.226 1076.92 393.924 979.371 376.483C886.398 359.766 797.023 369.655 702.402 380.123C662.377 384.553 620.994 389.13 577.283 392.011C476.647 398.323 405.34 393.326 329.843 388.041C305.668 386.349 280.677 384.595 254.165 383.18L248.264 382.865C216.977 381.185 181.519 379.279 142.031 379.066C84.6217 378.754 42.7728 388.422 2.29224 397.774C-52.0525 410.327 -103.38 422.184 -187.672 410.564L-187.591 410.179C-103.409 421.787 -52.1284 409.942 2.16394 397.397C42.0316 388.188 83.2439 378.669 139.323 378.669C140.225 378.669 141.124 378.669 142.031 378.677C181.533 378.891 217.001 380.796 248.292 382.476L254.194 382.791C280.71 384.21 305.706 385.96 329.881 387.652C405.354 392.937 476.647 397.934 577.24 391.622C620.937 388.745 662.316 384.164 702.331 379.738C750.679 374.387 796.348 369.336 841.993 367.664C893.302 365.785 936.985 368.465 979.466 376.106C1076.99 393.543 1178.46 402.841 1289.67 404.537C1320.35 405.003 1359.6 402.157 1416.94 395.301C1448.34 391.544 1483.1 386.229 1519.9 380.602C1590.5 369.803 1670.52 357.565 1741.99 354.602C1752.92 354.147 1763.44 353.921 1773.56 353.921L1773.56 353.913Z" fill="#8D8D8D" fill-opacity="0.5"/>
<path d="M1757.46 354.29C1770.53 354.29 1783.31 354.652 1795.73 355.433C1901.26 362.087 1960.41 398.318 1976.55 466.2L1976.09 466.274C1959.99 398.591 1900.98 362.46 1795.7 355.822C1704.6 350.079 1593.94 367.107 1496.31 382.133C1464.43 387.037 1434.33 391.672 1406.65 395.25C1351.83 402.335 1309.44 405.929 1277.07 406.24C1224.33 406.741 1171.62 404.801 1120.39 400.469C1066.97 395.95 1013.32 388.678 960.922 378.851C861.901 360.189 768.478 369.919 669.571 380.22C635.253 383.794 599.761 387.492 562.891 390.148C459.366 397.272 386.592 393.928 302.324 390.059C283.157 389.176 263.335 388.266 242.672 387.469C234.88 387.165 227.083 386.839 218.83 386.493C191.506 385.342 163.255 384.156 131.659 383.774C78.1981 383.133 36.8716 390.288 -3.0863 397.21C-59.7686 407.029 -113.31 416.304 -197.293 404.377L-197.213 403.992C-113.32 415.907 -59.8207 406.64 -3.18115 396.829C36.8053 389.903 78.1554 382.74 131.669 383.386C163.269 383.767 191.529 384.957 218.859 386.104C227.112 386.45 234.908 386.78 242.7 387.08C263.368 387.881 283.19 388.791 302.357 389.67C386.606 393.539 459.362 396.883 562.858 389.763C599.718 387.107 635.2 383.413 669.519 379.839C727.721 373.776 784.038 367.912 840.711 367.912C880.388 367.912 920.227 370.786 961.041 378.478C1064.82 397.937 1168.2 406.893 1277.08 405.855C1309.43 405.547 1351.79 401.954 1406.59 394.869C1434.27 391.291 1464.37 386.66 1496.23 381.756C1580.59 368.776 1674.67 354.298 1757.48 354.298L1757.46 354.29Z" fill="#8D8D8D" fill-opacity="0.5"/>
<path d="M1740.98 354.574C1754.79 354.574 1768.34 354.959 1781.56 355.795C1806.43 357.37 1829.21 360.551 1849.26 365.249C1870.96 370.331 1890.26 377.366 1906.61 386.162C1924.1 395.569 1938.81 407.297 1950.33 421.021C1962.55 435.565 1971.58 452.811 1977.16 472.278L1976.7 472.368C1956.28 401.215 1892.44 363.211 1781.51 356.18C1685.86 350.118 1572.3 367.803 1472.11 383.409C1445.3 387.585 1419.97 391.529 1396.27 394.815C1337.73 402.927 1295.85 406.975 1264.45 407.55C1209.44 408.561 1155.58 407.056 1104.35 403.078C1048.97 398.777 994.503 391.42 942.449 381.212C836.387 360.322 738.359 370.047 634.578 380.341C606.726 383.106 577.924 385.96 548.471 388.278C437.9 396.619 356.497 394.698 262.237 392.47C252.065 392.229 241.722 391.984 231.15 391.746C217.443 391.396 203.45 390.922 188.636 390.413C167.236 389.682 145.105 388.927 121.259 388.472C72.1736 387.535 31.9304 392.279 -6.98218 396.868C-66.4915 403.883 -122.694 410.51 -206.948 398.174L-206.862 397.793C-122.689 410.117 -66.5153 403.494 -7.04883 396.483C31.8829 391.894 72.1403 387.15 121.268 388.087C145.119 388.542 167.251 389.297 188.655 390.028C203.465 390.533 217.457 391.011 231.16 391.361C241.731 391.599 252.075 391.844 262.247 392.085C356.493 394.313 437.886 396.234 548.424 387.897C577.872 385.579 606.669 382.725 634.516 379.96C693.341 374.123 750.332 368.472 807.979 368.472C852.076 368.472 896.547 371.778 942.553 380.839C1043.72 400.679 1149.01 409.289 1264.44 407.165C1295.8 406.59 1337.66 402.542 1396.18 394.434C1419.88 391.151 1445.2 387.204 1472.01 383.032C1558.39 369.577 1654.72 354.574 1740.97 354.574H1740.98Z" fill="#8D8D8D" fill-opacity="0.5"/>
<path d="M1725 354.784C1739.66 354.784 1753.58 355.204 1766.85 356.04C1792.95 357.685 1816.95 361.01 1838.19 365.929C1861.2 371.257 1881.78 378.638 1899.39 387.866C1918.23 397.743 1934.26 410.059 1947.05 424.478C1960.62 439.769 1970.96 457.902 1977.79 478.368L1977.34 478.469C1952.39 403.697 1883.53 363.775 1766.82 356.429C1666.51 350.11 1550.09 368.57 1447.38 384.856C1425.77 388.282 1405.37 391.517 1385.91 394.391C1327.97 402.942 1285.33 408.348 1251.85 408.873C1191.45 409.825 1137.95 408.639 1088.31 405.248C1029.32 401.22 975.575 394.13 924.005 383.584C809.571 360.096 706.241 370.055 596.839 380.601C576.437 382.569 555.341 384.603 534.084 386.423C421.96 395.694 337.074 396.957 219.657 396.044C197.397 395.81 174.054 395.091 149.348 394.325C136.942 393.94 124.114 393.543 110.887 393.193C66.9993 392.027 28.8183 394.511 -8.10358 396.915C-71.2999 401.029 -130.994 404.914 -216.569 391.995L-216.483 391.614C-130.971 404.525 -71.3091 400.64 -8.14142 396.53C28.7947 394.123 66.9899 391.638 110.906 392.804C124.133 393.154 136.961 393.551 149.367 393.936C174.073 394.702 197.411 395.421 219.666 395.655C337.065 396.569 421.936 395.305 534.037 386.034C555.289 384.214 576.385 382.18 596.782 380.213C656.847 374.422 715.102 368.811 774.359 368.807C823.069 368.807 872.454 372.598 924.119 383.203C1018.4 402.487 1122.54 410.517 1251.84 408.48C1285.29 407.951 1327.9 402.549 1385.82 394.002C1405.28 391.132 1425.68 387.897 1447.29 384.471C1496.57 376.658 1552.43 367.8 1607.18 361.897C1651.29 357.141 1690.22 354.784 1725 354.784Z" fill="#8D8D8D" fill-opacity="0.5"/>
<path d="M1708.76 354.897C1723.71 354.897 1737.95 355.321 1751.57 356.161C1778.92 357.852 1804.18 361.313 1826.65 366.443C1851 372.007 1872.92 379.73 1891.82 389.398C1912.05 399.754 1929.47 412.68 1943.58 427.811C1958.56 443.879 1970.28 462.934 1978.41 484.446L1977.95 484.563C1948.25 406.007 1874.19 364.133 1751.53 356.55C1646.46 350.056 1522.02 370.261 1422.04 386.493C1405.79 389.13 1390.45 391.622 1375.53 393.952C1324.16 401.978 1275.08 409.262 1239.25 410.183C1176.94 411.785 1122.33 411.043 1072.28 407.92C1011.86 404.152 957.33 396.961 905.546 385.941C780.935 359.35 671.371 369.935 555.37 381.142C543.715 382.27 531.666 383.433 519.683 384.549C403.914 395.037 313.66 399.606 208.154 400.321C175.109 400.477 139.422 399.24 101.636 397.93L100.505 397.891C63.6544 396.615 29.6165 397.14 -3.29535 397.646C-72.0362 398.704 -136.967 399.703 -226.205 385.797L-226.114 385.416C-136.929 399.314 -72.022 398.315 -3.30487 397.257C29.6165 396.751 63.6591 396.226 100.524 397.502L101.655 397.541C139.437 398.848 175.118 400.088 208.149 399.932C313.636 399.217 403.881 394.648 519.631 384.16C531.614 383.044 543.663 381.877 555.318 380.753C617.621 374.733 678.08 368.893 739.998 368.893C793.417 368.893 847.918 373.236 905.669 385.56C1000.77 405.797 1103.64 413.271 1239.24 409.787C1275.04 408.865 1324.1 401.589 1375.45 393.563C1390.36 391.233 1405.71 388.741 1421.95 386.104C1472.21 377.946 1529.17 368.694 1585.65 362.468C1631.63 357.401 1672.3 354.889 1708.76 354.889L1708.76 354.897Z" fill="#8D8D8D" fill-opacity="0.5"/>
<path d="M1692.84 354.943C1707.35 354.943 1721.64 355.328 1735.66 356.168C1764.31 357.883 1790.86 361.461 1814.59 366.796C1840.33 372.587 1863.64 380.652 1883.87 390.766C1905.57 401.608 1924.42 415.157 1939.9 431.03C1956.35 447.9 1969.52 467.919 1979.02 490.532L1978.57 490.66C1943.89 408.137 1864.42 364.272 1735.63 356.561C1625.66 349.974 1498.34 371.276 1396.03 388.39C1385.31 390.183 1375.19 391.879 1365.16 393.527C1307.85 402.961 1261.26 410.276 1226.63 411.505C1162.55 413.776 1106.81 413.484 1056.23 410.614C994.461 407.111 939.133 399.815 887.083 388.313C749.743 357.907 632.711 369.775 508.803 382.336L505.273 382.693C404.029 392.746 308.396 402.238 196.637 404.618C160.29 405.334 122.389 404.004 90.1094 402.611C65.84 401.561 42.0887 400.873 19.1212 400.208C-60.6047 397.894 -135.912 395.709 -235.85 379.621L-235.759 379.24C-135.855 395.32 -60.5716 397.506 19.1353 399.819C42.1075 400.484 65.8638 401.176 90.1331 402.226C122.404 403.623 160.295 404.952 196.623 404.233C308.358 401.853 403.976 392.361 505.211 382.312L508.737 381.954C632.692 369.386 749.772 357.518 887.201 387.943C982.15 408.923 1086.83 416.074 1226.61 411.12C1261.2 409.895 1307.77 402.58 1365.06 393.15C1375.09 391.497 1385.21 389.806 1395.93 388.013C1485.22 373.077 1593.58 354.951 1692.83 354.951L1692.84 354.943Z" fill="#8D8D8D" fill-opacity="0.5"/>
<path d="M1676.82 354.978C1691.33 354.978 1705.68 355.356 1719.81 356.176C1749.7 357.911 1777.52 361.597 1802.47 367.135C1829.58 373.15 1854.26 381.554 1875.82 392.112C1898.96 403.444 1919.25 417.614 1936.13 434.235C1954.08 451.909 1968.72 472.9 1979.64 496.618L1979.19 496.754C1939.34 410.233 1854.48 364.374 1719.78 356.561C1605.1 349.911 1475.07 372.342 1370.6 390.37C1365.26 391.291 1359.99 392.201 1354.79 393.096C1303.41 402.02 1250.27 411.248 1214.03 412.819C1148.66 415.864 1091.8 416.047 1040.2 413.379C977.233 410.125 921.106 402.697 868.624 390.677C728.633 358.591 610.057 367.71 490.872 380.831C469.729 383.133 448.61 385.559 428.189 387.904C348.121 397.101 272.495 405.785 185.134 408.907C154.023 409.992 119.543 409.475 79.7277 407.321C-11.2585 402.685 -113.629 395.375 -245.485 373.43L-245.39 373.049C-113.562 394.986 -11.211 402.297 79.761 406.932C119.562 409.086 154.023 409.603 185.115 408.519C272.457 405.396 348.073 396.712 428.127 387.515C448.552 385.171 469.667 382.744 490.815 380.442C557.508 373.1 613.934 368.239 672.559 368.34C740.654 368.465 804.829 375.647 868.757 390.3C964.656 412.259 1071.14 419.084 1214.01 412.427C1250.22 410.856 1303.32 401.632 1354.69 392.711C1359.89 391.816 1365.17 390.906 1370.5 389.985C1462.14 374.173 1573.44 354.975 1676.82 354.975V354.978Z" fill="#8D8D8D" fill-opacity="0.5"/>
<path d="M1660.61 354.792C1674.47 354.792 1688.2 355.13 1701.79 355.857C1733.13 357.533 1762.39 361.278 1788.77 366.983C1817.45 373.186 1843.7 381.92 1866.77 392.936C1891.56 404.774 1913.47 419.621 1931.9 437.066C1951.52 455.638 1967.8 477.723 1980.26 502.7L1979.82 502.848C1934.37 411.781 1843.42 363.825 1701.76 356.246C1581.61 349.814 1448.65 373.835 1341.81 393.135C1285.01 403.397 1235.95 412.26 1201.42 414.138C1133.14 417.852 1076.81 418.45 1024.17 416.02C959.8 413.049 902.885 405.532 850.17 393.045C674.251 351.374 536.66 370.226 390.987 390.183C322.44 399.575 251.566 409.285 173.627 413.197C118.218 415.977 55.9339 412.858 -22.3856 403.378C-93.6303 394.753 -169.94 381.912 -255.125 367.247L-255.025 366.866C-77.4003 397.447 57.3163 418.645 173.598 412.808C251.509 408.9 322.374 399.19 390.911 389.798C472.684 378.595 551.935 367.737 636.83 367.737C703.219 367.737 773.053 374.372 850.303 392.672C972.558 421.631 1102.15 419.147 1201.4 413.749C1235.89 411.875 1284.93 403.012 1341.72 392.754C1436.51 375.632 1551.87 354.792 1660.61 354.792Z" fill="#8D8D8D" fill-opacity="0.5"/>
</g>
<defs>
<clipPath id="clip0_617_502">
<rect width="1920" height="462" fill="white" transform="matrix(-1 0 0 -1 1919 462)"/>
</clipPath>
</defs>
</svg>
