<svg width="1920" height="386" viewBox="0 0 1920 386" fill="none" xmlns="http://www.w3.org/2000/svg">
<g clip-path="url(#clip0_617_537)">
<path d="M-276.029 327.469L-276.346 327.086C-255.783 298.967 -229.585 275.861 -196.259 256.449C-164.823 238.14 -131.243 225.582 -102.538 215.713C13.8984 175.675 134.028 148.79 254.503 135.811C374.983 122.833 496.643 123.663 616.101 138.287C717.872 150.745 820.352 173.464 919.461 195.433C1048.57 224.057 1182.08 253.652 1315.28 260.807C1417.46 266.303 1541.15 215.583 1660.77 166.533C1737.74 134.974 1817.34 102.336 1888.33 86.3377C1926.51 77.7319 1959.4 74.4378 1988.88 76.2546C2021.93 78.2936 2049.93 86.6586 2074.49 101.832L2074.3 102.337C2028.55 74.0625 1967.74 69.0106 1888.4 86.8887C1817.44 102.877 1737.86 135.509 1660.9 167.063C1544.44 214.817 1424.11 264.152 1323.48 261.681C1320.72 261.613 1317.98 261.507 1315.26 261.361C1182.03 254.205 1048.51 224.605 919.382 195.98C820.282 174.011 717.806 151.298 616.053 138.841C374.62 109.285 132.888 135.335 -102.438 216.253C-162.074 236.761 -229.589 263.963 -276.029 327.469Z" fill="#8D8D8D" fill-opacity="0.5"/>
<path d="M-271.998 317.644L-272.301 317.25C-251.512 290.755 -225.097 269.263 -191.539 251.555C-159.921 234.87 -126.049 223.726 -97.0857 215.029C-0.635408 186.139 102.799 163.787 219.133 146.694C366.862 124.701 500.233 121.028 626.867 135.464C732.308 147.804 838.337 172.224 940.878 195.841C956.221 199.373 972.088 203.03 987.692 206.585C1093.33 230.642 1206.07 254.751 1320.98 262.185C1330.14 262.78 1339.73 262.937 1349.51 262.662C1447.72 260.075 1561.88 213.139 1672.29 167.747C1750.38 135.643 1824.15 105.317 1893.03 89.2439C1930.07 80.6045 1962.04 76.9738 1990.77 78.1614C2022.96 79.4845 2050.36 86.7699 2074.52 100.42L2074.34 100.932C2028.69 75.1363 1971.09 71.598 1893.1 89.7948C1824.24 105.862 1750.5 136.178 1672.41 168.282C1561.98 213.685 1447.78 260.631 1349.51 263.222C1339.72 263.503 1330.12 263.34 1320.95 262.745C1206.02 255.31 1093.25 231.195 987.605 207.132C972.001 203.577 956.133 199.926 940.79 196.388C838.258 172.771 732.238 148.352 626.814 136.017C500.21 121.582 366.87 125.256 219.172 147.244C102.856 164.332 -0.566134 186.684 -96.9989 215.569C-157.083 233.611 -225.109 257.87 -272.002 317.638L-271.998 317.644Z" fill="#8D8D8D" fill-opacity="0.5"/>
<path d="M-267.962 307.819L-268.252 307.408C-247.242 282.538 -220.606 262.665 -186.82 246.656C-155.041 231.599 -120.869 221.87 -91.6341 214.339C17.381 186.424 130.087 167.679 227.172 152.294C303.317 139.947 370.389 132.185 432.23 128.559C505.623 124.259 572.807 125.596 637.627 132.635C744.892 144.291 852.565 170.13 956.699 195.12C969.625 198.223 982.997 201.432 996.136 204.556C1106.5 230.815 1214.83 255.084 1326.69 263.564C1335.78 264.258 1345.3 264.526 1355.01 264.372C1455.46 263.163 1571.57 215.249 1683.86 168.911C1759.52 137.689 1830.97 108.202 1897.76 92.0501C1933.66 83.3714 1964.7 79.421 1992.68 79.9849C1993.07 79.9944 1993.45 80.0039 1993.84 80.0133C2024.67 80.7706 2051.08 86.9896 2074.55 99.0091L2074.39 99.5318C2029.49 76.5347 1973.39 74.3331 1897.84 92.6067C1831.08 108.748 1759.63 138.235 1683.99 169.452C1571.67 215.806 1455.52 263.736 1355.01 264.943C1345.3 265.103 1335.76 264.829 1326.66 264.135C1214.78 255.654 1106.43 231.379 996.052 205.12C982.909 201.996 969.542 198.787 956.612 195.684C852.49 170.695 744.826 144.856 637.583 133.205C517.846 120.194 391.283 126.254 227.219 152.855C130.143 168.235 17.4457 186.981 -91.5562 214.89C-152.098 230.484 -220.653 251.815 -267.962 307.824L-267.962 307.819Z" fill="#8D8D8D" fill-opacity="0.5"/>
<path d="M-263.927 297.999L-264.208 297.572C-216.423 245.25 -147.256 226.82 -86.1825 213.654C-14.6131 198.382 59.4269 186.51 131.034 175.027C165.293 169.536 200.718 163.855 235.21 157.904C358.925 136.555 503.082 115.023 648.388 129.822C757.866 140.973 867.581 168.364 973.685 194.848C983.987 197.421 994.285 199.989 1004.58 202.545C1115.31 230.034 1223.71 255.487 1332.39 264.954C1341.21 265.725 1350.4 266.102 1360.5 266.092C1463.03 266.027 1580.83 217.235 1694.73 170.046C1768.08 139.664 1837.36 110.965 1902.17 94.725C1937 85.9977 1967.19 81.7348 1994.46 81.6985C2024.99 81.6471 2051.19 86.8577 2074.57 97.603L2074.42 98.1317C2030.24 77.8196 1975.53 76.913 1902.25 95.2761C1837.46 111.511 1768.2 140.205 1694.86 170.582C1580.92 217.781 1463.09 266.589 1360.49 266.653C1350.39 266.657 1341.18 266.285 1332.35 265.513C1223.64 256.04 1115.24 230.581 1004.49 203.092C994.193 200.536 983.896 197.963 973.594 195.395C867.503 168.911 757.801 141.526 648.344 130.376C503.081 115.578 358.95 137.11 235.258 158.455C200.766 164.405 165.336 170.086 131.077 175.583C59.4787 187.061 -14.5614 198.932 -86.1176 214.205C-147.135 227.361 -216.231 245.771 -263.931 297.999L-263.927 297.999Z" fill="#8D8D8D" fill-opacity="0.5"/>
<path d="M-259.891 288.173L-260.154 287.735C-212.015 239.217 -142.293 223.703 -80.7219 212.97C-31.7925 204.578 18.7232 197.508 67.5752 190.672C125.549 182.564 185.491 174.179 243.258 163.51C370.681 139.976 515.104 113.296 659.158 126.999C770.595 137.598 882.082 166.54 989.898 194.529C997.612 196.534 1005.33 198.534 1013.03 200.528C1106.98 224.836 1223.91 255.083 1338.1 266.344C1346.76 267.201 1355.88 267.688 1366 267.813C1470.85 269.173 1590.53 219.312 1706.28 171.086C1777.19 141.541 1844.17 113.637 1906.91 97.3125C1940.61 88.5463 1969.88 83.9753 1996.4 83.3489C2026.07 82.6431 2051.66 86.8467 2074.61 96.1974L2074.48 96.7321C2031.1 79.0623 1977.88 79.4196 1906.99 97.8638C1844.28 114.183 1777.31 142.082 1706.41 171.622C1590.64 219.858 1470.92 269.735 1366 268.374C1355.87 268.243 1346.73 267.76 1338.07 266.898C1223.86 255.636 1106.92 225.383 1012.95 201.075C1005.25 199.081 997.534 197.076 989.82 195.076C882.016 167.093 770.547 138.152 659.131 127.553C515.125 113.851 370.728 140.526 243.327 164.055C185.556 174.724 125.609 183.114 67.6313 191.223C18.7793 198.059 -31.7319 205.123 -80.6569 213.516C-142.171 224.238 -211.823 239.737 -259.878 288.168L-259.891 288.173Z" fill="#8D8D8D" fill-opacity="0.5"/>
<path d="M-255.859 278.348L-256.109 277.893C-234.453 257.909 -207.153 242.889 -172.66 231.962C-140.58 221.806 -105.429 216.309 -75.2742 212.275C-40.3462 207.714 -4.36142 203.711 30.4365 199.841C103.549 191.707 179.149 183.297 251.292 169.104C260.029 167.385 268.753 165.655 277.467 163.93C341.602 151.232 407.919 138.1 473.1 129.933C546.063 120.797 610.441 118.91 669.91 124.164C783.115 134.174 896.165 164.684 1005.49 194.184C1010.82 195.62 1016.14 197.057 1021.47 198.493C1125.54 226.525 1233.15 255.512 1343.8 267.711C1353.16 268.753 1362.64 269.194 1371.49 269.517C1479.37 273.433 1601.72 221.879 1720.04 172.007C1854.57 115.305 1981.64 61.742 2074.62 94.7799L2074.5 95.3205C1981.64 62.3305 1854.63 115.867 1720.17 172.543C1603.18 221.853 1482.24 272.82 1375.21 270.197C1373.95 270.166 1372.72 270.13 1371.47 270.083C1362.61 269.759 1353.12 269.318 1343.75 268.276C1233.08 256.076 1125.45 227.083 1021.37 199.045C1016.04 197.609 1010.72 196.173 1005.39 194.736C896.082 165.237 783.045 134.732 669.87 124.724C537.434 113.009 411.185 138.012 277.519 164.48C268.804 166.205 260.076 167.935 251.344 169.654C179.188 183.853 103.579 192.263 30.462 200.397C-4.33591 204.266 -40.3163 208.269 -75.24 212.83C-137.269 221.131 -207.498 233.718 -255.864 278.342L-255.859 278.348Z" fill="#8D8D8D" fill-opacity="0.5"/>
<path d="M-251.828 268.522L-252.06 268.052C-230.192 249.703 -202.679 236.297 -167.936 227.068C-135.914 218.558 -101.854 214.603 -69.8181 211.591C-44.6239 209.318 -18.7261 207.275 6.32141 205.307C90.3365 198.69 177.212 191.846 259.331 174.714C276.949 171.04 294.788 167.207 312.042 163.501C372.178 150.587 434.367 137.231 495.57 128.714C564.083 119.178 624.632 116.776 680.675 121.358C795.484 130.745 909.913 162.836 1020.58 193.87L1032.5 197.212C1135.71 226.13 1242.43 256.036 1349.5 269.106C1357.83 270.129 1366.81 270.831 1376.99 271.244C1486.73 275.71 1610.23 223.433 1729.68 172.877C1860.02 117.714 1983.13 65.606 2074.66 93.3741L2074.55 93.9207C1983.14 66.1891 1860.09 118.27 1729.81 173.407C1612.2 223.184 1490.62 274.629 1382.11 271.969C1380.39 271.927 1378.69 271.874 1376.97 271.804C1366.79 271.391 1357.79 270.688 1349.46 269.666C1242.37 256.59 1135.63 226.683 1032.42 197.759L1020.49 194.418C909.843 163.389 795.427 131.299 680.652 121.912C555.851 111.702 437.463 137.133 312.119 164.052C294.866 167.759 277.023 171.591 259.409 175.266C177.263 192.408 90.3793 199.251 6.35552 205.868C-18.6921 207.842 -44.5898 209.879 -69.7796 212.152C-135.22 218.301 -203.177 227.716 -251.811 268.523L-251.828 268.522Z" fill="#8D8D8D" fill-opacity="0.5"/>
<path d="M-247.792 258.697L-248.011 258.215C-199.078 221.159 -130.458 214.523 -64.3662 210.906C-46.4899 210 -28.1504 209.19 -10.4163 208.404C82.1006 204.304 177.771 200.07 267.37 180.32C291.464 175.011 315.802 169.326 339.343 163.83C396.685 150.438 455.983 136.59 514.419 127.563C579.839 117.452 637.738 114.503 691.436 118.534C807.718 127.274 923.388 160.976 1035.25 193.564L1048.53 197.432C1148.34 226.518 1251.55 256.597 1355.21 270.496C1363.38 271.599 1372.3 272.412 1382.48 272.965C1385.69 273.139 1388.92 273.268 1392.14 273.348C1501.96 276.045 1623.7 223.999 1741.56 173.612C1866.85 120.05 1985.2 69.4562 2074.69 91.9738L2074.6 92.5208C1985.22 70.0284 1866.93 120.601 1741.7 174.142C1623.81 224.534 1502.02 276.595 1392.13 273.902C1388.89 273.822 1385.68 273.699 1382.47 273.519C1372.27 272.96 1363.34 272.153 1355.16 271.044C1251.48 257.139 1148.26 227.06 1048.43 197.967L1035.16 194.1C923.309 161.512 807.657 127.822 691.409 119.083C571.839 110.094 458.941 136.461 339.421 164.37C315.88 169.866 291.538 175.55 267.444 180.865C177.81 200.625 82.1305 204.86 -10.4038 208.959C-28.1379 209.745 -46.4775 210.556 -64.3537 211.461C-130.389 215.079 -198.948 221.706 -247.792 258.697Z" fill="#8D8D8D" fill-opacity="0.5"/>
<path d="M-243.761 248.872L-243.957 248.374C-194.875 215.143 -125.631 211.301 -58.91 210.217C-46.8617 210.075 -34.5313 209.964 -22.6059 209.864C76.942 208.997 179.88 208.101 275.417 185.92C304.481 179.175 333.775 171.752 362.101 164.568C417.399 150.555 474.581 136.067 531.008 126.43C594.178 115.641 650.18 112.136 702.201 115.7C819.836 123.767 935.219 158.677 1046.81 192.436C1052.53 194.168 1058.25 195.9 1063.97 197.632C1160.58 226.903 1260.48 257.169 1360.91 271.863C1368.93 273.046 1377.78 273.964 1387.98 274.669C1502.96 282.587 1630.35 227.48 1753.56 174.192C1873.79 122.188 1987.35 73.0734 2074.71 90.5566L2074.64 91.1097C1987.39 73.6459 1873.88 122.744 1753.7 174.722C1692.92 201.014 1630.07 228.196 1568.26 247.72C1498.43 269.777 1439.45 278.774 1387.95 275.229C1377.75 274.524 1368.88 273.606 1360.86 272.423C1260.4 257.722 1160.49 227.45 1063.87 198.178C1058.15 196.447 1052.43 194.714 1046.71 192.982C935.136 159.23 819.775 124.326 702.174 116.259C586.329 108.32 477.448 135.907 362.179 165.114C333.848 172.291 304.555 179.714 275.487 186.465C179.91 208.651 76.9545 209.552 -22.6108 210.419C-34.5363 210.524 -46.8666 210.63 -58.9106 210.771C-125.575 211.858 -194.762 215.695 -243.761 248.866L-243.761 248.872Z" fill="#8D8D8D" fill-opacity="0.5"/>
<path d="M-239.729 239.046L-239.908 238.537C-190.714 209.098 -123.64 208.016 -53.4583 209.532C-46.2612 209.72 -39.0427 209.92 -31.8067 210.115C73.8017 213.011 183.006 216.001 283.456 191.519C316.486 183.471 349.698 174.367 381.819 165.568C435.577 150.839 491.162 135.611 546.087 125.32C607.577 113.796 662.166 109.729 712.971 112.876C831.771 120.249 950.503 157.523 1055.26 190.413C1063.13 192.881 1070.99 195.361 1078.85 197.835C1172.44 227.307 1269.22 257.787 1366.62 273.248C1374.6 274.525 1383.14 275.519 1393.48 276.384C1511.22 286.191 1640.59 229.474 1765.69 174.636C1880.85 124.16 1989.62 76.4801 2074.74 89.1509L2074.68 89.7099C1989.66 77.0471 1880.94 124.711 1765.83 175.166C1704.19 202.187 1640.46 230.121 1577.53 250.027C1506.39 272.528 1446.17 281.332 1393.45 276.944C1383.09 276.084 1374.55 275.084 1366.56 273.807C1269.13 258.345 1172.35 227.859 1078.74 198.381C1070.88 195.907 1063.02 193.428 1055.15 190.959C950.412 158.075 831.701 120.802 712.944 113.436C599.817 106.421 493.969 135.416 381.91 166.114C349.789 174.913 316.572 184.016 283.539 192.065C183.045 216.563 73.8142 213.566 -31.8159 210.669C-39.0518 210.469 -46.2705 210.275 -53.4675 210.087C-123.598 208.577 -190.615 209.649 -239.725 239.041L-239.729 239.046Z" fill="#8D8D8D" fill-opacity="0.5"/>
<path d="M1422.06 280.056C1414.2 279.863 1406.49 279.394 1398.94 278.659C1388.58 277.648 1380.1 276.543 1372.26 275.191C1277.7 258.987 1183.85 228.282 1093.1 198.583C1083.27 195.365 1073.43 192.148 1063.58 188.942C965.503 157.011 843.441 117.269 723.7 110.618C612.589 104.448 509.076 134.975 399.487 167.291C364.276 177.673 327.865 188.413 291.573 197.675C224.851 214.703 154.009 217.906 82.6798 216.154C42.0573 215.157 1.2872 212.552 -39.0051 209.983L-48.0333 209.408C-118.912 205.24 -186.598 203.623 -235.698 229.22L-235.855 228.701C-186.671 203.055 -118.933 204.674 -48.0022 208.848L-38.974 209.423C72.0404 216.509 186.835 223.84 291.499 197.124C327.787 187.861 364.194 177.127 399.4 166.745C451.968 151.241 506.324 135.215 560.099 124.224C620.308 111.917 673.832 107.286 723.731 110.059C775.778 112.951 831.908 122.113 895.322 138.067C951.388 152.176 1006.96 169.927 1063.7 188.395C1073.55 191.602 1083.39 194.819 1093.22 198.036C1183.96 227.73 1277.79 258.435 1372.33 274.632C1380.16 275.984 1388.63 277.089 1398.98 278.1C1519.58 289.882 1650.93 231.431 1777.95 174.903C1888.02 125.916 1991.98 79.6539 2074.77 87.7449L2074.73 88.3043C1992.03 80.2267 1888.11 126.468 1778.09 175.433C1715.59 203.246 1650.96 232.01 1586.9 252.336C1524.57 272.111 1470.36 281.248 1422.06 280.062L1422.06 280.056Z" fill="#8D8D8D" fill-opacity="0.5"/>
<path d="M1432.16 282.249C1422.7 282.017 1413.47 281.392 1404.42 280.374C1394.07 279.212 1385.66 278.002 1377.96 276.569C1286.09 259.653 1195.03 228.702 1106.98 198.767C1095.53 194.876 1083.69 190.848 1072.02 186.913C953.307 146.86 845.968 113.262 734.461 107.789C624.849 102.413 523.172 134.548 415.516 168.57C377.727 180.514 338.647 192.863 299.612 203.269C251.325 216.144 196.132 221.961 130.869 221.059C72.3489 220.249 11.2787 214.12 -42.5987 208.712C-117.021 201.611 -182.619 197.512 -231.675 219.384L-231.814 218.853C-182.679 196.944 -117.034 201.045 -42.5631 208.147C66.9889 219.142 191.161 231.607 299.525 202.713C338.557 192.306 377.627 179.957 415.417 168.013C467.052 151.696 520.441 134.822 573.325 123.109C632.539 109.999 685.254 104.804 734.48 107.212C846.03 112.687 953.395 146.291 1072.13 186.355C1083.8 190.29 1095.63 194.313 1107.09 198.209C1195.14 228.139 1286.18 259.089 1378.02 275.999C1385.71 277.426 1394.11 278.636 1404.46 279.798C1528.03 293.693 1661.37 233.33 1790.32 174.955C1893.36 128.311 1990.78 84.2029 2070.32 86.1563C2071.81 86.1929 2073.3 86.2463 2074.78 86.3163L2074.76 86.8761C1994.5 83.1117 1895.39 127.98 1790.46 175.479C1727.09 204.162 1661.58 233.823 1596.36 254.614C1534.59 274.302 1480.56 283.415 1432.16 282.226L1432.16 282.249Z" fill="#8D8D8D" fill-opacity="0.5"/>
<path d="M1442.28 284.509C1431.22 284.238 1420.44 283.429 1409.92 282.089C1399.58 280.776 1391.23 279.456 1383.66 277.953C1294.36 260.349 1205.95 229.138 1120.45 198.957C1107.35 194.337 1093.81 189.555 1080.47 184.896C967.726 145.5 857.25 109.746 745.235 104.971C636.736 100.345 536.514 134.152 430.4 169.944C390.414 183.431 349.063 197.378 307.668 208.881C259.096 222.375 203.576 227.854 137.938 225.598C80.7336 223.638 22.4769 216.172 -37.1427 208.033C-115.156 197.779 -178.717 191.381 -227.631 209.564L-227.748 209.023C-204.837 200.502 -176.126 196.797 -139.996 197.684L-139.609 197.694C-107.429 198.512 -72.7524 202.788 -37.0942 207.474C66.8098 221.654 196.124 239.299 307.581 208.329C348.972 196.827 390.314 182.885 430.295 169.398C481.19 152.234 533.813 134.484 586.001 122.036C644.439 108.1 696.533 102.335 745.258 104.406C857.321 109.181 967.827 144.947 1080.59 184.35C1093.94 189.009 1107.47 193.791 1120.57 198.411C1206.06 228.586 1294.46 259.797 1383.74 277.395C1391.3 278.897 1399.64 280.212 1409.97 281.524C1536.62 297.647 1671.96 235.198 1802.83 174.819C1902.7 128.742 1997.03 85.2192 2074.81 84.9273L2074.81 85.4875C1997.1 85.7813 1902.8 129.288 1802.97 175.35C1738.74 204.986 1672.32 235.627 1605.93 256.934C1544.69 276.59 1490.79 285.695 1442.28 284.504L1442.28 284.509Z" fill="#8D8D8D" fill-opacity="0.5"/>
<path d="M1452.41 286.837C1439.74 286.526 1427.42 285.517 1415.41 283.804C1405.09 282.335 1396.81 280.915 1389.36 279.337C1302.5 261.064 1216.59 229.584 1133.51 199.144C1118.91 193.792 1103.8 188.26 1088.91 182.873C977.713 142.657 868.577 106.224 755.996 102.148C648.324 98.2483 549.252 133.77 444.368 171.374C402.481 186.39 359.169 201.919 315.706 214.486C266.88 228.602 211.034 233.72 144.984 230.131C85.3143 226.889 24.978 217.102 -31.7084 207.354C-97.0996 196.446 -171.219 184.079 -223.608 199.744L-223.703 199.198C-200.549 192.274 -171.499 190.186 -134.894 192.805C-103.367 195.065 -70.8624 200.251 -31.6468 206.795C91.2632 227.931 210.311 244.378 315.615 213.94C359.064 201.378 402.373 185.855 444.254 170.839C494.552 152.808 546.566 134.158 598.207 120.957C656.035 106.177 707.656 99.84 756.014 101.594C868.647 105.671 977.809 142.116 1089.03 182.343C1103.93 187.725 1119.03 193.262 1133.64 198.614C1216.71 229.049 1302.6 260.523 1389.44 278.79C1396.88 280.368 1405.15 281.787 1415.46 283.256C1545.31 301.727 1688.83 234.1 1815.45 174.434C1910.21 129.784 1999.72 87.6109 2074.84 83.5326L2074.85 84.0932C1999.8 88.1677 1910.32 130.325 1815.6 174.965C1750.5 205.639 1683.18 237.357 1615.6 259.239C1554.83 278.912 1501.06 288.037 1452.41 286.848L1452.41 286.837Z" fill="#8D8D8D" fill-opacity="0.5"/>
<path d="M1462.55 289.232C1448.26 288.881 1434.39 287.644 1420.9 285.519C1410.45 283.873 1402.48 282.394 1395.06 280.716C1310.51 261.794 1226.99 230.036 1146.22 199.327C1130.22 193.24 1113.67 186.95 1097.35 180.85C993.728 142.081 881.957 105.371 766.753 99.3189C660.114 93.7186 557.72 133.396 458.696 171.771C414.79 188.788 369.394 206.379 323.746 220.08C283.218 232.242 237.831 237.611 185.788 236.333C174.834 236.064 163.594 235.502 152.032 234.647C90.2707 230.076 27.611 217.8 -26.2736 206.658L-26.4382 206.626C-99.1303 191.963 -167.796 178.111 -219.585 189.913L-219.654 189.362C-167.795 177.545 -99.0948 191.404 -26.3637 206.073L-26.1991 206.105C92.0171 230.55 216.401 251.728 323.655 219.54C369.285 205.844 414.677 188.253 458.578 171.241C508.244 151.996 559.606 132.091 610.647 118.181C667.811 102.599 718.884 96.2491 766.779 98.7648C818.778 101.499 873.525 110.639 934.151 126.714C981.755 139.332 1032.13 155.868 1097.48 180.315C1113.8 186.42 1130.35 192.711 1146.35 198.792C1227.11 229.495 1310.62 261.247 1395.14 280.168C1402.56 281.841 1410.52 283.326 1420.96 284.966C1554.11 305.922 1699.72 235.706 1828.19 173.761C1917.85 130.527 2002.54 89.6863 2074.87 82.1266L2074.9 82.6822C2002.63 90.2377 1917.97 131.062 1828.34 174.286C1762.36 206.098 1694.14 238.999 1625.36 261.513C1565.02 281.264 1511.34 290.436 1462.55 289.238L1462.55 289.232Z" fill="#8D8D8D" fill-opacity="0.5"/>
<path d="M1472.67 291.7C1456.77 291.31 1441.37 289.816 1426.39 287.229C1415.98 285.432 1408.08 283.848 1400.76 282.094C1318.41 262.537 1237.15 230.493 1158.57 199.501C1141.3 192.688 1123.43 185.643 1105.79 178.821C1008.3 141.111 893.061 101.838 777.522 96.4901C671.159 91.5409 569.449 133.14 471.085 173.347C425.801 191.86 378.975 210.996 331.797 225.674C293.407 237.62 250.619 242.935 201.925 241.74C188.131 241.401 173.871 240.541 159.092 239.158C98.5326 233.501 36.8333 219.859 -20.8215 205.957L-26.1949 204.688C-97.3331 187.883 -164.53 172.01 -215.544 180.065L-215.592 179.509C-164.508 171.45 -97.2846 187.324 -26.1117 204.135L-20.7384 205.404C97.8115 233.982 222.675 259.044 331.702 225.128C378.867 210.456 425.684 191.319 470.963 172.812C520.299 152.645 571.314 131.796 622.074 117.1C678.921 100.642 729.781 93.7092 777.549 95.9247C829.312 98.3224 883.717 107.381 943.878 123.625C991.459 136.472 1041.43 153.329 1105.93 178.275C1123.57 185.091 1141.44 192.137 1158.71 198.956C1237.28 229.941 1318.52 261.979 1400.85 281.536C1408.16 283.285 1416.06 284.868 1426.46 286.665C1563.04 310.255 1710.73 237.21 1841.04 172.765C1925.6 130.941 2005.48 91.4396 2074.9 80.6984L2074.94 81.2543C2005.58 91.9858 1925.73 131.477 1841.19 173.285C1774.34 206.348 1705.21 240.537 1635.22 263.756C1575.26 283.64 1521.64 292.892 1472.67 291.689L1472.67 291.7Z" fill="#8D8D8D" fill-opacity="0.5"/>
<path d="M1482.77 294.24C1465.27 293.81 1448.34 292.044 1431.88 288.944C1421.53 286.998 1413.69 285.309 1406.46 283.478C1326.2 263.3 1247.1 230.956 1170.61 199.679C1152.16 192.132 1133.08 184.327 1114.24 176.804C1017.86 138.28 903.762 98.2792 788.287 93.6723C682.072 89.4441 580.904 132.917 483.064 174.964C436.53 194.959 388.417 215.638 339.836 231.285C300.637 243.906 258.905 248.25 216.325 247.204C138.664 245.297 58.1263 225.476 -15.3872 205.278C-19.0962 204.279 -22.8008 203.275 -26.5011 202.276C-95.8811 183.508 -161.414 165.782 -211.522 170.245L-211.547 169.684C-161.378 165.211 -95.8195 182.949 -26.4049 201.724C-22.7045 202.722 -19 203.727 -15.291 204.726C98.4848 235.982 229.131 266.353 339.737 230.733C388.3 215.098 436.408 194.418 482.929 174.429C531.996 153.341 582.739 131.533 633.278 116.052C689.886 98.7087 740.595 91.2065 788.301 93.1067C903.833 97.7094 1017.96 137.728 1114.37 176.258C1133.21 183.787 1152.29 191.591 1170.75 199.139C1247.23 230.41 1326.31 262.748 1406.55 282.92C1413.77 284.75 1421.61 286.434 1431.95 288.38C1572.06 314.763 1721.83 238.62 1853.97 171.447C1933.45 131.039 2008.53 92.8764 2074.92 79.2923L2074.98 79.8431C2008.64 93.4116 1933.59 131.569 1854.13 171.966C1786.39 206.397 1716.35 242.005 1645.14 265.994C1585.53 286.077 1531.94 295.431 1482.77 294.223L1482.77 294.24Z" fill="#8D8D8D" fill-opacity="0.5"/>
<path d="M1492.84 296.852C1473.75 296.383 1455.3 294.316 1437.37 290.659C1430.44 289.245 1421.31 287.306 1412.16 284.862C1333.9 264.077 1256.87 231.431 1182.37 199.862C1162.84 191.581 1142.63 183.021 1122.68 174.781C1025.88 134.818 913.061 92.0799 799.053 90.8545C692.727 89.7113 591.926 134.331 494.442 177.485C446.859 198.547 397.662 220.326 347.879 236.89C298.228 253.413 241.085 257.114 173.191 248.207C109.508 239.851 44.8744 221.474 -9.9441 204.594C-15.7535 202.831 -21.5585 201.064 -27.3374 199.302C-94.7504 178.756 -158.427 159.349 -207.49 160.414L-207.494 159.853C-158.378 158.779 -94.6759 178.203 -27.237 198.756C-21.4537 200.517 -15.6531 202.285 -9.84363 204.047C104.428 239.227 235.723 273.632 347.771 236.344C397.536 219.785 446.729 198.006 494.303 176.949C543.192 155.309 593.744 132.93 644.165 116.639C700.638 98.3956 751.304 89.7771 799.058 90.2887C801.237 90.3142 803.434 90.3513 805.613 90.4048C917.452 93.1516 1027.83 135.034 1122.81 174.246C1142.76 182.486 1162.97 191.046 1182.51 199.327C1256.99 230.896 1334.01 263.536 1412.25 284.31C1421.39 286.753 1430.51 288.692 1437.44 290.106C1581.2 319.426 1733.03 239.92 1866.98 169.771C1941.41 130.797 2011.71 93.98 2074.94 77.903L2075.02 78.4541C2011.83 94.5208 1941.55 131.327 1867.14 170.296C1798.52 206.23 1727.57 243.384 1655.14 268.229C1595.83 288.577 1542.23 298.065 1492.83 296.852L1492.84 296.852Z" fill="#8D8D8D" fill-opacity="0.5"/>
<path d="M1502.86 299.536C1482.2 299.029 1462.25 296.639 1442.87 292.38C1435.98 290.866 1426.92 288.806 1417.86 286.246C1341.5 264.875 1266.45 231.913 1193.85 200.037C1173.33 191.026 1152.1 181.701 1131.12 172.763C1038.17 133.141 930.095 90.8956 819.104 88.1696C816.004 88.0935 812.92 88.0457 809.817 88.0368C703.505 87.5664 603.097 134.09 505.99 179.086C457.305 201.645 406.964 224.971 355.922 242.501C247.842 279.629 118.819 245.896 -4.50571 203.915C-12.6109 201.194 -20.8104 198.415 -28.7381 195.726C-93.9758 173.608 -155.597 152.722 -203.463 150.594L-203.441 150.034C-155.523 152.163 -93.8797 173.061 -28.6203 195.186C-20.6927 197.874 -12.4976 200.653 -4.388 203.374C118.881 245.332 247.835 279.051 355.818 241.961C406.838 224.435 457.174 201.115 505.851 178.561C554.545 155.997 604.903 132.666 655.177 115.593C711.489 96.4654 762.079 87.2734 809.827 87.4822C860.229 87.6946 913.621 96.2182 973.05 113.514C1029.83 130.039 1084.89 152.474 1131.26 172.24C1152.25 181.184 1173.48 190.503 1194 199.514C1266.58 231.384 1341.63 264.34 1417.96 285.705C1427.01 288.259 1436.07 290.319 1442.95 291.833C1590.46 324.266 1744.32 241.083 1880.06 167.688C1949.46 130.166 2015.02 94.7226 2074.98 76.5087L2075.07 77.0546C2015.15 95.2582 1949.61 130.69 1880.23 168.208C1810.72 205.784 1738.85 244.642 1665.22 270.427C1606.15 291.106 1552.52 300.767 1502.87 299.548L1502.86 299.536Z" fill="#8D8D8D" fill-opacity="0.5"/>
<path d="M1513.21 302.295C1490.89 301.747 1469.2 299.006 1448.36 294.09C1441.54 292.482 1432.56 290.295 1423.56 287.625C1349.03 265.671 1275.85 232.391 1205.08 200.201C1183.65 190.45 1161.48 180.374 1139.56 170.735C1038.31 126.191 929.583 85.0102 820.588 85.2024C714.203 85.4027 614.091 133.844 517.278 180.686C467.577 204.733 416.18 229.602 363.974 248.09C313.976 265.798 256.185 268.783 187.298 257.234C120.691 246.06 52.721 222.496 0.942168 203.219C-9.6709 199.316 -20.3687 195.321 -30.7174 191.458C-93.555 167.998 -152.909 145.845 -199.427 140.751L-199.383 140.192C-152.821 145.287 -93.4502 167.451 -30.5909 190.917C-20.2423 194.781 -9.54449 198.775 1.06859 202.679C124.992 248.827 254.709 286.203 363.862 247.549C416.05 229.072 467.433 204.208 517.126 180.161C565.673 156.668 615.876 132.381 666.052 114.515C722.26 94.5052 772.807 84.7294 820.588 84.642C870.763 84.5462 923.813 92.9885 982.764 110.447C1039.66 127.294 1094.03 150.109 1139.7 170.206C1161.62 179.845 1183.79 189.927 1205.22 199.672C1275.98 231.85 1349.15 265.13 1423.66 287.078C1432.64 289.742 1441.62 291.929 1448.44 293.537C1599.8 329.247 1755.65 242.068 1893.15 165.146C1957.58 129.11 2018.43 95.0641 2075 75.0914L2075.1 75.632C2018.57 95.5943 1957.73 129.629 1893.32 165.66C1822.93 205.036 1750.14 245.754 1675.3 272.569C1634.79 287.08 1597.78 296.079 1562.17 300.085C1545.57 301.953 1529.22 302.683 1513.2 302.289L1513.21 302.295Z" fill="#8D8D8D" fill-opacity="0.5"/>
<path d="M1523.16 305.123C1499.32 304.538 1476.14 301.43 1453.85 295.805C1447.09 294.104 1438.19 291.789 1429.26 289.009C1356.47 266.481 1285.09 232.875 1216.07 200.375C1193.8 189.893 1170.78 179.055 1148 168.717C1048.03 123.347 940.483 81.4952 831.344 82.3844C724.816 83.2593 624.923 133.617 528.326 182.324C477.678 207.861 425.308 234.264 372.009 253.695C321.844 271.987 263.727 274.622 194.341 261.75C126.563 249.174 58.2881 223.496 6.38095 202.535C-6.95166 197.208 -20.3505 191.746 -33.3056 186.463C-93.5186 161.913 -150.397 138.722 -195.4 130.926L-195.338 130.373C-150.297 138.176 -93.4053 161.372 -33.1708 185.934C-20.2157 191.217 -6.81683 196.679 6.51576 202.005C125.161 249.924 261.349 293.477 371.9 253.166C425.178 233.74 477.539 207.337 528.173 181.811C576.608 157.39 626.696 132.136 676.813 113.479C732.951 92.5767 783.499 82.2237 831.349 81.8354C940.557 80.9423 1048.15 122.812 1148.15 168.2C1170.94 178.538 1193.96 189.375 1216.22 199.858C1285.23 232.352 1356.6 265.957 1429.37 288.473C1438.29 291.254 1447.19 293.562 1453.94 295.264C1609.24 334.433 1767.04 242.908 1906.26 162.156C1965.76 127.646 2021.96 95.0443 2075.03 73.7024L2075.16 74.2379C2022.11 95.5749 1965.92 128.166 1906.44 162.671C1835.15 204.014 1761.44 246.771 1685.41 274.7C1644.26 289.817 1606.59 299.103 1570.27 303.086C1554.34 304.83 1538.61 305.514 1523.16 305.134L1523.16 305.123Z" fill="#8D8D8D" fill-opacity="0.5"/>
<path d="M1533.03 308.022C1507.71 307.4 1483.06 303.892 1459.34 297.52C1449.42 294.856 1441.9 292.653 1434.96 290.387C1363.84 267.301 1294.19 233.357 1226.84 200.533C1203.82 189.315 1180.02 177.719 1156.45 166.689C1057.75 120.498 951.365 77.9742 842.114 79.5555C735.374 81.1032 635.637 133.393 539.19 183.964C487.662 210.981 434.384 238.92 380.056 259.295C268.348 301.192 131.224 253.761 11.8243 201.839C-4.45637 194.826 -20.7452 187.617 -36.5004 180.646C-93.8646 155.269 -148.048 131.299 -191.368 121.078L-191.285 120.525C-147.93 130.752 -93.7338 154.729 -36.3525 180.117C-20.5974 187.089 -4.30836 194.292 11.9679 201.304C131.307 253.202 268.349 300.609 379.939 258.754C434.245 238.389 487.514 210.457 539.029 183.444C587.387 158.086 637.394 131.872 687.478 112.413C743.586 90.6186 794.166 79.6836 842.11 78.9894C951.427 77.4153 1057.86 119.946 1156.59 166.154C1180.17 177.184 1203.97 188.781 1226.99 199.999C1294.34 232.817 1363.97 266.755 1435.07 289.835C1442 292.101 1449.52 294.298 1459.43 296.962C1483.71 303.487 1508.03 306.78 1532.26 307.375C1667 310.684 1799.89 230.596 1919.31 158.638C1973.96 125.707 2025.58 94.6007 2075.05 72.2795L2075.19 72.8097C2025.74 95.1259 1974.13 126.221 1919.49 159.147C1847.31 202.642 1772.68 247.619 1695.49 276.769C1653.72 292.549 1615.41 302.143 1578.37 306.103C1563.07 307.739 1547.93 308.376 1533.03 308.01L1533.03 308.022Z" fill="#8D8D8D" fill-opacity="0.5"/>
<path d="M287.751 281.013C263.041 280.406 236.681 276.99 208.44 270.771C137.677 255.186 65.4443 223.576 17.2629 201.16C-2.1981 192.175 -21.5743 182.929 -40.3138 173.979C-94.6015 148.067 -145.878 123.591 -187.341 111.252L-187.236 110.706C-145.752 123.05 -94.4578 147.532 -40.1574 173.456C-21.4178 182.401 -2.04165 191.652 17.4195 200.631C103.444 240.66 198.651 278.331 287.124 280.504C322.132 281.364 356.062 276.672 387.982 264.371C443.255 243.066 497.38 213.607 549.718 185.119C598.026 158.824 647.978 131.639 698.065 111.384C754.173 88.6932 804.815 77.1769 852.875 76.1773C902.355 75.151 954.379 83.372 1011.91 101.311C1056.68 115.271 1103.91 134.65 1165.04 164.143C1189.34 175.857 1213.85 188.222 1237.56 200.175C1303.3 233.323 1371.28 267.596 1440.78 291.225C1447.71 293.598 1455.16 295.893 1464.93 298.683C1628.3 345.302 1789.79 243.999 1932.28 154.625C1982.16 123.336 2029.28 93.7784 2075.08 70.8793L2075.23 71.3986C2029.45 94.2868 1982.34 123.839 1932.46 155.122C1859.38 200.961 1783.82 248.352 1705.51 278.825C1663.14 295.313 1624.2 305.245 1586.46 309.2C1544.4 313.608 1503.47 310.249 1464.83 299.224C1455.05 296.434 1447.59 294.133 1440.65 291.76C1371.14 268.119 1303.14 233.84 1237.39 200.686C1213.68 188.733 1189.17 176.374 1164.88 164.66C1067.44 117.648 962.195 74.4576 852.87 76.7264C745.866 78.9457 646.23 133.177 549.876 185.622C497.524 214.115 443.391 243.579 388.095 264.889C357.863 276.542 324.647 281.902 287.747 280.996L287.751 281.013Z" fill="#8D8D8D" fill-opacity="0.5"/>
<path d="M298.082 286.663C272.463 286.034 244.742 282.215 215.488 275.276C160.825 262.311 99.5706 238.542 22.706 200.47C-0.184633 189.21 -22.8445 177.591 -44.761 166.355C-95.7447 140.216 -143.901 115.525 -183.309 101.416L-183.187 100.875C-143.757 114.996 -95.5881 139.687 -44.5915 165.832C-22.6794 177.068 -0.0194812 188.687 22.8669 199.941C136.614 256.28 281.821 315.152 396.021 269.964C452.218 247.73 507.141 216.75 560.26 186.79C608.542 159.559 658.466 131.398 708.577 110.342C764.716 86.7554 815.438 74.6526 863.64 73.3483C912.884 72.0192 964.566 80.1701 1021.63 98.2658C1066.39 112.461 1113.23 132.155 1173.49 162.114C1198.44 174.517 1223.6 187.638 1247.93 200.323C1312.14 233.803 1378.53 268.424 1446.49 292.604C1453.42 295.083 1460.8 297.483 1470.43 300.393C1497.55 308.591 1524.59 312.662 1551.43 313.321C1690.28 316.731 1824.42 228.99 1945.1 150.064C1990.32 120.488 2033.05 92.5483 2075.11 69.4734L2075.28 69.9875C2033.22 93.0569 1990.51 120.991 1945.29 150.562C1871.32 198.939 1794.83 248.97 1715.45 280.857C1672.51 298.105 1632.97 308.408 1594.55 312.351C1551.74 316.752 1509.94 312.907 1470.33 300.934C1460.69 298.024 1453.3 295.618 1446.36 293.139C1378.38 268.952 1311.98 234.326 1247.76 200.84C1223.43 188.149 1198.28 175.035 1173.33 162.631C1081.73 117.091 973.309 70.9367 863.644 73.8976C756.323 76.7984 656.739 132.969 560.43 187.288C507.303 217.253 452.366 248.238 396.147 270.483C369.879 280.878 340.595 286.334 309.103 286.715C305.477 286.76 301.805 286.732 298.086 286.641L298.082 286.663Z" fill="#8D8D8D" fill-opacity="0.5"/>
<path d="M308.159 292.374C281.696 291.724 252.941 287.499 222.54 279.781C167.1 265.704 105.333 240.286 28.1537 199.78C1.58039 185.919 -24.5463 171.587 -49.8185 157.724C-97.2757 131.688 -142.105 107.101 -179.273 91.5846L-179.134 91.0501C-141.949 106.578 -97.1107 131.171 -49.6448 157.207C-24.3767 171.064 1.74972 185.402 28.3187 199.263C142.788 259.335 288.943 322.298 404.06 275.575C461.132 252.415 516.82 219.913 570.671 188.486C618.946 160.313 668.863 131.183 719.02 109.321C775.211 84.8332 826.034 72.1445 874.397 70.5304C984.157 66.8769 1091.45 113.755 1181.93 160.102C1207.47 173.181 1233.22 187.067 1258.12 200.489C1320.84 234.308 1385.7 269.283 1452.18 293.993C1459.05 296.555 1466.59 299.138 1475.92 302.119C1647.42 356.884 1805.16 249.156 1957.7 144.983C1998.39 117.195 2036.83 90.9489 2075.13 68.0842L2075.31 68.593C2037.02 91.4523 1998.59 117.693 1957.91 145.481C1883.03 196.616 1805.6 249.492 1725.22 282.884C1681.76 300.937 1641.64 311.631 1602.56 315.58C1558.43 320.038 1516.97 315.815 1475.81 302.665C1466.47 299.685 1458.92 297.101 1452.05 294.539C1385.55 269.818 1320.67 234.842 1257.94 201.011C1233.04 187.589 1207.3 173.71 1181.76 160.63C1091.32 114.307 984.082 67.4467 874.396 71.0964C766.718 74.6833 667.139 132.799 570.836 189C516.972 220.438 461.276 252.94 404.177 276.111C377.854 286.795 348.451 292.299 316.781 292.463C313.931 292.477 311.055 292.451 308.145 292.379L308.159 292.374Z" fill="#8D8D8D" fill-opacity="0.5"/>
<path d="M318.018 298.097C290.772 297.428 261.061 292.786 229.587 284.28C173.391 269.092 111.112 242.02 33.5967 199.09C3.07098 182.268 -26.7132 164.842 -55.5194 147.99C-99.2327 122.422 -140.518 98.2692 -175.237 81.7424L-175.08 81.2139C-140.344 97.7467 -99.0503 121.905 -55.3327 147.479C-26.5264 164.326 3.25773 181.751 33.7748 198.573C148.983 262.378 296.1 329.428 412.107 281.169C470.02 257.083 526.428 223.068 580.981 190.18C629.27 161.065 679.203 130.96 729.419 108.293C785.68 82.8992 836.627 69.6251 885.167 67.7015C933.933 65.7722 984.927 73.783 1041.07 92.1977C1085.15 106.657 1132.59 127.587 1190.38 158.074C1216.47 171.833 1242.74 186.471 1268.14 200.634C1329.44 234.799 1392.83 270.131 1457.89 295.372C1464.81 298.063 1472.28 300.752 1481.42 303.829C1656.93 362.912 1816.11 249.263 1970.04 139.351C2006.35 113.434 2040.63 88.9519 2075.17 66.6728L2075.36 67.1707C2040.83 89.4444 2006.55 113.921 1970.25 139.839C1894.47 193.943 1816.11 249.896 1734.8 284.885C1690.87 303.789 1650.21 314.895 1610.5 318.84C1565.71 323.288 1523.45 318.557 1481.31 304.37C1472.16 301.293 1464.68 298.604 1457.77 295.907C1392.68 270.654 1329.28 235.317 1267.97 201.146C1242.56 186.988 1216.3 172.35 1190.22 158.591C1100.92 111.483 994.851 63.9117 885.179 68.2566C777.11 72.5344 677.496 132.599 581.165 190.677C526.599 223.577 470.178 257.597 412.238 281.694C385.855 292.668 356.334 298.208 324.495 298.166C322.354 298.164 320.197 298.134 318.027 298.08L318.018 298.097Z" fill="#8D8D8D" fill-opacity="0.5"/>
<path d="M327.694 303.832C299.722 303.145 269.116 298.089 236.635 288.785C179.696 272.474 116.909 243.753 39.0399 198.405C4.28402 178.24 -29.3395 157.325 -61.8528 137.097C-101.601 112.372 -139.146 89.0116 -171.205 71.9113L-171.036 71.3943C-138.968 88.5004 -101.419 111.861 -61.662 136.592C-29.1487 156.819 4.47047 177.735 39.2222 197.894C126.015 248.443 230.834 301.016 327.061 303.379C359.399 304.173 390.749 299.306 420.141 286.78C478.861 261.766 535.958 226.25 591.178 191.898C639.495 161.838 689.46 130.758 739.756 107.286C796.109 80.9866 847.197 67.1164 895.927 64.8836C944.448 62.6569 995.104 70.6033 1050.79 89.1749C1094.8 103.857 1141.84 125.108 1198.83 156.062C1225.4 170.495 1252.14 185.89 1278 200.787C1337.94 235.305 1399.91 270.994 1463.6 296.762C1470.59 299.595 1478 302.389 1486.92 305.55C1666.36 369.095 1826.84 249.184 1982.03 133.224C2012.7 110.312 2044.4 86.6181 2075.2 65.2783L2075.4 65.7707C2044.61 87.1108 2012.91 110.799 1982.25 133.711C1905.57 191.01 1826.27 250.258 1744.13 286.913C1699.78 306.704 1658.63 318.24 1618.34 322.176C1572.93 326.615 1529.9 321.355 1486.8 306.09C1477.87 302.929 1470.46 300.13 1463.47 297.296C1399.75 271.517 1337.76 235.822 1277.82 201.298C1251.96 186.407 1225.22 171.006 1198.66 156.579C1110.49 108.691 1005.58 60.4095 895.939 65.4443C787.449 70.4179 687.765 132.431 591.365 192.402C536.133 226.759 479.022 262.286 420.276 287.31C393.839 298.569 364.199 304.157 332.183 303.903C330.695 303.889 329.198 303.869 327.698 303.832L327.694 303.832Z" fill="#8D8D8D" fill-opacity="0.5"/>
<path d="M337.277 309.458C308.596 308.754 277.113 303.279 243.65 293.177C186.673 275.975 121.519 244.747 44.4788 197.715C5.19796 173.808 -32.4283 148.972 -68.8127 124.951C-104.392 101.465 -138.002 79.2834 -167.173 62.069L-166.987 61.5581C-137.802 78.7727 -104.193 100.96 -68.609 124.452C-32.2245 148.467 5.39749 173.303 44.6698 197.204C152.145 262.82 308.834 344.076 428.18 292.38C487.354 266.419 544.845 229.579 600.44 193.947C648.939 162.865 699.086 130.731 749.622 106.391C806.242 79.1173 857.619 64.6153 906.684 62.0601C954.964 59.5417 1005.28 67.4237 1060.5 86.1465C1104.44 101.045 1151.08 122.622 1207.27 154.039C1234.27 169.138 1261.43 185.294 1287.7 200.919C1346.31 235.791 1406.92 271.85 1469.3 298.14C1476.28 301.086 1483.84 304.073 1492.41 307.259C1675.63 375.403 1837.27 248.931 1993.58 126.62C2020.38 105.647 2048.1 83.963 2075.22 63.8667L2075.44 64.3539C2048.32 84.4503 2020.61 106.135 1993.8 127.102C1865.68 227.358 1733.95 330.407 1589.68 326.875C1557.86 326.093 1525.43 320.13 1492.29 307.8C1483.71 304.608 1476.14 301.62 1469.16 298.675C1406.76 272.373 1346.14 236.308 1287.52 201.43C1261.26 185.806 1234.1 169.649 1207.1 154.55C1125.14 108.726 1016.93 56.8719 906.701 62.6153C797.461 68.3102 697.4 132.433 600.636 194.445C545.028 230.082 487.524 266.933 428.32 292.904C401.803 304.391 372.037 309.976 339.843 309.499C338.991 309.484 338.138 309.468 337.281 309.447L337.277 309.458Z" fill="#8D8D8D" fill-opacity="0.5"/>
<path d="M346.638 315.236C317.332 314.516 285.062 308.619 250.702 297.704C193.046 279.387 127.369 246.459 49.9219 197.031C5.8135 168.942 -37.8566 138.421 -76.3844 111.489C-107.601 89.6688 -137.085 69.062 -163.142 52.2436L-162.943 51.7441C-136.882 68.5682 -107.393 89.1807 -76.1722 111.001C-37.6488 137.933 6.01695 168.454 50.1211 196.537C158.351 265.612 316.128 351.276 436.223 297.996C496.224 271.12 554.415 232.739 610.69 195.617C659.211 163.611 709.383 130.513 759.99 105.379C816.694 77.2109 868.198 62.1236 917.444 59.2479C965.48 56.4433 1015.45 64.2552 1070.22 83.1348C1114.06 98.2495 1160.29 120.142 1215.71 152.033C1243.11 167.797 1270.64 184.708 1297.26 201.069C1354.6 236.303 1413.89 272.733 1475 299.541C1482.1 302.663 1489.59 305.756 1497.9 308.997C1684.73 381.841 1847.35 248.551 2004.62 119.645C2027.76 100.679 2051.69 81.0642 2075.25 62.4832L2075.47 62.9594C2051.91 81.5405 2027.99 101.149 2004.85 120.116C1926.38 184.433 1845.24 250.942 1761.76 291.095C1716.79 312.725 1674.84 325.139 1633.53 329.044C1621.71 330.161 1610.03 330.58 1598.44 330.295C1564.47 329.461 1531.27 322.588 1497.77 309.526C1489.46 306.285 1481.96 303.186 1474.86 300.064C1413.72 273.25 1354.42 236.808 1297.07 201.569C1270.45 185.213 1242.92 168.297 1215.53 152.538C1134.62 105.983 1027.62 53.3741 917.461 59.8031C807.821 66.211 707.704 132.249 610.882 196.109C554.594 233.236 496.39 271.628 436.358 298.521C409.79 310.309 379.905 315.941 347.539 315.258C347.238 315.251 346.938 315.243 346.638 315.236Z" fill="#8D8D8D" fill-opacity="0.5"/>
<path d="M355.882 321.017C355.665 321.011 355.452 321.006 355.234 321.001C325.512 320.192 292.714 313.872 257.753 302.226C199.429 282.794 133.228 248.156 55.365 196.34C6.10973 163.609 -42.0527 128.018 -84.5481 96.6178C-111.221 76.9094 -136.412 58.2909 -159.11 42.4012L-158.898 41.9076C-136.2 57.803 -111.005 76.4215 -84.3272 96.13C-41.8362 127.53 6.32202 163.115 55.5687 195.841C164.562 268.376 323.441 358.455 444.262 303.59C505.069 275.803 563.937 235.876 620.866 197.267C669.424 164.338 719.632 130.283 770.323 104.355C797.602 90.3986 822.887 79.8174 847.617 71.9965C875.364 63.2242 901.724 58.1276 928.206 56.4132C975.995 53.3223 1025.62 61.0698 1079.93 80.1008C1123.67 95.4313 1169.5 117.639 1224.16 149.999C1251.9 166.421 1279.75 184.091 1306.69 201.183C1362.8 236.779 1420.82 273.592 1480.71 300.908C1487.94 304.213 1495.36 307.416 1503.4 310.696C1693.61 388.324 1849.75 254.253 2015.07 112.309C2034.77 95.3981 2055.13 77.9097 2075.28 61.0661L2075.51 61.5369C2055.37 78.3806 2035 95.8633 2015.31 112.774C1935.97 180.897 1853.93 251.34 1769.97 293.286C1724.81 315.853 1682.57 328.697 1640.84 332.564C1594.05 336.901 1549.05 329.923 1503.27 311.236C1495.22 307.95 1487.8 304.748 1480.56 301.443C1420.65 274.115 1362.62 237.295 1306.5 201.688C1279.56 184.602 1251.71 166.927 1223.97 150.51C1144.09 103.218 1038.28 49.8479 928.227 56.9741C818.16 64.1 717.965 132.047 621.068 197.76C564.125 236.379 505.239 276.312 444.406 304.115C417.963 316.125 388.181 321.81 355.887 321.017L355.882 321.017Z" fill="#8D8D8D" fill-opacity="0.5"/>
<path d="M365.022 326.806C364.326 326.789 363.63 326.771 362.935 326.743C333.034 325.745 300.02 319.017 264.805 306.742C205.821 286.184 139.092 249.846 60.8085 195.645C6.07461 157.78 -46.7111 116.6 -93.28 80.264C-115.243 63.1315 -135.989 46.9478 -155.07 32.5591L-154.845 32.0771C-135.76 46.4659 -115.014 62.6496 -93.0464 79.7878C-46.4773 116.119 6.30401 157.298 61.0251 195.151C139.283 249.33 205.982 285.656 264.931 306.202C338.403 331.812 401.448 332.817 452.31 309.19C513.913 280.481 573.454 239.04 631.038 198.957C679.635 165.132 729.887 130.154 780.663 103.432C807.991 89.051 833.329 78.1125 858.127 69.9907C885.948 60.8783 912.393 55.5148 938.979 53.59C986.548 50.2752 1035.84 57.9807 1089.67 77.14C1133.37 92.6938 1178.79 115.205 1232.61 147.982C1260.66 165.056 1288.79 183.484 1316 201.306C1370.92 237.275 1427.71 274.468 1486.42 302.293C1493.95 305.862 1501.51 309.265 1508.91 312.411C1702.06 395.1 1858.73 254.187 2024.61 105C2041.18 90.0974 2058.31 74.6872 2075.32 59.666L2075.56 60.1259C2058.56 75.1415 2041.42 90.5517 2024.86 105.455C1941.02 180.858 1861.83 252.084 1777.58 295.781C1732.32 319.254 1689.88 332.502 1647.83 336.272C1600.79 340.491 1555.3 332.862 1508.77 312.94C1501.37 309.794 1493.8 306.386 1486.27 302.816C1427.54 274.973 1370.74 237.775 1315.8 201.799C1288.6 183.978 1260.46 165.556 1232.42 148.481C1153.68 100.528 1049.17 46.467 938.996 54.1452C828.508 62.1462 728.22 131.946 631.239 199.45C573.642 239.538 514.088 280.99 452.453 309.715C426.352 321.839 396.947 327.584 365.031 326.8L365.022 326.806Z" fill="#8D8D8D" fill-opacity="0.5"/>
<path d="M374.227 332.597C359.119 332.225 343.299 330.374 326.958 327.065C282.503 318.054 234.142 298.676 179.101 267.831C78.9299 211.691 -21.6963 128.899 -102.553 62.3785C-119.665 48.2959 -135.831 34.9987 -151.038 22.7337L-150.805 22.2575C-135.597 34.5281 -119.432 47.8253 -102.315 61.908C-21.4757 128.422 79.1378 211.197 179.279 267.32C296.886 333.236 388.825 348.764 460.344 314.801C522.692 285.191 582.859 242.191 641.041 200.604C689.7 165.828 740.016 129.865 790.908 102.339C818.294 87.5278 843.701 76.2435 868.58 67.8434C896.491 58.4195 923.037 52.8343 949.736 50.7721C997.031 47.1144 1045.98 54.7385 1099.38 74.0722C1142.27 89.6063 1188.61 113.121 1241.05 145.959C1269.36 163.684 1297.74 182.868 1325.18 201.413C1385.84 242.416 1448.57 284.809 1514.4 314.126C1552.5 331.095 1589.16 339.191 1624.67 340.063C1771.93 343.68 1899.92 223.218 2033.92 97.1033C2047.45 84.3673 2061.44 71.2055 2075.34 58.2658L2075.59 58.7202C2061.69 71.6599 2047.7 84.8274 2034.17 97.5579C1949.46 177.283 1869.45 252.59 1784.98 298.07C1739.69 322.456 1697.09 336.109 1654.75 339.821C1607.51 343.956 1561.55 335.727 1514.25 314.666C1448.39 285.337 1385.65 242.927 1324.97 201.918C1297.53 183.373 1269.16 164.195 1240.86 146.47C1163.01 97.7146 1059.57 42.8392 949.761 51.3332C838.784 59.9162 738.365 131.685 641.251 201.097C583.055 242.689 522.875 285.7 460.492 315.326C440.891 324.634 419.33 330.258 396.411 332.037C389.213 332.595 381.811 332.783 374.231 332.597L374.227 332.597Z" fill="#8D8D8D" fill-opacity="0.5"/>
</g>
<defs>
<clipPath id="clip0_617_537">
<rect width="2344.64" height="326.856" fill="white" transform="translate(-268.33 0.704346) rotate(1.40692)"/>
</clipPath>
</defs>
</svg>
