<svg width="1920" height="887" viewBox="0 0 1920 887" fill="none" xmlns="http://www.w3.org/2000/svg">
<g clip-path="url(#clip0_1247_497)" stroke='rgba(80, 80, 80, 0.1)'>
<path d="M2321.91 503.29L2322.24 503.603C2299.44 525.82 2270.61 543.918 2234.13 558.931C2199.71 573.092 2163.08 582.6 2131.77 590.034C2004.8 620.193 1874.07 639.734 1743.2 648.11C1612.34 656.486 1480.44 653.76 1351.19 640.003C1241.07 628.284 1130.36 608.318 1023.3 589.011C883.834 563.856 739.615 537.847 595.321 529.851C484.626 523.711 349.595 562.319 219.013 599.655C134.983 623.678 48.088 648.521 -29.1691 660.158C-70.7191 666.418 -106.446 668.505 -138.377 666.548C-174.176 664.352 -204.384 657.165 -230.735 644.574L-230.519 644.171C-181.423 667.635 -115.582 672.719 -29.2387 659.715C47.9896 648.086 134.865 623.246 218.881 599.228C346.023 562.878 477.382 525.325 586.448 529.011C589.436 529.112 592.399 529.244 595.355 529.407C739.677 537.404 883.91 563.417 1023.4 588.573C1130.45 607.88 1241.15 627.841 1351.25 639.56C1612.49 667.364 1875.06 650.551 2131.68 589.599C2196.71 574.151 2270.4 553.465 2321.91 503.29Z" fill="#8D8D8D" fill-opacity="0.5"/>
<path d="M2317.36 511.106L2317.68 511.428C2294.66 532.337 2265.63 549.137 2228.92 562.779C2194.34 575.633 2157.41 584.002 2125.85 590.491C2020.75 612.042 1908.2 628.228 1781.75 639.976C1621.18 655.124 1476.5 655.814 1339.46 642.087C1225.36 630.399 1110.84 609.008 1000.09 588.321C983.517 585.227 966.379 582.024 949.525 578.907C835.423 557.814 713.615 536.559 589.159 528.648C579.245 528.016 568.844 527.728 558.239 527.783C451.712 528.197 327.08 563.929 206.545 598.487C121.292 622.927 40.7616 646.014 -34.2151 657.746C-74.526 664.052 -109.257 666.425 -140.386 664.986C-175.269 663.379 -204.842 657.069 -230.794 645.706L-230.592 645.299C-181.555 666.771 -119.175 670.585 -34.2801 657.303C40.6683 645.575 121.18 622.495 206.423 598.055C326.986 563.49 451.657 527.749 558.25 527.334C568.864 527.274 579.275 527.567 589.203 528.2C713.687 536.111 835.514 557.371 949.63 578.469C966.484 581.586 983.622 584.785 1000.19 587.883C1110.94 608.57 1225.45 629.961 1339.53 641.643C1476.54 655.37 1621.18 654.678 1781.72 639.533C1908.15 627.79 2020.69 611.603 2125.77 590.056C2191.24 576.595 2265.44 558.279 2317.36 511.111L2317.36 511.106Z" fill="#8D8D8D" fill-opacity="0.5"/>
<path d="M2312.8 518.923L2313.11 519.257C2289.88 538.858 2260.64 554.355 2223.72 566.631C2188.99 578.175 2151.76 585.404 2119.93 590.953C2001.22 611.508 1878.68 624.643 1773.14 635.346C1690.35 643.965 1617.49 649.059 1550.37 650.921C1470.72 653.13 1397.9 650.921 1327.74 644.175C1211.65 633.005 1095.38 610.448 982.922 588.632C968.963 585.923 954.523 583.122 940.334 580.392C821.146 557.453 704.129 536.144 582.999 527.446C573.155 526.735 562.834 526.359 552.311 526.318C443.373 525.588 316.611 562.073 194.02 597.357C111.425 621.131 33.4139 643.583 -39.2923 655.415C-78.3689 661.771 -112.101 664.416 -142.427 663.49C-142.846 663.476 -143.266 663.462 -143.68 663.448C-177.098 662.318 -205.623 656.881 -230.851 646.838L-230.663 646.421C-182.402 665.636 -121.613 668.352 -39.3619 654.967C33.3108 643.143 111.313 620.69 193.888 596.92C316.513 561.624 443.314 525.127 552.322 525.86C562.851 525.896 573.19 526.277 583.043 526.988C704.197 535.687 821.228 557.001 940.435 579.941C954.628 582.671 969.064 585.472 983.027 588.181C1095.47 609.996 1211.74 632.553 1327.8 643.718C1457.39 656.185 1594.73 653.465 1773.1 634.895C1878.63 624.196 2001.16 611.06 2119.85 590.509C2185.78 579.02 2260.49 563.063 2312.8 518.918L2312.8 518.923Z" fill="#8D8D8D" fill-opacity="0.5"/>
<path d="M2308.25 526.734L2308.55 527.082C2255.79 568.259 2180.46 581.878 2114 591.409C2036.13 602.454 1955.63 610.728 1877.79 618.731C1840.54 622.557 1802.03 626.516 1764.52 630.707C1630 645.746 1473.31 660.584 1316.03 646.249C1197.53 635.448 1079.06 611.611 964.5 588.562C953.376 586.323 942.258 584.089 931.143 581.863C811.576 557.93 694.508 535.67 576.843 526.234C567.295 525.466 557.333 525.007 546.387 524.844C435.212 523.161 306.613 560.321 182.252 596.261C102.177 619.4 26.5405 641.258 -44.0276 653.193C-81.9454 659.607 -114.752 662.517 -144.322 662.085C-177.431 661.609 -205.742 656.984 -230.9 647.966L-230.725 647.544C-183.188 664.592 -123.885 666.245 -44.1019 652.75C26.4377 640.818 102.059 618.964 182.125 595.829C306.524 559.882 435.157 522.709 546.407 524.395C557.362 524.563 567.334 525.017 576.896 525.786C694.589 535.227 811.671 557.492 931.252 581.426C942.367 583.651 953.486 585.89 964.609 588.125C1079.16 611.173 1197.61 635.005 1316.08 645.806C1473.32 660.139 1629.98 645.3 1764.48 630.265C1801.99 626.074 1840.51 622.115 1877.75 618.284C1955.59 610.285 2036.08 602.011 2113.94 590.966C2180.34 581.442 2255.59 567.838 2308.25 526.734L2308.25 526.734Z" fill="#8D8D8D" fill-opacity="0.5"/>
<path d="M2303.7 534.551L2303.97 534.906C2250.9 573.026 2175.02 584.296 2108.07 591.866C2054.87 597.772 1999.97 602.591 1946.88 607.25C1883.87 612.775 1818.73 618.489 1755.9 626.073C1617.31 642.802 1460.24 661.767 1304.3 648.333C1183.66 637.941 1063.31 612.829 946.915 588.544C938.587 586.804 930.26 585.069 921.942 583.339C820.515 562.242 694.281 535.991 570.676 525.022C561.307 524.188 551.425 523.642 540.452 523.37C426.788 520.505 296.122 558.491 169.757 595.231C92.3373 617.74 19.2092 638.999 -49.112 651.037C-85.8098 657.501 -117.635 660.674 -146.401 660.727C-178.586 660.792 -206.249 656.985 -230.969 649.093L-230.812 648.666C-184.096 663.58 -126.388 664.194 -49.1958 650.593C19.0969 638.559 92.2108 617.304 169.621 594.799C296.019 558.051 426.724 520.053 540.463 522.921C551.441 523.197 561.341 523.739 570.715 524.578C694.349 535.548 820.596 561.804 922.037 582.901C930.355 584.632 938.682 586.371 947.01 588.106C1063.39 612.386 1183.73 637.498 1304.34 647.888C1460.23 661.321 1617.27 642.359 1755.83 625.634C1818.67 618.051 1883.82 612.332 1946.82 606.807C1999.92 602.148 2054.81 597.334 2108.01 591.427C2174.9 583.864 2250.7 572.606 2303.68 534.555L2303.7 534.551Z" fill="#8D8D8D" fill-opacity="0.5"/>
<path d="M2299.15 542.367L2299.41 542.736C2275.57 558.406 2245.69 569.997 2208.1 578.182C2173.13 585.789 2134.92 589.605 2102.15 592.332C2064.2 595.401 2025.11 598.004 1987.31 600.52C1907.89 605.81 1825.77 611.279 1747.29 621.448C1737.79 622.68 1728.3 623.92 1718.81 625.157C1649.05 634.261 1576.91 643.677 1506.08 649.127C1426.81 655.223 1356.97 655.648 1292.59 650.425C1170.03 640.477 1048 614.08 929.999 588.557C924.251 587.314 918.502 586.071 912.759 584.829C800.425 560.573 684.27 535.49 564.524 523.828C554.389 522.833 544.118 522.319 534.531 521.91C417.632 516.941 284.041 556.242 154.851 594.259C7.96038 637.484 -130.788 678.316 -231.008 650.23L-230.866 649.799C-130.78 677.844 7.90051 637.032 154.719 593.827C282.454 556.237 414.505 517.385 530.509 521.301C531.871 521.347 533.209 521.397 534.566 521.457C544.162 521.866 554.442 522.38 564.587 523.376C684.361 535.039 800.53 560.126 912.878 584.387C918.621 585.63 924.37 586.873 930.118 588.116C1048.1 613.638 1170.11 640.03 1292.64 649.977C1436.02 661.619 1573.36 643.692 1718.77 624.714C1728.25 623.478 1737.74 622.237 1747.24 621.006C1825.74 610.833 1907.87 605.364 1987.29 600.074C2025.09 597.558 2064.18 594.955 2102.12 591.885C2169.53 586.275 2245.9 577.362 2299.15 542.371L2299.15 542.367Z" fill="#8D8D8D" fill-opacity="0.5"/>
<path d="M2294.6 550.183L2294.84 550.565C2270.8 564.919 2240.72 575.211 2202.89 582.029C2168.01 588.316 2131.01 590.913 2096.22 592.789C2068.86 594.186 2040.75 595.387 2013.55 596.542C1922.34 600.43 1828.02 604.452 1738.67 616.81C1719.51 619.46 1700.09 622.234 1681.32 624.916C1615.88 634.261 1548.21 643.927 1481.7 649.725C1407.24 656.218 1341.55 657.121 1280.87 652.495C1156.55 643.019 1033.06 615.33 913.637 588.553L900.769 585.67C789.39 560.718 674.22 534.912 558.363 522.612C549.354 521.65 539.624 520.934 528.602 520.431C409.69 514.99 274.839 554.851 144.416 593.398C2.09501 635.459 -132.333 675.19 -231.067 651.358L-230.943 650.921C-132.335 674.722 2.03026 635.011 144.284 592.971C272.705 555.017 405.452 515.792 523.058 519.762C524.925 519.826 526.772 519.897 528.627 519.982C539.659 520.486 549.403 521.202 558.416 522.164C674.297 534.469 789.481 560.275 900.874 585.233L913.742 588.116C1033.15 614.888 1156.63 642.576 1280.9 652.051C1416.03 662.357 1544.85 643.953 1681.25 624.472C1700.02 621.79 1719.44 619.017 1738.6 616.366C1827.98 604 1922.3 599.979 2013.53 596.091C2040.72 594.931 2068.84 593.735 2096.19 592.337C2167.26 588.511 2241.11 582.106 2294.58 550.183L2294.6 550.183Z" fill="#8D8D8D" fill-opacity="0.5"/>
<path d="M2290.04 558L2290.27 558.39C2236.55 587.298 2162.02 591.462 2090.3 593.246C2070.9 593.67 2051 594.01 2031.76 594.341C1931.37 596.064 1827.57 597.843 1730.06 612.176C1703.84 616.028 1677.35 620.178 1651.72 624.19C1589.31 633.966 1524.76 644.075 1461.24 650.33C1390.13 657.336 1327.3 658.723 1269.15 654.579C1143.23 645.597 1018.42 616.595 897.724 588.551L883.398 585.223C775.702 560.192 664.338 534.308 552.202 521.4C543.363 520.377 533.708 519.573 522.674 518.957C519.204 518.764 515.705 518.605 512.212 518.487C393.187 514.464 260.248 554.168 131.545 592.608C-5.27328 633.468 -134.505 672.065 -231.124 652.481L-231.019 652.044C-134.521 671.606 -5.34804 633.025 131.409 592.18C260.135 553.737 393.136 514.021 512.232 518.042C515.743 518.161 519.22 518.314 522.703 518.513C533.747 519.134 543.411 519.933 552.26 520.961C664.423 533.875 775.802 559.759 883.512 584.794L897.837 588.123C1018.52 616.166 1143.3 645.159 1269.19 654.139C1398.67 663.377 1521.56 644.128 1651.65 623.755C1677.27 619.743 1703.77 615.594 1729.99 611.737C1827.53 597.397 1931.35 595.618 2031.76 593.895C2051 593.564 2070.9 593.224 2090.3 592.8C2161.96 591.014 2236.42 586.857 2290.04 558Z" fill="#8D8D8D" fill-opacity="0.5"/>
<path d="M2285.5 565.816L2285.7 566.219C2231.88 592.055 2156.73 593.965 2084.37 593.707C2071.3 593.616 2057.93 593.497 2045 593.375C1937.05 592.386 1825.42 591.362 1721.44 607.546C1689.8 612.466 1657.91 617.927 1627.06 623.212C1566.85 633.522 1504.59 644.18 1443.23 650.959C1374.55 658.547 1313.76 660.412 1257.42 656.672C1130.02 648.207 1005.55 618.239 885.175 589.261C879.001 587.774 872.827 586.287 866.657 584.801C762.438 559.676 654.672 533.698 546.04 520.206C537.374 519.121 527.79 518.235 516.743 517.497C392.224 509.197 253.096 551.262 118.544 591.939C-12.7599 631.636 -136.778 669.126 -231.174 653.618L-231.087 653.175C-136.809 668.666 -12.8391 631.188 118.408 591.511C184.783 571.442 253.42 550.693 320.79 536.071C396.898 519.553 461.008 513.331 516.783 517.048C527.838 517.786 537.432 518.673 546.107 519.759C654.767 533.256 762.547 559.239 866.776 584.364C872.946 585.85 879.12 587.337 885.294 588.824C1005.65 617.797 1130.1 647.759 1257.46 656.223C1382.92 664.554 1501.48 644.26 1626.99 622.773C1657.84 617.493 1689.73 612.032 1721.37 607.107C1825.4 590.921 1937.05 591.94 2045.02 592.93C2057.95 593.048 2071.32 593.171 2084.38 593.261C2156.68 593.518 2231.77 591.61 2285.5 565.82L2285.5 565.816Z" fill="#8D8D8D" fill-opacity="0.5"/>
<path d="M2280.95 573.632L2281.13 574.044C2227.26 596.835 2154.52 596.568 2078.45 594.163C2070.65 593.891 2062.82 593.608 2054.98 593.33C1940.53 589.218 1822.18 584.97 1712.82 602.916C1676.86 608.816 1640.69 615.559 1605.7 622.076C1547.15 632.986 1486.6 644.265 1426.87 651.593C1359.99 659.801 1300.72 662.14 1245.7 658.755C1117.02 650.827 988.959 618.907 875.975 590.741C867.489 588.627 859.004 586.504 850.527 584.386C749.586 559.151 645.208 533.054 539.875 518.999C531.247 517.838 522.01 516.896 510.811 516.027C383.328 506.165 242.037 549.489 105.398 591.377C-20.3748 629.934 -139.172 666.354 -231.235 654.745L-231.162 654.298C-139.207 665.898 -20.4586 629.49 105.261 590.95C172.58 570.309 242.189 548.972 310.779 534.063C388.322 517.211 453.769 511.165 510.859 515.579C522.074 516.444 531.314 517.391 539.952 518.551C645.309 532.607 749.701 558.71 850.656 583.949C859.136 586.067 867.617 588.19 876.103 590.304C989.069 618.465 1117.11 650.385 1245.74 658.306C1368.27 665.85 1483.56 644.374 1605.61 621.637C1640.6 615.119 1676.78 608.376 1712.74 602.477C1822.15 584.519 1940.53 588.772 2055 592.885C2062.84 593.168 2070.67 593.446 2078.47 593.719C2154.48 596.117 2227.16 596.391 2280.94 573.637L2280.95 573.632Z" fill="#8D8D8D" fill-opacity="0.5"/>
<path d="M479.892 512.597C488.414 512.885 496.758 513.392 504.939 514.11C516.151 515.096 525.321 516.126 533.8 517.344C636.038 531.947 737.23 558.176 835.09 583.544C845.694 586.293 856.302 589.041 866.921 591.781C972.687 619.064 1104.31 653.022 1234.02 660.385C1354.38 667.217 1467.17 644.472 1586.58 620.395C1624.94 612.659 1664.61 604.657 1704.13 597.838C1776.78 585.303 1853.65 583.932 1930.96 586.545C1974.99 588.034 2019.14 590.813 2062.78 593.557L2072.56 594.172C2149.34 598.715 2222.7 601.159 2276.4 581.449L2276.56 581.868C2222.77 601.616 2149.35 599.17 2072.52 594.62L2062.74 594.006C1942.5 586.44 1818.17 578.615 1704.2 598.282C1664.69 605.101 1625.02 613.098 1586.66 620.834C1529.38 632.386 1470.16 644.326 1411.65 652.236C1346.15 661.093 1288.03 663.903 1233.98 660.834C1177.6 657.632 1116.9 649.33 1048.44 635.454C987.903 623.183 927.967 607.998 866.783 592.217C856.164 589.477 845.556 586.729 834.952 583.981C737.106 558.617 635.928 532.389 533.713 517.791C525.244 516.573 516.084 515.544 504.881 514.558C374.33 503.061 230.862 547.743 92.1133 590.955C-28.115 628.403 -141.677 663.767 -231.289 655.873L-231.236 655.425C-141.718 663.307 -28.2034 627.959 91.9765 590.528C160.241 569.266 230.831 547.278 300.667 532.051C368.605 517.237 427.541 510.823 479.887 512.592L479.892 512.597Z" fill="#8D8D8D" fill-opacity="0.5"/>
<path d="M468.978 510.666C479.229 511.013 489.232 511.67 499.019 512.64C510.229 513.748 519.323 514.861 527.648 516.142C626.943 531.271 725.114 557.649 820.047 583.162C832.39 586.478 845.156 589.911 857.733 593.266C985.726 627.416 1101.5 656.194 1222.3 662.473C1341.05 668.643 1451.88 644.577 1569.22 619.097C1610.41 610.152 1653 600.903 1695.52 593.213C1748.11 583.699 1808.05 579.965 1878.8 581.794C1942.23 583.434 2008.34 589.386 2066.66 594.638C2147.22 601.596 2218.27 605.996 2271.86 589.274L2272 589.702C2218.33 606.452 2147.23 602.051 2066.61 595.091C1948.03 584.413 1813.62 572.309 1695.6 593.662C1653.09 601.352 1610.51 610.601 1569.32 619.546C1513.04 631.766 1454.84 644.402 1397.29 652.907C1332.85 662.425 1275.6 665.702 1222.27 662.936C1101.42 656.655 985.621 627.872 857.605 593.711C845.028 590.356 832.266 586.928 819.919 583.608C724.995 558.1 626.842 531.722 527.571 516.598C519.255 515.322 510.17 514.21 498.97 513.102C365.239 499.86 219.577 546.043 78.7068 590.705C-33.858 626.391 -140.294 660.137 -226.495 657.223C-228.112 657.169 -229.724 657.101 -231.329 657.02L-231.295 656.571C-144.344 660.95 -36.0669 626.622 78.5652 590.281C147.784 568.337 219.358 545.644 290.451 530.064C357.776 515.31 416.527 508.911 468.982 510.684L468.978 510.666Z" fill="#8D8D8D" fill-opacity="0.5"/>
<path d="M458.047 508.681C470.033 509.086 481.707 509.918 493.093 511.171C504.282 512.4 513.306 513.6 521.49 514.935C617.994 530.573 713.29 557.115 805.448 582.781C819.56 586.71 834.157 590.777 848.536 594.742C970.067 628.264 1089.2 658.825 1210.57 664.552C1328.13 670.101 1437.4 644.668 1553.11 617.742C1596.71 607.596 1641.79 597.104 1686.88 588.574C1739.79 578.567 1800.09 575.11 1871.22 578.032C1933.2 580.573 1996.23 587.55 2060.73 595.09C2145.13 604.64 2213.93 610.849 2267.29 597.086L2267.41 597.522C2242.42 603.972 2211.22 606.46 2172.06 605.136L2171.64 605.122C2136.77 603.92 2099.24 599.902 2060.67 595.538C1948.27 582.401 1808.38 566.052 1686.97 589.018C1641.88 597.548 1596.8 608.036 1553.21 618.182C1497.72 631.095 1440.34 644.448 1383.53 653.553C1319.91 663.748 1263.33 667.492 1210.53 665.005C1089.12 659.277 969.948 628.705 848.394 595.178C834.009 591.213 819.418 587.146 805.301 583.217C713.152 557.556 617.871 531.014 521.395 515.381C513.219 514.047 504.205 512.852 493.026 511.623C355.993 496.541 208.128 544.364 65.1352 590.601C-43.9839 625.886 -147.049 659.216 -231.393 658.134L-231.377 657.684C-147.113 658.764 -44.0821 625.447 64.9937 590.174C135.17 567.479 207.737 544.014 280.112 528.04C346.87 513.303 405.47 506.909 458.047 508.686L458.047 508.681Z" fill="#8D8D8D" fill-opacity="0.5"/>
<path d="M447.102 506.641C460.841 507.106 474.176 508.124 487.169 509.701C498.332 511.055 507.285 512.335 515.334 513.727C609.185 529.861 701.761 556.576 791.283 582.41C807.024 586.952 823.299 591.647 839.35 596.222C959.187 630.376 1076.86 661.459 1198.85 666.636C1315.52 671.587 1423.59 644.759 1537.99 616.358C1583.67 605.018 1630.92 593.289 1678.27 583.94C1731.47 573.439 1792.11 570.277 1863.66 574.275C1928.3 577.887 1993.54 586.761 2054.83 595.543C2125.53 605.404 2205.67 616.582 2262.76 604.898L2262.85 605.338C2237.62 610.502 2206.08 611.686 2166.44 608.965C2132.3 606.618 2097.15 601.906 2054.75 595.99C1921.87 576.949 1793.09 561.737 1678.36 584.38C1631.02 593.725 1583.78 605.449 1538.1 616.789C1483.24 630.407 1426.51 644.493 1370.27 654.212C1307.31 665.095 1251.22 669.306 1198.82 667.08C1076.77 661.902 959.074 630.808 839.208 596.645C823.157 592.074 806.882 587.375 791.137 582.833C701.624 557.004 609.066 530.293 515.239 514.165C507.199 512.773 498.256 511.494 487.102 510.14C346.65 493.12 189.816 544.96 51.4451 590.697C-52.1087 624.923 -149.923 657.251 -231.445 659.252L-231.448 658.802C-150.002 656.803 -52.2213 624.487 51.2942 590.268C122.437 566.755 196 542.442 269.671 526.026C335.91 511.267 394.384 504.855 447.102 506.632L447.102 506.641Z" fill="#8D8D8D" fill-opacity="0.5"/>
<path d="M436.159 504.548C451.642 505.071 466.656 506.299 481.249 508.232C492.546 509.73 501.161 511.052 509.177 512.525C600.508 529.14 690.49 556.038 777.51 582.048C794.751 587.203 812.573 592.531 830.163 597.703C941.813 630.567 1062.34 661.918 1187.14 668.724C1302.66 675.023 1414.4 644.916 1522.46 615.797C1570.37 602.885 1619.91 589.537 1669.65 579.315C1713.82 570.241 1763.13 566.701 1819.53 568.607C1831.4 569.008 1843.58 569.65 1856.1 570.532C1922.98 575.245 1990.7 586.157 2048.92 596.01L2049.1 596.038C2127.65 609.035 2201.85 621.313 2258.22 612.719L2258.28 613.163C2201.84 621.768 2127.6 609.483 2049.01 596.481L2048.83 596.452C1921.1 574.835 1786.62 555.735 1669.74 579.75C1620.02 589.968 1570.49 603.316 1522.58 616.224C1468.38 630.828 1412.33 645.931 1356.74 656.23C1294.47 667.766 1238.98 671.997 1187.1 669.168C1130.77 666.094 1071.57 657.833 1006.13 643.907C954.745 632.975 900.43 618.853 830.011 598.13C812.427 592.954 794.6 587.626 777.358 582.475C690.353 556.47 600.384 529.577 509.077 512.962C501.065 511.494 492.46 510.168 481.172 508.675C337.184 489.605 178.035 543.487 37.6189 591.021C-60.3752 624.198 -152.94 655.538 -231.499 660.38L-231.522 659.934C-153.028 655.094 -60.4973 623.766 37.468 590.598C109.577 566.186 184.142 540.939 259.128 524.036C324.904 509.208 383.276 502.756 436.159 504.543L436.159 504.548Z" fill="#8D8D8D" fill-opacity="0.5"/>
<path d="M425.229 502.397C442.461 502.979 459.134 504.438 475.324 506.768C486.576 508.385 495.121 509.79 503.021 511.322C591.959 528.41 679.48 555.499 764.118 581.699C782.728 587.459 801.974 593.415 820.971 599.188C925.993 631.099 1050.23 664.564 1175.41 670.812C1290.64 676.584 1401.68 644.923 1509.06 614.323C1558.49 600.233 1609.61 585.67 1661.03 574.69C1702.87 565.753 1749.36 562.212 1802.13 563.996C1817.08 564.501 1832.53 565.433 1848.53 566.793C1914.08 572.357 1980.74 584.349 2043 596.48L2048.8 597.59C2125.63 612.279 2198.2 626.154 2253.66 620.554L2253.7 621C2198.16 626.603 2125.56 612.727 2048.7 598.032L2042.9 596.922C1914.88 571.983 1779.95 549.758 1661.12 575.129C1609.71 586.105 1558.61 600.669 1509.18 614.754C1455.32 630.103 1399.63 645.97 1344.33 656.904C1282.39 669.149 1227.12 673.851 1175.37 671.265C1119.29 668.465 1060.46 660.275 995.529 646.222C944.172 635.107 890.29 620.734 820.81 599.623C801.813 593.855 782.567 587.899 763.957 582.135C679.333 555.94 591.826 528.855 502.911 511.768C495.015 510.241 486.481 508.837 475.238 507.219C327.584 485.977 166.124 542.094 23.6708 591.603C-68.7777 623.734 -156.093 654.081 -231.558 661.526L-231.599 661.079C-156.196 653.641 -68.9 623.303 23.5149 591.184C96.6002 565.783 172.17 539.517 248.481 522.07C313.843 507.128 372.153 500.611 425.224 502.405L425.229 502.397Z" fill="#8D8D8D" fill-opacity="0.5"/>
<path d="M414.326 500.187C433.292 500.828 451.619 502.532 469.404 505.298C480.588 507.035 489.062 508.523 496.869 510.115C583.529 527.666 668.701 554.959 751.067 581.353C770.937 587.722 791.489 594.307 811.779 600.664C915.581 633.209 1038.57 667.239 1163.69 672.891C1278.77 678.081 1389.25 644.908 1496.1 612.823C1546.91 597.565 1599.45 581.785 1652.41 570.051C1695.14 560.586 1740.47 557.807 1786.62 559.367C1870.79 562.212 1957.75 579.481 2037.09 596.933C2041.1 597.797 2045.09 598.666 2049.09 599.53C2123.97 615.765 2194.71 631.099 2249.12 628.366L2249.13 628.816C2194.66 631.556 2123.9 616.212 2048.97 599.972C2044.98 599.108 2040.98 598.239 2036.98 597.375C1914.18 570.366 1773.08 543.784 1652.51 570.495C1599.57 582.221 1547.04 598.001 1496.23 613.255C1442.65 629.346 1387.24 645.988 1332.16 657.555C1270.47 670.515 1215.35 675.677 1163.66 673.344C1038.48 667.695 915.462 633.65 811.628 601.1C791.332 594.739 770.785 588.153 750.91 581.784C668.554 555.395 583.396 528.107 496.763 510.561C488.962 508.97 480.497 507.487 469.317 505.75C317.882 482.207 154.113 540.774 9.62705 592.442C-77.2852 623.523 -159.379 652.877 -231.607 662.654L-231.667 662.211C-159.492 652.445 -77.422 623.095 9.46611 592.023C83.5281 565.539 160.115 538.151 237.758 520.105C302.756 504.998 361.037 498.4 414.325 500.201L414.326 500.187Z" fill="#8D8D8D" fill-opacity="0.5"/>
<path d="M403.455 497.921C424.142 498.62 444.111 500.591 463.48 503.829C470.97 505.081 480.839 506.792 490.713 508.908C575.194 526.912 658.121 554.413 738.322 581.007C759.353 587.983 781.103 595.194 802.593 602.144C906.82 635.851 1028.37 672.057 1151.96 674.97C1267.23 677.687 1377.33 643.587 1483.81 610.607C1535.78 594.511 1589.52 577.866 1643.79 565.417C1697.93 552.998 1759.95 550.995 1833.4 559.292C1902.3 567.076 1972.05 582.916 2031.18 597.39C2037.45 598.903 2043.71 600.419 2049.94 601.931C2122.66 619.56 2191.35 636.211 2244.57 636.187L2244.56 636.636C2191.29 636.667 2122.57 620.002 2049.82 602.368C2043.58 600.856 2037.33 599.34 2031.06 597.827C1907.8 567.662 1766.06 537.831 1643.9 565.857C1589.64 578.303 1535.91 594.947 1483.95 611.039C1430.55 627.578 1375.33 644.681 1320.37 656.9C1258.81 670.584 1203.71 676.642 1151.95 675.424C1149.58 675.366 1147.2 675.299 1144.84 675.22C1023.63 671.122 904.707 635.645 802.442 602.571C780.951 595.621 759.202 588.41 738.166 581.434C657.979 554.84 575.062 527.344 490.608 509.35C480.743 507.234 470.884 505.524 463.394 504.272C308.056 478.31 141.999 539.541 -4.51152 593.567C-85.9149 623.583 -162.806 651.937 -231.654 663.768L-231.728 663.325C-162.923 651.501 -86.0564 623.155 -4.67197 593.143C70.3772 565.468 147.981 536.854 226.955 518.143C291.639 502.818 349.926 496.111 403.46 497.921L403.455 497.921Z" fill="#8D8D8D" fill-opacity="0.5"/>
<path d="M392.635 495.597C415.023 496.354 436.619 498.61 457.556 502.355C464.99 503.686 474.777 505.493 484.557 507.701C566.96 526.143 647.745 553.864 725.875 580.672C747.968 588.25 770.815 596.093 793.402 603.62C893.469 636.989 1009.88 672.719 1130.17 676.785C1133.53 676.898 1136.88 676.989 1140.24 677.049C1255.5 679.225 1365.21 643.591 1471.31 609.127C1524.51 591.848 1579.51 573.982 1635.17 560.778C1753.03 532.814 1892.31 562.067 2025.27 597.843C2034.01 600.164 2042.85 602.532 2051.39 604.824C2121.73 623.677 2188.16 641.481 2240.02 643.999L2239.99 644.448C2188.07 641.928 2121.61 624.115 2051.26 605.256C2042.71 602.964 2033.88 600.596 2025.13 598.275C1892.24 562.519 1753.03 533.277 1635.28 561.214C1579.64 574.414 1524.64 592.276 1471.46 609.55C1418.25 626.834 1363.23 644.703 1308.41 657.553C1247.01 671.949 1191.99 678.469 1140.22 677.494C1085.58 676.47 1027.84 668.726 963.716 653.841C902.455 639.619 843.162 620.685 793.237 604.038C770.646 596.506 747.798 588.668 725.705 581.089C647.589 554.286 566.813 526.57 484.438 508.133C474.668 505.931 464.89 504.124 457.456 502.793C298.105 474.27 129.78 538.417 -18.7301 595.017C-94.6618 623.953 -166.382 651.285 -231.721 664.887L-231.814 664.447C-166.513 650.853 -94.8127 623.529 -18.9003 594.597C57.1375 565.62 135.766 535.654 216.075 516.209C280.491 500.614 338.819 493.769 392.626 495.588L392.635 495.597Z" fill="#8D8D8D" fill-opacity="0.5"/>
<path d="M381.467 493.208C405.661 494.026 429.124 496.592 451.631 500.89C458.999 502.296 468.696 504.203 478.4 506.498C558.818 525.377 637.561 553.322 713.709 580.351C736.769 588.538 760.616 596.999 784.21 605.105C893.191 642.564 1010.33 677.45 1128.51 679.141C1243.86 680.781 1353.29 643.602 1459.1 607.652C1513.43 589.196 1569.6 570.11 1626.54 556.157C1681.07 542.794 1743.79 541.376 1818.27 551.81C1890.29 561.904 1963.56 581.963 2019.35 598.309C2030.79 601.621 2042.31 605.008 2053.46 608.283C2121.17 628.172 2185.12 646.954 2235.47 651.829L2235.41 652.277C2185.02 647.401 2121.05 628.609 2053.32 608.714C2042.17 605.439 2030.64 602.052 2019.2 598.741C1885.67 559.61 1745.7 527.422 1626.66 556.593C1569.74 570.537 1513.57 589.62 1459.26 608.076C1406.2 626.107 1351.32 644.747 1296.6 658.234C1235.29 673.34 1180.31 680.329 1128.5 679.591C1074.1 678.818 1016.73 671.146 953.128 656.138C891.745 641.656 833.209 622.427 784.049 605.527C760.456 597.421 736.609 588.956 713.544 580.773C637.404 553.753 558.676 525.809 478.286 506.935C468.591 504.645 458.899 502.738 451.535 501.333C288.066 470.114 117.51 537.436 -32.97 596.835C-103.475 624.663 -170.07 650.954 -231.765 666.024L-231.873 665.588C-170.211 650.526 -103.632 624.244 -33.1451 596.42C43.8883 566.013 123.549 534.571 205.182 514.319C249.369 503.36 289.654 496.765 328.342 494.153C346.368 492.935 364.108 492.626 381.472 493.213L381.467 493.208Z" fill="#8D8D8D" fill-opacity="0.5"/>
<path d="M370.728 490.77C396.566 491.644 421.645 494.53 445.711 499.421C453.004 500.901 462.61 502.908 472.248 505.291C550.763 524.601 627.542 552.776 701.799 580.025C725.746 588.813 750.512 597.9 775.028 606.582C882.594 644.681 998.447 680.087 1116.8 681.22C1232.32 682.321 1341.54 643.601 1447.16 606.15C1502.53 586.515 1559.79 566.214 1617.93 551.523C1672.66 537.694 1735.72 536.562 1810.72 548.067C1883.98 559.305 1957.54 581.067 2013.44 598.766C2027.8 603.266 2042.23 607.876 2056.18 612.335C2121.02 633.055 2182.27 652.627 2230.92 659.645L2230.85 660.088C2182.15 653.064 2120.89 633.487 2056.02 612.757C2042.07 608.298 2027.64 603.688 2013.28 599.188C1885.51 558.727 1738.64 521.472 1618.04 551.95C1559.92 566.637 1502.67 586.938 1447.31 606.565C1394.35 625.342 1339.59 644.76 1284.91 658.883C1223.66 674.707 1168.67 682.159 1116.78 681.661C998.357 680.529 882.457 645.109 774.853 606.994C750.334 598.312 725.572 589.226 701.62 580.437C627.382 553.194 550.612 525.019 472.12 505.719C462.492 503.337 452.89 501.333 445.601 499.854C277.923 465.793 105.176 536.569 -47.2347 599.013C-112.373 625.699 -173.898 650.91 -231.828 667.138L-231.955 666.706C-174.058 650.481 -112.544 625.279 -47.4194 598.597C30.6176 566.627 111.313 533.563 194.256 512.438C239.15 501.003 280.155 494.19 319.615 491.608C336.919 490.478 353.982 490.195 370.728 490.761L370.728 490.77Z" fill="#8D8D8D" fill-opacity="0.5"/>
<path d="M360.076 488.277C387.517 489.205 414.182 492.437 439.785 497.952C450.494 500.258 458.61 502.152 466.091 504.088C542.783 523.818 617.688 552.236 690.124 579.716C714.878 589.108 740.474 598.816 765.831 608.066C872.002 646.803 986.584 682.728 1105.07 683.308C1220.83 683.873 1329.92 643.6 1435.4 604.651C1491.76 583.842 1550.04 562.324 1609.31 546.893C1731.19 515.163 1879.01 555.546 2007.53 599.232C2025.05 605.135 2042.58 611.196 2059.54 617.057C2121.28 638.392 2179.59 658.544 2226.37 667.479L2226.27 667.922C2179.45 658.981 2121.12 638.823 2059.37 617.479C2042.41 611.618 2024.88 605.561 2007.36 599.659C1878.91 555.993 1731.18 515.631 1609.43 547.329C1550.18 562.752 1491.91 584.266 1435.57 605.07C1382.68 624.601 1327.98 644.79 1273.33 659.558C1212.1 676.098 1157.06 684.017 1105.06 683.762C986.507 683.175 871.873 647.244 765.66 608.493C740.304 599.242 714.703 589.534 689.944 580.142C617.518 552.667 542.632 524.254 465.962 504.529C458.486 502.594 450.38 500.704 439.676 498.398C413.471 492.751 387.164 489.697 360.906 488.809C214.864 483.873 69.3293 545.892 -61.4476 601.615C-121.297 627.116 -177.829 651.204 -231.878 668.279L-232.019 667.851C-177.994 650.78 -121.473 626.701 -61.6371 601.204C17.4113 567.522 99.1446 532.692 183.364 510.607C228.944 498.651 270.656 491.6 310.885 489.049C327.504 487.995 343.928 487.74 360.076 488.286L360.076 488.277Z" fill="#8D8D8D" fill-opacity="0.5"/>
<path d="M1709.78 531.028C1736.57 531.933 1765.08 535.12 1795.59 540.589C1872.04 554.293 1949.78 580.881 2001.62 599.685C2022.55 607.224 2043.4 614.972 2063.55 622.471C2121.94 644.184 2177.1 664.693 2221.83 675.296L2221.71 675.733C2176.95 665.125 2121.78 644.61 2063.37 622.888C2043.22 615.394 2022.37 607.641 2001.44 600.107C1908.89 566.529 1806.34 534.688 1710.46 531.447C1672.51 530.164 1635.64 533.355 1600.81 542.686C1540.49 558.847 1481.27 581.57 1424.01 603.545C1371.16 623.829 1316.5 644.798 1261.83 660.205C1200.58 677.464 1145.47 685.848 1093.34 685.837C1039.67 685.823 983.414 678.345 921.357 662.976C873.069 651.016 822.217 634.666 756.464 609.964C730.336 600.152 703.977 589.815 678.487 579.822C607.806 552.109 534.719 523.455 459.796 503.317C452.32 501.296 444.284 499.328 433.741 496.924C257.46 456.749 80.5247 535.308 -75.584 604.616C-130.237 628.88 -181.863 651.802 -231.937 669.402L-232.093 668.983C-182.034 651.391 -130.422 628.473 -75.7743 604.214C4.28962 568.667 87.0747 531.915 172.533 508.787C218.771 496.273 261.174 488.962 302.162 486.428C347.856 483.602 392.164 486.99 433.869 496.492C444.421 498.896 452.462 500.869 459.942 502.89C534.888 523.038 607.99 551.697 678.684 579.414C704.174 589.407 730.529 599.74 756.652 609.552C861.452 648.926 974.777 685.367 1093.35 685.396C1209.41 685.426 1318.43 643.594 1423.85 603.139C1481.13 581.16 1540.35 558.433 1600.69 542.268C1633.68 533.429 1669.8 529.69 1709.79 531.042L1709.78 531.028Z" fill="#8D8D8D" fill-opacity="0.5"/>
<path d="M1698.69 526.319C1726.45 527.257 1756.44 530.791 1788.03 536.854C1847.07 548.184 1913.05 568.294 1995.7 600.147C2020.32 609.57 2044.68 619.277 2068.24 628.665C2123.04 650.503 2174.81 671.132 2217.28 683.121L2217.14 683.553C2174.64 671.554 2122.86 650.925 2068.04 629.081C2044.49 619.694 2020.13 609.987 1995.52 600.568C1873.21 553.433 1716.83 503.733 1592.19 538.061C1530.86 554.952 1470.75 578.883 1412.61 602.026C1359.77 623.061 1305.13 644.814 1250.41 660.863C1189.12 678.84 1133.9 687.694 1081.62 687.925C1028.2 688.158 972.311 680.742 910.761 665.255C862.489 653.106 812.066 636.51 747.268 611.449C720.444 601.073 693.401 590.119 667.246 579.527C598.237 551.574 526.882 522.668 453.635 502.115C446.164 500.008 438.198 497.956 427.812 495.459C398.554 488.421 369.309 484.696 340.219 483.713C189.742 478.627 42.7084 546.766 -89.569 608.059C-139.139 631.027 -185.966 652.725 -231.994 670.53L-232.165 670.114C-186.146 652.314 -139.334 630.62 -89.7688 607.656C-8.68532 570.087 75.1566 531.234 161.801 506.989C208.663 493.875 251.728 486.276 293.457 483.762C339.952 480.954 385.197 484.747 427.935 495.026C438.326 497.524 446.296 499.58 453.777 501.687C527.051 522.247 598.42 551.157 667.439 579.115C693.59 589.711 720.627 600.661 747.451 611.036C845.942 649.131 962.664 688.004 1081.62 687.484C1198.04 686.972 1307.03 643.582 1412.43 601.624C1470.58 578.477 1530.71 554.542 1592.07 537.643C1620.73 529.746 1652.59 525.863 1686.74 526.09C1690.67 526.115 1694.65 526.2 1698.68 526.337L1698.69 526.319Z" fill="#8D8D8D" fill-opacity="0.5"/>
<path d="M1687.86 521.565C1716.54 522.535 1747.65 526.412 1780.47 533.12C1840.32 545.355 1906.83 566.797 1989.78 600.608C2018.34 612.181 2046.41 624.124 2073.56 635.676C2124.55 657.372 2172.71 677.861 2212.73 690.942L2212.57 691.369C2172.53 678.278 2124.36 657.785 2073.37 636.088C2046.22 624.541 2018.15 612.593 1989.59 601.02C1866.57 550.877 1709.24 497.878 1583.58 533.422C1521.28 551.042 1460.31 576.181 1401.35 600.489C1348.5 622.28 1293.85 644.811 1239.07 661.506C1177.7 680.205 1122.37 689.527 1069.9 690.004C950.829 691.078 835.342 651.644 738.081 612.92C710.622 601.992 682.958 590.414 656.208 579.222C588.809 551.021 519.121 521.857 447.483 500.903C440.087 498.731 431.955 496.53 421.892 493.98C236.94 447.131 63.9594 530.909 -103.328 611.923C-147.949 633.533 -190.1 653.944 -232.042 671.644L-232.227 671.233C-190.294 653.537 -148.153 633.13 -103.537 611.52C-21.4244 571.753 63.484 530.632 151.243 505.196C198.689 491.445 242.385 483.543 284.831 481.035C332.758 478.205 377.632 482.296 422.025 493.544C432.093 496.094 440.229 498.295 447.635 500.467C519.296 521.431 589.002 550.596 656.411 578.806C683.161 589.998 710.82 601.571 738.275 612.499C835.494 651.204 950.921 690.622 1069.91 689.55C1186.73 688.494 1295.75 643.543 1401.18 600.074C1460.15 575.758 1521.13 550.618 1583.46 532.991C1612.2 524.862 1644.18 520.944 1678.52 521.348C1681.61 521.385 1684.72 521.455 1687.88 521.561L1687.86 521.565Z" fill="#8D8D8D" fill-opacity="0.5"/>
<path d="M1677.28 516.806C1706.81 517.804 1738.94 522.031 1772.91 529.39C1833.56 542.529 1900.6 565.308 1983.87 601.07C2016.66 615.086 2048.64 629.573 2079.57 643.584C2126.5 664.842 2170.83 684.922 2208.17 698.772L2207.99 699.193C2170.63 685.338 2126.29 665.253 2079.36 643.991C2048.43 629.984 2016.45 615.497 1983.67 601.482C1859.91 548.33 1701.61 492.035 1574.95 528.797C1511.73 547.146 1449.95 573.486 1390.21 598.955C1337.32 621.501 1282.64 644.815 1227.78 662.155C1166.32 681.58 1110.84 691.37 1058.17 692.092C1005.26 692.815 950.12 685.523 889.58 669.796C842.051 657.447 790.985 639.848 728.881 614.405C700.848 602.922 672.628 590.731 645.34 578.935C579.495 550.482 511.403 521.056 441.318 499.7C433.87 497.423 425.814 495.139 415.959 492.515C226.732 442.132 52.0851 530.638 -116.808 616.233C-156.637 636.417 -194.255 655.483 -232.104 672.776L-232.304 672.373C-194.464 655.084 -156.851 636.023 -117.027 615.839C-33.8803 573.704 52.0946 530.13 140.888 503.429C188.862 489.002 233.147 480.778 276.272 478.284C324.926 475.474 370.659 479.985 416.092 492.083C425.952 494.707 434.012 496.991 441.464 499.273C511.578 520.639 579.678 550.069 645.538 578.528C672.826 590.319 701.041 602.51 729.069 613.993C825.032 653.307 939.181 693.277 1058.17 691.646C1175.42 690.042 1284.52 643.528 1390.02 598.553C1449.77 573.076 1511.57 546.731 1574.82 528.374C1603.63 520.014 1635.74 516.068 1670.26 516.641C1672.58 516.679 1674.92 516.74 1677.27 516.819L1677.28 516.806Z" fill="#8D8D8D" fill-opacity="0.5"/>
<path d="M1666.89 512.04C1697.21 513.065 1730.3 517.64 1765.35 525.656C1826.79 539.708 1894.35 563.819 1977.95 601.527C2015.27 618.297 2051.35 635.65 2086.24 652.432C2128.89 672.946 2169.17 692.328 2203.62 706.593L2203.43 707.005C2168.97 692.735 2128.68 673.354 2086.02 652.834C2051.14 636.052 2015.06 618.699 1977.75 601.934C1884.56 559.901 1771.86 515.939 1667.57 512.414C1632.52 511.229 1598.44 514.605 1566.35 524.159C1502.23 543.238 1439.67 570.772 1379.18 597.404C1326.25 620.709 1271.51 644.803 1216.55 662.788C1154.98 682.938 1099.33 693.204 1046.46 694.171C993.807 695.136 939.027 687.902 878.99 672.057C831.532 659.53 780.914 641.681 719.685 615.876C691.135 603.845 662.421 591.038 634.651 578.646C570.294 549.932 503.747 520.244 435.152 498.488C427.631 496.096 419.646 493.729 410.025 491.041C216.624 437.011 40.4521 530.52 -129.92 620.947C-163.58 638.815 -198.388 657.291 -232.166 673.895L-232.375 673.496C-198.606 656.893 -163.803 638.42 -130.143 620.553C-45.962 575.87 41.0851 529.668 130.816 501.644C179.26 486.513 224.078 477.951 267.84 475.475C317.154 472.682 363.712 477.631 410.167 490.609C419.792 493.297 427.782 495.669 435.308 498.061C503.931 519.827 570.491 549.52 634.858 578.239C662.623 590.627 691.337 603.438 719.883 615.464C814.607 655.385 927.479 695.905 1046.45 693.721C1164.17 691.566 1273.38 643.489 1378.99 596.997C1439.49 570.361 1502.06 542.818 1566.21 523.731C1595.08 515.144 1627.32 511.161 1662.02 511.907C1663.64 511.944 1665.26 511.985 1666.89 512.04L1666.89 512.04Z" fill="#8D8D8D" fill-opacity="0.5"/>
<path d="M1656.6 507.363C1687.69 508.414 1721.72 513.34 1757.82 522.013C1819.29 536.781 1889.37 562.944 1972.05 601.989C2014.2 621.838 2054.55 642.405 2093.56 662.297C2131.72 681.746 2167.76 700.115 2199.07 714.423L2198.86 714.83C2167.53 700.521 2131.49 682.148 2093.33 662.694C2054.32 642.807 2013.98 622.24 1971.83 602.396C1856.49 547.922 1688.07 480.065 1557.73 519.529C1493.1 539.361 1430.1 567.951 1369.18 595.603C1316.03 619.724 1261.07 644.662 1205.84 663.339C1143.95 684.267 1087.99 695.035 1034.74 696.255C982.348 697.458 927.938 690.282 868.403 674.323C821.035 661.624 770.856 643.519 710.497 617.357C681.491 604.783 652.335 591.359 624.14 578.376C561.218 549.4 496.16 519.438 429 497.285C421.488 494.804 413.346 492.279 404.104 489.576C206.682 431.792 29.14 530.547 -142.559 626.051C-171.999 642.428 -202.443 659.36 -232.216 675.027L-232.44 674.633C-202.671 658.965 -172.232 642.033 -142.792 625.661C-2.05368 547.377 142.631 466.913 298.995 472.189C333.487 473.355 368.535 478.689 404.247 489.145C413.493 491.851 421.644 494.377 429.156 496.859C496.344 519.021 561.416 548.988 624.347 577.969C652.537 590.952 681.689 604.376 710.695 616.95C798.727 655.109 915.114 698.552 1034.73 695.809C1153.28 693.088 1262.93 643.325 1368.97 595.2C1429.91 567.544 1492.93 538.945 1557.59 519.106C1586.55 510.337 1618.92 506.359 1653.82 507.287C1654.74 507.314 1655.67 507.34 1656.6 507.372L1656.6 507.363Z" fill="#8D8D8D" fill-opacity="0.5"/>
<path d="M1646.56 502.568C1678.32 503.642 1713.2 508.92 1750.26 518.26C1812.44 533.935 1883.05 561.47 1966.13 602.446C2013.45 625.733 2060.24 650.964 2101.53 673.228C2134.98 691.267 2166.58 708.302 2194.52 722.239L2194.3 722.637C2166.35 708.695 2134.75 691.655 2101.29 673.616C2060.01 651.352 2013.22 626.121 1965.91 602.839C1849.81 545.576 1680.29 474.163 1549.11 514.886C1483.57 535.438 1419.78 565.253 1358.09 594.09C1304.9 618.952 1249.91 644.662 1194.58 663.976C1132.59 685.62 1076.47 696.855 1023.02 698.329C970.891 699.767 916.851 692.652 857.814 676.575C810.55 663.704 760.819 645.354 701.307 618.824C671.887 605.71 642.344 591.674 613.777 578.094C552.244 548.849 488.618 518.612 422.844 496.065C415.204 493.439 407.137 490.831 398.181 488.089C196.935 426.472 18.2014 530.681 -154.651 631.462C-180.085 646.29 -206.384 661.625 -232.268 676.137L-232.501 675.751C-206.622 661.239 -180.324 645.909 -154.894 631.08C-68.6486 580.796 20.5303 528.798 111.772 497.989C160.925 481.393 206.628 472.141 251.497 469.706C264.323 469.01 277 468.872 289.566 469.297C326.377 470.541 362.248 476.618 398.332 487.667C407.293 490.409 415.369 493.022 423.009 495.647C488.811 518.2 552.451 548.447 613.993 577.696C642.56 591.272 672.098 605.312 701.513 618.421C788.4 657.15 903.465 701.178 1023.02 697.883C1142.01 694.597 1251.76 643.298 1357.89 593.691C1419.6 564.85 1483.4 535.027 1548.97 514.463C1577.99 505.453 1610.5 501.439 1645.58 502.535C1645.91 502.546 1646.23 502.557 1646.56 502.568Z" fill="#8D8D8D" fill-opacity="0.5"/>
<path d="M1636.64 497.773C1636.87 497.781 1637.1 497.789 1637.34 497.797C1669.55 498.948 1705 504.575 1742.69 514.512C1805.58 531.093 1876.73 560.01 1960.22 602.908C2013.03 630.008 2064.61 659.383 2110.11 685.3C2138.68 701.567 2165.65 716.934 2189.97 730.069L2189.74 730.462C2165.41 717.322 2138.43 701.955 2109.86 685.688C2064.36 659.771 2012.79 630.4 1959.99 603.305C1843.12 543.253 1672.49 468.279 1540.5 510.261C1474.06 531.53 1409.51 562.574 1347.09 592.593C1293.84 618.196 1238.79 644.674 1183.36 664.622C1153.53 675.36 1125.92 683.423 1098.97 689.281C1068.72 695.851 1040.05 699.494 1011.3 700.422C959.433 702.093 905.762 695.036 847.222 678.845C800.076 665.803 750.789 647.206 692.114 620.313C662.332 606.665 632.451 592.014 603.553 577.843C543.362 548.329 481.121 517.805 416.682 494.871C408.898 492.097 400.908 489.401 392.251 486.633C187.425 421.119 15.6954 526.064 -166.12 637.172C-187.782 650.409 -210.177 664.098 -232.327 677.274L-232.571 676.892C-210.425 663.716 -188.025 650.032 -166.367 636.795C-79.1118 583.471 11.116 528.331 102.905 496.092C152.284 478.747 198.317 469.155 243.633 466.758C294.442 464.07 343.109 470.431 392.407 486.202C401.068 488.974 409.064 491.67 416.852 494.445C481.314 517.388 543.569 547.917 603.773 577.44C632.667 591.608 662.549 606.263 692.321 619.906C778.075 659.209 891.832 703.827 1011.29 699.971C1130.76 696.116 1240.63 643.287 1346.88 592.194C1409.32 562.167 1473.89 531.119 1540.35 509.837C1569.24 500.648 1601.63 496.59 1636.63 497.773L1636.64 497.773Z" fill="#8D8D8D" fill-opacity="0.5"/>
<path d="M1626.83 492.972C1627.59 492.998 1628.34 493.023 1629.09 493.058C1661.5 494.365 1697.17 500.323 1735.13 510.769C1798.71 528.264 1870.4 558.554 1954.3 603.374C2012.96 634.686 2069.45 668.624 2119.28 698.571C2142.79 712.691 2164.99 726.029 2185.42 737.899L2185.16 738.282C2164.73 726.412 2142.53 713.074 2119.02 698.949C2069.19 669.007 2012.7 635.068 1954.06 603.766C1870.19 558.965 1798.53 528.686 1734.98 511.2C1655.79 489.406 1587.45 487.532 1531.87 505.631C1464.56 527.626 1399.25 559.874 1336.09 591.064C1282.79 617.385 1227.67 644.604 1172.13 665.188C1142.24 676.266 1114.57 684.615 1087.53 690.712C1057.2 697.554 1028.43 701.41 999.572 702.505C947.935 704.36 894.631 697.342 836.616 681.056C789.513 667.835 740.673 649.002 682.909 621.789C652.812 607.612 622.638 592.349 593.457 577.587C534.561 547.793 473.659 516.986 410.511 493.663C402.414 490.671 394.272 487.813 386.312 485.163C178.386 415.539 5.95921 525.965 -176.595 642.875C-194.832 654.554 -213.686 666.63 -232.395 678.396L-232.648 678.023C-213.944 666.262 -195.085 654.185 -176.853 642.507C-84.5865 583.416 2.56725 527.601 94.7079 493.961C144.203 475.891 190.457 465.978 236.118 463.665C287.195 461.075 336.38 467.967 386.472 484.741C394.442 487.391 402.584 490.254 410.685 493.246C473.861 516.583 534.772 547.395 593.682 577.194C622.858 591.956 653.032 607.215 683.125 621.391C767.632 661.205 879.971 706.356 999.564 702.059C1119.51 697.509 1229.51 643.194 1335.88 590.666C1399.06 559.471 1464.38 527.215 1531.73 505.208C1560.25 495.92 1592.23 491.807 1626.82 492.977L1626.83 492.972Z" fill="#8D8D8D" fill-opacity="0.5"/>
<path d="M1616.96 488.17C1633.33 488.723 1650.45 490.477 1668.11 493.409C1716.15 501.392 1768.23 517.761 1827.35 543.444C1934.94 590.19 2042.55 658.332 2129.01 713.081C2147.31 724.671 2164.6 735.615 2180.87 745.715L2180.6 746.093C2164.34 735.989 2147.05 725.045 2128.75 713.454C2042.3 658.71 1934.71 590.583 1827.15 543.852C1700.83 488.966 1601.42 474.949 1523.26 500.993C1455.13 523.698 1389.11 557.186 1325.27 589.574C1271.89 616.657 1216.68 644.664 1161 665.892C1131.04 677.314 1103.29 685.939 1076.16 692.259C1045.73 699.349 1016.84 703.381 987.858 704.584C936.513 706.719 883.582 699.773 826.033 683.354C779.802 670.162 729.983 650.508 673.722 623.27C643.352 608.566 612.929 592.691 583.511 577.345C518.481 543.415 451.234 508.334 380.387 483.694C339.382 469.432 299.787 462.315 261.302 461.015C101.691 455.619 -39.2571 550.12 -186.828 649.055C-201.726 659.046 -217.135 669.371 -232.448 679.52L-232.711 679.151C-217.397 669.003 -201.993 658.673 -187.095 648.686C-93.805 586.143 -5.68555 527.065 86.719 491.999C136.264 473.197 182.702 462.962 228.676 460.699C279.972 458.18 329.653 465.562 380.557 483.263C451.437 507.913 518.697 543.008 583.741 576.943C613.159 592.289 643.578 608.16 673.938 622.863C757.461 663.305 868.622 709.091 987.841 704.134C1108.32 699.124 1218.5 643.232 1325.06 589.175C1388.91 556.783 1454.94 523.287 1523.11 500.569C1544.53 493.431 1568.01 489.283 1592.89 488.243C1600.71 487.918 1608.74 487.892 1616.95 488.17L1616.96 488.17Z" fill="#8D8D8D" fill-opacity="0.5"/>
</g>
<g clip-path="url(#clip1_1247_497)" stroke='rgba(80, 80, 80, 0.1)'>
<path d="M-375.284 398.563L-375.625 398.258C-352.81 376.31 -323.912 358.367 -287.284 343.403C-252.734 329.29 -215.92 319.728 -184.462 312.235C-56.8594 281.839 74.5989 261.841 206.25 252.799C337.906 243.758 470.665 245.606 600.839 258.296C711.738 269.108 823.276 288.009 931.144 306.286C1071.66 330.099 1216.97 354.721 1362.24 361.663C1473.69 366.995 1609.35 328.256 1740.54 290.794C1824.96 266.69 1912.27 241.762 1989.95 229.856C2031.73 223.452 2067.67 221.18 2099.82 222.9C2135.86 224.83 2166.31 231.694 2192.91 243.887L2192.69 244.283C2143.14 221.562 2076.84 216.986 1990.02 230.291C1912.37 242.188 1825.09 267.112 1740.68 291.212C1612.94 327.686 1480.97 365.366 1371.18 362.432C1368.17 362.352 1365.19 362.241 1362.21 362.1C1216.91 355.156 1071.59 330.53 931.051 306.716C823.192 288.439 711.659 269.543 600.779 258.732C337.689 233.083 73.5333 251.231 -184.36 312.662C-249.715 328.231 -323.758 348.995 -375.284 398.563Z" fill="#8D8D8D" fill-opacity="0.5"/>
<path d="M-370.754 390.863L-371.08 390.55C-348.04 369.884 -318.927 353.214 -282.069 339.595C-247.341 326.762 -210.228 318.316 -178.503 311.749C-72.8599 289.939 40.3188 273.347 167.505 261.024C329.017 245.15 474.618 243.565 612.625 256.178C727.533 266.933 842.92 287.209 954.512 306.818C971.21 309.75 988.477 312.786 1005.46 315.74C1120.42 335.726 1243.15 355.822 1368.45 362.805C1378.43 363.363 1388.9 363.581 1399.57 363.46C1506.78 362.386 1632 326.534 1753.1 291.862C1838.75 267.341 1919.66 244.176 1995.04 232.191C2035.57 225.749 2070.51 223.203 2101.85 224.42C2136.97 225.778 2166.77 231.786 2192.96 242.775L2192.76 243.176C2143.27 222.41 2080.47 219.057 1995.11 232.626C1919.75 244.607 1838.86 267.763 1753.22 292.285C1632.1 326.965 1506.84 362.825 1399.57 363.902C1388.88 364.027 1378.41 363.804 1368.41 363.246C1243.08 356.262 1120.33 336.161 1005.36 316.17C988.374 313.216 971.106 310.185 954.409 307.248C842.827 287.639 727.449 267.363 612.56 256.614C474.586 244.001 329.019 245.587 167.54 261.458C40.3729 273.777 -72.7915 290.369 -178.415 312.176C-244.227 325.799 -318.788 344.24 -370.759 390.859L-370.754 390.863Z" fill="#8D8D8D" fill-opacity="0.5"/>
<path d="M-366.219 383.163L-366.53 382.837C-343.27 363.453 -313.938 348.061 -276.853 335.781C-241.972 324.233 -204.55 316.905 -172.544 311.259C-53.2018 290.341 70.047 276.681 176.203 265.514C259.466 256.535 332.767 251.079 400.304 248.83C480.457 246.163 553.759 247.875 624.406 254.055C741.312 264.289 858.475 285.699 971.788 306.405C985.853 308.975 1000.4 311.634 1014.7 314.224C1134.8 335.99 1252.7 356.17 1374.66 363.947C1384.57 364.583 1394.96 364.887 1405.55 364.861C1515.19 364.894 1642.55 328.291 1765.71 292.892C1848.69 269.041 1927.07 246.516 2000.17 234.448C2039.46 227.964 2073.39 225.157 2103.91 225.875C2104.34 225.887 2104.76 225.898 2105.18 225.909C2138.82 226.808 2167.56 231.966 2193.01 241.664L2192.82 242.074C2144.13 223.519 2082.94 221.234 2000.24 234.887C1927.17 246.947 1848.81 269.473 1765.85 293.32C1642.65 328.731 1515.26 365.346 1405.54 365.311C1394.95 365.341 1384.54 365.032 1374.62 364.396C1252.63 356.619 1134.72 336.434 1014.6 314.668C1000.3 312.077 985.754 309.419 971.684 306.848C858.386 286.142 741.232 264.733 624.35 254.504C493.85 243.081 355.648 246.612 176.247 265.957C70.1007 277.119 -53.1387 290.78 -172.467 311.694C-238.745 323.383 -313.844 339.514 -366.219 383.168L-366.219 383.163Z" fill="#8D8D8D" fill-opacity="0.5"/>
<path d="M-361.684 375.468L-361.985 375.129C-309.141 334.384 -233.412 320.545 -166.586 310.774C-88.2768 299.446 -7.31683 290.821 70.9824 282.478C108.443 278.488 147.18 274.361 184.901 270.012C320.198 254.409 477.807 238.863 636.187 251.945C755.516 261.803 874.887 284.455 990.329 306.357C1001.54 308.485 1012.74 310.608 1023.94 312.722C1144.42 335.462 1262.38 356.575 1380.86 365.098C1390.48 365.792 1400.5 366.179 1411.52 366.27C1523.42 367.225 1652.62 329.947 1777.56 293.894C1858.01 270.681 1934 248.754 2004.95 236.598C2043.07 230.065 2076.07 227.004 2105.83 227.243C2139.16 227.502 2167.68 231.863 2193.05 240.556L2192.88 240.971C2144.93 224.538 2085.24 223.287 2005.02 237.033C1934.1 249.186 1858.13 271.109 1777.69 294.317C1652.71 330.378 1523.48 367.668 1411.5 366.711C1400.48 366.615 1390.44 366.232 1380.81 365.538C1262.3 357.01 1144.33 335.892 1023.83 313.152C1012.63 311.038 1001.43 308.91 990.222 306.787C874.794 284.885 755.437 262.238 636.132 252.381C477.799 239.3 320.218 254.847 184.946 270.446C147.224 274.795 108.483 278.922 71.0219 282.916C-7.26766 291.255 -88.2276 299.88 -166.522 311.208C-233.287 320.972 -308.939 334.796 -361.689 375.468L-361.684 375.468Z" fill="#8D8D8D" fill-opacity="0.5"/>
<path d="M-357.15 367.768L-357.431 367.42C-304.25 329.675 -227.955 318.138 -160.617 310.288C-107.108 304.158 -51.8845 299.085 1.52002 294.179C64.896 288.361 130.425 282.344 193.609 274.507C332.982 257.219 490.95 237.62 647.978 249.827C769.452 259.269 890.736 283.16 1008.03 306.265C1016.42 307.92 1024.81 309.57 1033.19 311.216C1135.4 331.286 1262.61 356.258 1387.08 366.248C1396.51 367.008 1406.46 367.482 1417.5 367.68C1531.92 369.779 1663.19 331.678 1790.14 294.826C1867.92 272.249 1941.39 250.926 2010.08 238.683C2046.97 232.108 2078.98 228.795 2107.93 228.562C2140.32 228.297 2168.19 231.859 2193.11 239.449L2192.96 239.869C2145.85 225.525 2087.77 225.285 2010.16 239.118C1941.51 251.357 1868.05 272.676 1790.28 295.249C1663.3 332.109 1531.98 370.222 1417.5 368.121C1406.45 367.919 1396.48 367.449 1387.04 366.684C1262.54 356.694 1135.32 331.716 1033.1 311.647C1024.72 310.001 1016.33 308.346 1007.93 306.695C890.657 283.595 769.391 259.705 647.941 250.263C490.966 238.057 333.027 257.653 193.677 274.937C130.488 282.774 64.9546 288.795 1.57395 294.613C-51.8306 299.519 -107.049 304.588 -160.554 310.719C-227.829 318.561 -304.048 330.086 -357.135 367.764L-357.15 367.768Z" fill="#8D8D8D" fill-opacity="0.5"/>
<path d="M-352.619 360.068L-352.886 359.708C-328.986 344.179 -298.993 332.615 -261.205 324.347C-226.059 316.661 -187.625 312.676 -154.662 309.794C-116.484 306.544 -77.1593 303.744 -39.1319 301.037C40.7664 295.347 123.383 289.465 202.303 278.992C211.861 277.724 221.404 276.446 230.938 275.173C301.098 265.8 373.646 256.107 444.889 250.313C524.637 243.833 594.92 242.977 659.75 247.7C783.161 256.694 906.13 281.836 1025.05 306.146C1030.84 307.329 1036.64 308.513 1042.43 309.697C1155.63 332.798 1272.69 356.687 1393.27 367.381C1403.48 368.294 1413.82 368.734 1423.47 369.076C1541.15 373.219 1675.36 333.81 1805.15 295.686C1952.72 252.342 2092.11 211.397 2193.15 238.333L2193.01 238.758C2092.11 211.861 1952.78 252.785 1805.28 296.11C1676.96 333.804 1544.3 372.764 1427.52 369.648C1426.15 369.611 1424.81 369.571 1423.44 369.521C1413.78 369.179 1403.43 368.739 1393.21 367.826C1272.6 357.13 1155.53 333.237 1042.31 310.131C1036.52 308.947 1030.73 307.763 1024.93 306.58C906.032 282.271 783.077 257.134 659.699 248.14C515.324 237.613 377.212 256.069 230.987 275.607C221.453 276.88 211.905 278.158 202.353 279.426C123.417 289.903 40.7916 295.785 -39.1115 301.475C-77.1389 304.182 -116.459 306.982 -154.632 310.232C-222.437 316.162 -299.247 325.388 -352.623 360.064L-352.619 360.068Z" fill="#8D8D8D" fill-opacity="0.5"/>
<path d="M-348.089 352.368L-348.336 351.995C-324.226 337.757 -294.023 327.466 -255.985 320.538C-220.924 314.149 -183.701 311.368 -148.699 309.309C-121.174 307.766 -92.8839 306.411 -65.5227 305.106C26.2534 300.718 121.154 296.179 211.001 283.49C230.277 280.768 249.796 277.925 268.675 275.175C334.475 265.592 402.521 255.682 469.427 249.573C544.324 242.734 610.434 241.436 671.535 245.595C796.704 254.115 921.158 280.516 1041.52 306.047L1054.49 308.796C1166.73 332.587 1282.8 357.191 1399.48 368.536C1408.55 369.424 1418.35 370.065 1429.45 370.49C1549.16 375.084 1684.63 335.117 1815.66 296.466C1958.64 254.293 2093.68 214.456 2193.2 237.226L2193.08 237.656C2093.69 214.915 1958.7 254.732 1815.79 296.885C1686.78 334.94 1553.42 374.271 1435.03 371.112C1433.15 371.061 1431.29 371.003 1429.42 370.931C1418.32 370.506 1408.51 369.864 1399.43 368.977C1282.73 357.626 1166.65 333.022 1054.38 309.226L1041.42 306.477C921.074 280.951 796.635 254.551 671.503 246.031C535.44 236.764 405.901 255.635 268.752 275.61C249.874 278.36 230.35 281.203 211.079 283.925C121.203 296.622 26.2927 301.161 -65.4929 305.548C-92.8544 306.858 -121.144 308.208 -148.665 309.751C-220.164 313.953 -294.453 320.703 -348.07 352.369L-348.089 352.368Z" fill="#8D8D8D" fill-opacity="0.5"/>
<path d="M-343.554 344.668L-343.786 344.287C-289.891 315.578 -214.916 311.023 -142.74 308.823C-123.219 308.285 -103.194 307.826 -83.8298 307.381C17.1912 305.06 121.656 302.662 219.7 287.984C246.065 284.039 272.701 279.8 298.466 275.701C361.222 265.715 426.12 255.389 490.013 248.852C561.542 241.529 624.768 239.774 683.317 243.476C810.103 251.501 935.888 279.182 1057.53 305.949L1071.97 309.126C1180.51 333.017 1292.75 357.722 1405.69 369.687C1414.59 370.636 1424.31 371.364 1435.42 371.899C1438.92 372.068 1442.44 372.201 1445.96 372.295C1565.77 375.497 1699.32 335.695 1828.62 297.161C1966.06 256.2 2095.89 217.509 2193.25 236.123L2193.15 236.553C2095.91 217.96 1966.14 256.635 1828.76 297.58C1699.44 336.118 1565.82 375.932 1445.94 372.732C1442.4 372.638 1438.9 372.509 1435.4 372.336C1424.28 371.796 1414.55 371.072 1405.64 370.118C1292.67 358.148 1180.42 333.443 1071.86 309.547L1057.42 306.37C935.796 279.604 810.029 251.932 683.28 243.908C552.909 235.654 429.35 255.316 298.544 276.127C272.779 280.226 246.138 284.465 219.773 288.415C121.69 303.1 17.2164 305.498 -83.8235 307.819C-103.188 308.264 -123.213 308.722 -142.734 309.261C-214.848 311.462 -289.757 316.01 -343.554 344.668Z" fill="#8D8D8D" fill-opacity="0.5"/>
<path d="M-339.023 336.968L-339.231 336.574C-285.224 310.88 -209.606 308.533 -136.776 308.333C-123.626 308.34 -110.168 308.373 -97.1519 308.412C11.499 308.705 123.851 309.01 228.408 292.474C260.216 287.446 292.283 281.887 323.292 276.506C383.827 266.01 446.424 255.159 508.132 248.121C577.215 240.243 638.378 238.031 695.103 241.349C823.374 248.857 948.831 277.488 1070.16 305.174C1076.38 306.594 1082.61 308.015 1088.82 309.435C1193.87 333.44 1302.49 358.26 1411.9 370.82C1420.63 371.831 1430.28 372.641 1441.4 373.295C1566.77 380.66 1706.54 338.502 1841.7 297.736C1973.61 257.952 2098.2 220.379 2193.29 235.007L2193.21 235.442C2098.23 220.83 1973.69 258.391 1841.84 298.155C1775.17 318.269 1706.21 339.063 1638.5 353.837C1562 370.526 1497.52 377.034 1441.36 373.736C1430.23 373.081 1420.57 372.271 1411.83 371.26C1302.39 358.695 1193.76 333.87 1088.71 309.865C1082.49 308.445 1076.27 307.024 1070.04 305.604C948.733 277.923 823.3 249.297 695.066 241.789C568.747 234.399 449.555 255.062 323.37 276.937C292.357 282.313 260.289 287.872 228.476 292.904C123.876 309.443 11.5053 309.143 -97.1647 308.849C-110.181 308.814 -123.639 308.777 -136.784 308.77C-209.552 308.972 -285.109 311.316 -339.023 336.964L-339.023 336.968Z" fill="#8D8D8D" fill-opacity="0.5"/>
<path d="M-334.494 329.269L-334.682 328.866C-280.604 306.159 -207.39 305.965 -130.818 307.848C-122.966 308.067 -115.091 308.295 -107.197 308.519C8.01791 311.836 127.156 315.263 237.106 296.964C273.259 290.948 309.625 284.103 344.797 277.487C403.661 266.412 464.525 254.963 524.602 247.396C591.862 238.921 651.491 236.253 706.893 239.231C836.446 246.204 965.526 276.729 1079.41 303.664C1087.96 305.685 1096.52 307.715 1105.06 309.741C1206.81 333.874 1312.01 358.833 1418.11 371.967C1426.8 373.051 1436.1 373.918 1447.38 374.701C1575.74 383.581 1717.68 340.174 1854.94 298.205C1981.28 259.575 2100.62 223.085 2193.35 233.9L2193.28 234.34C2100.66 223.532 1981.37 260.01 1855.08 298.624C1787.45 319.304 1717.53 340.682 1648.59 355.745C1570.65 372.771 1504.82 379.115 1447.34 375.141C1436.04 374.362 1426.74 373.491 1418.04 372.406C1311.92 359.272 1206.69 334.308 1104.93 310.171C1096.39 308.145 1087.84 306.115 1079.28 304.093C965.418 277.163 836.362 246.639 706.856 239.671C583.491 233.036 467.591 254.837 344.889 277.918C309.717 284.534 273.346 291.379 237.188 297.395C127.191 315.706 8.02417 312.274 -107.215 308.956C-115.109 308.727 -122.984 308.503 -130.836 308.285C-207.351 306.408 -280.503 306.595 -334.489 329.264L-334.494 329.269Z" fill="#8D8D8D" fill-opacity="0.5"/>
<path d="M1478.52 377.873C1469.94 377.644 1461.54 377.199 1453.3 376.546C1442.01 375.648 1432.78 374.695 1424.24 373.552C1321.25 359.861 1219.25 334.754 1120.6 310.47C1109.91 307.839 1099.22 305.209 1088.52 302.586C981.902 276.473 849.222 243.97 718.633 237.557C597.457 231.607 484.083 254.637 364.056 279.018C325.492 286.85 285.612 294.952 245.882 301.893C172.841 314.651 95.4864 316.479 17.6656 314.399C-26.6536 313.215 -71.1126 310.764 -115.051 308.344L-124.896 307.803C-202.192 303.825 -276.039 301.887 -329.963 321.569L-330.127 321.158C-276.111 301.439 -202.207 303.379 -124.854 307.362L-115.009 307.904C6.04991 314.575 131.231 321.475 245.81 301.458C285.535 294.518 325.409 286.42 363.969 278.587C421.544 266.89 481.077 254.8 539.91 246.67C605.781 237.566 664.255 234.443 718.675 237.117C775.436 239.905 836.571 247.673 905.564 260.862C966.563 272.526 1026.98 287.053 1088.65 302.157C1099.36 304.779 1110.05 307.41 1120.74 310.041C1219.37 334.32 1321.36 359.427 1424.32 373.113C1432.85 374.255 1442.08 375.208 1453.36 376.106C1584.82 386.57 1728.94 341.817 1868.31 298.536C1989.08 261.029 2103.16 225.608 2193.4 232.793L2193.35 233.233C2103.2 226.059 1989.18 261.464 1868.45 298.955C1799.88 320.25 1728.97 342.273 1658.78 357.655C1590.49 372.621 1531.22 379.286 1478.52 377.878L1478.52 377.873Z" fill="#8D8D8D" fill-opacity="0.5"/>
<path d="M1489.52 379.7C1479.2 379.424 1469.13 378.841 1459.27 377.951C1447.98 376.934 1438.82 375.898 1430.44 374.694C1330.41 360.468 1231.44 335.195 1135.74 310.751C1123.3 307.574 1110.43 304.285 1097.75 301.071C968.728 268.357 852.032 240.839 730.415 235.434C610.864 230.124 499.473 254.439 381.533 280.182C340.133 289.22 297.321 298.564 254.581 306.378C201.714 316.045 141.402 320.086 70.1912 318.735C6.33707 317.524 -60.2291 312.097 -118.955 307.308C-200.08 300.985 -271.614 297.112 -325.441 313.859L-325.586 313.44C-271.672 296.665 -200.086 300.538 -118.909 306.863C0.502326 316.599 135.849 327.635 254.494 305.939C297.229 298.125 340.032 288.78 381.432 279.742C437.999 267.396 496.489 254.629 554.358 245.921C619.155 236.175 676.753 232.6 730.443 234.98C852.108 240.386 968.831 267.909 1097.88 300.633C1110.56 303.847 1123.42 307.132 1135.87 310.313C1231.56 334.752 1330.51 360.025 1430.51 374.245C1438.89 375.445 1448.04 376.48 1459.32 377.497C1593.99 389.654 1740.3 343.415 1881.81 298.698C1994.88 262.967 2101.79 229.179 2188.56 231.498C2190.19 231.542 2191.81 231.598 2193.43 231.668L2193.4 232.109C2105.86 228.356 1997.1 262.727 1881.95 299.112C1812.42 321.084 1740.53 343.805 1669.07 359.542C1601.4 374.445 1542.31 381.093 1489.51 379.682L1489.52 379.7Z" fill="#8D8D8D" fill-opacity="0.5"/>
<path d="M1500.53 381.579C1488.46 381.257 1476.71 380.514 1465.24 379.356C1453.97 378.22 1444.88 377.098 1436.64 375.84C1339.42 361.097 1243.35 335.645 1150.44 311.033C1136.21 307.266 1121.5 303.366 1107 299.565C984.482 267.427 864.392 238.18 742.21 233.32C623.864 228.612 514.039 254.259 397.757 281.411C353.94 291.642 308.627 302.223 263.298 310.877C210.111 321.03 149.448 324.801 77.8448 322.38C15.4425 320.275 -48.0355 313.823 -112.992 306.827C-197.994 297.984 -267.275 292.322 -320.897 306.164L-321.018 305.737C-295.901 299.25 -264.519 296.613 -225.101 297.666L-224.679 297.677C-189.57 298.638 -151.784 302.346 -112.931 306.387C0.273403 318.576 141.163 333.744 263.211 310.442C308.535 301.787 353.838 291.211 397.651 280.98C453.421 267.958 511.086 254.493 568.206 245.2C632.167 234.796 689.095 230.766 742.242 232.875C864.476 237.736 984.599 266.993 1107.14 299.136C1121.64 302.937 1136.35 306.837 1150.58 310.604C1243.48 335.212 1339.54 360.663 1436.73 375.401C1444.97 376.659 1454.05 377.776 1465.31 378.911C1603.31 392.854 1751.84 344.99 1895.46 298.714C2005.07 263.399 2108.59 230.041 2193.49 230.574L2193.47 231.015C2108.66 230.484 2005.17 263.83 1895.61 299.133C1825.12 321.847 1752.23 345.332 1679.49 361.463C1612.39 376.346 1553.45 382.989 1500.53 381.575L1500.53 381.579Z" fill="#8D8D8D" fill-opacity="0.5"/>
<path d="M1511.56 383.512C1497.73 383.143 1484.3 382.228 1471.21 380.761C1459.97 379.502 1450.95 378.302 1442.84 376.986C1348.29 361.741 1254.95 336.101 1164.7 311.308C1148.83 306.949 1132.42 302.443 1116.24 298.054C995.419 265.286 876.8 235.517 753.991 231.202C636.537 227.074 527.945 254.083 412.981 282.674C367.07 294.091 319.595 305.898 271.997 315.371C218.523 326.011 157.509 329.495 85.4748 326.02C20.398 322.881 -45.3185 314.58 -107.052 306.345C-178.271 297.111 -258.995 286.643 -316.377 298.468L-316.473 298.037C-291.112 292.811 -259.382 291.451 -219.468 293.873C-185.092 295.962 -149.688 300.366 -106.978 305.906C26.8764 323.76 156.578 337.883 271.905 314.94C319.489 305.472 366.959 293.668 412.865 282.252C467.996 268.542 525.008 254.362 581.541 244.47C644.848 233.395 701.267 228.91 754.018 230.765C876.883 235.082 995.531 264.86 1116.38 297.638C1132.56 302.023 1148.97 306.533 1164.84 310.893C1255.09 335.681 1348.41 361.315 1442.94 376.556C1451.04 377.872 1460.04 379.071 1471.28 380.329C1612.74 396.153 1770.26 344.29 1909.24 298.534C2013.25 264.293 2111.5 231.951 2193.53 229.476L2193.54 229.918C2111.58 232.391 2013.37 264.72 1909.4 298.954C1837.94 322.477 1764.05 346.8 1690.01 363.374C1623.44 378.275 1564.62 384.935 1511.56 383.521L1511.56 383.512Z" fill="#8D8D8D" fill-opacity="0.5"/>
<path d="M1522.58 385.498C1507 385.082 1491.88 383.971 1477.18 382.165C1465.8 380.766 1457.12 379.523 1449.05 378.128C1357.03 362.394 1266.3 336.559 1178.56 311.577C1161.18 306.626 1143.21 301.509 1125.47 296.543C1012.9 264.989 891.413 234.976 765.767 229.079C649.464 223.622 537.191 253.871 428.613 283.127C380.47 296.101 330.695 309.512 280.695 319.856C236.304 329.039 186.701 332.823 129.922 331.306C117.971 330.986 105.712 330.434 93.1053 329.646C25.7643 325.44 -42.4548 315.155 -101.112 305.851L-101.292 305.824C-180.428 293.561 -255.18 281.975 -311.856 290.764L-311.924 290.329C-255.171 281.53 -180.382 293.12 -101.203 305.389L-101.024 305.416C27.6639 325.831 163.126 343.733 280.603 319.43C330.583 309.089 380.354 295.678 428.491 282.709C482.949 268.037 539.266 252.862 595.153 242.405C657.746 230.692 713.567 226.191 765.804 228.643C822.515 231.306 882.141 239.043 948.089 252.3C999.873 262.707 1054.62 276.226 1125.62 296.123C1143.35 301.093 1161.33 306.21 1178.71 311.157C1266.44 336.134 1357.15 361.964 1449.14 377.698C1457.22 379.088 1465.89 380.336 1477.25 381.73C1622.29 399.543 1782.13 345.663 1923.16 298.129C2021.58 264.953 2114.54 233.614 2193.58 228.369L2193.6 228.806C2114.64 234.049 2021.7 265.376 1923.31 298.544C1850.89 322.955 1776 348.202 1700.63 365.261C1634.52 380.227 1575.82 386.925 1522.58 385.503L1522.58 385.498Z" fill="#8D8D8D" fill-opacity="0.5"/>
<path d="M1533.6 387.542C1516.25 387.078 1499.46 385.751 1483.15 383.566C1471.82 382.049 1463.21 380.723 1455.25 379.27C1365.63 363.057 1277.38 337.019 1192.04 311.836C1173.28 306.3 1153.87 300.575 1134.71 295.028C1028.82 264.368 903.578 232.303 777.558 226.956C661.547 222.015 549.995 253.784 442.112 284.491C392.447 298.629 341.09 313.243 289.408 324.342C247.353 333.375 200.587 337.142 147.461 335.723C132.412 335.32 116.86 334.503 100.751 333.269C34.7354 328.219 -32.4175 316.868 -95.153 305.352L-101 304.299C-178.412 290.364 -251.535 277.202 -307.315 283.047L-307.359 282.608C-251.503 276.761 -178.352 289.924 -100.902 303.865L-95.0548 304.917C33.942 328.591 169.875 349.557 289.311 323.911C340.979 312.816 392.326 298.202 441.986 284.068C496.096 268.666 552.048 252.744 607.639 241.666C669.896 229.259 725.494 224.298 777.595 226.511C834.053 228.908 893.307 236.577 958.746 249.962C1010.5 260.548 1064.82 274.317 1134.87 294.6C1154.03 300.142 1173.44 305.867 1192.2 311.407C1277.53 336.586 1365.77 362.619 1455.36 378.831C1463.31 380.28 1471.91 381.605 1483.24 383.122C1631.97 403.044 1794.12 346.955 1937.19 297.471C2030.04 265.356 2117.73 235.024 2193.63 227.244L2193.67 227.682C2117.83 235.455 2030.16 265.778 1937.35 297.881C1863.95 323.269 1788.05 349.522 1711.36 367.124C1645.67 382.199 1587.02 388.961 1533.6 387.533L1533.6 387.542Z" fill="#8D8D8D" fill-opacity="0.5"/>
<path d="M1544.58 389.641C1525.49 389.131 1507.04 387.574 1489.12 384.971C1477.85 383.336 1469.31 381.929 1461.45 380.416C1374.12 363.734 1288.24 337.481 1205.18 312.094C1185.14 305.968 1164.42 299.633 1143.96 293.522C1039.29 262.232 915.303 229.604 789.344 224.843C673.484 220.47 562.498 253.721 455.164 285.882C404.114 301.175 351.332 316.992 298.106 328.84C255.16 338.398 209.558 341.41 163.103 340.168C78.3746 337.904 -9.25448 321.501 -89.2134 304.87C-93.2478 304.047 -97.2774 303.22 -101.302 302.397C-176.769 286.933 -248.051 272.327 -302.795 275.351L-302.815 274.909C-248.005 271.878 -176.694 286.493 -101.19 301.962C-97.165 302.785 -93.1355 303.613 -89.101 304.436C34.6502 330.173 176.824 355.378 298.005 328.405C351.212 316.565 403.989 300.748 455.024 285.458C508.853 269.329 564.52 252.649 619.881 240.951C681.889 227.844 737.329 222.432 789.367 224.397C915.388 229.156 1039.41 261.798 1144.11 293.093C1164.57 299.209 1185.29 305.544 1205.33 311.67C1288.38 337.052 1374.25 363.3 1461.55 379.977C1469.41 381.49 1477.94 382.892 1489.2 384.527C1641.76 406.684 1806.22 348.175 1951.32 296.559C2038.6 265.509 2121.04 236.186 2193.67 226.137L2193.74 226.571C2121.16 236.608 2038.74 265.928 1951.48 296.969C1877.11 323.426 1800.2 350.787 1722.16 368.985C1656.84 384.22 1598.23 391.062 1544.58 389.628L1544.58 389.641Z" fill="#8D8D8D" fill-opacity="0.5"/>
<path d="M1555.54 391.798C1534.71 391.241 1514.6 389.432 1495.09 386.376C1487.54 385.194 1477.6 383.577 1467.65 381.562C1382.52 364.422 1298.89 337.951 1218.01 312.353C1196.8 305.639 1174.86 298.698 1153.19 292.011C1048.09 259.583 925.534 224.812 801.13 222.729C685.108 220.785 574.508 254.943 467.548 287.979C415.339 304.103 361.359 320.775 306.81 333.335C252.404 345.862 189.993 348.218 116.016 340.535C46.6284 333.328 -23.6636 318.219 -83.2641 304.385C-89.5807 302.94 -95.8922 301.49 -102.176 300.046C-175.472 283.2 -244.706 267.289 -298.264 267.646L-298.261 267.205C-244.646 266.84 -175.383 282.766 -102.059 299.616C-95.7706 301.061 -89.4637 302.51 -83.1472 303.955C41.0925 332.787 183.922 361.176 306.699 332.903C361.229 320.348 415.204 303.675 467.403 287.556C521.045 270.989 576.512 253.857 631.753 241.52C693.626 227.703 749.035 221.412 801.143 222.283C803.521 222.324 805.918 222.375 808.295 222.439C930.312 225.699 1050.22 259.773 1153.34 291.591C1175.01 298.278 1196.95 305.219 1218.16 311.933C1299.03 337.531 1382.65 363.997 1467.75 381.128C1477.7 383.142 1487.63 384.759 1495.18 385.941C1651.67 410.446 1818.42 349.309 1965.54 295.367C2047.28 265.397 2124.5 237.086 2193.71 225.043L2193.79 225.477C2124.62 237.513 2047.43 265.816 1965.71 295.782C1890.34 323.414 1812.42 351.984 1733.05 370.844C1668.04 386.29 1609.42 393.238 1555.53 391.798L1555.54 391.798Z" fill="#8D8D8D" fill-opacity="0.5"/>
<path d="M1566.44 394.01C1543.91 393.408 1522.16 391.33 1501.06 387.785C1493.57 386.525 1483.71 384.813 1473.86 382.708C1390.81 365.125 1309.33 338.425 1230.54 312.604C1208.26 305.305 1185.21 297.751 1162.44 290.505C1061.52 258.383 944.14 224.046 823.049 220.81C819.666 220.72 816.301 220.652 812.915 220.615C696.9 219.201 586.703 254.862 480.13 289.353C426.698 306.645 371.449 324.525 315.512 337.833C197.068 366.018 56.7099 338.182 -77.3198 303.903C-86.1291 301.68 -95.0405 299.411 -103.656 297.215C-174.558 279.153 -241.53 262.097 -293.739 259.951L-293.707 259.51C-241.441 261.657 -174.446 278.723 -103.521 296.791C-94.9049 298.986 -85.9982 301.255 -77.1842 303.478C56.7848 337.738 197.068 365.563 315.406 337.406C371.319 324.102 426.562 306.227 479.984 288.939C533.426 271.642 588.693 253.759 643.786 240.803C705.495 226.289 760.827 219.545 812.933 220.178C867.935 220.84 926.09 228.077 990.717 242.284C1052.46 255.858 1112.25 274.069 1162.6 290.094C1185.38 297.345 1208.42 304.894 1230.71 312.193C1309.49 338.009 1390.95 364.705 1473.97 382.283C1483.82 384.383 1493.67 386.095 1501.16 387.355C1661.71 414.349 1830.73 350.335 1979.84 293.854C2056.09 264.979 2128.1 237.703 2193.78 223.944L2193.87 224.375C2128.23 238.126 2056.24 265.393 1980.02 294.265C1903.67 323.182 1824.72 353.085 1744.01 372.674C1679.28 388.383 1620.62 395.467 1566.45 394.019L1566.44 394.01Z" fill="#8D8D8D" fill-opacity="0.5"/>
<path d="M1577.7 396.285C1553.34 395.634 1529.71 393.263 1507.03 389.186C1499.61 387.852 1489.84 386.041 1480.06 383.85C1399.01 365.825 1319.59 338.893 1242.78 312.843C1219.52 304.952 1195.47 296.798 1171.68 288.99C1061.77 252.909 943.659 219.405 824.707 218.488C708.603 217.602 598.704 254.777 492.427 290.724C437.867 309.178 381.446 328.263 324.226 342.314C269.426 355.772 206.317 357.557 131.292 347.784C58.7504 338.329 -15.1137 319.101 -71.3651 303.409C-82.8956 300.23 -94.5173 296.978 -105.76 293.834C-174.024 274.738 -238.504 256.706 -289.203 252.238L-289.147 251.797C-238.401 256.267 -173.903 274.308 -105.615 293.409C-94.3722 296.554 -82.7504 299.805 -71.22 302.984C63.4072 340.551 204.474 371.264 324.11 341.887C381.31 327.845 437.717 308.764 492.268 290.309C545.561 272.28 600.672 253.642 655.668 240.061C717.275 224.851 772.569 217.646 824.715 218.046C879.473 218.463 937.256 225.633 1001.36 239.963C1063.23 253.792 1122.26 272.297 1171.84 288.575C1195.63 296.382 1219.68 304.542 1242.95 312.428C1319.74 338.469 1399.15 365.401 1480.17 383.42C1489.94 385.607 1499.71 387.418 1507.13 388.751C1671.84 418.365 1843.08 351.222 1994.16 291.98C2064.95 264.226 2131.81 238.006 2193.81 222.828L2193.92 223.255C2131.96 238.425 2065.11 264.637 1994.34 292.387C1917 322.713 1837.02 354.072 1754.99 374.46C1710.58 385.493 1670.08 392.218 1631.16 395.024C1613.02 396.333 1595.17 396.748 1577.69 396.28L1577.7 396.285Z" fill="#8D8D8D" fill-opacity="0.5"/>
<path d="M1588.52 398.61C1562.51 397.915 1537.25 395.24 1513 390.59C1505.65 389.184 1495.97 387.274 1486.26 384.996C1407.12 366.537 1329.67 339.366 1254.77 313.088C1230.62 304.613 1205.63 295.851 1180.91 287.484C1072.42 250.765 955.601 216.744 836.483 216.373C720.214 216.018 610.529 254.704 504.461 292.123C448.849 311.742 391.345 332.025 332.919 346.808C277.93 360.725 214.469 362.231 138.918 351.41C65.1168 340.84 -9.05184 319.943 -65.4209 302.923C-79.9004 298.597 -94.4503 294.163 -108.518 289.874C-173.904 269.945 -235.669 251.12 -284.678 244.538L-284.603 244.102C-235.552 250.69 -173.773 269.52 -108.364 289.458C-94.2961 293.747 -79.7462 298.181 -65.2668 302.507C63.5766 341.417 211.624 377.059 332.807 346.39C391.209 331.611 448.704 311.327 504.301 291.717C557.485 272.956 612.483 253.555 667.425 239.351C728.968 223.437 784.271 215.777 836.495 215.941C955.69 216.309 1072.55 250.345 1181.08 287.077C1205.81 295.445 1230.79 304.207 1254.95 312.682C1329.83 338.955 1407.27 366.126 1486.38 384.575C1496.09 386.853 1505.76 388.759 1513.11 390.165C1682.07 422.542 1855.5 351.996 2008.51 289.754C2073.9 263.154 2135.67 238.025 2193.87 221.735L2194 222.158C2135.83 238.444 2074.07 263.565 2008.69 290.161C1930.35 322.027 1849.34 354.984 1765.99 376.238C1720.88 387.742 1679.65 394.686 1639.96 397.468C1622.55 398.685 1605.38 399.069 1588.52 398.619L1588.52 398.61Z" fill="#8D8D8D" fill-opacity="0.5"/>
<path d="M1599.25 400.99C1571.63 400.252 1544.78 397.247 1518.97 391.995C1508.18 389.799 1500 387.991 1492.46 386.138C1415.15 367.255 1339.59 339.834 1266.52 313.318C1241.55 304.256 1215.73 294.888 1190.16 285.969C1083.06 248.616 967.525 214.077 848.274 214.251C731.765 214.423 622.225 254.633 516.296 293.521C459.703 314.297 401.188 335.782 341.628 351.298C219.16 383.205 70.1428 344.498 -59.4709 302.428C-77.1452 296.745 -94.8258 290.907 -111.927 285.261C-174.193 264.709 -233.006 245.296 -280.146 236.82L-280.048 236.385C-232.87 244.867 -174.043 264.284 -111.759 284.846C-94.6574 290.492 -76.9765 296.325 -59.307 302.009C70.2411 344.059 219.169 382.746 341.507 350.871C401.043 335.363 459.549 313.883 516.127 293.111C569.239 273.611 624.161 253.452 679.079 238.615C740.601 221.999 795.946 213.881 848.278 213.805C967.599 213.637 1083.19 248.183 1190.32 285.549C1215.9 294.469 1241.73 303.837 1266.7 312.899C1339.76 339.41 1415.3 366.826 1492.59 385.704C1500.12 387.557 1508.29 389.361 1519.08 391.557C1545.49 396.935 1571.98 399.767 1598.42 400.473C1745.43 404.402 1891.52 342.62 2022.79 287.11C2082.87 261.707 2139.62 237.711 2193.91 220.614L2194.06 221.033C2139.79 238.126 2083.05 262.113 2022.99 287.513C1943.64 321.066 1861.59 355.762 1776.97 377.966C1731.17 389.986 1689.23 397.168 1648.76 399.924C1632.04 401.063 1615.51 401.416 1599.26 400.981L1599.25 400.99Z" fill="#8D8D8D" fill-opacity="0.5"/>
<path d="M240.603 367.5C213.644 366.779 184.922 363.83 154.185 358.654C77.166 345.684 -1.24311 320.077 -53.5268 301.947C-74.6457 294.678 -95.6686 287.205 -116.001 279.972C-174.902 259.028 -230.536 239.245 -275.621 229.12L-275.5 228.69C-230.391 238.821 -174.738 258.609 -115.823 279.561C-95.4907 286.791 -74.468 294.268 -53.3489 301.532C39.9996 333.906 143.401 364.513 239.925 367.093C278.119 368.114 315.211 364.75 350.209 355.374C410.814 339.135 470.273 316.461 527.771 294.535C580.839 274.296 635.715 253.372 690.646 237.909C752.18 220.586 807.6 212.011 860.063 211.695C914.075 211.372 970.741 218.358 1033.29 233.053C1081.96 244.489 1133.24 260.216 1199.57 284.047C1225.93 293.513 1252.52 303.494 1278.23 313.141C1349.54 339.896 1423.27 367.56 1498.8 386.855C1506.34 388.792 1514.44 390.673 1525.06 392.966C1702.72 431.29 1880.32 353.078 2037 284.076C2091.86 259.92 2143.68 237.099 2193.96 219.511L2194.12 219.922C2143.85 237.502 2092.05 260.318 2037.2 284.47C1956.84 319.86 1873.74 356.449 1787.88 379.684C1741.42 392.256 1698.79 399.698 1657.55 402.442C1611.58 405.502 1566.97 402.455 1524.94 393.391C1514.3 391.098 1506.2 389.212 1498.66 387.275C1423.1 367.971 1349.36 340.302 1278.04 313.542C1252.32 303.895 1225.74 293.919 1199.38 284.453C1093.67 246.466 979.39 211.413 860.05 212.128C743.244 212.826 633.787 254.566 527.936 294.932C470.424 316.863 410.955 339.54 350.326 355.783C317.177 364.666 280.857 368.562 240.599 367.486L240.603 367.5Z" fill="#8D8D8D" fill-opacity="0.5"/>
<path d="M251.802 372.052C223.852 371.305 193.65 368.025 161.817 362.272C102.335 351.523 35.8016 332.2 -47.5768 301.456C-72.4082 292.362 -96.9831 282.988 -120.752 273.923C-176.044 252.833 -228.27 232.911 -271.09 221.411L-270.95 220.986C-228.106 232.496 -175.866 252.418 -120.56 273.513C-96.796 282.578 -72.2211 291.952 -47.3941 301.042C75.9924 346.536 233.678 394.333 358.909 359.859C420.534 342.896 480.885 319.032 539.253 295.954C592.308 274.978 647.165 253.285 702.133 237.191C763.712 219.163 819.227 210.127 871.85 209.573C925.608 209.009 981.902 215.936 1043.94 230.75C1092.6 242.371 1143.45 258.343 1208.82 282.532C1235.88 292.547 1263.16 303.129 1289.55 313.36C1359.17 340.362 1431.17 368.283 1505.01 387.997C1512.54 390.017 1520.57 391.981 1531.04 394.367C1560.53 401.09 1589.98 404.563 1619.27 405.345C1770.74 409.393 1918.31 341.596 2051.06 280.61C2100.81 257.756 2147.8 236.167 2194.02 218.404L2194.19 218.811C2147.98 236.57 2101 258.155 2051.26 281.004C1969.89 318.385 1885.74 357.043 1798.69 381.382C1751.61 394.547 1708.31 402.275 1666.33 405.004C1619.55 408.051 1573.99 404.612 1530.92 394.792C1520.45 392.406 1512.41 390.438 1504.87 388.417C1431 368.698 1358.99 340.772 1289.36 313.765C1262.97 303.53 1235.7 292.953 1208.64 282.938C1109.28 246.168 991.566 208.749 871.847 210.005C754.685 211.237 645.26 254.506 539.433 296.348C481.055 319.43 420.689 343.298 359.04 360.269C330.234 368.199 298.203 372.21 263.829 372.201C259.872 372.201 255.865 372.143 251.808 372.034L251.802 372.052Z" fill="#8D8D8D" fill-opacity="0.5"/>
<path d="M262.723 376.649C233.852 375.878 202.527 372.267 169.452 365.89C109.136 354.258 42.0662 333.63 -41.623 300.966C-70.439 289.787 -98.7612 278.242 -126.157 267.074C-177.602 246.101 -226.199 226.294 -266.555 213.707L-266.396 213.287C-226.022 225.883 -177.415 245.695 -125.961 266.669C-98.5693 277.832 -70.2473 289.382 -41.4361 300.561C82.6888 349.002 241.355 400.032 367.606 364.358C430.199 346.674 491.405 321.619 550.592 297.392C603.65 275.674 658.514 253.218 713.542 236.489C775.191 217.752 830.825 208.255 883.626 207.458C1003.46 205.657 1119.93 243.635 1218.05 281.031C1245.76 291.584 1273.67 302.774 1300.66 313.59C1368.67 340.845 1438.98 369.031 1511.21 389.147C1518.67 391.232 1526.86 393.341 1537.01 395.781C1723.44 440.601 1897.01 357.292 2064.88 276.731C2109.66 255.242 2151.95 234.945 2194.06 217.31L2194.24 217.713C2152.15 235.343 2109.86 255.636 2065.09 277.125C1982.7 316.669 1897.49 357.561 1809.33 383.075C1761.66 396.869 1717.73 404.898 1675.03 407.626C1626.81 410.705 1581.62 406.971 1536.87 396.21C1526.73 393.77 1518.53 391.661 1511.06 389.576C1438.81 369.45 1368.47 341.264 1300.46 314C1273.47 303.183 1245.56 291.998 1217.86 281.445C1119.78 244.069 1003.37 206.105 883.617 207.904C766.057 209.673 656.611 254.474 550.766 297.799C491.564 322.034 430.349 347.089 367.727 364.78C338.858 372.938 306.696 376.985 272.132 376.804C269.021 376.787 265.883 376.738 262.709 376.653L262.723 376.649Z" fill="#8D8D8D" fill-opacity="0.5"/>
<path d="M273.407 381.254C243.682 380.46 211.32 376.512 177.084 369.503C115.958 356.988 48.351 335.052 -35.6731 300.476C-68.7631 286.926 -101.036 272.908 -132.249 259.351C-179.614 238.782 -224.349 219.352 -262.019 205.994L-261.841 205.579C-224.152 218.943 -179.408 238.377 -132.038 258.95C-100.825 272.503 -68.5524 286.521 -35.472 300.071C89.4102 351.461 249.071 405.718 376.315 368.843C439.838 350.438 501.849 324.199 561.822 298.827C614.908 276.368 669.802 253.144 724.905 235.782C786.642 216.331 842.418 206.375 895.417 205.336C948.662 204.294 1004.21 211.105 1065.23 226.161C1113.14 237.982 1164.65 254.935 1227.31 279.516C1255.59 290.61 1284.06 302.398 1311.6 313.803C1378.04 341.316 1446.75 369.769 1517.42 390.289C1524.93 392.477 1533.05 394.668 1542.99 397.181C1733.74 445.443 1908.97 357.483 2078.42 272.416C2118.38 252.357 2156.13 233.409 2194.11 216.199L2194.32 216.593C2156.34 233.799 2118.6 252.743 2078.65 272.802C1995.22 314.677 1908.96 357.982 1819.76 384.745C1771.57 399.205 1727.05 407.554 1683.66 410.272C1634.71 413.336 1588.66 409.195 1542.86 397.606C1532.92 395.093 1524.79 392.902 1517.28 390.709C1446.58 370.179 1377.86 341.722 1311.4 314.204C1283.87 302.803 1255.4 291.015 1227.12 279.921C1130.3 241.938 1015.17 203.426 895.423 205.773C777.427 208.083 667.917 254.419 562.015 299.221C502.028 324.601 440.002 350.845 376.45 369.258C347.512 377.643 315.221 381.718 280.475 381.372C278.139 381.349 275.785 381.304 273.417 381.241L273.407 381.254Z" fill="#8D8D8D" fill-opacity="0.5"/>
<path d="M283.89 385.866C253.373 385.051 220.039 380.768 184.715 373.121C122.793 359.714 54.654 336.475 -29.7243 299.99C-67.3863 283.766 -103.803 266.961 -139.016 250.709C-182.066 230.843 -222.729 212.074 -257.489 198.289L-257.297 197.884C-222.528 211.673 -181.86 230.442 -138.801 250.313C-103.588 266.565 -67.1761 283.37 -29.5187 299.59C64.5287 340.259 178.222 382.698 283.205 385.503C318.486 386.446 352.764 382.92 385.008 373.342C449.422 354.214 512.207 326.798 572.926 300.281C626.056 277.076 680.998 253.085 736.199 235.09C798.049 214.927 853.987 204.502 907.197 203.222C960.179 201.944 1015.36 208.7 1075.88 223.875C1123.72 235.871 1174.77 253.072 1236.55 278.014C1265.36 289.643 1294.34 302.032 1322.36 314.02C1387.31 341.798 1454.46 370.518 1523.63 391.44C1531.22 393.74 1539.27 396.013 1548.97 398.591C1743.94 450.405 1920.68 357.526 2091.59 267.707C2125.36 249.96 2160.27 231.608 2194.17 215.101L2194.38 215.49C2160.5 231.998 2125.58 250.346 2091.82 268.093C2007.37 312.475 1920.04 358.366 1829.91 386.433C1781.25 401.588 1736.19 410.271 1692.16 412.977C1642.55 416.027 1595.66 411.462 1548.83 399.016C1539.12 396.438 1531.07 394.16 1523.48 391.86C1454.28 370.928 1387.11 342.203 1322.15 314.421C1294.13 302.437 1265.16 290.044 1236.35 278.419C1140.78 239.834 1026.93 200.773 907.203 203.663C788.738 206.517 679.126 254.387 573.124 300.679C512.391 327.201 449.592 354.625 385.148 373.76C356.146 382.37 323.725 386.48 288.788 385.966C287.164 385.94 285.532 385.91 283.895 385.866L283.89 385.866Z" fill="#8D8D8D" fill-opacity="0.5"/>
<path d="M294.274 390.392C262.983 389.556 228.697 384.934 192.313 376.649C130.36 362.54 59.6721 337.302 -23.7792 299.5C-66.3297 280.283 -107.062 260.351 -146.45 241.073C-184.967 222.224 -221.351 204.422 -252.958 190.576L-252.747 190.175C-221.126 204.022 -184.742 221.828 -146.221 240.681C-106.833 259.955 -66.1052 279.887 -23.564 299.1C92.8543 351.84 262.773 417.381 393.707 377.831C458.63 357.962 521.861 329.507 583.007 301.986C636.349 277.979 691.504 253.159 746.978 234.481C809.133 213.554 865.395 202.634 918.974 201.103C971.697 199.593 1026.5 206.295 1086.52 221.585C1134.27 233.751 1184.88 251.205 1245.79 276.503C1275.06 288.661 1304.48 301.654 1332.94 314.219C1396.44 342.263 1462.11 371.261 1529.83 392.581C1537.41 394.97 1545.62 397.397 1554.94 399.991C1753.98 455.465 1932.06 357.429 2104.28 262.619C2133.81 246.361 2164.34 229.552 2194.21 213.989L2194.44 214.375C2164.57 229.938 2134.04 246.747 2104.51 263C1963.35 340.715 1818.23 420.594 1660.83 416.396C1626.11 415.469 1590.8 410.453 1554.8 400.416C1545.47 397.817 1537.25 395.39 1529.68 393.001C1461.92 371.671 1396.25 342.668 1332.73 314.62C1304.28 302.055 1274.86 289.062 1245.59 276.904C1156.76 240.005 1039.36 198.098 918.985 201.54C799.693 204.955 689.64 254.482 583.215 302.38C522.055 329.905 458.808 358.369 393.852 378.246C364.76 387.034 332.201 391.141 297.074 390.449C296.144 390.429 295.214 390.408 294.279 390.383L294.274 390.392Z" fill="#8D8D8D" fill-opacity="0.5"/>
<path d="M304.414 395.035C272.44 394.181 237.302 389.219 199.948 380.284C137.271 365.29 66.0333 338.709 -17.8299 299.014C-65.5932 276.456 -112.846 251.987 -154.534 230.395C-188.312 212.901 -220.215 196.38 -248.428 182.876L-248.203 182.485C-219.986 195.993 -188.078 212.518 -154.296 230.013C-112.613 251.604 -65.3647 276.074 -17.6059 298.627C99.5902 354.1 270.638 423.125 402.409 382.334C468.248 361.752 532.263 332.091 594.171 303.401C647.55 278.667 702.744 253.088 758.307 233.786C820.563 212.154 876.972 200.776 930.755 198.993C983.214 197.255 1037.65 203.899 1097.16 219.308C1144.81 231.644 1194.97 249.342 1255.03 275.006C1284.72 287.692 1314.54 301.282 1343.37 314.432C1405.48 342.747 1469.7 372.025 1536.04 393.741C1543.74 396.27 1551.88 398.779 1560.91 401.414C1763.83 460.626 1943.07 357.228 2116.42 257.233C2141.92 242.52 2168.3 227.304 2194.26 212.899L2194.49 213.277C2168.54 227.682 2142.16 242.893 2116.66 257.606C2030.17 307.498 1940.74 359.092 1849.1 389.901C1799.73 406.498 1753.79 415.865 1708.65 418.536C1695.74 419.299 1682.99 419.515 1670.34 419.177C1633.28 418.186 1597.14 412.447 1560.76 401.83C1551.72 399.195 1543.58 396.681 1535.87 394.152C1469.51 372.43 1405.27 343.144 1343.16 314.823C1314.32 301.679 1284.51 288.084 1254.82 275.402C1167.14 237.937 1051.07 195.447 930.766 199.431C811.027 203.403 700.888 254.438 594.375 303.791C532.452 332.484 468.422 362.154 402.55 382.749C373.399 391.774 340.71 395.917 305.396 395.061C305.068 395.053 304.741 395.044 304.414 395.035Z" fill="#8D8D8D" fill-opacity="0.5"/>
<path d="M314.425 399.679C314.188 399.673 313.955 399.667 313.718 399.66C281.292 398.732 245.582 393.432 207.583 383.916C144.191 368.037 72.4044 340.103 -11.8808 298.524C-65.1993 272.259 -117.287 243.751 -163.246 218.601C-192.093 202.815 -219.337 187.902 -243.897 175.163L-243.659 174.776C-219.099 187.52 -191.851 202.433 -162.999 218.219C-117.044 243.369 -64.9611 271.872 -11.6518 298.133C106.332 356.338 278.523 428.851 411.108 386.82C477.837 365.528 542.613 334.655 605.255 304.802C658.685 279.34 713.931 253.007 769.597 233.081C799.552 222.355 827.287 214.269 854.38 208.351C884.778 201.713 913.613 197.957 942.536 196.866C994.731 194.9 1048.79 201.49 1107.81 217.013C1155.34 229.518 1205.05 247.46 1264.27 273.486C1294.33 286.695 1324.49 300.886 1353.66 314.614C1414.42 343.203 1477.25 372.77 1542.24 394.874C1550.1 397.548 1558.15 400.144 1566.88 402.806C1773.43 465.82 1945.62 361.744 2127.92 251.557C2149.64 238.429 2172.1 224.854 2194.31 211.783L2194.56 212.157C2172.35 225.227 2149.89 238.798 2128.17 251.926C2040.68 304.807 1950.21 359.491 1858.03 391.707C1808.44 409.04 1762.17 418.743 1716.58 421.38C1665.46 424.337 1616.44 418.399 1566.73 403.23C1557.99 400.563 1549.93 397.968 1542.08 395.294C1477.06 373.18 1414.22 343.608 1353.44 315.01C1324.28 301.287 1294.11 287.091 1264.07 273.887C1177.52 235.852 1062.76 192.775 942.551 197.308C822.338 201.842 712.089 254.38 605.468 305.192C542.811 335.053 478.016 365.931 411.258 387.234C382.24 396.435 349.663 400.621 314.429 399.679L314.425 399.679Z" fill="#8D8D8D" fill-opacity="0.5"/>
<path d="M324.322 404.329C323.563 404.308 322.804 404.288 322.045 404.259C289.427 403.18 253.487 397.556 215.218 387.542C151.121 370.77 78.7808 341.492 -5.93109 298.03C-65.1603 267.667 -122.219 234.712 -172.558 205.633C-196.299 191.922 -218.725 178.971 -239.357 167.45L-239.105 167.073C-218.468 178.594 -196.043 191.545 -172.297 205.26C-121.958 234.335 -64.9035 267.289 -5.68811 297.643C78.9962 341.087 151.304 370.355 215.364 387.117C295.205 408.011 363.995 409.421 419.816 391.309C487.427 369.3 552.957 337.241 616.333 306.233C669.817 280.065 725.124 253.006 780.893 232.455C810.908 221.396 838.705 213.028 865.876 206.874C896.359 199.969 925.29 196.003 954.331 194.748C1006.29 192.604 1059.98 199.157 1118.47 214.776C1165.95 227.457 1215.22 245.634 1273.53 271.98C1303.9 285.705 1334.36 300.496 1363.82 314.801C1423.28 343.673 1484.76 373.527 1548.46 396.02C1556.63 398.906 1564.84 401.66 1572.87 404.211C1782.56 471.239 1955.42 361.78 2138.43 245.893C2156.71 234.317 2175.61 222.346 2194.37 210.681L2194.63 211.046C2175.87 222.707 2156.97 234.677 2138.69 246.253C2046.19 304.826 1958.82 360.153 1866.29 393.747C1816.59 411.793 1770.1 421.812 1724.16 424.369C1672.77 427.231 1623.23 420.775 1572.71 404.626C1564.67 402.075 1556.46 399.317 1548.29 396.431C1484.56 373.923 1423.07 344.065 1363.6 315.188C1334.15 300.883 1303.68 286.097 1273.31 272.372C1188.02 233.827 1074.68 190.218 954.342 195.186C833.656 200.404 723.281 254.401 616.545 306.623C553.155 337.635 487.611 369.702 419.966 391.724C391.319 401.019 359.152 405.255 324.332 404.325L324.322 404.329Z" fill="#8D8D8D" fill-opacity="0.5"/>
<path d="M334.29 408.981C317.808 408.54 300.568 406.927 282.778 404.159C234.383 396.626 181.863 380.888 122.205 356.051C13.6322 310.847 -95.0832 244.645 -182.44 191.454C-200.928 180.193 -218.393 169.56 -234.826 159.75L-234.565 159.377C-218.132 169.192 -200.667 179.825 -182.174 191.085C-94.8362 244.272 13.8656 310.46 122.406 355.65C249.877 408.725 350.007 421.859 428.509 395.808C496.945 373.096 563.178 339.815 627.227 307.628C680.793 280.712 736.182 252.878 792.088 231.695C822.172 220.297 850.05 211.657 877.312 205.285C907.898 198.135 936.943 193.996 966.108 192.634C1017.77 190.217 1071.08 196.702 1129.1 212.455C1175.71 225.112 1225.97 244.089 1282.76 270.47C1313.42 284.71 1344.13 300.099 1373.84 314.976C1439.49 347.869 1507.39 381.878 1578.84 405.616C1620.2 419.356 1660.09 426.092 1698.83 427.128C1859.5 431.421 2000.78 337.789 2148.69 239.764C2163.62 229.865 2179.07 219.634 2194.42 209.578L2194.68 209.939C2179.33 219.995 2163.89 230.23 2148.96 240.125C2055.45 302.093 1967.13 360.627 1874.35 395.623C1824.6 414.387 1777.93 424.724 1731.67 427.232C1680.06 430.027 1630.01 423.094 1578.67 406.04C1507.19 382.292 1439.28 348.27 1373.61 315.372C1343.91 300.495 1313.19 285.11 1282.55 270.87C1198.24 231.702 1086.08 187.463 966.128 193.076C844.901 198.748 734.357 254.295 627.45 308.018C563.386 340.209 497.139 373.499 428.664 396.223C407.149 403.363 383.545 407.581 358.508 408.758C350.646 409.126 342.565 409.202 334.295 408.981L334.29 408.981Z" fill="#8D8D8D" fill-opacity="0.5"/>
</g>
<defs>
<clipPath id="clip0_1247_497">
<rect width="2036.31" height="261.751" fill="white" transform="matrix(-0.999223 -0.0394132 0.0524095 -0.998626 1946.96 758.349)"/>
</clipPath>
<clipPath id="clip1_1247_497">
<rect width="1981.89" height="256.941" fill="white" transform="matrix(0.999537 0.0304353 -0.0486904 0.998814 -9.69092 147.197)"/>
</clipPath>
</defs>
</svg>
