<svg width="1919" height="1050" viewBox="0 0 1919 1050" fill="none" xmlns="http://www.w3.org/2000/svg">
<g clip-path="url(#clip0_617_729)">
<path d="M1467.03 1006.71C1419.92 1006.71 1374.89 1002.2 1332.57 993.222C1301.39 986.602 1271.11 977.083 1242.58 964.932C1213.87 952.708 1187.56 938.087 1164.35 921.466C1115.22 886.281 1082.4 843.826 1069.42 798.693C1063.29 777.375 1061.16 755.795 1062.9 732.726C1064.45 712.162 1069.06 690.862 1077.01 667.616C1091.77 624.421 1116.18 580.737 1139.79 538.495C1181.62 463.627 1224.88 386.213 1218.06 306.586C1215.09 271.943 1202.29 237.296 1181.02 206.391C1094.6 80.7964 880.186 51.5448 715.528 49.1245C522.82 46.2842 341.825 85.7183 192.13 163.151C132.834 193.82 78.2976 234.564 25.5627 273.966C-14.4276 303.841 -55.7774 334.736 -99.095 361.193C-147.717 390.869 -193.621 411.64 -239.442 424.676L-239.589 424.243C-137.52 395.203 -54.7763 333.386 25.2437 273.6C77.9983 234.189 132.544 193.436 191.879 162.744C266.094 124.358 348.769 95.079 437.617 75.7209C526.476 56.3584 619.976 47.2551 715.523 48.6594C880.304 51.0842 1094.89 80.372 1181.42 206.138C1202.73 237.106 1215.56 271.826 1218.54 306.541C1221.6 342.313 1214.83 380.758 1197.84 424.076C1182.7 462.647 1161.11 501.309 1140.21 538.693C1093.13 622.953 1044.45 710.08 1069.89 798.571C1095.63 888.118 1198.78 964.35 1332.68 992.779C1475.66 1023.14 1618.94 996.735 1713.95 969.24C1835.48 934.068 1945.63 879.521 2052.15 826.766L2052.38 827.163C1945.84 879.927 1835.67 934.488 1714.09 969.673C1650.05 988.205 1586.36 999.932 1524.78 1004.53C1505.22 1005.99 1485.95 1006.72 1467.02 1006.72L1467.03 1006.71Z" fill="#8D8D8D" fill-opacity="0.3"/>
<path d="M1462.44 1007.82C1418.07 1007.82 1375.47 1003.67 1335.21 995.385C1315.4 991.307 1295.75 985.992 1276.8 979.589C1231.53 964.286 1190.05 942.643 1156.86 917.013C1113.32 883.399 1084.06 843.324 1072.25 801.113C1065.24 776.047 1063.69 750.236 1067.52 722.213C1070.73 698.669 1077.87 673.211 1089.35 644.383C1102.84 610.431 1120.57 576.064 1137.72 542.829C1177.13 466.422 1217.89 387.414 1211.48 306.031C1208.71 270.796 1196.75 235.855 1176.89 204.991C1174.63 201.474 1172.23 197.965 1169.75 194.56C1146.35 162.374 1113.42 135.24 1071.88 113.908C1025.94 90.2696 967.037 73.1648 896.827 63.0681C829.149 53.423 759.493 51.6122 712.981 51.0884C645.411 50.2982 584.609 53.2423 527.089 60.0834C461.904 67.8726 401.082 80.8412 346.305 98.6279C293.865 115.642 243.809 137.511 193.278 165.485C170.777 177.939 147.629 192.397 118.219 212.365C94.9925 228.133 71.7069 244.696 49.1918 260.722C16.533 283.959 -17.2348 307.986 -51.2185 329.836C-120.035 374.089 -178.021 401.313 -239.231 418.097L-239.373 417.663C-178.212 400.897 -120.271 373.691 -51.4933 329.457C-17.5194 307.611 16.2435 283.588 48.8973 260.356C71.4174 244.33 94.7029 227.763 117.935 211.995C147.354 192.018 170.517 177.555 193.032 165.092C243.593 137.1 293.678 115.222 346.153 98.1944C400.959 80.3942 461.82 67.4211 527.035 59.6273C584.574 52.7863 645.401 49.8421 712.996 50.6278C759.518 51.1516 829.203 52.9579 896.91 62.6121C967.179 72.7178 1026.13 89.8407 1072.13 113.507C1113.74 134.874 1146.72 162.057 1170.16 194.303C1172.65 197.717 1175.06 201.23 1177.32 204.756C1197.22 235.683 1209.2 270.688 1211.98 305.994C1214.86 342.552 1208.48 381.806 1192.48 426.004C1178.23 465.37 1157.87 504.845 1138.17 543.023C1121.03 576.249 1103.31 610.607 1089.83 644.542C1065.11 706.607 1059.84 754.865 1072.73 801.005C1084.52 843.121 1113.72 883.119 1157.18 916.67C1190.34 942.268 1231.77 963.88 1276.98 979.169C1295.92 985.568 1315.55 990.878 1335.33 994.946C1479.91 1024.69 1621.71 996.017 1715.21 966.733C1748.25 956.402 1782.71 943.745 1826.96 925.696C1871.77 907.413 1916.95 887.355 1960.64 867.961C1990.63 854.649 2021.63 840.881 2052.18 827.845L2052.38 828.256C2021.84 841.288 1990.84 855.055 1960.85 868.367C1917.16 887.766 1871.98 907.824 1827.15 926.112C1782.89 944.169 1748.41 956.831 1715.37 967.162C1652.44 986.873 1589.23 999.588 1527.49 1004.95C1505.44 1006.87 1483.74 1007.82 1462.45 1007.82L1462.44 1007.82Z" fill="#8D8D8D" fill-opacity="0.3"/>
<path d="M1458.27 1009C1416.45 1009 1376.16 1005.17 1337.85 997.548C1317.99 993.592 1298.3 988.386 1279.31 982.077C1233.78 966.932 1192.21 945.402 1159.12 919.808C1115.71 886.244 1086.65 846.038 1075.08 803.538C1068.28 778.522 1066.89 752.58 1070.83 724.223C1074.09 700.719 1080.9 675.843 1092.27 645.933C1104.66 613.209 1120.33 580.141 1135.48 548.167C1172.57 469.899 1210.93 388.968 1204.91 305.475C1202.29 269.071 1191.48 234.794 1172.77 203.587C1170.64 200.024 1168.36 196.466 1166.02 193.016C1143.31 159.556 1111.21 131.768 1070.58 110.436C1024.84 86.3279 967.283 70.361 894.629 61.6189C834.734 54.5567 773.328 53.5361 710.444 53.0485C636.701 52.4118 577.655 54.6605 524.621 60.1198C457.409 67.1098 396.587 79.7668 343.837 97.7432C294.748 114.442 245.88 137.362 194.436 167.815C168.908 182.92 144.008 199.812 120.688 215.82C111.825 221.902 102.82 228.111 94.1142 234.112C47.1259 266.511 -1.46227 300.016 -50.2369 329.101C-117.1 368.986 -177.088 395.176 -239.02 411.518L-239.157 411.085C-177.275 394.756 -117.326 368.584 -50.497 328.726C-1.73218 299.65 46.8461 266.154 93.8296 233.755C102.535 227.754 111.535 221.545 120.403 215.463C143.728 199.451 168.633 182.554 194.176 167.436C245.65 136.965 294.547 114.031 343.67 97.3232C396.454 79.3379 457.321 66.6673 524.567 59.6727C577.62 54.209 636.686 51.9647 710.449 52.5969C773.347 53.0846 834.768 54.1051 894.693 61.1719C928.514 65.2404 959.73 71.0474 987.467 78.4257C1018.78 86.7569 1046.82 97.3909 1070.83 110.043C1111.52 131.415 1143.68 159.254 1166.43 192.777C1168.79 196.236 1171.06 199.799 1173.2 203.37C1191.95 234.636 1202.78 268.976 1205.4 305.444C1208.1 342.95 1202.1 383.179 1187.06 428.429C1173.65 468.757 1154.48 509.216 1135.93 548.343C1120.78 580.308 1105.12 613.367 1092.74 646.077C1076.46 688.884 1059.81 745.455 1075.55 803.425C1087.1 845.835 1116.1 885.955 1159.44 919.461C1192.49 945.018 1234 966.526 1279.48 981.653C1298.45 987.957 1318.12 993.154 1337.95 997.105C1451.99 1019.81 1586.41 1008.13 1716.44 964.214C1752.89 951.941 1787.88 937.441 1826.56 921.136C1842.25 914.521 1858.32 907.666 1873.87 901.033C1931.89 876.283 1991.88 850.694 2052.17 828.911L2052.35 829.331C1992.08 851.109 1932.09 876.694 1874.08 901.444C1858.53 908.077 1842.45 914.932 1826.76 921.547C1788.07 937.857 1753.08 952.361 1716.61 964.638C1654.78 985.518 1592.05 999.223 1530.16 1005.37C1505.77 1007.79 1481.77 1009 1458.26 1009H1458.27Z" fill="#8D8D8D" fill-opacity="0.3"/>
<path d="M1454.59 1010.2C1415.22 1010.2 1376.92 1006.73 1340.49 999.71C1320.6 995.872 1300.86 990.779 1281.84 984.565C1236.04 969.587 1194.39 948.161 1161.39 922.603C1118.11 889.084 1089.24 848.752 1077.91 805.958C1063.01 749.487 1078.29 694.158 1095.2 647.481C1106.36 616.473 1119.9 585.194 1133 554.945C1167.89 474.36 1203.97 391.031 1198.34 304.92C1195.92 267.784 1185.94 233.218 1168.65 202.187C1166.65 198.575 1164.5 194.971 1162.29 191.476C1140.37 156.77 1109.08 128.336 1069.28 106.964C1024.18 82.6295 966.335 67.3264 892.43 60.1692C840.309 55.306 785.797 55.1886 733.077 55.0757C724.676 55.0577 716.284 55.0396 707.912 55.0035C647.728 54.6693 583.809 54.7913 522.157 60.1512C453.36 66.2381 392.538 78.5881 341.373 96.8534C294.017 113.719 249.06 136.319 195.604 170.136C175.238 183.01 155.692 196.628 134.993 211.047C131.067 213.778 127.131 216.524 123.171 219.274C54.6096 266.845 1.43793 300.49 -49.2408 328.364C-114.73 364.416 -174.963 388.746 -238.809 404.934L-238.941 404.501C-175.14 388.322 -114.946 364.01 -49.496 327.985C1.168 300.115 54.325 266.479 122.871 218.922C126.832 216.172 130.767 213.431 134.693 210.694C155.393 196.272 174.949 182.653 195.319 169.775C248.81 135.935 293.796 113.317 341.187 96.4425C392.391 78.1636 453.262 65.8046 522.103 59.7132C583.774 54.3487 647.708 54.2268 707.907 54.561C716.284 54.5971 724.676 54.6151 733.072 54.6332C785.802 54.7461 840.328 54.859 892.474 59.7267C966.448 66.8883 1024.36 82.214 1069.52 106.58C1109.39 127.988 1140.74 156.476 1162.7 191.255C1164.92 194.759 1167.07 198.367 1169.08 201.984C1186.4 233.073 1196.4 267.698 1198.82 304.897C1201.35 343.573 1195.71 385.016 1181.56 431.585C1168.96 473.105 1150.91 514.797 1133.45 555.112C1120.35 585.352 1106.81 616.627 1095.66 647.621C1078.77 694.24 1063.51 749.491 1078.38 805.85C1089.68 848.549 1118.49 888.8 1161.7 922.256C1194.66 947.782 1236.25 969.176 1281.99 984.136C1301 990.341 1320.71 995.434 1340.58 999.263C1455.86 1021.46 1589.79 1008.12 1717.68 961.699C1749.12 950.333 1779.8 936.886 1809.46 923.886C1815.02 921.447 1820.59 919.009 1826.17 916.575C1893.67 887.17 1972.37 853.805 2052.18 829.976L2052.33 830.405C1972.54 854.225 1893.86 887.581 1826.38 916.981C1820.79 919.415 1815.23 921.854 1809.67 924.292C1780 937.297 1749.31 950.744 1717.86 962.119C1630.29 993.903 1539.89 1010.19 1454.58 1010.19L1454.59 1010.2Z" fill="#8D8D8D" fill-opacity="0.3"/>
<path d="M1451.05 1011.55C1413.87 1011.55 1377.78 1008.32 1343.13 1001.88C1323.2 998.161 1303.42 993.176 1284.35 987.058C1238.3 972.251 1196.56 950.929 1163.66 925.403C1120.5 891.929 1091.82 851.466 1080.74 808.388C1066.68 753.47 1080.78 699.347 1098.12 649.035C1107.87 620.487 1119.19 591.719 1130.13 563.899C1163.02 480.298 1197.03 393.858 1191.77 304.373C1189.55 266.42 1180.39 231.57 1164.53 200.792C1162.65 197.134 1160.63 193.481 1158.55 189.946C1137.51 154.02 1107.04 124.94 1067.98 103.505C1023.01 78.683 964.868 64.0391 890.231 58.7334C846.649 55.6357 801.197 56.1324 757.246 56.6156C740.242 56.8007 722.659 56.9904 705.375 56.9768C697.366 56.9588 689.381 56.9226 681.417 56.891C625.389 56.6653 572.468 56.453 519.689 60.2009C448.625 65.3847 389.49 77.089 338.905 95.9819C282.126 117.124 235.192 146.515 196.767 172.479C182.177 182.328 168.059 192.461 153.111 203.185C144.184 209.593 134.954 216.212 125.649 222.746C67.8203 263.309 9.31435 298.603 -48.2494 327.646C-111.844 359.761 -172.328 382.226 -238.588 398.355L-238.715 397.917C-172.495 381.801 -112.046 359.345 -48.485 327.249C9.05917 298.214 67.5455 262.934 125.355 222.385C134.659 215.856 143.885 209.231 152.812 202.828C167.764 192.099 181.883 181.971 196.478 172.114C234.927 146.131 281.896 116.722 338.723 95.562C389.358 76.651 448.541 64.9377 519.654 59.7494C572.458 56.0015 625.384 56.2137 681.422 56.4395C689.386 56.4711 697.371 56.5027 705.375 56.5253C722.654 56.5388 740.237 56.3492 757.241 56.164C801.206 55.6854 846.664 55.1842 890.271 58.2863C924.608 60.7247 956.113 65.2899 983.914 71.8555C1016.01 79.4371 1044.38 89.9537 1068.23 103.116C1107.36 124.592 1137.9 153.731 1158.98 189.729C1161.07 193.273 1163.09 196.931 1164.97 200.598C1180.86 231.425 1190.03 266.335 1192.25 304.346C1194.62 344.539 1189.29 387.545 1175.97 435.825C1164.09 478.894 1147.06 522.184 1130.6 564.048C1119.65 591.864 1108.34 620.623 1098.59 649.166C1081.27 699.414 1067.18 753.47 1081.22 808.279C1092.28 851.262 1120.9 891.645 1163.98 925.055C1196.84 950.545 1238.52 971.836 1284.52 986.629C1303.57 992.738 1323.32 997.719 1343.23 1001.43C1459.75 1023.11 1593.18 1008.11 1718.95 959.193C1745.61 948.875 1771.64 936.881 1796.81 925.286C1806.28 920.919 1816.08 916.408 1825.81 912.028C1912.81 872.869 1984.75 847.144 2052.21 831.06L2052.34 831.498C1984.91 847.573 1913 873.289 1826.03 912.434C1816.3 916.814 1806.5 921.325 1797.03 925.692C1771.85 937.292 1745.82 949.285 1719.14 959.612C1659.48 982.818 1597.71 998.496 1535.54 1006.21C1506.87 1009.77 1478.66 1011.55 1451.06 1011.55H1451.05Z" fill="#8D8D8D" fill-opacity="0.3"/>
<path d="M1447.93 1012.91C1412.85 1012.91 1378.7 1009.96 1345.76 1004.04C1325.79 1000.45 1305.97 995.57 1286.87 989.546C1240.56 974.911 1198.74 953.702 1165.92 928.203C1122.88 894.77 1094.4 854.18 1083.57 810.813C1077.4 785.982 1076.48 759.629 1080.76 730.256C1084.84 702.174 1093.3 674.222 1101.04 650.584C1109.1 625.681 1118.02 600.606 1126.65 576.353C1157.85 488.621 1190.11 397.899 1185.19 303.823C1183.15 264.398 1175.04 230.242 1160.41 199.397C1158.65 195.685 1156.77 191.991 1154.82 188.41C1134.72 151.297 1105.06 121.567 1066.67 100.042C1022.02 74.8359 963.582 60.8514 888.028 57.2931C849.927 55.5005 810.329 56.5797 772.037 57.6273C749.379 58.2459 725.951 58.8871 702.828 58.9413C685.004 58.9413 667.058 58.7923 649.7 58.6387C603.895 58.2369 560.631 57.853 517.21 60.2418C445.072 64.378 385.937 75.7797 336.427 95.1016C285.988 114.713 244.575 141.151 197.915 174.814C187.634 182.224 177.643 189.693 167.063 197.6C154.495 206.992 141.5 216.705 128.108 226.21C74.676 264.095 15.6645 297.98 -47.2827 326.92C-108.262 354.984 -168.991 375.588 -238.396 391.772L-238.519 391.334C-169.148 375.159 -108.453 354.559 -47.5035 326.513C15.4142 297.587 74.3962 263.72 127.803 225.853C141.191 216.353 154.186 206.644 166.749 197.252C177.329 189.345 187.325 181.872 197.606 174.462C244.295 140.776 285.738 114.32 336.225 94.6907C385.785 75.3507 444.973 63.9355 517.171 59.7947C560.611 57.406 603.885 57.7853 649.695 58.1872C667.048 58.3407 684.994 58.4942 702.818 58.4897C725.932 58.4355 749.355 57.7943 772.012 57.1757C810.314 56.1281 849.917 55.0444 888.043 56.8416C922.61 58.4672 954.263 62.4182 982.118 68.5865C1014.6 75.7752 1043.13 86.2286 1066.92 99.6533C1086.43 110.594 1103.95 123.893 1118.99 139.182C1133.32 153.754 1145.52 170.249 1155.25 188.203C1157.2 191.788 1159.08 195.495 1160.84 199.212C1175.5 230.107 1183.62 264.316 1185.67 303.796C1187.88 346.057 1182.82 391.203 1170.2 441.817C1158.93 487 1142.75 532.494 1127.1 576.493C1118.48 600.741 1109.56 625.816 1101.5 650.71C1085.77 698.796 1070.14 754.784 1084.04 810.709C1094.85 853.977 1123.27 894.485 1166.23 927.855C1199 953.318 1240.77 974.505 1287.02 989.117C1306.1 995.132 1325.9 1000 1345.84 1003.6C1463.6 1024.74 1596.54 1008.08 1720.18 956.687C1743.67 946.974 1766.59 935.825 1788.76 925.042C1800.7 919.235 1813.05 913.229 1825.41 907.477C1862.44 890.263 1898.8 875.493 1933.5 863.576C1974.25 849.587 2014.19 839.008 2052.21 832.139L2052.3 832.582C1981.06 845.451 1906.92 870.083 1825.63 907.878C1813.26 913.627 1800.92 919.632 1788.98 925.439C1766.81 936.227 1743.88 947.376 1720.38 957.093C1662.61 981.107 1599.62 998.234 1538.2 1006.63C1507.57 1010.81 1477.42 1012.91 1447.92 1012.91L1447.93 1012.91Z" fill="#8D8D8D" fill-opacity="0.3"/>
<path d="M1445.11 1014.33C1412.02 1014.33 1379.7 1011.62 1348.4 1006.2C1328.38 1002.72 1308.53 997.958 1289.39 992.03C1242.84 977.575 1200.93 956.47 1168.2 930.993C1147.28 914.724 1129.67 896.499 1115.86 876.834C1101.64 856.582 1091.72 835.183 1086.4 813.233C1073.33 758.952 1087.25 706.057 1103.96 652.132C1109.83 632.977 1116.02 613.674 1122.01 595.006C1153.5 496.83 1183.25 404.103 1178.62 303.272C1176.78 262.786 1169.48 228.35 1156.29 198.001C1154.66 194.244 1152.9 190.501 1151.09 186.875C1132.01 148.601 1103.17 118.221 1065.37 96.578C1021.56 71.2956 961.153 57.5955 885.834 55.8525C851.718 55.0622 816.38 56.6833 782.21 58.2547C755.44 59.4829 727.757 60.7563 700.3 60.9099C675.96 60.9956 651.555 60.5712 627.956 60.1603C588.878 59.4784 551.965 58.8372 514.752 60.2912C441.7 63.3392 382.566 74.4384 333.963 94.2299C280.895 115.751 239.884 145.739 199.083 177.158C192.1 182.527 184.984 188.117 178.099 193.517C162.911 205.438 147.207 217.761 130.591 229.682C79.8778 266.028 20.3708 298.503 -46.2864 326.197C-103.566 350.03 -164.54 368.774 -238.171 385.197L-238.288 384.759C-164.687 368.345 -103.742 349.606 -46.4876 325.786C20.1352 298.101 79.6079 265.648 130.292 229.325C146.898 217.414 162.597 205.091 177.78 193.174C184.665 187.769 191.786 182.183 198.769 176.81C239.594 145.368 280.639 115.363 333.767 93.819C382.424 74.0049 441.617 62.8922 514.732 59.8442C551.96 58.3902 588.878 59.0314 627.97 59.7132C651.565 60.1242 675.965 60.5486 700.3 60.4628C727.747 60.3048 755.42 59.0359 782.185 57.8077C816.365 56.2363 851.713 54.6152 885.849 55.4054C920.608 56.2092 952.408 59.5462 980.356 65.326C1013.21 72.1174 1041.9 82.5031 1065.64 96.1987C1084.98 107.275 1102.25 120.894 1116.94 136.667C1130.74 151.487 1142.38 168.316 1151.54 186.685C1153.36 190.316 1155.11 194.068 1156.75 197.83C1169.96 228.233 1177.28 262.713 1179.12 303.249C1181.2 348.553 1176.29 396.847 1164.13 450.893C1153.26 499.2 1137.61 547.968 1122.48 595.133C1116.5 613.8 1110.3 633.104 1104.44 652.254C1087.74 706.12 1073.83 758.956 1086.89 813.133C1097.44 856.686 1125.67 897.321 1168.52 930.65C1201.2 956.091 1243.05 977.169 1289.55 991.605C1308.67 997.525 1328.5 1002.29 1348.49 1005.76C1465.76 1026.05 1601.69 1007.25 1721.44 954.171C1742.66 944.824 1763.34 934.186 1783.33 923.899C1796.88 916.927 1810.88 909.721 1825.05 902.916C1860.47 885.897 1896.44 871.519 1931.95 860.185C1972.73 847.171 2013.2 838.095 2052.24 833.209L2052.3 833.656C1978.68 842.873 1902.3 866.308 1825.27 903.318C1811.11 910.118 1797.11 917.325 1783.56 924.292C1763.56 934.583 1742.88 945.222 1721.65 954.578C1664.92 979.72 1602.42 997.864 1540.91 1007.05C1508.43 1011.9 1476.42 1014.32 1445.12 1014.32L1445.11 1014.33Z" fill="#8D8D8D" fill-opacity="0.3"/>
<path d="M1442.54 1015.79C1411.32 1015.79 1380.76 1013.32 1351.03 1008.37C1330.98 1005.01 1311.09 1000.36 1291.91 994.522C1245.11 980.248 1203.12 959.251 1170.46 933.793C1149.61 917.546 1132.06 899.281 1118.32 879.503C1104.2 859.178 1094.41 837.698 1089.23 815.657C1083.47 790.976 1082.86 764.352 1087.38 734.274C1091.36 707.736 1098.87 681.009 1106.88 653.681C1109.53 644.501 1112.2 635.352 1114.85 626.231C1146.54 517.42 1176.47 414.643 1172.04 302.716C1170.4 260.437 1164.08 226.715 1152.16 196.597C1150.66 192.79 1149.04 189.002 1147.35 185.335C1129.36 145.928 1101.34 114.897 1064.07 93.1099C1020.67 67.5295 961.649 54.8724 883.631 54.4074C851.85 54.2177 819.025 56.4393 787.279 58.5842C758.075 60.5575 727.875 62.603 697.763 62.8694C668.785 63.0636 639.826 62.2418 611.825 61.4516C577.503 60.4807 545.079 59.5641 512.288 60.3227C438.451 62.2463 379.317 73.0475 331.5 93.3402C281.061 114.658 243.765 143.711 200.251 179.478C195.83 183.104 191.325 186.843 186.962 190.456C169.909 204.589 152.272 219.206 133.074 233.127C84.1668 268.556 24.1591 299.623 -45.2953 325.452C-98.57 345.298 -156.188 361.192 -237.955 378.6L-238.068 378.162C-156.325 360.759 -98.7319 344.873 -45.4817 325.036C23.9236 299.221 83.8969 268.181 132.765 232.775C151.953 218.858 169.58 204.251 186.628 190.122C190.991 186.509 195.501 182.77 199.918 179.14C243.461 143.345 280.787 114.27 331.289 92.9293C379.165 72.6094 438.363 61.7948 512.268 59.8711C545.074 59.1125 577.503 60.0292 611.835 61C639.831 61.7902 668.785 62.6075 697.753 62.4179C727.85 62.147 758.041 60.1059 787.24 58.1327C818.995 55.9833 851.836 53.7616 883.631 53.9513C961.747 54.4119 1020.85 67.096 1064.33 92.7216C1083.52 103.943 1100.52 117.873 1114.85 134.129C1128.14 149.206 1139.23 166.37 1147.8 185.15C1149.49 188.826 1151.11 192.623 1152.62 196.434C1164.55 226.598 1170.89 260.361 1172.53 302.694C1176.96 414.688 1147.02 517.497 1115.32 626.339C1112.67 635.461 1110 644.609 1107.35 653.789C1089.88 713.421 1077.49 763.196 1089.71 815.554C1100.02 859.386 1128.05 900.152 1170.78 933.44C1203.39 958.858 1245.33 979.828 1292.06 994.084C1311.23 999.909 1331.1 1004.56 1351.12 1007.91C1469.59 1027.65 1605.02 1007.15 1722.69 951.652C1742.18 942.521 1761.14 932.199 1779.47 922.215C1794.1 914.254 1809.22 906.018 1824.66 898.355C1875.94 872.901 1957.05 841.125 2052.25 834.279L2052.29 834.731C1957.18 841.568 1876.14 873.321 1824.9 898.752C1809.47 906.411 1794.35 914.642 1779.72 922.603C1761.38 932.587 1742.42 942.914 1722.91 952.053C1667.21 978.32 1605.2 997.484 1543.59 1007.46C1509.35 1013.01 1475.59 1015.78 1442.54 1015.78V1015.79Z" fill="#8D8D8D" fill-opacity="0.3"/>
<path d="M1440.22 1017.31C1410.78 1017.31 1381.87 1015.05 1353.67 1010.53C1333.58 1007.3 1313.65 1002.74 1294.42 997.01C1247.39 982.922 1205.31 962.028 1172.73 936.588C1151.93 920.364 1134.46 902.053 1120.79 882.171C1106.77 861.779 1097.1 840.213 1092.06 818.082C1079.79 763.824 1094.76 709.656 1109.24 657.266L1109.8 655.234C1142.66 534.286 1169.53 424.238 1165.47 302.17C1164.02 257.859 1158.65 224.869 1148.04 195.206C1146.66 191.35 1145.17 187.512 1143.61 183.804C1126.82 143.413 1099.61 111.737 1062.76 89.6513C1018.99 63.4251 957.983 51.0887 881.422 52.9762C852.724 53.6851 823.167 56.2499 794.586 58.7289C762.232 61.5376 728.778 64.4411 695.211 64.8475C662.764 65.1636 630.429 63.8541 599.159 62.5897C569.724 61.3976 539.293 60.1694 509.8 60.3816C435.276 61.1538 376.142 71.6524 329.011 92.478C277.302 115.223 240.561 147.464 201.665 181.592L201.395 181.831C198.99 183.94 196.58 186.058 194.161 188.18C175.812 204.309 156.84 220.985 135.528 236.609C87.1995 271.997 28.3696 300.824 -44.3285 324.743C-103.261 344.164 -164.206 357.119 -237.758 372.034L-237.866 371.592C-164.334 356.677 -103.404 343.726 -44.4954 324.314C28.1537 300.413 86.9394 271.609 135.218 236.252C156.516 220.638 175.479 203.971 193.818 187.85C196.237 185.724 198.646 183.606 201.051 181.497L201.321 181.258C240.251 147.102 277.018 114.839 328.796 92.0626C375.99 71.2053 435.193 60.6932 509.79 59.921C539.293 59.7088 569.734 60.9415 599.174 62.1291C630.439 63.3935 662.763 64.6985 695.196 64.3869C728.743 63.9805 762.187 61.077 794.532 58.2684C823.123 55.7893 852.685 53.2245 881.398 52.5156C958.056 50.6236 1019.16 62.9871 1063.01 89.2674C1082.07 100.687 1098.8 114.947 1112.74 131.646C1125.56 146.998 1136.1 164.492 1144.06 183.637C1145.62 187.354 1147.11 191.196 1148.49 195.062C1159.11 224.769 1164.5 257.796 1165.94 302.156C1167.8 357.928 1163.14 416.151 1151.7 480.154C1140.76 541.312 1124.57 602.651 1110.26 655.347L1109.7 657.379C1095.24 709.719 1080.28 763.837 1092.52 817.992C1102.43 861.472 1131.02 903.471 1173.03 936.245C1205.57 961.645 1247.59 982.511 1294.56 996.581C1313.76 1002.31 1333.67 1006.85 1353.74 1010.08C1473.41 1029.26 1608.34 1007.05 1723.91 949.15C1742.04 940.133 1759.64 930 1776.65 920.201C1792 911.355 1807.89 902.211 1824.26 893.812C1857.17 876.933 1892.35 863.351 1928.82 853.453C1969.93 842.295 2011.45 836.208 2052.24 835.368L2052.25 835.819C1975.72 837.395 1894.83 858.131 1824.5 894.205C1808.14 902.6 1792.26 911.739 1776.91 920.585C1759.89 930.388 1742.28 940.526 1724.15 949.547C1669.47 976.939 1607.96 997.114 1546.26 1007.89C1510.36 1014.16 1474.91 1017.3 1440.21 1017.3L1440.22 1017.31Z" fill="#8D8D8D" fill-opacity="0.3"/>
<path d="M1438.03 1018.81C1410.19 1018.81 1382.76 1016.76 1356.31 1012.69C1336.18 1009.58 1316.2 1005.14 1296.95 999.498C1249.68 985.6 1207.51 964.81 1175 939.388C1154.26 923.182 1136.85 904.83 1123.26 884.84C1109.34 864.376 1099.8 842.733 1094.9 820.512C1083.62 768.931 1097.01 717.368 1109.96 667.508C1110.88 663.936 1111.81 660.364 1112.73 656.788C1147.64 521.092 1161.88 411.554 1158.9 301.619C1158.03 268.715 1155.57 230.17 1143.92 193.807C1142.67 189.896 1141.32 186.013 1139.9 182.265C1124.29 140.79 1097.9 108.463 1061.46 86.1834C1017.73 59.4425 956.418 47.7834 879.234 51.5313C852.459 52.8317 824.953 55.812 798.355 58.6929C764.023 62.4137 728.518 66.2609 692.689 66.8118C657.552 67.2589 622.621 65.3894 588.839 63.5787C562.015 62.1428 534.278 60.6571 507.347 60.4223C432.214 60.0114 373.08 70.2165 326.558 91.5975C277.185 114.184 243.068 146.177 206.955 180.052L200.124 186.451C180.931 204.413 161.081 222.986 138.016 240.077C90.5907 275.181 31.2701 302.64 -43.3322 324.021C-92.4798 338.136 -143.468 347.718 -197.454 357.865C-210.444 360.303 -223.87 362.827 -237.538 365.464L-237.636 365.022C-223.974 362.389 -210.542 359.865 -197.552 357.422C-143.581 347.28 -92.6074 337.703 -43.4794 323.592C31.059 302.229 90.3257 274.797 137.707 239.729C160.747 222.656 180.587 204.093 199.77 186.139L206.602 179.741C242.749 145.838 276.89 113.818 326.337 91.2002C372.928 69.783 432.136 59.5779 507.347 59.9753C534.293 60.2101 562.035 61.6957 588.863 63.1317C622.636 64.9379 657.562 66.8073 692.679 66.3648C728.484 65.8139 763.974 61.9712 798.296 58.2504C824.904 55.3649 852.415 52.3847 879.21 51.0842C956.506 47.3363 1017.91 59.018 1061.74 85.8131C1080.67 97.391 1097.14 111.963 1110.69 129.131C1123.02 144.75 1133 162.577 1140.36 182.12C1141.78 185.873 1143.14 189.765 1144.4 193.68C1156.07 230.093 1158.52 268.674 1159.39 301.61C1160.99 360.497 1157.61 419.041 1149.07 480.588C1141.58 534.526 1129.85 592.198 1113.2 656.896C1112.29 660.473 1111.36 664.044 1110.43 667.616C1097.5 717.432 1084.12 768.94 1095.38 820.426C1105.03 864.182 1133.42 906.307 1175.32 939.049C1207.79 964.435 1249.9 985.193 1297.1 999.074C1316.34 1004.71 1336.28 1009.14 1356.4 1012.25C1477.26 1030.85 1611.68 1006.94 1725.19 946.649C1742.2 937.681 1758.67 927.647 1774.6 917.943C1790.45 908.294 1806.83 898.319 1823.91 889.27C1863.6 868.237 1946.04 833.413 2052.28 836.461L2052.27 836.912C1946.15 833.873 1863.8 868.652 1824.15 889.663C1807.09 898.707 1790.71 908.678 1774.88 918.323C1758.94 928.031 1742.46 938.069 1725.44 947.046C1671.77 975.553 1610.75 996.744 1548.97 1008.33C1516.92 1014.34 1484.59 1017.8 1452.89 1018.63C1447.93 1018.76 1442.98 1018.82 1438.04 1018.82L1438.03 1018.81Z" fill="#8D8D8D" fill-opacity="0.3"/>
<path d="M1436.06 1020.4C1409.83 1020.4 1383.96 1018.55 1358.94 1014.86C1338.77 1011.87 1318.76 1007.54 1299.46 1001.99C1251.97 988.277 1209.72 967.6 1177.27 942.183C1156.59 925.999 1139.24 907.603 1125.72 887.504C1111.9 866.967 1102.48 845.243 1097.72 822.932C1087.23 773.333 1099.51 723.708 1111.38 675.712C1112.79 670.018 1114.25 664.13 1115.64 658.336C1143.36 543.222 1155.02 429.697 1152.32 301.068C1151.64 267.441 1150.05 228.535 1139.8 192.406C1138.67 188.446 1137.45 184.518 1136.16 180.725C1121.99 138.784 1095.7 104.891 1060.15 82.7152C1016.42 55.4369 954.803 44.4596 877.026 50.0815C851.831 51.9057 826.013 55.2698 801.045 58.53C765.083 63.2217 727.9 68.0713 690.142 68.7712C652.866 69.3628 615.878 66.8702 580.108 64.4634C555.356 62.7972 529.763 61.0768 504.868 60.4582C429.191 58.8551 370.057 68.7532 324.08 90.7122C276.615 113.276 244.786 145.246 211.087 179.099C208.638 181.56 206.184 184.026 203.721 186.491C185.564 204.63 164.977 225.185 140.484 243.531C93.702 278.526 33.8956 304.613 -42.3506 323.28C-82.5128 333.137 -123.333 339.798 -166.547 346.842C-189.298 350.554 -212.819 354.387 -237.322 358.867L-237.415 358.424C-212.907 353.945 -189.381 350.107 -166.63 346.399C-123.426 339.351 -82.6158 332.699 -42.4733 322.842C33.7091 304.193 93.4518 278.134 140.18 243.179C164.648 224.85 185.22 204.309 203.368 186.184C205.831 183.718 208.285 181.253 210.734 178.797C244.462 144.917 276.321 112.911 323.864 90.3148C369.915 68.3197 429.132 58.4036 504.893 60.0111C529.798 60.6252 555.4 62.3502 580.153 64.0164C615.913 66.4232 652.885 68.9112 690.142 68.3242C727.865 67.6243 765.039 62.7791 800.986 58.0875C825.964 54.8318 851.792 51.4587 877.001 49.639C954.891 44.0036 1016.61 55.0079 1060.44 82.3449C1079.26 94.0853 1095.47 108.973 1108.62 126.602C1120.48 142.492 1129.9 160.658 1136.64 180.589C1137.93 184.387 1139.16 188.324 1140.28 192.289C1150.55 228.463 1152.14 267.4 1152.82 301.054C1155.52 429.724 1143.86 543.281 1116.13 658.431C1114.74 664.229 1113.28 670.117 1111.87 675.812C1100.01 723.757 1087.74 773.338 1098.21 822.846C1107.6 866.873 1135.79 909.133 1177.59 941.839C1209.99 967.217 1252.19 987.866 1299.61 1001.56C1318.89 1007.1 1338.88 1011.42 1359.03 1014.41C1479.29 1032.15 1616.63 1005.87 1726.43 944.133C1742.5 935.161 1758.03 925.163 1773.05 915.5C1789.21 905.101 1805.92 894.35 1823.52 884.709C1853.84 868.101 1889.19 854.979 1925.74 846.76C1967.35 837.404 2009.93 834.298 2052.29 837.531L2052.25 837.982C1972.78 831.918 1889.51 849.09 1823.78 885.097C1806.19 894.729 1789.49 905.476 1773.34 915.871C1758.32 925.543 1742.77 935.54 1726.69 944.522C1674.03 974.139 1613.5 996.346 1551.66 1008.74C1519.71 1015.14 1487.42 1018.95 1455.67 1020.06C1449.12 1020.29 1442.58 1020.4 1436.07 1020.4H1436.06Z" fill="#8D8D8D" fill-opacity="0.3"/>
<path d="M1434.26 1022.04C1409.57 1022.04 1385.22 1020.36 1361.58 1017.02C1341.37 1014.15 1321.32 1009.93 1301.98 1004.48C1254.27 990.964 1211.93 970.391 1179.54 944.982C1137.76 912.24 1109.71 869.753 1100.56 825.357C1090.79 777.546 1102.14 729.659 1113.11 683.348C1114.93 675.658 1116.81 667.711 1118.57 659.885C1146.76 534.39 1147.51 418.287 1145.75 300.513C1145.27 266.24 1144.72 227.393 1135.68 191.007C1134.69 186.992 1133.59 183.019 1132.43 179.189C1119.52 136.215 1094.08 101.658 1058.85 79.2518C1015.08 51.4091 953.169 41.1137 874.832 48.6411C850.962 50.935 826.553 54.6693 802.943 58.2772C765.623 63.9848 727.031 69.8821 687.61 70.7356C648.586 71.4671 609.935 68.3198 572.561 65.2718C549.496 63.3888 525.641 61.4471 502.405 60.4989C426.232 57.6812 367.098 67.2767 321.616 89.8317C275.752 112.468 245.959 144.578 214.414 178.58C211.249 181.989 208.079 185.407 204.884 188.826C185.686 209.308 166.508 229.172 142.962 246.999C96.6463 282.017 36.3491 306.731 -41.3644 322.557C-75.5984 329.552 -109.97 334.122 -146.353 338.962C-175.385 342.823 -205.409 346.819 -237.106 352.292L-237.194 351.85C-205.487 346.372 -175.459 342.376 -146.417 338.515C-110.039 333.675 -75.6818 329.105 -41.4626 322.115C36.1774 306.306 96.4009 281.624 142.658 246.651C166.174 228.847 185.343 209.001 204.521 188.532C207.715 185.118 210.886 181.7 214.051 178.291C245.625 144.257 275.447 112.116 321.39 89.4389C366.951 66.8432 426.173 57.2296 502.434 60.0518C525.68 60.9956 549.54 62.9418 572.61 64.8247C609.975 67.8727 648.611 71.0246 687.605 70.2885C726.987 69.4351 765.564 63.5378 802.87 57.8347C826.484 54.2223 850.904 50.4925 874.788 48.194C910.052 44.8029 942.559 45.0919 971.414 49.043C1005.93 53.7752 1035.45 63.8133 1059.14 78.877C1077.85 90.78 1093.8 105.988 1106.55 124.077C1117.94 140.248 1126.81 158.748 1132.91 179.063C1134.08 182.901 1135.17 186.884 1136.17 190.903C1145.22 227.339 1145.77 266.208 1146.26 300.504C1147.11 357.783 1147.38 419.339 1143.58 481.391C1139.64 545.638 1131.62 604.051 1119.06 659.971C1117.31 667.801 1115.42 675.753 1113.6 683.443C1102.64 729.709 1091.31 777.546 1101.05 825.271C1110.19 869.568 1138.18 911.96 1179.87 944.635C1212.22 970.003 1254.49 990.548 1302.14 1004.04C1321.46 1009.49 1341.49 1013.7 1361.68 1016.57C1483.1 1033.71 1619.93 1005.69 1727.69 941.618C1742.97 932.605 1757.69 922.599 1771.92 912.926C1788.26 901.823 1805.16 890.344 1823.16 880.148C1852.47 863.549 1887.41 850.852 1924.21 843.419C1966.11 834.957 2009.21 833.34 2052.32 838.601L2052.26 839.048C1970.93 829.114 1887.52 844.232 1823.42 880.528C1805.43 890.71 1788.55 902.184 1772.22 913.283C1757.98 922.965 1743.25 932.971 1727.96 941.993C1676.29 972.717 1616.25 995.94 1554.35 1009.15C1522.52 1015.94 1490.25 1020.09 1458.45 1021.49C1450.37 1021.85 1442.31 1022.02 1434.28 1022.02L1434.26 1022.04Z" fill="#8D8D8D" fill-opacity="0.3"/>
<path d="M1432.31 1023.67C1409.33 1023.67 1386.56 1022.19 1364.22 1019.18C1343.96 1016.43 1323.87 1012.32 1304.49 1006.96C1256.56 993.646 1214.13 973.182 1181.8 947.773C1140.13 915.058 1112.28 872.44 1103.38 827.777C1094.28 781.584 1104.84 735.272 1115.05 690.492C1117.22 680.973 1119.47 671.125 1121.49 661.43C1143.14 557.622 1141.58 459.672 1139.93 355.964C1139.65 337.721 1139.35 318.855 1139.17 299.957C1139.15 297.338 1139.13 294.719 1139.12 292.109C1138.86 256.423 1138.62 222.715 1131.55 189.607C1130.69 185.543 1129.73 181.52 1128.69 177.65C1117.09 133.664 1092.48 98.4385 1057.54 75.7841C1002.93 40.3824 926.841 40.6985 872.624 47.1963C849.878 49.9237 826.656 54.0012 804.205 57.9433C765.731 64.6985 725.947 71.6885 685.063 72.7C644.945 73.576 605.264 69.7559 566.893 66.0622C544.883 63.9444 522.123 61.7544 499.927 60.5397C423.553 56.3628 364.414 65.6558 319.133 88.9514C274.643 111.732 246.695 144.104 217.108 178.377C213.492 182.567 209.752 186.898 206.027 191.151C188.616 211.02 169.59 231.963 145.416 250.454C99.4289 285.594 38.6459 308.934 -40.4025 321.817C-70.4898 326.739 -100.445 329.737 -132.161 332.912C-165.58 336.258 -200.138 339.712 -236.919 345.7L-237.003 345.257C-200.207 339.265 -165.639 335.806 -132.215 332.465C-100.508 329.29 -70.5585 326.297 -40.4908 321.375C38.4741 308.505 99.1786 285.196 145.097 250.111C169.232 231.647 188.238 210.722 205.64 190.871C209.364 186.618 213.104 182.287 216.716 178.097C246.332 143.788 274.309 111.38 318.883 88.5585C343.312 75.9918 372.643 67.3491 406.068 62.8742C433.932 59.1444 465.516 58.2052 499.946 60.0927C522.157 61.3073 544.922 63.4974 566.937 65.6197C605.293 69.3134 644.955 73.129 685.043 72.253C725.883 71.2415 765.647 64.2605 804.102 57.5053C826.563 53.5587 849.79 49.4812 872.55 46.7538C907.874 42.5182 940.527 42.1931 969.609 45.7875C1004.45 50.0908 1034.13 60.0611 1057.81 75.4184C1076.43 87.4884 1092.12 103.013 1104.45 121.558C1115.39 138.013 1123.7 156.851 1129.16 177.546C1130.19 181.42 1131.16 185.453 1132.02 189.521C1139.1 222.674 1139.34 256.401 1139.59 292.109C1139.61 294.719 1139.63 297.338 1139.65 299.957C1139.82 318.855 1140.12 337.721 1140.41 355.964C1142.06 459.69 1143.62 557.668 1121.95 661.52C1119.93 671.22 1117.68 681.063 1115.52 690.587C1105.31 735.326 1094.77 781.588 1103.85 827.696C1112.72 872.26 1140.51 914.782 1182.1 947.43C1214.39 972.793 1256.76 993.231 1304.62 1006.53C1323.97 1011.88 1344.04 1015.98 1364.27 1018.73C1486.85 1035.27 1623.16 1005.5 1728.91 939.112C1743.48 930.027 1757.49 919.98 1771.04 910.267C1787.46 898.491 1804.44 886.317 1822.74 875.601C1851.08 859.011 1885.61 846.738 1922.63 840.1C1964.83 832.537 2008.46 832.397 2052.29 839.689L2052.21 840.132C1970.3 826.504 1884.61 839.906 1823 875.976C1804.72 886.678 1787.75 898.847 1771.34 910.619C1757.79 920.341 1743.77 930.393 1729.18 939.482C1642.61 993.836 1535.54 1023.66 1432.3 1023.67L1432.31 1023.67Z" fill="#8D8D8D" fill-opacity="0.3"/>
<path d="M1431.14 1025.4C1409.37 1025.4 1387.85 1024.04 1366.86 1021.34C1346.57 1018.72 1326.44 1014.72 1307.02 1009.45C1283.65 1003.08 1261.59 995.046 1241.46 985.559C1220.07 975.476 1200.76 963.704 1184.07 950.572C1142.5 917.885 1114.84 875.136 1106.22 830.202C1097.72 785.476 1107.61 740.605 1117.18 697.215C1119.66 686.003 1122.21 674.407 1124.42 662.983C1141.54 574.172 1138.48 490.869 1135.23 402.681C1134 369.203 1132.72 334.582 1132.61 299.411C1132.6 293.41 1132.62 287.35 1132.64 281.489C1132.76 249.099 1132.87 218.506 1127.45 188.211C1126.71 184.098 1125.88 180.025 1124.97 176.114C1114.71 131.131 1090.94 95.2413 1056.25 72.3204C1001.53 36.1691 925 37.9212 870.435 45.7556C848.651 48.8849 826.455 53.292 804.99 57.5547C765.525 65.3936 724.72 73.4945 682.536 74.6685C641.196 75.6981 600.371 71.1645 560.891 66.7799C540.054 64.4634 518.511 62.0747 497.473 60.5846C421.737 55.2337 360.91 64.486 316.679 88.0751C273.381 111.059 247.142 143.783 219.366 178.426C215.405 183.366 211.308 188.478 207.205 193.49C191.433 212.744 172.544 234.879 147.909 253.921C122.881 273.248 92.3672 288.899 57.2155 300.431C28.4041 309.887 -3.19951 316.642 -39.4014 321.09C-66.451 324.431 -93.2306 326.183 -121.581 328.044C-158.239 330.446 -196.144 332.925 -236.689 339.125L-236.767 338.678C-196.203 332.478 -158.283 329.994 -121.615 327.592C-93.2699 325.736 -66.5 323.984 -39.4652 320.643C40.7217 310.79 101.907 288.854 147.595 253.574C172.186 234.559 191.055 212.446 206.813 193.215C210.91 188.202 215.008 183.095 218.968 178.155C246.778 143.472 273.048 110.711 316.434 87.6823C340.647 74.7679 369.939 66.0619 403.501 61.7948C431.385 58.2546 463.013 57.6947 497.507 60.1285C518.555 61.6141 540.108 64.0074 560.95 66.3238C600.415 70.7084 641.22 75.2375 682.521 74.2124C724.656 73.0429 765.441 64.9421 804.882 57.1121C826.357 52.8495 848.558 48.4378 870.357 45.3086C925.01 37.4606 1001.68 35.7085 1056.53 71.9502C1075.06 84.1918 1090.49 100.032 1102.39 119.029C1112.89 135.777 1120.64 154.95 1125.45 176.015C1126.36 179.93 1127.19 184.007 1127.93 188.13C1133.37 218.461 1133.26 249.072 1133.13 281.484C1133.11 287.345 1133.09 293.405 1133.1 299.402C1133.21 334.569 1134.49 369.185 1135.72 402.658C1138.97 490.874 1142.03 574.199 1124.9 663.055C1122.7 674.484 1120.14 686.08 1117.67 697.296C1108.11 740.65 1098.23 785.476 1106.71 830.116C1115.31 874.946 1142.9 917.6 1184.4 950.22C1216.63 975.584 1259.08 995.913 1307.16 1009.01C1326.56 1014.26 1346.66 1018.26 1366.93 1020.89C1490.66 1036.8 1626.45 1005.29 1730.18 936.592C1744.13 927.417 1757.51 917.297 1770.45 907.512C1786.88 895.09 1803.86 882.248 1822.38 871.036C1849.76 854.459 1883.9 842.611 1921.12 836.777C1963.63 830.112 2007.78 831.453 2052.33 840.764L2052.22 841.206C1968.58 823.722 1882.76 835.016 1822.65 871.42C1804.16 882.618 1787.18 895.456 1770.77 907.869C1757.82 917.659 1744.43 927.783 1730.46 936.967C1680.74 969.894 1621.69 995.15 1559.7 1010C1528.1 1017.56 1495.9 1022.41 1464 1024.38C1453.01 1025.06 1442.04 1025.4 1431.14 1025.4H1431.14Z" fill="#8D8D8D" fill-opacity="0.3"/>
<path d="M1429.48 1027.11C1409.18 1027.11 1389.11 1025.91 1369.49 1023.51C1349.16 1021.01 1328.99 1017.11 1309.53 1011.94C1286.09 1005.68 1263.99 997.737 1243.85 988.318C1222.38 978.284 1203.03 966.526 1186.34 953.368C1144.86 920.707 1117.41 877.827 1109.05 832.627C1101.11 789.242 1110.44 745.685 1119.46 703.56C1122.19 690.776 1125.03 677.559 1127.33 664.532C1141.67 583.65 1136.72 508.028 1131.47 427.964C1128.74 386.208 1125.91 343.036 1126.03 298.856C1126.06 289.951 1126.22 280.988 1126.38 272.318C1126.9 242.692 1127.39 214.713 1123.32 186.807C1122.72 182.64 1122.02 178.521 1121.24 174.575C1115.03 142.524 1098.49 98.1676 1054.94 68.8528C1000.08 31.9293 923.126 35.1263 868.232 44.3109C847.282 47.8149 825.969 52.5427 805.363 57.1124C765.044 66.0532 723.35 75.2964 679.999 76.633C637.608 77.8206 595.807 72.5465 555.385 67.4485C535.554 64.9469 515.046 62.3595 494.999 60.6255C418.871 54.0328 358.044 62.9736 314.206 87.1949C271.963 110.423 247.323 143.571 221.23 178.666C217.044 184.297 212.716 190.117 208.358 195.825C192.301 216.818 174.164 238.804 150.377 257.39C125.463 276.833 94.7766 292.118 59.1734 302.825C30.4504 311.463 -2.38498 317.365 -38.42 320.363C-63.1729 322.44 -87.5774 323.172 -113.41 323.948C-152.566 325.122 -193.052 326.337 -236.478 332.546L-236.551 332.099C-193.096 325.886 -152.596 324.671 -113.425 323.497C-87.597 322.725 -63.2024 321.993 -38.4642 319.916C42.8612 313.143 104.528 292.575 150.063 257.046C173.805 238.497 191.923 216.533 207.961 195.568C212.314 189.864 216.642 184.044 220.828 178.413C246.95 143.278 271.624 110.093 313.956 86.811C337.953 73.5535 367.211 64.7753 400.91 60.7248C428.828 57.3698 460.5 57.1847 495.049 60.1785C515.105 61.9124 535.618 64.4998 555.454 67.0014C595.856 72.0949 637.638 77.3646 679.984 76.1815C723.287 74.8494 764.955 65.6106 805.25 56.6744C825.866 52.1047 847.184 47.3769 868.148 43.8684C923.135 34.6703 1000.23 31.4733 1055.24 68.4915C1098.92 97.8921 1115.51 142.366 1121.73 174.498C1122.51 178.454 1123.21 182.576 1123.81 186.753C1127.89 214.691 1127.39 242.687 1126.87 272.331C1126.72 281.001 1126.56 289.96 1126.53 298.865C1126.4 343.031 1129.23 386.199 1131.96 427.945C1137.21 508.033 1142.16 583.682 1127.82 664.613C1125.51 677.645 1122.68 690.871 1119.94 703.655C1110.93 745.739 1101.61 789.255 1109.53 832.559C1117.87 877.656 1145.26 920.44 1186.65 953.034C1219.3 978.759 1260.69 998.437 1309.67 1011.51C1329.1 1016.68 1349.24 1020.56 1369.56 1023.06C1494.43 1038.35 1629.7 1005.08 1731.42 934.095C1744.82 924.807 1757.64 914.597 1770.03 904.722C1786.4 891.681 1803.33 878.193 1821.99 866.498C1848.43 849.935 1882.17 838.52 1919.59 833.485C1962.42 827.719 2007.09 830.536 2052.34 841.861L2052.21 842.295C1951.73 817.148 1867.55 838.502 1822.27 866.873C1803.63 878.554 1786.71 892.033 1770.35 905.065C1757.95 914.945 1745.13 925.159 1731.72 934.457C1682.96 968.481 1624.41 994.752 1562.39 1010.42C1518.58 1021.49 1473.51 1027.11 1429.48 1027.11H1429.48Z" fill="#8D8D8D" fill-opacity="0.3"/>
<path d="M1428.3 1028.88C1409.33 1028.88 1390.54 1027.82 1372.13 1025.67C1351.76 1023.29 1331.54 1019.51 1312.05 1014.44C1288.54 1008.29 1266.4 1000.43 1246.24 991.081C1224.69 981.093 1205.3 969.348 1188.61 956.172C1147.22 923.534 1119.97 880.523 1111.88 835.061C1104.45 792.904 1113.3 750.553 1121.86 709.592C1124.83 695.346 1127.91 680.612 1130.26 666.09C1142.58 589.994 1135.67 519.019 1128.35 443.876C1123.77 396.874 1119.04 348.269 1119.47 298.314C1119.57 286.885 1119.96 275.407 1120.33 264.312C1121.26 237.034 1122.13 211.272 1119.21 185.421C1118.73 181.199 1118.16 177.036 1117.51 173.049C1112.28 140.325 1096.96 95.088 1053.64 65.3984C998.616 27.6802 921.246 32.3357 866.033 42.8795C845.815 46.7402 825.272 51.7751 805.412 56.6383C764.342 66.6989 721.878 77.1072 677.462 78.6063C633.84 79.961 590.89 73.8831 549.349 68.0084C530.696 65.3713 511.405 62.6439 492.531 60.6752C415.824 52.9536 354.992 61.5828 311.738 86.3233C270.442 109.836 247.308 143.463 222.811 179.068C218.497 185.34 214.036 191.824 209.517 198.164C194.284 219.513 176.878 241.888 152.851 260.857C128.039 280.423 97.1814 295.347 61.1316 305.218C32.0602 313.179 -1.104 318.029 -37.4384 319.641C-60.4148 320.67 -82.9839 320.535 -106.878 320.39C-148.022 320.142 -190.569 319.884 -236.267 325.971L-236.335 325.524C-190.603 319.433 -148.036 319.69 -106.873 319.939C-82.9839 320.083 -60.4197 320.219 -37.458 319.189C43.8036 315.59 107.727 295.848 152.537 260.514C176.519 241.581 193.901 219.238 209.109 197.916C213.624 191.576 218.085 185.091 222.399 178.824C246.926 143.178 270.089 109.506 311.478 85.9395C335.239 72.3478 364.458 63.5199 398.314 59.6998C426.168 56.557 457.885 56.7331 492.585 60.2281C511.469 62.1969 530.765 64.9288 549.423 67.5658C590.939 73.436 633.869 79.5049 677.442 78.1548C721.805 76.6556 764.244 66.2563 805.285 56.2003C825.155 51.3325 845.697 46.2977 865.935 42.4324C901.367 35.6682 934.452 33.5052 964.279 36.0159C1000.07 39.0277 1030.23 48.7903 1053.93 65.0326C1097.38 94.8125 1112.75 140.171 1117.99 172.976C1118.65 176.968 1119.22 181.14 1119.69 185.367C1122.62 211.245 1121.74 237.025 1120.82 264.321C1120.45 275.416 1120.06 286.889 1119.95 298.314C1119.52 348.246 1124.26 396.838 1128.83 443.836C1136.16 519.006 1143.07 590.008 1130.74 666.158C1128.39 680.689 1125.31 695.427 1122.33 709.678C1113.79 750.598 1104.95 792.913 1112.36 834.989C1120.43 880.347 1147.62 923.263 1188.92 955.833C1221.52 981.563 1262.99 1001.13 1312.18 1014.01C1331.65 1019.08 1351.84 1022.85 1372.19 1025.24C1498.19 1039.87 1632.95 1004.87 1732.67 931.598C1745.57 922.184 1757.87 911.861 1769.77 901.882C1786.03 888.236 1802.86 874.125 1821.62 861.955C1846.76 845.65 1881.01 834.37 1918.07 830.198C1960.63 825.407 2007.06 829.814 2052.35 842.954L2052.2 843.383C1949.75 813.662 1866.06 833.684 1821.9 862.326C1803.16 874.481 1786.36 888.579 1770.1 902.216C1758.2 912.2 1745.9 922.527 1732.98 931.951C1685.18 967.072 1627.12 994.355 1565.08 1010.85C1520.11 1022.81 1473.68 1028.89 1428.31 1028.89L1428.3 1028.88Z" fill="#8D8D8D" fill-opacity="0.3"/>
<path d="M1427.26 1030.67C1409.56 1030.67 1392.01 1029.73 1374.76 1027.83C1354.35 1025.57 1334.1 1021.9 1314.56 1016.92C1290.98 1010.88 1268.8 1003.11 1248.62 993.836C1227 983.897 1207.56 972.161 1190.87 958.962C1149.57 926.347 1122.52 883.201 1114.71 837.477C1107.76 796.453 1116.19 755.208 1124.34 715.323C1127.53 699.708 1130.84 683.56 1133.17 667.634C1143.88 594.668 1135 526.754 1125.6 454.853C1118.97 404.18 1112.11 351.782 1112.89 297.754C1113.09 284.103 1113.8 270.43 1114.48 257.213C1115.79 231.949 1117.02 208.089 1115.08 184.017C1114.74 179.74 1114.3 175.532 1113.77 171.504C1109.54 138.116 1095.44 92.0083 1052.33 61.9259C994.205 21.3674 909.272 31.6718 863.825 41.4299C844.244 45.6338 824.389 50.9622 805.181 56.1189C763.454 67.3219 720.303 78.9042 674.91 80.5705C630.512 82.0832 586.851 75.2331 544.623 68.6133C526.711 65.8047 508.186 62.8967 490.048 60.7157C413.002 51.7253 352.175 60.0429 309.25 85.4427C268.813 109.271 247.112 143.427 224.141 179.587C219.778 186.455 215.263 193.562 210.665 200.498C196.222 222.236 179.523 245.008 155.314 264.325C110.456 300.07 45.9285 318.435 -36.4667 318.914C-58.0348 319.049 -79.1611 318.155 -101.534 317.211C-144.307 315.4 -188.537 313.531 -236.065 319.392L-236.129 318.945C-188.557 313.075 -144.307 314.949 -101.509 316.76C-79.1464 317.703 -58.02 318.597 -36.4667 318.462C45.8107 317.988 110.225 299.659 154.995 263.987C179.155 244.714 195.83 221.974 210.248 200.268C214.846 193.337 219.356 186.234 223.719 179.366C234.75 162.003 246.155 144.05 259.587 127.893C274.633 109.799 290.788 95.7923 308.99 85.0679C352.013 59.6094 412.953 51.2692 490.112 60.2732C508.259 62.4542 526.79 65.3622 544.707 68.1708C586.91 74.7906 630.547 81.6361 674.89 80.1234C720.225 78.4617 763.341 66.8839 805.039 55.6899C824.252 50.5332 844.117 45.2003 863.707 40.9964C899.153 33.3877 932.386 30.6197 962.483 32.7646C998.587 35.3384 1028.91 45.0333 1052.62 61.5736C1095.86 91.7509 1110 137.985 1114.25 171.459C1114.77 175.491 1115.22 179.709 1115.56 183.99C1117.51 208.089 1116.27 231.967 1114.96 257.245C1114.28 270.462 1113.57 284.126 1113.37 297.772C1112.6 351.769 1119.45 404.149 1126.08 454.808C1135.48 526.741 1144.37 594.681 1133.65 667.702C1131.31 683.637 1128.01 699.794 1124.82 715.413C1116.67 755.262 1108.25 796.467 1115.18 837.413C1122.98 883.034 1149.98 926.08 1191.18 958.628C1223.74 984.362 1265.29 1003.83 1314.69 1016.49C1334.2 1021.47 1354.43 1025.13 1374.82 1027.4C1500.04 1041.16 1637.63 1003.49 1733.91 929.083C1746.35 919.528 1758.18 909.084 1769.62 898.978C1785.74 884.745 1802.41 870.029 1821.22 857.395C1845.46 841.112 1879.31 830.283 1916.54 826.897C1959.43 823 2006.39 828.92 2052.34 844.024L2052.18 844.449C1947.66 810.103 1862.6 830.152 1821.51 857.76C1802.73 870.381 1786.07 885.084 1769.96 899.308C1758.51 909.413 1746.68 919.867 1734.22 929.431C1687.37 965.641 1629.81 993.94 1567.74 1011.27C1521.68 1024.14 1473.93 1030.68 1427.25 1030.68L1427.26 1030.67Z" fill="#8D8D8D" fill-opacity="0.3"/>
<path d="M1426.34 1032.5C1409.86 1032.5 1393.51 1031.67 1377.4 1030C1356.94 1027.86 1336.65 1024.3 1317.08 1019.41C1293.44 1013.47 1271.21 1005.8 1251.01 996.595C1229.31 986.706 1209.84 974.983 1193.13 961.762C1172.83 945.705 1155.96 927.002 1142.97 906.171C1129.85 885.12 1121.29 862.822 1117.53 839.902C1111.01 799.74 1119.12 759.335 1126.97 720.263C1130.33 703.537 1133.8 686.243 1136.09 669.183C1145.26 598.438 1133.97 529.68 1123.04 463.185C1114.25 409.694 1105.17 354.383 1106.3 297.203C1106.62 281.584 1107.74 265.974 1108.81 250.878C1110.48 227.357 1112.06 205.136 1110.95 182.617C1110.74 178.291 1110.43 174.033 1110.03 169.969C1106.8 135.859 1093.94 88.8249 1051.02 58.4625C992.85 16.9874 907.383 29.0845 861.616 39.9849C842.605 44.514 823.349 50.1358 804.73 55.5725C762.418 67.927 718.664 80.6969 672.368 82.5302C668.113 82.6883 663.858 82.765 659.623 82.765C618.941 82.765 578.97 75.8743 540.187 69.1914C522.923 66.2156 505.069 63.136 487.575 60.7564C410.214 50.4835 349.382 58.4986 306.776 84.5622C267.12 108.725 246.803 143.449 225.289 180.21C220.936 187.647 216.436 195.333 211.818 202.828C198.799 223.907 182.192 248.106 157.783 267.784C133.162 287.607 101.961 301.809 65.0427 309.995C35.1959 316.611 1.3741 319.365 -35.4854 318.178C-55.9198 317.532 -75.9027 315.96 -97.0536 314.299C-141.186 310.831 -186.825 307.241 -235.854 312.809L-235.913 312.362C-186.83 306.785 -141.166 310.375 -97.0094 313.847C-75.8634 315.509 -55.8903 317.08 -35.4657 317.726C47.7834 320.408 112.698 303.493 157.464 267.446C181.819 247.812 198.391 223.654 211.396 202.607C216.014 195.12 220.514 187.435 224.862 179.998C235.187 162.351 245.866 144.104 258.674 127.685C273.018 109.289 288.668 95.0653 306.511 84.1874C349.22 58.0561 410.165 50.0229 487.653 60.3093C505.158 62.6935 523.016 65.7731 540.285 68.7488C583.082 76.1272 627.332 83.7585 672.353 82.0832C718.585 80.2499 762.305 67.489 804.588 55.1436C823.216 49.7069 842.478 44.0805 861.499 39.5514C907.353 28.6284 992.992 16.5132 1051.32 58.1057C1094.38 88.5675 1107.29 135.728 1110.53 169.928C1110.93 174.001 1111.24 178.264 1111.45 182.599C1112.56 205.145 1110.98 227.375 1109.3 250.914C1108.23 266.005 1107.12 281.606 1106.8 297.216C1105.67 354.356 1114.75 409.649 1123.53 463.121C1134.46 529.644 1145.76 598.438 1136.58 669.242C1134.29 686.315 1130.82 703.618 1127.46 720.348C1119.61 759.385 1111.51 799.754 1118.02 839.838C1125.55 885.716 1152.34 928.898 1193.45 961.423C1225.97 987.166 1267.61 1006.53 1317.21 1018.98C1336.76 1023.86 1357.02 1027.42 1377.45 1029.56C1503.77 1042.67 1640.83 1003.21 1735.16 926.573C1747.18 916.864 1758.58 906.28 1769.6 896.048C1785.55 881.246 1802.03 865.943 1820.85 852.843C1844.19 836.587 1877.64 826.21 1915.03 823.619C1958.26 820.62 2005.74 828.053 2052.35 845.108L2052.17 845.528C1945.72 806.581 1861.18 825.321 1821.14 853.204C1802.35 866.286 1785.88 881.58 1769.95 896.368C1758.92 906.605 1747.52 917.194 1735.48 926.916C1689.57 964.214 1632.5 993.529 1570.43 1011.69C1523.32 1025.48 1474.3 1032.52 1426.34 1032.52L1426.34 1032.5Z" fill="#8D8D8D" fill-opacity="0.3"/>
<path d="M1425.54 1034.36C1410.24 1034.36 1395.04 1033.63 1380.04 1032.16C1359.55 1030.15 1339.21 1026.69 1319.6 1021.9C1295.89 1016.07 1273.62 1008.49 1253.41 999.358C1231.63 989.519 1212.12 977.81 1195.4 964.562C1175.16 948.523 1158.35 929.774 1145.45 908.84C1132.42 887.712 1123.99 865.337 1120.36 842.331C1114.27 803.163 1122.07 763.734 1129.61 725.6C1133.16 707.642 1136.83 689.069 1139.02 670.736C1146.99 601.513 1133.63 534.358 1120.72 469.416C1109.66 413.78 1098.22 356.252 1099.74 296.656C1100.19 279.276 1101.78 261.941 1103.31 245.179C1105.33 223.171 1107.23 202.381 1106.84 181.222C1106.76 176.837 1106.58 172.534 1106.31 168.434C1104.11 133.687 1092.5 85.7994 1049.72 54.999C991.304 12.6299 905.415 26.5015 859.418 38.5445C840.917 43.3896 822.195 49.2959 804.097 55.0036C761.265 68.5185 716.971 82.4941 669.835 84.499C665.551 84.6706 661.267 84.7518 656.998 84.7518C615.756 84.7518 575.27 77.1387 535.996 69.7558C519.301 66.6175 502.042 63.3708 485.116 60.797C407.452 49.2372 346.624 56.9362 304.318 83.6862C265.387 108.21 246.396 143.53 226.295 180.928C222.011 188.902 217.579 197.143 212.986 205.163C200.673 226.639 184.778 251.284 160.266 271.248C135.734 291.206 104.361 305.046 67.0107 312.384C36.7467 318.326 2.59616 320.033 -34.4989 317.446C-54.0156 316.096 -73.9494 313.806 -93.2306 311.589C-138.526 306.387 -185.357 301.005 -235.643 306.225L-235.697 305.778C-185.357 300.549 -138.492 305.936 -93.1717 311.142C-73.9004 313.355 -53.9714 315.644 -34.4645 316.994C23.4182 321.031 104.13 316.313 159.932 270.909C184.386 250.995 200.246 226.39 212.54 204.951C217.128 196.936 221.559 188.695 225.843 180.725C235.491 162.78 245.468 144.221 257.673 127.518C271.345 108.806 286.509 94.3473 304.033 83.3069C346.448 56.4937 407.398 48.7676 485.19 60.3454C502.125 62.9193 519.394 66.1659 536.089 69.3087C579.402 77.4548 624.192 85.8762 669.811 84.0429C716.878 82.0425 761.138 68.0805 803.935 54.5746C822.043 48.8624 840.77 42.9516 859.281 38.1065C894.28 28.9444 928.745 24.8308 958.95 26.2171C995.696 27.9014 1026.33 37.4652 1050.02 54.6423C1092.94 85.5466 1104.58 133.565 1106.8 168.402C1107.06 172.511 1107.25 176.819 1107.32 181.208C1107.72 202.39 1105.81 223.189 1103.8 245.211C1102.26 261.968 1100.68 279.299 1100.22 296.661C1098.71 356.207 1110.14 413.712 1121.2 469.326C1134.11 534.3 1147.47 601.491 1139.5 670.777C1137.31 689.123 1133.64 707.705 1130.09 725.672C1122.55 763.77 1114.76 803.163 1120.84 842.258C1128.1 888.398 1154.69 931.707 1195.72 964.209C1228.2 989.966 1269.92 1009.22 1319.72 1021.45C1339.31 1026.24 1359.61 1029.69 1380.08 1031.71C1507.48 1044.15 1644.02 1002.9 1736.4 924.053C1748.03 914.182 1759.03 903.453 1769.67 893.076C1785.4 877.719 1801.68 861.838 1820.46 848.278C1842.92 832.058 1875.98 822.133 1913.53 820.331C1957.09 818.245 2005.1 827.177 2052.36 846.178L2052.17 846.593C2004.97 827.624 1957.04 818.701 1913.55 820.787C1876.1 822.584 1843.15 832.473 1820.77 848.639C1802.02 862.181 1785.75 878.049 1770.02 893.392C1759.39 903.773 1748.38 914.507 1736.74 924.387C1691.77 962.769 1635.18 993.104 1573.12 1012.1C1525.01 1026.83 1474.75 1034.35 1425.54 1034.35L1425.54 1034.36Z" fill="#8D8D8D" fill-opacity="0.3"/>
<path d="M1424.85 1036.24C1410.68 1036.24 1396.61 1035.6 1382.67 1034.33C1362.15 1032.43 1341.77 1029.09 1322.12 1024.39C1298.35 1018.68 1276.03 1011.18 1255.8 1002.12C1233.95 992.328 1214.39 980.633 1197.67 967.357C1177.48 951.331 1160.74 932.542 1147.91 911.504C1134.98 890.304 1126.67 867.844 1123.2 844.751C1117.5 806.5 1125.02 767.978 1132.3 730.721C1136.03 711.593 1139.9 691.815 1141.94 672.285C1148.8 604.155 1133.4 538.179 1118.5 474.379C1105.11 417 1091.26 357.67 1093.16 296.106C1093.76 277.145 1095.89 258.261 1097.95 240C1100.17 220.227 1102.48 199.78 1102.72 179.822C1102.77 175.388 1102.73 171.035 1102.58 166.894C1101.42 131.519 1091.08 82.7877 1048.42 51.5312C987.545 6.63332 894.427 26.4791 857.219 37.0996C839.17 42.2473 820.934 48.4336 803.297 54.4166C759.994 69.1056 715.219 84.2914 667.293 86.4633C662.98 86.6485 658.671 86.7388 654.377 86.7388C612.639 86.7388 571.707 78.3986 531.991 70.3068C515.802 67.0104 499.068 63.5967 482.643 60.8377C404.693 47.9775 343.861 55.3649 301.839 82.8058C263.581 107.704 245.061 145.328 227.149 181.718C222.973 190.203 218.654 198.977 214.134 207.498C202.514 229.384 187.315 254.486 162.729 274.716C120.418 309.499 63.4821 319.27 12.9016 319.27C-3.47934 319.27 -19.183 318.245 -33.5224 316.715C-52.2883 314.719 -71.4272 311.829 -89.928 309.034C-136.224 302.044 -184.091 294.81 -235.432 299.646L-235.481 299.194C-184.076 294.358 -136.17 301.592 -89.8446 308.587C-71.3437 311.382 -52.2147 314.272 -33.4586 316.263C25.0523 322.508 106.53 320.313 162.41 274.377C186.933 254.202 202.096 229.145 213.698 207.299C218.212 198.787 222.531 190.013 226.702 181.533C235.692 163.272 244.987 144.389 256.608 127.397C269.632 108.355 284.335 93.6475 301.555 82.44C324.521 67.4439 353.583 58.3451 387.935 55.401C416.088 52.9852 447.982 54.6695 482.726 60.3997C499.161 63.1587 515.905 66.5724 532.094 69.8688C575.863 78.7869 621.124 88.0076 667.269 86.0163C715.116 83.8443 759.856 68.6721 803.125 53.9967C820.767 48.0136 839.008 41.8273 857.072 36.6706C892.067 26.6868 926.678 21.95 957.173 22.9705C994.224 24.2123 1025.02 33.7039 1048.72 51.1835C1066.84 64.4637 1080.72 82.1871 1089.95 103.871C1097.9 122.52 1102.31 143.72 1103.07 166.88C1103.22 171.03 1103.26 175.383 1103.21 179.826C1102.97 199.803 1100.67 220.263 1098.43 240.045C1096.37 258.297 1094.25 277.172 1093.65 296.115C1091.74 357.625 1105.59 416.932 1118.98 474.279C1133.88 538.115 1149.29 604.123 1142.42 672.326C1140.38 691.874 1136.52 711.665 1132.78 730.797C1125.51 768.019 1117.99 806.509 1123.68 844.688C1130.65 891.085 1157.05 934.524 1197.98 967.014C1230.43 992.779 1272.24 1011.93 1322.23 1023.95C1341.86 1028.64 1362.21 1031.98 1382.71 1033.88C1511.19 1045.64 1647.2 1002.6 1737.65 921.547C1748.91 911.504 1759.53 900.617 1769.8 890.092C1785.32 874.193 1801.36 857.752 1820.07 843.731C1841.66 827.552 1874.31 818.083 1912.02 817.071C1955.92 815.893 2004.45 826.332 2052.36 847.266L2052.15 847.673C2004.31 826.77 1955.85 816.349 1912.03 817.523C1874.43 818.53 1841.88 827.963 1820.38 844.083C1801.7 858.086 1785.67 874.513 1770.17 890.399C1759.89 900.933 1749.26 911.82 1737.98 921.876C1693.94 961.342 1637.85 992.689 1575.79 1012.53C1526.74 1028.2 1475.27 1036.24 1424.83 1036.24H1424.85Z" fill="#8D8D8D" fill-opacity="0.3"/>
<path d="M1424.26 1038.14C1411.2 1038.14 1398.19 1037.59 1385.31 1036.49C1364.74 1034.72 1344.33 1031.48 1324.64 1026.88C1300.79 1021.27 1278.44 1013.87 1258.19 1004.88C1236.26 995.136 1216.66 983.454 1199.94 970.152C1179.79 954.144 1163.12 935.31 1150.38 914.173C1137.55 892.896 1129.36 870.354 1126.03 847.176C1120.7 809.783 1127.99 772.101 1135.04 735.66C1138.96 715.426 1143 694.506 1144.86 673.834C1150.69 606.494 1133.25 541.398 1116.37 478.451C1100.6 419.619 1084.3 358.781 1086.6 295.55C1087.35 275.162 1090.08 254.883 1092.72 235.268C1095.23 216.61 1097.82 197.319 1098.6 178.422C1098.79 173.933 1098.87 169.535 1098.85 165.354C1098.75 129.361 1089.69 79.7937 1047.12 48.0631C985.955 2.2034 892.405 24.1037 855.021 35.6499C837.384 41.0956 819.58 47.5574 802.36 53.8068C758.635 69.6744 713.423 86.0793 664.756 88.4229C618.072 90.5813 572.365 80.5433 528.159 70.8394C512.421 67.385 496.148 63.8132 480.169 60.8736C426.389 51.1291 351.36 46.871 299.366 81.9205C261.736 107.207 244.531 145.517 227.895 182.567C223.866 191.544 219.695 200.828 215.288 209.823C204.344 232.13 189.838 257.692 165.203 278.17C140.838 298.408 109.116 311.526 70.9268 317.152C39.7795 321.745 4.96645 321.347 -32.5359 315.974C-50.6834 313.382 -69.1598 309.928 -87.0325 306.586C-134.202 297.767 -182.982 288.646 -235.221 293.058L-235.265 292.606C-182.953 288.19 -134.139 297.316 -86.9344 306.144C-69.0715 309.485 -50.6 312.939 -32.4623 315.527C26.662 323.998 108.885 324.337 164.874 277.836C189.44 257.412 203.922 231.899 214.841 209.638C219.243 200.647 223.414 191.368 227.443 182.396C235.791 163.81 244.423 144.587 255.479 127.288C267.875 107.898 282.136 92.9429 299.077 81.5593C321.847 66.211 350.874 57.0445 385.344 54.3171C413.591 52.0819 445.528 54.141 480.267 60.4356C496.256 63.3752 512.534 66.947 528.272 70.4059C572.443 80.1053 618.116 90.1343 664.732 87.9803C713.315 85.6413 758.492 69.2454 802.178 53.3959C819.403 47.1464 837.212 40.6847 854.859 35.2345C889.839 24.4288 924.598 19.0644 955.397 19.7236C992.747 20.5229 1023.71 29.9423 1047.42 47.7244C1065.49 61.1897 1079.1 79.2338 1087.88 101.351C1095.41 120.343 1099.27 141.878 1099.34 165.363C1099.36 169.549 1099.28 173.951 1099.09 178.449C1098.31 197.36 1095.71 216.664 1093.2 235.331C1090.56 254.933 1087.83 275.208 1087.08 295.573C1084.78 358.74 1101.08 419.546 1116.84 478.348C1133.72 541.33 1151.18 606.458 1145.34 673.874C1143.48 694.565 1139.43 715.499 1135.52 735.742C1128.48 772.15 1121.19 809.796 1126.5 847.122C1133.11 893.099 1159.99 937.816 1200.25 969.813C1232.67 995.592 1274.56 1014.65 1324.75 1026.44C1344.42 1031.04 1364.8 1034.27 1385.35 1036.04C1514.89 1047.12 1650.37 1002.29 1738.9 919.041C1749.82 908.817 1760.09 897.768 1770.02 887.084C1785.3 870.657 1801.09 853.665 1819.7 839.179C1829.58 831.484 1842.22 825.361 1857.27 820.99C1873.27 816.339 1891.19 813.928 1910.54 813.811C1954.78 813.544 2003.83 825.492 2052.37 848.345L2052.15 848.747C2003.68 825.926 1954.69 814.014 1910.54 814.262C1873.34 814.479 1840.35 823.686 1820.01 839.522C1801.44 853.985 1785.65 870.959 1770.4 887.378C1760.46 898.066 1750.18 909.124 1739.25 919.357C1696.13 959.901 1640.54 992.264 1578.48 1012.95C1528.53 1029.59 1475.89 1038.14 1424.25 1038.14H1424.26Z" fill="#8D8D8D" fill-opacity="0.3"/>
<path d="M1423.76 1040.07C1411.76 1040.07 1399.81 1039.6 1387.95 1038.66C1367.34 1037.01 1346.88 1033.88 1327.16 1029.37C1276.7 1017.78 1234.66 998.798 1202.21 972.956C1182.12 956.962 1165.51 938.083 1152.85 916.846C1140.12 895.492 1132.04 872.869 1128.86 849.61C1123.89 813.016 1130.97 776.12 1137.83 740.438C1141.92 719.156 1146.14 697.148 1147.79 675.392C1152.63 608.616 1133.15 544.189 1114.3 481.883C1096.12 421.8 1077.33 359.671 1080.02 295.008C1080.94 273.325 1084.32 251.772 1087.59 230.928C1090.36 213.255 1093.23 194.98 1094.49 177.036C1094.82 172.493 1095.03 168.05 1095.13 163.832C1095.92 133.867 1090.56 78.5295 1045.82 44.6133C984.35 -2.22623 890.374 21.7422 852.822 34.2231C835.553 39.9623 818.142 46.695 801.304 53.2019C757.197 70.2525 711.587 87.8856 662.224 90.4053C657.866 90.622 653.513 90.7214 649.175 90.7214C606.598 90.7214 564.915 80.9046 524.473 71.3859C509.138 67.778 493.282 64.0436 477.706 60.9324C423.739 50.2803 348.568 45.1236 296.902 81.0582C259.861 106.751 243.952 145.766 228.562 183.493C224.705 192.944 220.72 202.72 216.451 212.171C206.174 234.902 192.35 260.934 167.681 281.651C143.394 302.034 111.501 314.786 72.8945 319.559C41.2859 323.465 6.14897 322.02 -31.5447 315.26C-49.1819 312.104 -67.1136 308.108 -84.4563 304.247C-132.402 293.568 -181.981 282.527 -235.001 286.492L-235.04 286.04C-181.942 282.067 -132.323 293.121 -84.3385 303.805C-67.0007 307.665 -49.074 311.657 -31.4466 314.813C17.4458 323.583 108.287 330.889 167.357 281.317C191.953 260.659 205.752 234.685 216.004 211.999C220.269 202.553 224.253 192.781 228.106 183.335C235.825 164.41 243.809 144.84 254.316 127.229C266.099 107.488 279.933 92.2657 296.608 80.6969C319.187 64.9919 348.17 55.7622 382.757 53.2561C411.107 51.2015 443.084 53.6354 477.809 60.4899C493.395 63.6011 509.255 67.3355 524.591 70.9479C569.116 81.4329 615.157 92.2702 662.194 89.9537C711.474 87.4431 757.044 69.8235 801.113 52.7864C817.955 46.275 835.371 39.5424 852.655 33.7986C877.035 25.6933 914.351 16.1204 953.625 16.4816C991.275 16.8338 1022.4 26.181 1046.12 44.2656C1064.14 57.9206 1077.49 76.2807 1085.81 98.8313C1092.94 118.176 1096.24 140.044 1095.62 163.841C1095.51 168.063 1095.3 172.516 1094.97 177.067C1093.71 195.03 1090.84 213.313 1088.06 230.996C1084.79 251.826 1081.42 273.365 1080.51 295.026C1077.81 359.621 1096.59 421.714 1114.76 481.762C1133.62 544.107 1153.12 608.571 1148.27 675.423C1146.62 697.202 1142.39 719.224 1138.31 740.519C1131.46 776.165 1124.38 813.03 1129.34 849.556C1135.67 895.781 1162.34 940.638 1202.52 972.617C1234.92 998.414 1276.89 1017.36 1327.27 1028.93C1346.97 1033.45 1367.4 1036.57 1387.98 1038.21C1518.59 1048.59 1653.53 1001.97 1740.15 916.544C1750.75 906.135 1760.69 894.914 1770.3 884.063C1785.32 867.117 1800.85 849.596 1819.31 834.636C1838.89 818.782 1871.6 810.004 1909.06 810.569C1953.64 811.232 2003.2 824.675 2052.38 849.438L2052.14 849.836C2003.04 825.109 1953.56 811.684 1909.05 811.02C1871.71 810.469 1839.13 819.193 1819.64 834.975C1801.2 849.908 1785.69 867.415 1770.68 884.348C1761.06 895.203 1751.12 906.429 1740.51 916.851C1698.3 958.475 1643.2 991.853 1581.17 1013.37C1530.36 1031 1476.58 1040.07 1423.75 1040.07L1423.76 1040.07Z" fill="#8D8D8D" fill-opacity="0.3"/>
<path d="M1423.35 1042.01C1412.37 1042.01 1401.44 1041.61 1390.58 1040.82C1369.93 1039.29 1349.44 1036.28 1329.67 1031.86C1279.03 1020.49 1236.9 1001.62 1204.48 975.751C1184.43 959.771 1167.89 940.851 1155.31 919.51C1142.68 898.079 1134.73 875.375 1131.7 852.03C1127.06 816.181 1133.97 780.021 1140.66 745.053C1144.92 722.769 1149.32 699.73 1150.71 676.941C1154.62 610.567 1133.09 546.636 1112.26 484.814C1091.66 423.638 1070.35 360.384 1073.45 294.457C1074.54 271.586 1078.61 248.878 1082.55 226.91C1085.57 210.112 1088.68 192.741 1090.37 175.636C1090.83 171.044 1091.18 166.551 1091.41 162.293C1093.07 131.831 1089.2 75.5899 1044.52 41.1455C982.736 -6.69203 888.342 19.358 850.624 32.7782C833.693 38.8019 816.635 45.801 800.141 52.5697C755.685 70.8125 709.718 89.6783 659.687 92.3696C655.314 92.5999 650.942 92.7083 646.584 92.7083C603.649 92.7083 561.652 82.1509 520.906 71.9097C505.933 68.1483 490.455 64.2559 475.237 60.9731C421.094 49.4044 345.78 43.3445 294.429 80.1777C257.953 106.286 243.304 146.023 229.136 184.45C225.485 194.362 221.707 204.608 217.604 214.501C207.99 237.666 194.839 264.167 170.149 285.11C135.376 314.597 89.4669 323.28 47.4645 323.28C17.7208 323.28 -10.06 318.927 -30.568 314.52C-47.7783 310.826 -65.2584 306.311 -82.1644 301.949C-130.807 289.391 -181.102 276.404 -234.794 279.908L-234.829 279.457C-181.048 275.953 -130.708 288.949 -82.027 301.515C-65.1259 305.877 -47.6507 310.388 -30.4502 314.082C18.9231 324.693 110.593 335.002 169.826 284.781C194.436 263.901 207.559 237.458 217.152 214.343C221.25 204.454 225.029 194.213 228.68 184.306C235.786 165.033 243.127 145.106 253.104 127.171C264.288 107.063 277.71 91.5749 294.135 79.8164C345.633 42.8749 421.109 48.9393 475.355 60.5306C490.583 63.8134 506.066 67.7058 521.043 71.4717C565.882 82.7425 612.252 94.3971 659.662 91.918C709.605 89.2358 755.528 70.388 799.945 52.1588C816.444 45.3901 833.502 38.3865 850.447 32.3582C874.817 23.6884 912.192 13.3298 951.849 13.2305C952.04 13.2305 952.232 13.2305 952.428 13.2305C990.112 13.2305 1021.2 22.5054 1044.83 40.8023C1062.79 54.6514 1075.88 73.3276 1083.74 96.3116C1090.47 116.013 1093.21 138.22 1091.89 162.32C1091.67 166.587 1091.32 171.08 1090.86 175.681C1089.16 192.799 1086.05 210.18 1083.03 226.986C1079.1 248.936 1075.02 271.636 1073.94 294.48C1070.84 360.325 1092.14 423.547 1112.73 484.683C1133.56 546.546 1155.11 610.513 1151.2 676.968C1149.8 699.785 1145.4 722.836 1141.13 745.134C1134.45 780.071 1127.55 816.199 1132.18 851.98C1138.23 898.459 1164.7 943.447 1204.8 975.412C1237.16 1001.23 1279.22 1020.08 1329.79 1031.42C1349.53 1035.83 1370 1038.85 1390.62 1040.37C1522.27 1050.04 1656.68 1001.63 1741.4 914.028C1751.69 903.421 1761.32 892.024 1770.64 881.006C1785.39 863.558 1800.64 845.51 1818.93 830.08C1837.67 814.276 1869.98 805.981 1907.58 807.317C1952.51 808.916 2002.58 823.853 2052.38 850.517L2052.14 850.906C2002.41 824.278 1952.42 809.358 1907.57 807.764C1870.1 806.428 1837.91 814.687 1819.27 830.41C1801 845.812 1785.76 863.843 1771.03 881.277C1761.71 892.304 1752.07 903.706 1741.77 914.322C1700.47 957.025 1645.87 991.415 1583.86 1013.79C1532.23 1032.41 1477.34 1042.01 1423.35 1042.01Z" fill="#8D8D8D" fill-opacity="0.3"/>
<path d="M1423.02 1043.98C1413.05 1043.98 1403.11 1043.65 1393.22 1042.98C1372.54 1041.58 1352 1038.67 1332.2 1034.34C1281.36 1023.2 1239.15 1004.43 1206.75 978.546C1166.64 946.518 1140.32 901.29 1134.53 854.455C1130.21 819.306 1136.97 783.837 1143.51 749.532C1147.93 726.295 1152.52 702.268 1153.64 678.489C1156.63 612.382 1133.06 548.826 1110.26 487.361C1087.21 425.218 1063.38 360.958 1066.89 293.902C1068.15 269.947 1072.95 246.168 1077.6 223.175C1080.84 207.154 1084.19 190.587 1086.26 174.236C1086.86 169.59 1087.33 165.051 1087.68 160.753C1090.24 129.808 1087.86 72.6637 1043.22 37.6774C979.536 -12.4088 878.027 20.1572 848.43 31.3286C831.985 37.5916 815.428 44.7849 799.415 51.7433C754.478 71.2684 708.01 91.4574 657.159 94.3292C652.767 94.5731 648.385 94.686 644.012 94.686C600.759 94.686 558.476 83.3836 517.46 72.4154C502.817 68.5004 487.672 64.45 472.783 61.0047C418.473 48.5147 343.017 41.5472 291.975 79.288C256.029 105.821 242.627 146.298 229.666 185.444C226.236 195.798 222.693 206.504 218.777 216.826C209.816 240.429 197.331 267.405 172.642 288.569C148.508 309.241 116.271 321.271 76.8302 324.323C44.7309 326.807 7.94012 323.163 -29.5671 313.779C-46.424 309.566 -63.5312 304.55 -80.0741 299.695C-129.339 285.241 -180.283 270.299 -234.569 273.316L-234.598 272.864C-180.224 269.839 -129.231 284.799 -79.9219 299.262C-63.384 304.112 -46.2866 309.128 -29.4346 313.341C20.4098 325.809 112.9 339.125 172.309 288.235C196.919 267.143 209.379 240.226 218.315 216.677C222.227 206.364 225.77 195.662 229.195 185.313C235.692 165.688 242.411 145.395 251.862 127.13C262.462 106.648 275.482 90.8839 291.666 78.9358C313.862 62.5219 342.772 53.1567 377.585 51.0931C406.151 49.4043 438.216 52.5877 472.896 60.5667C487.795 64.0165 502.944 68.0669 517.593 71.9819C562.711 84.0429 609.371 96.5193 657.125 93.8777C707.882 91.0103 754.306 70.844 799.204 51.3369C815.222 44.3785 831.784 37.1807 848.239 30.9132C872.643 21.7015 910.126 10.5933 950.092 10.0153C988.335 9.4554 1019.77 18.649 1043.53 37.3343C1088.33 72.4515 1090.72 129.758 1088.16 160.789C1087.81 165.092 1087.33 169.635 1086.74 174.29C1084.66 190.654 1081.31 207.231 1078.07 223.257C1073.43 246.236 1068.62 269.997 1067.37 293.925C1063.86 360.894 1087.69 425.11 1110.72 487.216C1133.54 548.718 1157.12 612.319 1154.12 678.507C1153 702.313 1148.42 726.359 1143.99 749.609C1137.46 783.882 1130.7 819.32 1135.01 854.401C1140.79 901.123 1167.05 946.251 1207.07 978.203C1239.41 1004.04 1281.55 1022.78 1332.31 1033.9C1352.09 1038.23 1372.6 1041.13 1393.26 1042.53C1523.94 1051.34 1661.09 999.914 1742.66 911.513C1752.66 900.703 1762 889.125 1771.03 877.927C1785.5 859.987 1800.47 841.432 1818.56 825.524C1836.47 809.774 1868.39 801.953 1906.13 804.066C1937.7 805.836 1988.69 815.518 2052.39 851.592L2052.14 851.976C1988.53 815.951 1937.61 806.283 1906.1 804.513C1868.5 802.409 1836.71 810.18 1818.9 825.845C1800.84 841.726 1785.89 860.262 1771.42 878.189C1762.38 889.392 1753.04 900.978 1743.03 911.798C1702.64 955.576 1648.53 990.982 1586.55 1014.2C1534.14 1033.83 1478.16 1043.97 1423.02 1043.97V1043.98Z" fill="#8D8D8D" fill-opacity="0.3"/>
<path d="M1422.77 1045.97C1413.77 1045.97 1404.8 1045.7 1395.86 1045.15C1375.13 1043.87 1354.56 1041.07 1334.71 1036.83C1283.7 1025.92 1241.4 1007.26 1209.02 981.346C1168.98 949.331 1142.86 903.963 1137.36 856.88C1133.34 822.386 1139.97 787.562 1146.38 753.885C1150.98 729.736 1155.74 704.765 1156.56 680.038C1158.67 614.098 1133.05 550.813 1108.28 489.614C1095.52 458.105 1082.34 425.525 1073.1 392.986C1062.73 356.487 1058.55 323.894 1060.31 293.351C1061.75 268.394 1067.32 243.635 1072.7 219.694C1076.15 204.364 1079.72 188.514 1082.14 172.841C1082.87 168.136 1083.48 163.553 1083.95 159.222C1087.4 127.794 1086.52 69.765 1041.91 34.2143C977.824 -16.9647 875.927 17.9629 846.222 29.8884C829.998 36.4405 813.681 43.9182 797.904 51.1475C752.726 71.8512 706.018 93.2548 654.618 96.2983C650.211 96.5557 645.814 96.6776 641.427 96.6776C597.878 96.6776 555.351 84.6256 514.089 72.9349C499.74 68.871 484.905 64.667 470.306 61.0546C415.829 47.6344 340.235 39.7549 289.497 78.4168C254.061 105.388 241.886 146.619 230.113 186.496C226.928 197.284 223.635 208.437 219.925 219.17C211.617 243.211 199.79 270.67 175.106 292.042C151.045 312.863 118.637 324.531 78.7836 326.721C37.6252 328.979 -2.32591 320.539 -28.5903 313.057C-45.1577 308.343 -61.9508 302.829 -78.1943 297.497C-128.029 281.137 -179.561 264.222 -234.367 266.746L-234.392 266.294C-179.488 263.766 -127.911 280.694 -78.0274 297.072C-61.7937 302.4 -45.0006 307.914 -28.4431 312.628C12.0626 324.165 112.944 345.221 174.772 291.717C199.378 270.417 211.17 243.026 219.459 219.039C223.164 208.315 226.457 197.166 229.637 186.383C235.541 166.397 241.64 145.73 250.577 127.126C260.598 106.264 273.225 90.2159 289.183 78.0736C311.193 61.3029 340.063 51.87 374.989 50.0322C403.668 48.524 435.782 52.0868 470.433 60.6211C485.038 64.2335 499.882 68.442 514.232 72.506C559.606 85.3617 606.52 98.6554 654.583 95.8512C705.885 92.8168 752.555 71.4313 797.683 50.7502C813.465 43.5163 829.787 36.0386 846.026 29.482C870.396 19.6969 907.928 7.81653 948.311 6.76442C986.848 5.76197 1018.45 14.8833 1042.23 33.8802C1060.1 48.1176 1072.66 67.426 1079.58 91.268C1085.43 111.407 1087.11 134.924 1084.43 159.272C1083.96 163.611 1083.35 168.204 1082.62 172.913C1080.2 188.6 1076.63 204.459 1073.18 219.793C1067.8 243.721 1062.23 268.462 1060.79 293.383C1056.88 361.369 1083.24 426.487 1108.73 489.465C1133.52 550.705 1159.16 614.035 1157.04 680.061C1156.22 704.82 1151.46 729.809 1146.86 753.971C1140.45 787.616 1133.83 822.408 1137.84 856.839C1143.34 903.81 1169.39 949.069 1209.33 981.012C1241.66 1006.87 1283.88 1025.51 1334.82 1036.4C1354.64 1040.63 1375.19 1043.43 1395.89 1044.7C1527.58 1052.8 1664.19 999.539 1743.9 909.016C1753.62 897.998 1762.69 886.231 1771.46 874.847C1785.65 856.424 1800.33 837.377 1818.18 820.982C1826.17 813.639 1837.9 807.891 1852.09 804.369C1867.51 800.54 1885.2 799.352 1904.68 800.838C1936.48 803.267 1987.92 814.235 2052.4 852.685L2052.14 853.064C1987.75 814.664 1936.39 803.714 1904.65 801.285C1866.91 798.404 1835.51 805.696 1818.52 821.298C1800.71 837.662 1786.04 856.695 1771.86 875.105C1763.09 886.493 1754.02 898.265 1744.29 909.296C1704.79 954.144 1651.18 990.571 1589.23 1014.63C1536.08 1035.28 1479.04 1045.97 1422.77 1045.97V1045.97Z" fill="#8D8D8D" fill-opacity="0.3"/>
<path d="M1422.59 1047.97C1414.54 1047.97 1406.51 1047.75 1398.5 1047.31C1377.73 1046.15 1357.12 1043.47 1337.23 1039.32C1286.02 1028.64 1243.65 1010.07 1211.28 984.141C1171.32 952.135 1145.41 906.632 1140.18 859.305C1136.46 825.425 1142.97 791.21 1149.28 758.121C1154.05 733.096 1158.98 707.222 1159.48 681.587C1160.72 615.733 1133.06 552.637 1106.31 491.623C1092.32 459.708 1077.86 426.708 1067.73 393.749C1056.38 356.785 1051.8 323.763 1053.74 292.796C1055.36 266.917 1061.72 241.246 1067.87 216.425C1071.52 201.717 1075.29 186.505 1078.02 171.441C1078.9 166.618 1079.62 162.116 1080.22 157.682C1084.57 125.78 1085.21 66.8657 1040.61 30.746C976.111 -21.5528 873.836 15.759 844.023 28.4431C827.996 35.2796 811.895 43.0418 796.323 50.5466C750.935 72.4244 704 95.0471 652.08 98.2577C603.639 101.233 556.45 87.0998 510.806 73.4358C496.727 69.2183 482.171 64.8608 467.837 61.0859C423.106 49.3365 340.132 35.8441 287.024 77.5269C252.078 104.941 241.115 146.94 230.515 187.561C227.59 198.769 224.567 210.356 221.083 221.491C213.864 244.547 202.396 273.794 177.579 295.491C153.592 316.461 121.012 327.768 80.7415 329.096C78.0669 329.182 75.3875 329.227 72.7277 329.227C33.8709 329.227 -2.92476 320.187 -27.609 312.312C-43.9408 307.101 -60.4738 301.104 -76.467 295.297C-126.822 277.023 -178.894 258.13 -234.156 260.153L-234.176 259.701C-178.811 257.683 -126.689 276.589 -76.2854 294.877C-60.2971 300.68 -43.769 306.676 -27.447 311.883C13.4267 324.924 115.196 349.407 177.241 295.162C201.969 273.537 213.408 244.362 220.607 221.365C224.091 210.238 227.114 198.656 230.034 187.453C235.349 167.097 240.84 146.05 249.266 127.107C258.718 105.857 270.967 89.5247 286.7 77.1837C308.523 60.0563 337.349 50.5557 372.393 48.9436C401.19 47.6206 433.348 51.5581 467.969 60.6524C482.309 64.4274 496.869 68.7894 510.953 73.0023C556.548 86.6573 603.698 100.773 652.041 97.8061C703.858 94.6001 750.748 71.9999 796.088 50.1447C811.664 42.6354 827.77 34.8732 843.812 28.0277C868.148 17.6736 905.724 5.01657 946.529 3.49484C985.356 2.04535 1017.12 11.099 1040.93 30.4029C1058.75 44.8345 1071.05 64.459 1077.51 88.7299C1082.96 109.239 1084.06 133.099 1080.7 157.732C1080.1 162.175 1079.38 166.681 1078.5 171.509C1075.77 186.59 1072 201.803 1068.35 216.519C1062.2 241.323 1055.85 266.971 1054.23 292.818C1049.91 361.734 1078.82 427.674 1106.77 491.447C1133.54 552.506 1161.21 615.642 1159.97 681.587C1159.47 707.258 1154.54 733.15 1149.77 758.188C1143.47 791.247 1136.96 825.429 1140.68 859.246C1145.89 906.465 1171.74 951.859 1211.61 983.789C1243.92 1009.67 1286.22 1028.2 1337.35 1038.87C1357.21 1043.01 1377.8 1045.69 1398.54 1046.85C1531.24 1054.21 1667.3 999.119 1745.17 906.487C1754.63 895.248 1763.43 883.282 1771.95 871.713C1785.86 852.825 1800.24 833.295 1817.81 816.412C1833.85 801 1865.79 793.96 1903.26 797.582C1935.29 800.68 1987.17 812.935 2052.42 853.75L2052.15 854.125C1986.98 813.364 1935.18 801.122 1903.21 798.033C1865.89 794.426 1834.1 801.416 1818.17 816.728C1800.63 833.584 1786.26 853.096 1772.36 871.971C1763.84 883.548 1755.02 895.519 1745.56 906.767C1706.96 952.686 1653.83 990.128 1591.93 1015.04C1538.07 1036.72 1479.99 1047.96 1422.61 1047.97L1422.59 1047.97Z" fill="#8D8D8D" fill-opacity="0.3"/>
<path d="M1422.33 1050C1394.22 1050 1366.55 1047.26 1339.74 1041.81C1288.36 1031.36 1245.91 1012.9 1213.55 986.936C1173.66 954.939 1147.95 909.3 1143.01 861.725C1139.55 828.427 1145.98 794.782 1152.19 762.248C1157.14 736.387 1162.24 709.646 1162.4 683.136C1162.78 617.299 1133.08 554.33 1104.36 493.439C1089.12 461.148 1073.38 427.76 1062.36 394.418C1050 357.024 1045.03 323.605 1047.16 292.245C1048.97 265.508 1056.15 238.993 1063.08 213.354C1068.13 194.696 1073.36 175.405 1076.49 156.142C1085.43 101.057 1071.88 54.0868 1039.3 27.2781C987.712 -15.1768 903.462 -0.704572 841.815 26.9937C825.964 34.1147 810.055 42.1658 794.665 49.9461C749.085 73.0024 701.954 96.8398 649.534 100.222C600.838 103.36 553.432 88.4048 507.592 73.9371C493.758 69.5706 479.453 65.0596 465.364 61.1265C420.5 48.605 337.354 33.9702 284.551 76.6464C250.076 104.507 240.316 147.292 230.874 188.668C221.687 228.937 212.186 270.575 180.048 298.955C156.129 320.078 123.377 331.02 82.6997 331.48C81.8115 331.489 80.9134 331.494 80.0252 331.494C38.6116 331.494 -0.706436 320.724 -26.6273 311.571C-42.7628 305.877 -59.0848 299.393 -74.8719 293.125C-125.708 272.936 -178.276 252.061 -233.945 253.565L-233.96 253.113C-178.178 251.605 -125.56 272.498 -74.6756 292.71C-58.8934 298.977 -42.5715 305.457 -26.4457 311.151C5.73207 322.508 115.692 355.169 179.709 298.625C211.735 270.34 221.221 228.77 230.393 188.568C235.124 167.837 240.011 146.407 247.937 127.112C256.829 105.469 268.7 88.8474 284.222 76.2987C305.854 58.8146 334.65 49.2462 369.797 47.8599C398.309 46.731 431.405 51.1698 465.501 60.6885C479.6 64.6216 493.905 69.1371 507.744 73.5036C553.54 87.9533 600.896 102.895 649.494 99.7614C701.807 96.3883 748.889 72.5734 794.425 49.5397C809.814 41.7549 825.729 33.7037 841.594 26.5782C875.941 11.1442 912.575 1.78348 944.743 0.225626C963.195 -0.668448 980.331 0.925532 995.682 4.9579C1012.49 9.3786 1027.28 16.7705 1039.62 26.9305C1057.4 41.5608 1069.44 61.5013 1075.42 86.1967C1080.48 107.077 1081.01 131.284 1076.96 156.196C1073.83 175.478 1068.61 194.782 1063.55 213.449C1056.62 239.07 1049.44 265.562 1047.64 292.258C1042.91 362.037 1074.37 428.736 1104.8 493.24C1133.54 554.177 1163.26 617.187 1162.88 683.122C1162.72 709.669 1157.61 736.433 1152.67 762.311C1146.46 794.814 1140.04 828.427 1143.49 861.666C1148.42 909.129 1174.07 954.659 1213.86 986.579C1246.16 1012.49 1288.55 1030.92 1339.84 1041.35C1489.82 1071.85 1657 1015.35 1746.39 903.968C1755.59 892.503 1764.16 880.333 1772.45 868.566C1786.07 849.226 1800.15 829.227 1817.4 811.851C1832.64 796.494 1864.2 789.946 1901.8 794.335C1934.06 798.101 1986.37 811.657 2052.4 854.821L2052.11 855.191C1986.17 812.081 1933.94 798.548 1901.74 794.787C1864.3 790.411 1832.9 796.909 1817.76 812.158C1800.54 829.507 1786.47 849.492 1772.86 868.814C1764.57 880.586 1755.99 892.765 1746.79 904.239C1724.83 931.603 1697.84 956.086 1666.56 977.015C1636.07 997.421 1602.23 1013.97 1565.98 1026.23C1529.72 1038.48 1492.07 1046.08 1454.04 1048.83C1443.42 1049.6 1432.84 1049.98 1422.32 1049.98L1422.33 1050Z" fill="#8D8D8D" fill-opacity="0.3"/>
</g>
<defs>
<clipPath id="clip0_617_729">
<rect width="1920" height="1050" fill="white" transform="translate(-1)"/>
</clipPath>
</defs>
</svg>
