<svg width="32" height="32" viewBox="0 0 32 32" fill="none" xmlns="http://www.w3.org/2000/svg">
<path d="M23.3149 0.726074C25.5988 0.726074 27.7892 1.63412 29.4042 3.25045C31.0192 4.86679 31.9264 7.059 31.9264 9.34484V23.1349C31.9264 25.4207 31.0192 27.6129 29.4042 29.2293C27.7892 30.8456 25.5988 31.7536 23.3149 31.7536H9.53637C7.25244 31.7536 5.06206 30.8456 3.44707 29.2293C1.83209 27.6129 0.924805 25.4207 0.924805 23.1349V9.34484C0.924805 7.059 1.83209 4.86679 3.44707 3.25045C5.06206 1.63412 7.25244 0.726074 9.53637 0.726074H23.3149ZM16.4256 9.34484C14.5985 9.34484 12.8462 10.0713 11.5542 11.3643C10.2622 12.6574 9.53637 14.4112 9.53637 16.2399C9.53637 18.0685 10.2622 19.8223 11.5542 21.1154C12.8462 22.4084 14.5985 23.1349 16.4256 23.1349C18.2528 23.1349 20.0051 22.4084 21.2971 21.1154C22.589 19.8223 23.3149 18.0685 23.3149 16.2399C23.3149 14.4112 22.589 12.6574 21.2971 11.3643C20.0051 10.0713 18.2528 9.34484 16.4256 9.34484ZM16.4256 12.7924C17.3392 12.7924 18.2153 13.1556 18.8613 13.8021C19.5073 14.4486 19.8702 15.3255 19.8702 16.2399C19.8702 17.1542 19.5073 18.0311 18.8613 18.6776C18.2153 19.3241 17.3392 19.6874 16.4256 19.6874C15.5121 19.6874 14.6359 19.3241 13.9899 18.6776C13.3439 18.0311 12.981 17.1542 12.981 16.2399C12.981 15.3255 13.3439 14.4486 13.9899 13.8021C14.6359 13.1556 15.5121 12.7924 16.4256 12.7924ZM24.176 6.75921C23.7192 6.75921 23.2812 6.94082 22.9582 7.26409C22.6352 7.58736 22.4537 8.0258 22.4537 8.48297C22.4537 8.94014 22.6352 9.37858 22.9582 9.70184C23.2812 10.0251 23.7192 10.2067 24.176 10.2067C24.6328 10.2067 25.0709 10.0251 25.3939 9.70184C25.7169 9.37858 25.8983 8.94014 25.8983 8.48297C25.8983 8.0258 25.7169 7.58736 25.3939 7.26409C25.0709 6.94082 24.6328 6.75921 24.176 6.75921Z" fill="white"/>
</svg>
