<svg width="37" height="23" viewBox="0 0 37 23" fill="none" xmlns="http://www.w3.org/2000/svg">
<path d="M34.5869 22.2369H30.6566C29.1703 22.2369 28.7225 21.032 26.0581 18.3636C23.7295 16.1175 22.746 15.8383 22.157 15.8383C21.3424 15.8383 21.1202 16.0624 21.1202 17.1845V20.7217C21.1202 21.6784 20.8102 22.2386 18.3128 22.2386C15.89 22.0757 13.5406 21.339 11.4579 20.0893C9.37534 18.8396 7.61918 17.1126 6.33412 15.0505C3.28392 11.249 1.16099 6.78831 0.133789 2.0224C0.133789 1.43287 0.35769 0.89851 1.48064 0.89851H5.40751C6.41679 0.89851 6.7802 1.34841 7.17633 2.38783C9.08293 8.00382 12.3364 12.8889 13.6574 12.8889C14.1638 12.8889 14.3842 12.6649 14.3842 11.4013V5.61642C14.2171 2.97736 12.8169 2.75499 12.8169 1.80003C12.8346 1.54809 12.9498 1.31298 13.1379 1.14465C13.326 0.976316 13.5723 0.888018 13.8245 0.89851H19.9972C20.8412 0.89851 21.1202 1.31911 21.1202 2.32923V10.1378C21.1202 10.9807 21.4819 11.26 21.7368 11.26C22.2431 11.26 22.6324 10.9807 23.5607 10.0534C25.5498 7.62401 27.1754 4.91815 28.3866 2.02067C28.51 1.67241 28.7441 1.37425 29.053 1.17188C29.3619 0.969504 29.7286 0.874082 30.0969 0.900233H34.0255C35.2035 0.900233 35.4533 1.48976 35.2035 2.33095C33.7743 5.5342 32.0063 8.57501 29.9298 11.4013C29.5061 12.0477 29.3373 12.3839 29.9298 13.1423C30.3191 13.7319 31.6969 14.8833 32.6218 15.9779C33.9686 17.3224 35.0864 18.8773 35.9321 20.5803C36.2696 21.6766 35.7082 22.2369 34.5869 22.2369Z" fill="white"/>
</svg>
